<svg width="193" height="247" viewBox="0 0 193 247" fill="none" xmlns="http://www.w3.org/2000/svg">
<rect y="0.00634766" width="173.545" height="246.968" rx="9" fill="url(#paint0_linear_52_4534)"/>
<mask id="mask0_52_4534" style="mask-type:luminance" maskUnits="userSpaceOnUse" x="14" y="-1" width="179" height="248">
<path d="M14.8648 -0.00015367L14.7549 246.921L192.686 247L192.796 0.0790419L14.8648 -0.00015367Z" fill="white"/>
</mask>
<g mask="url(#mask0_52_4534)">
<path d="M156.006 255.708C159.703 245.298 159.597 233.754 155.665 223.423C151 211.137 141.396 201.029 131.347 191.909C121.298 182.789 110.492 174.183 102.468 163.501C94.4435 152.797 89.3562 139.399 92.4756 126.705C94.4364 118.743 99.4662 111.584 101.004 103.539C105.864 78.088 75.048 55.1106 80.842 29.8244C83.3156 19.0227 92.1938 10.3433 95.6904 -0.231605C100.278 -14.0571 94.1914 -30.3155 81.3396 -38.5725" stroke="#62A8B2" stroke-width="0.2" stroke-miterlimit="10"/>
<path d="M153.96 256.571C156.566 247.745 156.881 238.033 154.906 228.917C154.529 227.126 154.04 225.356 153.485 223.628C151.175 216.507 147.486 210.127 143.173 204.343C139.884 199.917 136.238 195.821 132.414 191.827C130.169 189.48 127.857 187.134 125.478 184.725C119.987 179.229 114.006 173.67 108.604 167.865C107.048 166.198 105.559 164.51 104.136 162.801C100.579 158.52 97.4899 153.868 95.2234 149.011C92.0237 142.137 90.4478 134.832 91.7188 127.548C93.079 119.791 97.486 112.632 98.8686 104.526C99.0693 103.312 99.2032 102.118 99.2927 100.925C99.8077 93.1884 97.7871 85.7387 94.6988 78.3092C89.7665 66.4548 82.054 54.7226 79.724 42.7459C78.9251 38.6302 78.7713 34.4942 79.5738 30.2763C81.179 21.8817 86.4311 14.7028 90.3268 6.94709C91.4621 4.66358 92.5085 2.31829 93.2658 -0.109428C97.7426 -14.079 92.5008 -30.2958 81.0724 -38.4699" stroke="#69A3AE" stroke-width="0.2" stroke-miterlimit="10"/>
<path d="M151.935 257.435C154.075 248.464 154.235 238.546 152.526 229.245C152.193 227.414 151.794 225.623 151.305 223.853C149.329 216.609 146.196 210.106 142.595 204.302C139.817 199.876 136.794 195.821 133.504 191.746C131.57 189.358 129.547 186.95 127.347 184.418C122.3 178.654 116.187 172.828 110.518 167.064C108.895 165.417 107.316 163.77 105.783 162.082C102.003 157.924 98.6246 153.519 96.0467 148.929C92.4242 142.405 90.2476 135.511 90.9625 128.412C91.6998 120.881 95.5286 113.681 96.7555 105.533C96.9339 104.319 97.0679 103.105 97.1352 101.891C97.6502 94.0931 96.0966 86.6436 93.3198 79.1525C88.9213 67.1954 81.3201 55.2575 78.7677 43.219C77.9021 39.1033 77.6371 34.9261 78.2839 30.7081C79.5777 22.2928 84.3628 14.9902 88.0139 7.11094C89.0826 4.78625 90.0622 2.42037 90.8195 -0.0279246C95.1629 -14.1211 90.8108 -30.3169 80.7835 -38.4286" stroke="#719DAA" stroke-width="0.2" stroke-miterlimit="10"/>
<path d="M149.911 258.298C151.561 249.183 151.61 239.06 150.168 229.553C149.88 227.68 149.547 225.849 149.148 224.058C147.483 216.67 144.928 210.044 142.017 204.24C139.773 199.815 137.35 195.78 134.572 191.664C132.949 189.256 131.216 186.745 129.193 184.11C124.591 178.099 118.344 171.965 112.408 166.283C110.719 164.657 109.029 163.03 107.429 161.404C103.405 157.369 99.7589 153.211 96.8695 148.868C92.8021 142.714 89.7579 136.21 90.1836 129.297C90.6316 122.013 93.5485 114.771 94.6197 106.561C94.7759 105.347 94.8877 104.113 94.9772 102.899C95.4923 95.0387 94.4057 87.5894 91.9625 80.0573C88.0979 67.9976 80.6302 55.8746 77.8554 43.733C76.9231 39.5967 76.5469 35.4195 77.0381 31.1809C78.0205 22.7243 82.3386 15.3186 85.7451 7.3363C86.747 4.991 87.6822 2.58394 88.4173 0.115062C92.6495 -14.1222 89.1425 -30.2765 80.5387 -38.3258" stroke="#7898A6" stroke-width="0.2" stroke-miterlimit="10"/>
<path d="M147.864 259.162C149.025 249.923 148.963 239.573 147.766 229.881C147.544 227.988 147.256 226.115 146.946 224.284C145.614 216.752 143.638 210.022 141.394 204.198C139.684 199.773 137.839 195.76 135.617 191.603C134.306 189.153 132.861 186.581 131.017 183.823C126.838 177.545 120.48 171.143 114.299 165.502C112.521 163.876 110.764 162.311 109.052 160.726C104.806 156.814 100.871 152.882 97.67 148.807C93.1798 143.023 89.8464 136.931 89.4046 130.161C88.9406 123.103 91.5461 115.82 92.4839 107.569C92.6179 106.334 92.7297 105.1 92.7969 103.886C93.312 95.9638 92.6926 88.5147 90.5608 80.9209C87.2077 68.7586 79.8736 56.4505 76.8764 44.2266C75.8774 40.0696 75.39 35.8923 75.7255 31.6536C76.4187 23.1557 80.2476 15.6469 83.4317 7.56168C84.3669 5.17519 85.2576 2.74754 85.9705 0.258067C90.0915 -14.1232 87.452 -30.2566 80.2493 -38.2024" stroke="#8092A2" stroke-width="0.2" stroke-miterlimit="10"/>
<path d="M145.84 260.025C146.511 250.642 146.316 240.065 145.408 230.209C145.231 228.275 145.01 226.361 144.788 224.488C143.791 216.813 142.37 209.96 140.816 204.136C139.639 199.712 138.395 195.74 136.707 191.5C135.707 189.01 134.53 186.376 132.885 183.494C129.151 176.97 122.682 170.279 116.212 164.68C114.367 163.074 112.522 161.53 110.721 160.006C106.252 156.239 102.028 152.533 98.5153 148.725C93.5801 143.311 89.6904 137.63 88.648 131.024C87.5835 124.192 89.5884 116.888 90.3706 108.576C90.4823 107.341 90.5719 106.086 90.6614 104.852C91.1765 96.868 91.0019 89.4192 89.226 81.7638C86.3623 69.4988 79.1839 56.9849 75.9866 44.6992C74.9209 40.5216 74.3222 36.3443 74.5021 32.085C74.884 23.5458 78.2458 15.9339 81.1853 7.72511C82.0538 5.29744 82.9001 2.84919 83.5907 0.318554C87.6006 -14.1863 85.8062 -30.2986 80.027 -38.1821" stroke="#878D9E" stroke-width="0.2" stroke-miterlimit="10"/>
<path d="M143.815 260.888C144.02 251.382 143.691 240.579 143.028 230.517C142.896 228.541 142.763 226.586 142.586 224.693C141.922 216.894 141.058 209.918 140.193 204.074C139.528 199.629 138.907 195.678 137.752 191.418C137.064 188.887 136.175 186.191 134.709 183.186C131.398 176.395 124.818 169.437 118.103 163.878C116.169 162.293 114.257 160.769 112.345 159.307C107.631 155.663 103.118 152.204 99.316 148.643C93.9581 143.579 89.4899 138.35 87.8691 131.868C86.2262 125.282 87.6084 117.917 88.2349 109.563C88.3244 108.308 88.414 107.073 88.4812 105.818C88.9964 97.752 89.2888 90.3239 87.8243 82.6275C85.4945 70.2599 78.4496 57.5609 75.0077 45.1927C73.853 41.0151 73.1654 36.7966 73.1895 32.5372C73.2601 23.9568 76.1549 16.2418 78.8498 7.93C79.6516 5.48173 80.4312 2.99226 81.1218 0.44105C85.0205 -14.2079 84.0935 -30.2787 79.6932 -38.0998" stroke="#8F8799" stroke-width="0.2" stroke-miterlimit="10"/>
<path d="M141.769 261.752C141.484 252.101 141.044 241.092 140.648 230.845C140.56 228.828 140.494 226.853 140.406 224.919C140.076 216.976 139.768 209.897 139.593 204.033C139.461 199.588 139.463 195.658 138.82 191.357C138.443 188.785 137.844 186.027 136.577 182.899C133.711 175.861 126.998 168.615 120.016 163.097C118.015 161.512 115.992 160.05 114.013 158.629C109.077 155.108 104.274 151.896 100.161 148.602C94.3582 143.929 89.3338 139.091 87.1347 132.773C84.9134 126.434 85.6507 119.027 86.1437 110.611C86.211 109.356 86.2783 108.101 86.3678 106.825C86.9052 98.6976 87.6425 91.2698 86.5116 83.5119C84.6934 71.0415 77.7821 58.1368 74.14 45.7069C72.9186 41.5087 72.1198 37.2901 71.9883 33.0101C71.7474 24.3883 74.1752 16.5702 76.6255 8.15542C77.3606 5.66597 78.0957 3.15595 78.7641 0.584151C82.5517 -14.2088 82.4699 -30.2382 79.493 -37.9763" stroke="#968295" stroke-width="0.2" stroke-miterlimit="10"/>
<path d="M139.745 262.615C138.97 252.82 138.397 241.605 138.268 231.173C138.247 229.115 138.226 227.098 138.227 225.144C138.23 217.057 138.478 209.855 138.992 204.012C139.372 199.567 139.997 195.658 139.865 191.296C139.8 188.682 139.467 185.863 138.401 182.612C135.958 175.306 129.133 167.792 121.885 162.316C119.795 160.751 117.705 159.31 115.615 157.951C110.434 154.553 105.364 151.588 100.94 148.54C94.6918 144.237 89.1334 139.831 86.3115 133.636C83.534 127.565 83.6263 120.075 83.9637 111.598C84.0088 110.342 84.076 109.067 84.1656 107.791C84.703 99.6017 85.9074 92.1741 85.0879 84.3751C83.8035 71.8022 77.0257 58.7123 73.139 46.1999C71.8509 41.9811 70.9409 37.7625 70.6537 33.4618C70.1015 24.8194 72.04 16.8982 74.2902 8.33926C74.9585 5.82919 75.6492 3.278 76.2731 0.685605C79.9273 -14.2309 80.7351 -30.2393 79.1594 -37.9151" stroke="#9E7D91" stroke-width="0.2" stroke-miterlimit="10"/>
<path d="M137.72 263.478C136.457 253.56 135.773 242.119 135.911 231.48C135.934 229.402 136.002 227.345 136.069 225.328C136.384 217.098 137.21 209.793 138.414 203.929C139.328 199.485 140.553 195.597 140.955 191.193C141.201 188.539 141.158 185.658 140.27 182.283C138.271 174.731 131.336 166.909 123.82 161.514C121.664 159.97 119.485 158.549 117.306 157.252C111.902 153.998 106.543 151.259 101.807 148.459C95.1366 144.505 89.0442 140.531 85.5995 134.5C82.2659 128.676 81.7132 121.144 81.8727 112.605C81.8955 111.329 81.9405 110.054 82.0301 108.757C82.5675 100.506 84.2167 93.0789 83.7531 85.2183C82.9803 72.5427 76.3361 59.2678 72.2492 46.673C70.8944 42.4542 69.8732 38.1943 69.4303 33.9142C68.5667 25.2304 70.0382 17.2061 72.0438 8.54421C72.6232 5.99295 73.2916 3.42117 73.8933 0.787614C77.4364 -14.273 79.0893 -30.2398 78.937 -37.8533" stroke="#A5778D" stroke-width="0.2" stroke-miterlimit="10"/>
<path d="M135.674 264.341C133.921 254.279 133.126 242.632 133.509 231.809C133.576 229.689 133.711 227.59 133.867 225.553C134.516 217.179 135.898 209.772 137.791 203.888C139.239 199.444 141.087 195.576 142.001 191.132C142.558 188.416 142.804 185.494 142.094 181.996C140.518 174.197 133.471 166.086 125.689 160.733C123.466 159.189 121.198 157.83 118.929 156.574C113.304 153.443 107.656 150.951 102.608 148.418C95.4923 144.834 88.8659 141.292 84.7984 135.405C80.9308 129.807 79.6887 122.234 79.7148 113.654C79.7153 112.378 79.7604 111.082 79.8499 109.785C80.3874 101.472 82.5037 94.0452 82.3737 86.1231C82.1348 73.3448 75.6018 59.8642 71.2926 47.2075C69.871 42.9681 68.7386 38.7082 68.14 34.4074C66.9651 25.6823 67.9696 17.555 69.7306 8.79006C70.2433 6.21819 70.8449 3.60522 71.4466 0.951087C74.8786 -14.2536 77.3989 -30.1789 78.6478 -37.7094" stroke="#AD7289" stroke-width="0.2" stroke-miterlimit="10"/>
<path d="M133.65 265.204C131.43 255.018 130.479 243.145 131.151 232.137C131.285 229.976 131.464 227.857 131.71 225.779C132.692 217.281 134.631 209.73 137.213 203.846C139.172 199.403 141.643 195.535 143.091 191.05C143.959 188.293 144.472 185.289 143.962 181.688C142.809 173.621 135.651 165.244 127.602 159.931C125.29 158.407 122.933 157.069 120.576 155.854C114.705 152.847 108.79 150.602 103.431 148.315C95.8926 145.102 88.7545 141.971 84.0419 136.228C79.6405 130.876 77.7311 123.262 77.6015 114.62C77.5799 113.323 77.6027 112.027 77.6922 110.71C78.2298 102.315 80.8131 94.9084 80.9945 86.9453C81.2894 74.0644 74.89 60.3986 70.3584 47.6596C68.8701 43.3995 67.6043 39.1396 66.8722 34.8182C65.386 26.0518 65.9234 17.8213 67.462 8.93287C67.908 6.31982 68.4652 3.68625 69.0447 1.01153C72.3655 -14.3167 75.731 -30.221 78.4033 -37.6891" stroke="#B46C85" stroke-width="0.2" stroke-miterlimit="10"/>
<path d="M131.625 266.068C128.916 255.737 127.854 243.658 128.771 232.444C128.95 230.243 129.195 228.082 129.53 225.983C130.846 217.342 133.34 209.688 136.612 203.784C139.083 199.341 142.199 195.494 144.158 190.968C145.36 188.17 146.14 185.105 145.808 181.38C145.078 173.067 137.809 164.401 129.515 159.13C127.136 157.626 124.69 156.308 122.244 155.155C116.151 152.292 109.947 150.252 104.276 148.233C96.3148 145.37 88.6428 142.65 83.2851 137.092C78.3498 131.966 75.7732 124.31 75.4879 115.627C75.444 114.331 75.4668 113.014 75.5564 111.697C76.0939 103.24 79.1443 95.8337 79.6594 87.809C80.4659 74.8049 74.2 60.9745 69.446 48.1531C67.891 43.893 66.514 39.6125 65.6263 35.2704C63.8286 26.4627 63.8991 18.1292 65.1931 9.13774C65.5724 6.48351 66.0851 3.82933 66.6423 1.13403C69.852 -14.3383 74.0849 -30.2216 78.1584 -37.6069" stroke="#BC6781" stroke-width="0.2" stroke-miterlimit="10"/>
<path d="M129.579 266.931C126.381 256.477 125.207 244.172 126.391 232.773C126.615 230.53 126.949 228.328 127.35 226.188C129 217.403 132.028 209.626 136.035 203.722C139.039 199.279 142.777 195.454 145.226 190.887C146.74 188.048 147.786 184.921 147.655 181.073C147.369 172.513 139.967 163.558 131.406 158.328C128.938 156.825 126.425 155.569 123.868 154.456C117.531 151.717 111.059 149.924 105.077 148.172C96.6709 145.679 88.5094 143.35 82.5066 137.956C77.0596 133.056 73.7713 125.38 73.3526 116.634C73.2865 115.338 73.2871 114.001 73.3766 112.684C73.9364 104.165 77.4316 96.7591 78.2582 88.6728C79.5985 75.566 73.4439 61.5299 68.4898 48.6467C66.8458 44.366 65.3798 40.0648 64.3364 35.7432C62.2274 26.8943 61.8308 18.4577 62.8802 9.3632C63.1928 6.68836 63.661 3.99301 64.196 1.25654C67.2945 -14.3598 72.3726 -30.2017 77.8695 -37.5245" stroke="#C3617D" stroke-width="0.2" stroke-miterlimit="10"/>
<path d="M127.554 267.794C123.867 257.196 122.56 244.684 124.011 233.1C124.301 230.817 124.68 228.594 125.17 226.413C127.131 217.484 130.738 209.605 135.434 203.681C138.95 199.238 143.333 195.433 146.293 190.805C148.14 187.945 149.454 184.736 149.5 180.765C149.638 171.937 142.146 162.715 133.319 157.547C130.784 156.064 128.182 154.828 125.536 153.778C118.976 151.162 112.215 149.615 105.922 148.11C97.0929 145.987 88.4196 144.049 81.7718 138.84C75.7909 134.146 71.8354 126.449 71.261 117.662C71.1726 116.345 71.1732 115.028 71.2628 113.67C71.8227 105.09 75.7849 97.684 76.9451 89.5567C78.8192 76.3473 72.7982 62.1261 67.5994 49.1604C65.8888 44.8591 64.3116 40.5579 63.1124 36.2156C60.6699 27.3254 59.8285 18.7857 60.6555 9.56767C60.9014 6.85165 61.3029 4.11512 61.838 1.37865C64.8031 -14.3612 70.7708 -30.1821 77.6688 -37.422" stroke="#CB5C79" stroke-width="0.2" stroke-miterlimit="10"/>
<path d="M125.53 268.658C121.376 257.915 119.936 245.177 121.653 233.408C121.988 231.104 122.434 228.82 123.013 226.619C125.308 217.566 129.449 209.543 134.856 203.619C138.883 199.156 143.912 195.413 147.383 190.723C149.542 187.823 151.123 184.552 151.391 180.457C151.952 171.383 144.349 161.852 135.255 156.745C132.653 155.283 129.94 154.089 127.205 153.079C120.4 150.586 113.373 149.287 106.767 148.029C97.4936 146.255 88.3086 144.728 81.0156 139.704C74.5009 135.236 69.8781 127.518 69.1481 118.67C69.0375 117.353 69.0158 116.015 69.1054 114.657C69.6653 105.995 74.0946 98.6095 75.5662 90.4206C77.9519 77.1085 72.0644 62.6816 66.6655 49.6541C64.8881 45.3322 63.1997 41.0309 61.8449 36.668C59.091 27.7571 57.7826 19.0937 58.365 9.77268C58.5441 7.03605 58.9012 4.25836 59.3918 1.5013C62.2458 -14.3827 69.0586 -30.162 77.3579 -37.3396" stroke="#D25775" stroke-width="0.2" stroke-miterlimit="10"/>
<path d="M123.483 269.521C118.84 258.655 117.288 245.691 119.251 233.736C119.63 231.391 120.165 229.087 120.811 226.844C123.44 217.647 128.136 209.522 134.233 203.598C138.794 199.135 144.445 195.413 148.429 190.682C150.899 187.741 152.768 184.408 153.215 180.19C154.198 170.869 146.485 161.051 137.123 155.985C134.433 154.523 131.653 153.369 128.829 152.421C121.802 150.073 114.485 148.979 107.568 148.009C97.8713 146.605 88.1746 145.448 80.2366 140.609C73.2102 136.347 67.8757 128.608 67.0123 119.697C66.8794 118.36 66.8578 117.022 66.9474 115.644C67.5073 106.92 72.4259 99.5347 74.2089 91.3048C77.1507 77.8901 71.3745 63.278 65.731 50.1681C63.8869 45.8462 62.0873 41.5037 60.5768 37.1408C57.5115 28.1885 55.7361 19.422 56.0739 9.99802C56.1863 7.22021 56.4989 4.42194 56.9673 1.64429C59.7101 -14.3838 67.3904 -30.1216 77.0908 -37.2368" stroke="#DA5170" stroke-width="0.2" stroke-miterlimit="10"/>
<path d="M121.459 270.384C116.326 259.374 114.642 246.204 116.893 234.044C117.339 231.657 117.919 229.312 118.631 227.028C121.594 217.687 126.846 209.439 133.632 203.515C138.705 199.053 144.979 195.352 149.474 190.559C152.278 187.577 154.392 184.183 155.039 179.841C156.445 170.253 148.62 160.167 139.014 155.142C136.257 153.7 133.388 152.567 130.453 151.681C123.203 149.456 115.597 148.609 108.369 147.885C98.2272 146.852 88.041 146.066 79.4356 141.432C71.8754 137.354 65.8736 129.635 64.8323 120.663C64.6772 119.326 64.6333 117.968 64.7229 116.589C65.2828 107.803 70.6685 100.419 72.7629 92.127C76.2386 78.6097 70.5736 63.8125 64.73 50.6202C62.8192 46.2777 60.8861 41.9351 59.2422 37.5721C55.8433 28.5785 53.6231 19.709 53.7163 10.1614C53.7398 7.363 54.0302 4.52354 54.4762 1.72531C57.1079 -14.4263 65.6556 -30.1431 76.7572 -37.1754" stroke="#E14C6C" stroke-width="0.2" stroke-miterlimit="10"/>
<path d="M119.435 271.227C113.812 260.093 112.017 246.697 114.513 234.352C115.004 231.924 115.65 229.558 116.452 227.233C119.748 217.749 125.556 209.397 133.032 203.454C138.639 198.97 145.535 195.311 150.542 190.477C153.657 187.454 156.038 183.998 156.885 179.533C158.691 169.699 150.8 159.324 140.905 154.34C138.059 152.919 135.123 151.827 132.099 150.983C124.605 148.88 116.731 148.28 109.192 147.824C98.6274 147.161 87.9072 146.724 78.679 142.296C70.5849 138.424 63.8937 130.684 62.7189 121.671C62.5416 120.333 62.4977 118.955 62.5873 117.556C63.1473 108.708 69 101.323 71.4281 92.9703C75.4376 79.3502 69.8839 64.3473 63.8179 51.0726C61.8404 46.7095 59.7961 42.3669 57.9965 37.9832C54.2862 28.969 51.5768 19.9757 51.4698 10.3252C51.4266 7.48557 51.6503 4.62551 52.0964 1.78611C54.6169 -14.5095 64.0098 -30.1848 76.5348 -37.1548" stroke="#E94668" stroke-width="0.2" stroke-miterlimit="10"/>
<path d="M117.388 272.09C111.299 260.812 109.37 247.21 112.133 234.68C112.668 232.211 113.403 229.804 114.272 227.458C117.901 217.85 124.266 209.355 132.431 203.412C138.572 198.929 146.091 195.311 151.609 190.416C155.036 187.372 157.706 183.834 158.731 179.246C160.982 169.144 152.958 158.502 142.818 153.559C139.905 152.138 136.858 151.087 133.745 150.304C126.028 148.325 117.843 147.972 110.014 147.763C99.0051 147.47 87.7954 147.403 77.8999 143.18C69.2719 139.493 61.9134 131.774 60.583 122.699C60.3834 121.341 60.3173 119.962 60.4069 118.563C60.9891 109.653 67.2867 102.269 70.0484 93.8749C74.5695 80.1522 69.1716 64.9642 62.8832 51.6071C60.839 47.2439 58.6835 42.8807 56.7282 38.4764C52.7066 29.4208 49.5301 20.3245 49.1786 10.5709C49.0686 7.69014 49.2479 4.80949 49.6717 1.94952C52.0811 -14.4902 62.3414 -30.1446 76.2675 -37.0316" stroke="#F04164" stroke-width="0.2" stroke-miterlimit="10"/>
<path d="M115.364 272.954C108.785 261.551 106.745 247.723 109.753 234.987C110.355 232.498 111.135 230.029 112.092 227.663C116.033 217.911 122.976 209.313 131.831 203.35C138.483 198.867 146.647 195.27 152.677 190.314C156.437 187.229 159.375 183.609 160.578 178.918C163.251 168.569 155.116 157.639 144.709 152.758C141.729 151.357 138.594 150.327 135.391 149.585C127.43 147.75 118.978 147.623 110.838 147.66C99.4055 147.717 87.6619 148.02 77.1435 144.024C67.9816 140.521 59.9559 132.802 58.4698 123.685C58.248 122.327 58.1819 120.928 58.2715 119.508C58.8538 110.517 65.6184 103.153 68.6915 94.6974C73.7465 80.8721 68.4599 65.4783 61.9714 52.0594C59.8604 47.6756 57.5937 43.3124 55.4827 38.8874C51.1497 29.7906 47.5062 20.5911 46.9101 10.714C46.7335 7.81265 46.8682 4.89082 47.2698 2.01026C49.5458 -14.553 60.6735 -30.1864 76.0231 -36.9905" stroke="#F83B60" stroke-width="0.2" stroke-miterlimit="10"/>
<path d="M113.339 273.817C106.271 262.27 104.098 248.236 107.373 235.315C110.648 222.395 119.35 210.731 131.23 203.309C142.888 196.03 158.748 191.181 162.424 178.63C165.52 168.014 157.273 156.796 146.6 151.976C135.926 147.157 123.515 147.192 111.638 147.619C99.7611 148.046 87.5058 148.699 76.3645 144.908C65.2233 141.117 55.3969 131.483 56.0912 120.515C56.6735 111.462 63.9053 104.099 67.312 95.5815C72.8785 81.6535 67.7255 66.0746 61.0146 52.5733C54.3037 39.072 45.8579 25.7551 44.619 10.9598C42.9819 -8.83572 56.0688 -28.9539 75.7337 -36.8672" stroke="#FF365C" stroke-width="0.2" stroke-miterlimit="10"/>
<path d="M112.138 273.817C105.004 262.373 102.697 248.462 105.727 235.582C106.908 230.644 108.845 225.871 111.472 221.428C115.679 214.31 121.62 208.078 128.761 203.411C137.572 197.632 148.894 193.296 155.414 185.932C157.306 183.793 158.775 181.407 159.666 178.65C163.051 168.26 155.605 157.372 145.576 152.203C137.949 148.29 128.987 146.927 119.957 146.574C117.021 146.449 114.063 146.427 111.149 146.426C99.2725 146.42 86.9952 146.621 75.8541 142.542C64.9131 138.545 55.2646 129.013 55.8032 118.129C56.2298 109.137 63.1057 101.712 66.4679 93.2355C71.9899 79.3693 67.6152 64.12 61.7938 50.9482C61.1494 49.4664 60.4606 48.0052 59.794 46.5439C54.3946 34.8745 48.4835 23.246 47.911 10.3853C47.7567 7.13413 48.0251 3.84197 48.6048 0.611679C51.57 -15.3546 63.0978 -30.4528 78.3139 -37.3186" stroke="#FF3B5C" stroke-width="0.2" stroke-miterlimit="10"/>
<path d="M110.915 273.816C103.714 262.475 101.251 248.687 104.059 235.849C105.151 230.931 106.999 226.158 109.515 221.715C113.566 214.597 119.307 208.303 126.27 203.533C134.858 197.631 145.936 193.15 152.523 185.848C154.415 183.75 155.928 181.405 156.908 178.71C160.582 168.526 153.937 157.947 144.531 152.49C137.349 148.289 128.453 146.474 119.424 145.771C116.488 145.543 113.53 145.398 110.616 145.294C98.7172 144.836 86.4401 144.583 75.3213 140.237C64.6028 136.055 55.1322 126.606 55.4706 115.824C55.7415 106.893 62.2393 99.427 65.5793 90.9715C71.0346 77.1875 67.4604 62.2472 62.5285 49.3845C61.9731 47.9439 61.4177 46.5033 60.8401 45.0832C56.2634 33.7228 51.2196 22.424 51.1585 9.85155C51.1377 6.66215 51.495 3.45234 52.1859 0.283826C55.5513 -15.4147 66.8122 -30.5748 80.8719 -37.7292" stroke="#FF415D" stroke-width="0.2" stroke-miterlimit="10"/>
<path d="M109.714 273.795C102.468 262.578 99.8498 248.893 102.413 236.095C103.394 231.178 105.153 226.425 107.58 221.982C111.453 214.844 117.016 208.508 123.802 203.635C132.167 197.609 143.001 192.964 149.654 185.744C151.568 183.667 153.103 181.363 154.15 178.73C158.091 168.752 152.246 158.502 143.508 152.716C136.749 148.248 127.92 145.939 118.935 144.907C115.999 144.555 113.041 144.307 110.127 144.1C98.2065 143.21 85.9296 142.484 74.8109 137.87C64.3149 133.503 55 124.137 55.1827 113.437C55.2978 104.548 61.4398 97.0401 64.7575 88.6256C70.1683 74.9239 67.3724 60.2926 63.3522 47.7596C62.908 46.3602 62.4416 44.9608 61.9529 43.5613C58.1768 32.4894 54.0225 21.5407 54.4951 9.27718C54.6077 6.17014 55.0761 3.02211 55.8337 -0.0846384C59.5994 -15.4949 70.5934 -30.7374 83.4967 -38.1804" stroke="#FF465D" stroke-width="0.2" stroke-miterlimit="10"/>
<path d="M108.513 273.794C101.2 262.68 98.426 249.118 100.789 236.362C101.681 231.465 103.351 226.713 105.644 222.248C109.339 215.089 114.725 208.713 121.333 203.736C129.476 197.588 140.065 192.777 146.785 185.64C148.698 183.604 150.279 181.341 151.392 178.77C155.622 169.018 150.555 159.036 142.462 152.983C136.103 148.206 127.386 145.445 118.401 144.083C115.465 143.629 112.53 143.278 109.594 142.947C97.6731 141.605 85.3742 140.447 74.2779 135.545C64.0044 130.993 54.8673 121.708 54.8498 111.111C54.8315 102.284 60.5954 94.7349 63.8686 86.341C69.2126 72.701 67.2172 58.3993 64.0866 46.1753C63.7314 44.8171 63.3761 43.4589 62.9986 42.1007C60.0453 31.3377 56.7583 20.7186 57.7423 8.74342C57.9883 5.69818 58.5679 2.6325 59.4145 -0.433053C63.5803 -15.5551 74.3075 -30.88 86.0544 -38.591" stroke="#FF4C5E" stroke-width="0.2" stroke-miterlimit="10"/>
<path d="M107.312 273.794C99.9327 262.782 97.0251 249.344 99.1437 236.629C99.9465 231.752 101.506 227 103.709 222.536C107.249 215.356 112.434 208.918 118.864 203.859C126.807 197.566 137.129 192.611 143.916 185.557C145.852 183.541 147.477 181.319 148.656 178.83C153.153 169.285 148.887 159.591 141.462 153.25C135.525 148.186 126.875 144.972 117.912 143.239C114.977 142.682 112.041 142.208 109.106 141.754C97.1627 139.979 84.8639 138.369 73.7678 133.158C63.6946 128.441 54.7354 119.219 54.5621 108.704C54.3881 99.9176 59.7739 92.3272 63.0471 83.9745C68.3466 70.4168 67.1073 56.424 64.8885 44.5297C64.6444 43.1921 64.3781 41.8751 64.1118 40.558C61.959 30.0835 59.5615 19.8146 61.0569 8.12773C61.4363 5.16485 62.1049 2.16094 63.0404 -0.842844C67.6065 -15.6766 78.0668 -31.084 88.6572 -39.0836" stroke="#FF515E" stroke-width="0.2" stroke-miterlimit="10"/>
<path d="M106.111 273.793C98.6648 262.884 95.6014 249.549 97.4975 236.916C98.2114 232.06 99.6592 227.308 101.774 222.823C105.136 215.643 110.165 209.143 116.395 203.981C124.116 197.565 134.193 192.445 141.047 185.473C142.983 183.478 144.652 181.318 145.898 178.87C150.684 169.53 147.197 160.125 140.416 153.496C134.88 148.103 126.341 144.457 117.379 142.395C114.466 141.715 111.508 141.138 108.572 140.581C96.6295 138.353 84.3087 136.31 73.2349 130.812C63.3842 125.91 54.6029 116.77 54.2517 106.358C53.9219 97.6333 58.9519 90.0015 62.1806 81.6694C67.4133 68.194 66.9746 54.5102 65.6453 42.9249C65.4902 41.6285 65.335 40.3527 65.1577 39.0563C63.8277 28.8908 62.2975 18.9516 64.3043 7.57351C64.8171 4.69299 65.5969 1.75085 66.599 -1.19118C71.5653 -15.7367 81.7365 -31.2265 91.1928 -39.4941" stroke="#FF575F" stroke-width="0.2" stroke-miterlimit="10"/>
<path d="M104.887 273.772C97.3746 262.987 94.1778 249.755 95.8292 237.162C96.4541 232.327 97.813 227.575 99.7944 223.09C102.978 215.889 107.83 209.348 113.882 204.063C121.38 197.522 131.213 192.259 138.133 185.348C140.091 183.395 141.783 181.255 143.096 178.89C148.171 169.776 145.484 160.598 139.348 153.743C134.235 148.021 125.785 143.943 116.845 141.552C113.932 140.768 110.974 140.068 108.039 139.408C96.0741 136.727 83.7535 134.273 72.6798 128.466C63.0293 123.4 54.4482 114.321 53.8968 103.992C53.4336 95.3287 58.0854 87.6556 61.2696 79.344C66.4356 65.9303 66.7974 52.5762 66.3576 41.3205C66.3137 40.0653 66.2475 38.8101 66.1813 37.5754C65.6519 27.7189 64.989 18.1093 67.5294 7.01957C68.1757 4.20084 69.0666 1.34108 70.1577 -1.53918C75.5242 -15.8171 85.4286 -31.3687 93.7284 -39.9249" stroke="#FF5C5F" stroke-width="0.2" stroke-miterlimit="10"/>
<path d="M103.687 273.772C96.1293 263.089 92.7544 249.98 94.1834 237.429C94.7194 232.594 95.967 227.861 97.8595 223.377C100.888 216.156 105.539 209.573 111.413 204.185C118.689 197.521 128.277 192.093 135.264 185.265C137.222 183.331 138.958 181.254 140.36 178.929C145.724 170.022 143.838 161.091 138.325 153.989C133.635 147.938 125.252 143.448 116.334 140.707C113.421 139.801 110.463 138.997 107.528 138.234C95.5635 135.122 83.2208 132.236 72.1695 126.119C62.7415 120.909 54.3383 111.872 53.6089 101.625C52.99 93.003 57.2637 85.2886 60.4479 77.0182C65.5694 63.6867 66.7095 50.6416 67.1814 39.695C67.2265 38.481 67.2715 37.2669 67.3165 36.0529C67.6099 26.4849 67.8142 17.2254 70.8883 6.4446C71.668 3.70824 72.6701 0.910238 73.8279 -1.92884C79.5946 -15.9185 89.2321 -31.5525 96.3755 -40.3767" stroke="#FF6160" stroke-width="0.2" stroke-miterlimit="10"/>
<path d="M102.485 273.771C94.8612 263.191 91.3528 250.206 92.5372 237.696C92.9841 232.881 94.1428 228.149 95.9241 223.643C98.7742 216.422 103.248 209.778 108.944 204.286C115.997 197.499 125.341 191.927 132.395 185.161C134.375 183.268 136.133 181.211 137.602 178.969C143.255 170.268 142.169 161.563 137.302 154.256C133.034 147.855 124.74 142.954 115.823 139.884C112.91 138.875 109.974 137.968 107.017 137.082C95.0301 133.517 82.6653 130.219 71.6365 123.794C62.4087 118.42 54.2056 109.444 53.276 99.2997C52.5014 90.7395 56.4193 82.9838 59.559 74.7339C64.6137 61.4847 66.5544 48.7486 67.9158 38.111C68.072 36.9176 68.206 35.7448 68.34 34.572C69.4339 25.313 70.5277 16.3832 74.1133 5.89062C75.0263 3.23662 76.1174 0.500413 77.3641 -2.27689C83.5311 -15.9783 92.9017 -31.6741 98.8887 -40.8076" stroke="#FF6760" stroke-width="0.2" stroke-miterlimit="10"/>
<path d="M101.284 273.771C93.5935 263.294 89.9294 250.432 90.8914 237.962C91.2494 233.168 92.2968 228.457 93.9669 223.931C96.6391 216.689 100.935 210.003 106.475 204.409C113.306 197.477 122.406 191.761 129.526 185.077C131.506 183.205 133.331 181.21 134.844 179.009C140.764 170.534 140.523 162.036 136.256 154.503C132.434 147.752 124.185 142.439 115.312 139.04C112.399 137.928 109.463 136.898 106.506 135.909C94.5194 131.912 82.1327 128.182 71.1262 121.448C62.0986 115.93 54.0735 106.996 52.9881 96.9332C52.08 88.4346 55.6199 80.617 58.7151 72.4083C63.7252 59.2208 66.422 46.8349 68.6952 36.5063C68.9403 35.3542 69.1855 34.2225 69.4307 33.0909C71.3474 24.1203 73.3085 15.5407 77.4054 5.33646C78.4519 2.74426 79.6541 0.0903822 80.9898 -2.62515C87.557 -16.0383 96.6385 -31.8166 101.491 -41.218" stroke="#FF6C61" stroke-width="0.2" stroke-miterlimit="10"/>
<path d="M100.083 273.75C92.3258 263.396 88.5282 250.637 89.2455 238.209C89.5145 233.435 90.4507 228.724 92.0319 224.197C94.5484 216.935 98.6661 210.188 104.007 204.511C110.615 197.456 119.47 191.575 126.635 184.973C128.637 183.143 130.484 181.168 132.086 179.049C138.295 170.78 138.877 162.488 135.233 154.77C131.878 147.649 123.673 141.966 114.801 138.217C111.91 136.981 108.952 135.848 105.995 134.757C93.9864 130.307 81.5776 126.165 70.5935 119.102C61.7662 113.44 53.9412 104.547 52.6779 94.5876C51.614 86.13 54.7758 78.2917 57.871 70.1036C62.8144 56.9984 66.3117 44.9214 69.4744 34.9019C69.8308 33.7909 70.1649 32.6799 70.5212 31.5895C73.2385 22.9279 76.0891 14.6779 80.6975 4.78255C81.8774 2.27272 83.1908 -0.319326 84.5932 -2.99368C91.5606 -16.1391 100.375 -31.9793 104.049 -41.6693" stroke="#FF7261" stroke-width="0.2" stroke-miterlimit="10"/>
<path d="M98.8824 273.749C91.0802 263.498 87.1046 250.863 87.5994 238.476C87.7795 233.722 88.6268 229.011 90.0745 224.464C92.4131 217.181 96.3528 210.392 101.515 204.612C107.902 197.434 116.512 191.388 123.743 184.869C125.746 183.059 127.637 181.146 129.306 179.089C135.827 171.026 137.254 162.94 134.166 155.017C131.278 147.525 123.095 141.452 114.245 137.353C111.354 136.014 108.397 134.758 105.439 133.563C93.4311 128.681 81.0002 124.128 70.0385 116.736C61.4114 110.929 53.7643 102.078 52.323 92.2004C51.1035 83.8046 53.9094 75.925 56.9601 67.7574C61.859 54.7345 66.1346 42.9664 70.1868 33.2766C70.6321 32.1862 71.0774 31.137 71.5227 30.0672C75.0628 21.7147 78.7807 13.7943 83.9227 4.18722C85.236 1.73917 86.6606 -0.770569 88.1519 -3.38315C95.5195 -16.2403 104.067 -32.1629 106.585 -42.1415" stroke="#FF7762" stroke-width="0.2" stroke-miterlimit="10"/>
<path d="M97.659 273.749C89.7901 263.601 85.681 251.088 85.9312 238.743C86.0222 234.01 86.7583 229.298 88.1171 224.751C90.2777 217.468 94.0396 210.618 99.0242 204.735C105.211 197.433 113.554 191.223 120.852 184.785C122.877 182.996 124.79 181.124 126.526 179.129C133.335 171.293 135.607 163.392 133.12 155.284C130.699 147.422 122.562 140.958 113.734 136.53C110.843 135.067 107.886 133.708 104.928 132.41C92.8979 127.076 80.445 122.132 69.5057 114.411C61.0788 108.46 53.6319 99.65 52.0126 89.8753C50.6374 81.5206 53.0874 73.5996 56.1159 65.4937C60.948 52.5325 66.0242 41.0941 70.9882 31.7133C71.5447 30.6642 72.0789 29.6356 72.6354 28.6276C76.976 20.5634 81.5834 13.0138 87.2368 3.69505C88.6836 1.32937 90.1971 -1.1186 91.7773 -3.66941C99.5452 -16.2383 107.826 -32.2433 109.187 -42.49" stroke="#FF7D62" stroke-width="0.2" stroke-miterlimit="10"/>
<path d="M96.458 273.727C88.5223 263.682 84.2575 251.293 84.2852 238.989C84.2873 234.256 84.9344 229.565 86.182 225.018C88.1869 217.714 91.7486 210.822 96.5554 204.837C102.519 197.39 110.618 191.036 117.983 184.681C120.008 182.933 121.988 181.102 123.79 179.169C130.889 171.538 134.05 163.844 132.097 155.53C130.188 147.319 122.028 140.463 113.223 135.686C110.332 134.12 107.397 132.658 104.417 131.217C92.3871 125.45 79.8676 120.094 68.9952 112.044C60.7686 105.949 53.4995 97.1805 51.7023 87.488C50.1713 79.1949 52.2656 71.2327 55.2495 63.1473C60.0149 50.2684 65.8693 39.139 71.7451 30.0879C72.3905 29.0799 73.0582 28.0925 73.7037 27.1051C78.8671 19.35 84.3417 12.13 90.5066 3.09955C92.0867 0.816232 93.7114 -1.56996 95.3584 -4.05901C103.526 -16.3397 111.518 -32.4272 111.745 -42.9623" stroke="#FF8263" stroke-width="0.2" stroke-miterlimit="10"/>
<path d="M95.2571 273.727C87.2546 263.805 82.8563 251.519 82.6393 239.255C82.5524 234.543 83.0883 229.852 84.2246 225.284C86.0517 217.96 89.4355 211.027 94.0644 204.938C99.806 197.369 107.66 190.849 115.092 184.577C117.139 182.849 119.141 181.06 121.01 179.188C128.398 171.784 132.449 164.296 131.051 155.756C129.654 147.175 121.495 139.928 112.689 134.821C109.799 133.153 106.864 131.567 103.884 130.023C91.8319 123.803 79.2903 118.057 68.4402 109.677C60.3916 103.459 53.3228 94.7112 51.3698 85.101C49.6831 76.8695 51.3993 68.8454 54.361 60.8012C59.0818 47.984 65.7146 37.1841 72.4798 28.442C73.2365 27.4753 73.9931 26.5085 74.7275 25.5829C80.7138 18.1162 87.0556 11.2464 93.7319 2.50422C95.4455 0.282693 97.1813 -2.02111 98.9173 -4.46897C107.486 -16.482 115.21 -32.6313 114.281 -43.4345" stroke="#FF8763" stroke-width="0.2" stroke-miterlimit="10"/>
<path d="M94.0562 273.726C85.987 263.907 81.4329 251.745 80.9935 239.522C80.8177 234.83 81.2646 230.139 82.2898 225.571C83.9389 218.226 87.1448 211.231 91.5958 205.06C97.1151 197.367 104.725 190.683 112.223 184.493C114.27 182.786 116.317 181.058 118.252 179.248C125.929 172.071 130.892 164.789 130.006 156.043C129.121 147.112 120.961 139.454 112.156 134.018C109.288 132.227 106.33 130.538 103.351 128.891C91.2768 122.239 78.6909 116.101 67.9077 107.372C60.0593 101.031 53.1684 92.3034 51.0597 82.796C49.2173 74.6262 50.5776 66.5607 53.517 58.5371C58.1712 45.8022 65.6044 35.3113 73.2592 26.8989C74.1048 25.9527 74.9726 25.0477 75.8182 24.1427C82.605 16.9851 89.8141 10.4448 97.0463 2.0116C98.8711 -0.127569 100.718 -2.36959 102.543 -4.75568C111.489 -16.4804 118.97 -32.7122 116.884 -43.804" stroke="#FF8D64" stroke-width="0.2" stroke-miterlimit="10"/>
<path d="M92.855 273.726C84.7412 264.01 80.0314 251.97 79.3473 239.789C79.0825 235.118 79.4182 230.426 80.3544 225.838C81.8478 218.493 84.8758 211.436 89.1267 205.162C94.4236 197.346 101.789 190.497 109.353 184.389C111.423 182.723 113.514 181.037 115.517 179.268C123.482 172.296 129.335 165.241 129.005 156.269C128.653 146.968 120.45 138.94 111.689 133.154C108.821 131.26 105.864 129.447 102.884 127.697C90.8102 120.593 78.18 114.064 67.4192 105.006C59.7488 98.5207 53.058 89.8343 50.7714 80.4092C48.7733 72.2805 49.7777 64.1942 52.6727 56.1912C57.2823 43.5385 65.4939 33.3567 74.0382 25.2533C74.9949 24.3483 75.9517 23.464 76.9085 22.6002C84.5181 15.7515 92.5945 9.54092 100.338 1.39598C102.296 -0.681397 104.254 -2.86164 106.168 -5.16538C115.515 -16.6019 122.728 -32.9161 119.486 -44.2759" stroke="#FF9264" stroke-width="0.2" stroke-miterlimit="10"/>
<path d="M91.6536 273.705C83.4731 264.092 78.6075 252.176 77.701 240.056C77.3472 235.405 77.5717 230.714 78.3967 226.125C79.7122 218.76 82.5623 211.662 86.6353 205.285C91.7099 197.344 98.808 190.352 106.462 184.305C108.531 182.66 110.667 181.015 112.736 179.329C121.013 172.583 127.31 165.713 127.959 156.557C128.631 146.948 119.916 138.466 111.156 132.351C108.287 130.333 105.33 128.439 102.351 126.565C90.2545 119.029 77.5578 112.109 66.8861 102.68C59.3937 96.072 52.9254 87.4063 50.4607 78.0839C48.3069 70.0169 48.9333 61.8688 51.8282 53.9069C56.371 41.3159 65.3832 31.4637 74.817 23.6899C75.8627 22.8261 76.9307 21.9829 77.9764 21.1603C86.3865 14.6001 95.3524 8.73972 103.607 0.903661C105.699 -1.09135 107.768 -3.20983 109.749 -5.47239C119.496 -16.6206 126.442 -33.0172 122.044 -44.6656" stroke="#FF9865" stroke-width="0.2" stroke-miterlimit="10"/>
<path d="M90.4306 273.704C82.1833 264.215 77.1842 252.401 76.033 240.322C75.5903 235.692 75.7258 231.001 76.4396 226.413C77.5994 219.026 80.2493 211.887 84.1444 205.407C88.9967 197.323 95.8502 190.186 103.571 184.222C105.662 182.618 107.82 181.014 109.956 179.389C118.522 172.87 126.198 166.248 126.892 156.824C127.63 146.845 119.338 137.972 110.6 131.507C107.732 129.387 104.775 127.369 101.795 125.392C89.6995 117.403 76.9362 110.113 66.3314 100.334C59.0169 93.6026 52.771 84.9576 50.1061 75.7175C47.7966 67.6915 48.0671 59.5227 50.9176 51.5813C55.4159 39.0727 65.1841 29.5294 75.5519 22.0647C76.7088 21.2421 77.8657 20.4196 79.0226 19.6382C88.2556 13.3869 98.0887 7.85617 106.855 0.30841C109.08 -1.60424 111.261 -3.66094 113.308 -5.86174C123.455 -16.7217 130.112 -33.1802 124.58 -45.1172" stroke="#FF9D65" stroke-width="0.2" stroke-miterlimit="10"/>
<path d="M89.2295 273.703C80.9154 264.317 75.7606 252.627 74.387 240.589C73.8553 235.959 73.8796 231.288 74.4822 226.679C75.4641 219.292 77.9361 212.092 81.6533 205.509C86.2832 197.301 92.8921 189.999 100.679 184.117C102.771 182.534 104.995 180.992 107.198 179.408C116.075 173.116 124.641 166.72 125.868 157.07C127.163 146.762 118.827 137.478 110.111 130.663C107.243 128.44 104.308 126.298 101.306 124.219C89.1886 115.798 76.3587 108.117 65.8208 97.9883C58.6844 91.133 52.6386 82.5087 49.818 73.3714C47.3527 65.4071 47.2674 57.1763 50.0734 49.2761C54.5049 36.8497 65.0737 27.6155 76.331 20.4804C77.5769 19.6784 78.845 18.9176 80.1131 18.1569C90.1466 12.1941 100.869 7.0135 110.147 -0.245958C112.506 -2.09681 114.775 -4.07117 116.933 -6.21019C127.481 -16.8025 133.871 -33.3228 127.182 -45.5483" stroke="#FFA366" stroke-width="0.2" stroke-miterlimit="10"/>
<path d="M88.0285 273.682C76.4464 260.837 70.7158 243.592 72.547 226.946C74.356 210.3 83.6822 194.46 97.8101 184.013C108.4 176.199 122.682 169.682 124.823 157.317C126.674 146.7 118.271 136.964 109.578 129.82C95.1705 118.002 78.3379 108.714 65.2881 95.6424C52.2382 82.5498 43.2165 63.8621 49.207 46.9507C54.0617 33.2076 67.5664 23.7483 81.1813 16.6554C94.7962 9.56248 109.567 3.72526 120.537 -6.5788C131.506 -16.8829 137.608 -33.4856 129.762 -45.9997" stroke="#FFA866" stroke-width="0.2" stroke-miterlimit="10"/>
</g>
<path d="M20.5195 30.6912C17.8294 29.1023 16.0195 26.1327 16.0195 22.7315C16.0195 19.3304 17.8294 16.3608 20.5195 14.772L27.2695 21.5829M29.5195 14.6912C32.2096 16.28 34.0195 19.2495 34.0195 22.6507C34.0195 26.0519 32.2096 29.0214 29.5195 30.6103L22.7695 23.8801" stroke="white" stroke-width="1.5" stroke-linecap="round" stroke-linejoin="round"/>
<path d="M16.664 44V38.4H17.736L21.04 42.432H20.52V38.4H21.8V44H20.736L17.424 39.968H17.944V44H16.664ZM24.3249 40.92H27.0129V41.96H24.3249V40.92ZM24.4209 44H23.1249V38.4H27.3569V39.44H24.4209V44ZM30.8596 44.096C30.4276 44.096 30.025 44.0267 29.6516 43.888C29.2836 43.744 28.9636 43.5413 28.6916 43.28C28.4196 43.0187 28.2063 42.712 28.0516 42.36C27.9023 42.008 27.8276 41.6213 27.8276 41.2C27.8276 40.7787 27.9023 40.392 28.0516 40.04C28.2063 39.688 28.4196 39.3813 28.6916 39.12C28.969 38.8587 29.2916 38.6587 29.6596 38.52C30.0276 38.376 30.4303 38.304 30.8676 38.304C31.353 38.304 31.7903 38.3893 32.1796 38.56C32.5743 38.7253 32.905 38.9707 33.1716 39.296L32.3396 40.064C32.1476 39.8453 31.9343 39.6827 31.6996 39.576C31.465 39.464 31.209 39.408 30.9316 39.408C30.6703 39.408 30.4303 39.4507 30.2116 39.536C29.993 39.6213 29.8036 39.744 29.6436 39.904C29.4836 40.064 29.3583 40.2533 29.2676 40.472C29.1823 40.6907 29.1396 40.9333 29.1396 41.2C29.1396 41.4667 29.1823 41.7093 29.2676 41.928C29.3583 42.1467 29.4836 42.336 29.6436 42.496C29.8036 42.656 29.993 42.7787 30.2116 42.864C30.4303 42.9493 30.6703 42.992 30.9316 42.992C31.209 42.992 31.465 42.9387 31.6996 42.832C31.9343 42.72 32.1476 42.552 32.3396 42.328L33.1716 43.096C32.905 43.4213 32.5743 43.6693 32.1796 43.84C31.7903 44.0107 31.3503 44.096 30.8596 44.096ZM35.5764 44L38.0724 38.4H39.3524L41.8564 44H40.4964L38.4484 39.056H38.9604L36.9044 44H35.5764ZM36.8244 42.8L37.1684 41.816H40.0484L40.4004 42.8H36.8244ZM45.0633 44.096C44.6206 44.096 44.2126 44.0267 43.8393 43.888C43.4713 43.744 43.1486 43.5413 42.8713 43.28C42.5993 43.0187 42.386 42.712 42.2313 42.36C42.082 42.008 42.0073 41.6213 42.0073 41.2C42.0073 40.7787 42.082 40.392 42.2313 40.04C42.386 39.688 42.602 39.3813 42.8793 39.12C43.1566 38.8587 43.482 38.6587 43.8553 38.52C44.2286 38.376 44.6393 38.304 45.0873 38.304C45.5833 38.304 46.0286 38.3867 46.4233 38.552C46.8233 38.7173 47.1593 38.9573 47.4313 39.272L46.5993 40.04C46.3966 39.8267 46.1753 39.6693 45.9353 39.568C45.6953 39.4613 45.434 39.408 45.1513 39.408C44.8793 39.408 44.6313 39.4507 44.4073 39.536C44.1833 39.6213 43.9886 39.744 43.8233 39.904C43.6633 40.064 43.538 40.2533 43.4473 40.472C43.362 40.6907 43.3193 40.9333 43.3193 41.2C43.3193 41.4613 43.362 41.7013 43.4473 41.92C43.538 42.1387 43.6633 42.3307 43.8233 42.496C43.9886 42.656 44.1806 42.7787 44.3993 42.864C44.6233 42.9493 44.8686 42.992 45.1353 42.992C45.3913 42.992 45.6393 42.952 45.8793 42.872C46.1246 42.7867 46.362 42.6453 46.5913 42.448L47.3273 43.384C47.0233 43.6133 46.6686 43.7893 46.2633 43.912C45.8633 44.0347 45.4633 44.096 45.0633 44.096ZM46.1433 43.216V41.112H47.3273V43.384L46.1433 43.216ZM47.7952 44L50.2912 38.4H51.5712L54.0752 44H52.7152L50.6672 39.056H51.1792L49.1232 44H47.7952ZM49.0432 42.8L49.3872 41.816H52.2672L52.6192 42.8H49.0432ZM54.6562 44V38.4H57.2002C57.8082 38.4 58.3442 38.5173 58.8082 38.752C59.2722 38.9813 59.6349 39.304 59.8962 39.72C60.1575 40.136 60.2882 40.6293 60.2882 41.2C60.2882 41.7653 60.1575 42.2587 59.8962 42.68C59.6349 43.096 59.2722 43.4213 58.8082 43.656C58.3442 43.8853 57.8082 44 57.2002 44H54.6562ZM55.9522 42.936H57.1362C57.5095 42.936 57.8322 42.8667 58.1042 42.728C58.3815 42.584 58.5949 42.3813 58.7442 42.12C58.8989 41.8587 58.9762 41.552 58.9762 41.2C58.9762 40.8427 58.8989 40.536 58.7442 40.28C58.5949 40.0187 58.3815 39.8187 58.1042 39.68C57.8322 39.536 57.5095 39.464 57.1362 39.464H55.9522V42.936ZM61.2656 44V38.4H62.5616V44H61.2656ZM63.8906 44V38.4H66.3146C66.8159 38.4 67.2479 38.4827 67.6106 38.648C67.9732 38.808 68.2532 39.04 68.4506 39.344C68.6479 39.648 68.7466 40.0107 68.7466 40.432C68.7466 40.848 68.6479 41.208 68.4506 41.512C68.2532 41.8107 67.9732 42.04 67.6106 42.2C67.2479 42.36 66.8159 42.44 66.3146 42.44H64.6106L65.1866 41.872V44H63.8906ZM67.4506 44L66.0506 41.968H67.4346L68.8506 44H67.4506ZM65.1866 42.016L64.6106 41.408H66.2426C66.6426 41.408 66.9412 41.3227 67.1386 41.152C67.3359 40.976 67.4346 40.736 67.4346 40.432C67.4346 40.1227 67.3359 39.8827 67.1386 39.712C66.9412 39.5413 66.6426 39.456 66.2426 39.456H64.6106L65.1866 38.84V42.016Z" fill="white"/>
<path d="M16.0195 208.26H17.0341V209.275H16.0195V208.26ZM17.0341 208.26H18.0487V209.275H17.0341V208.26ZM18.0487 208.26H19.0632V209.275H18.0487V208.26ZM19.0632 208.26H20.0778V209.275H19.0632V208.26ZM20.0778 208.26H21.0924V209.275H20.0778V208.26ZM21.0924 208.26H22.107V209.275H21.0924V208.26ZM22.107 208.26H23.1215V209.275H22.107V208.26ZM27.1798 208.26H28.1944V209.275H27.1798V208.26ZM30.2235 208.26H31.2381V209.275H30.2235V208.26ZM31.2381 208.26H32.2526V209.275H31.2381V208.26ZM32.2526 208.26H33.2672V209.275H32.2526V208.26ZM34.2818 208.26H35.2964V209.275H34.2818V208.26ZM35.2964 208.26H36.3109V209.275H35.2964V208.26ZM36.3109 208.26H37.3255V209.275H36.3109V208.26ZM37.3255 208.26H38.3401V209.275H37.3255V208.26ZM38.3401 208.26H39.3546V209.275H38.3401V208.26ZM39.3546 208.26H40.3692V209.275H39.3546V208.26ZM40.3692 208.26H41.3838V209.275H40.3692V208.26ZM16.0195 209.275H17.0341V210.289H16.0195V209.275ZM22.107 209.275H23.1215V210.289H22.107V209.275ZM25.1507 209.275H26.1652V210.289H25.1507V209.275ZM29.2089 209.275H30.2235V210.289H29.2089V209.275ZM30.2235 209.275H31.2381V210.289H30.2235V209.275ZM32.2526 209.275H33.2672V210.289H32.2526V209.275ZM34.2818 209.275H35.2964V210.289H34.2818V209.275ZM40.3692 209.275H41.3838V210.289H40.3692V209.275ZM16.0195 210.289H17.0341V211.304H16.0195V210.289ZM18.0487 210.289H19.0632V211.304H18.0487V210.289ZM19.0632 210.289H20.0778V211.304H19.0632V210.289ZM20.0778 210.289H21.0924V211.304H20.0778V210.289ZM22.107 210.289H23.1215V211.304H22.107V210.289ZM25.1507 210.289H26.1652V211.304H25.1507V210.289ZM26.1652 210.289H27.1798V211.304H26.1652V210.289ZM28.1944 210.289H29.2089V211.304H28.1944V210.289ZM30.2235 210.289H31.2381V211.304H30.2235V210.289ZM31.2381 210.289H32.2526V211.304H31.2381V210.289ZM34.2818 210.289H35.2964V211.304H34.2818V210.289ZM36.3109 210.289H37.3255V211.304H36.3109V210.289ZM37.3255 210.289H38.3401V211.304H37.3255V210.289ZM38.3401 210.289H39.3546V211.304H38.3401V210.289ZM40.3692 210.289H41.3838V211.304H40.3692V210.289ZM16.0195 211.304H17.0341V212.319H16.0195V211.304ZM18.0487 211.304H19.0632V212.319H18.0487V211.304ZM19.0632 211.304H20.0778V212.319H19.0632V211.304ZM20.0778 211.304H21.0924V212.319H20.0778V211.304ZM22.107 211.304H23.1215V212.319H22.107V211.304ZM24.1361 211.304H25.1507V212.319H24.1361V211.304ZM25.1507 211.304H26.1652V212.319H25.1507V211.304ZM28.1944 211.304H29.2089V212.319H28.1944V211.304ZM30.2235 211.304H31.2381V212.319H30.2235V211.304ZM31.2381 211.304H32.2526V212.319H31.2381V211.304ZM34.2818 211.304H35.2964V212.319H34.2818V211.304ZM36.3109 211.304H37.3255V212.319H36.3109V211.304ZM37.3255 211.304H38.3401V212.319H37.3255V211.304ZM38.3401 211.304H39.3546V212.319H38.3401V211.304ZM40.3692 211.304H41.3838V212.319H40.3692V211.304ZM16.0195 212.319H17.0341V213.333H16.0195V212.319ZM18.0487 212.319H19.0632V213.333H18.0487V212.319ZM19.0632 212.319H20.0778V213.333H19.0632V212.319ZM20.0778 212.319H21.0924V213.333H20.0778V212.319ZM22.107 212.319H23.1215V213.333H22.107V212.319ZM26.1652 212.319H27.1798V213.333H26.1652V212.319ZM27.1798 212.319H28.1944V213.333H27.1798V212.319ZM28.1944 212.319H29.2089V213.333H28.1944V212.319ZM29.2089 212.319H30.2235V213.333H29.2089V212.319ZM30.2235 212.319H31.2381V213.333H30.2235V212.319ZM34.2818 212.319H35.2964V213.333H34.2818V212.319ZM36.3109 212.319H37.3255V213.333H36.3109V212.319ZM37.3255 212.319H38.3401V213.333H37.3255V212.319ZM38.3401 212.319H39.3546V213.333H38.3401V212.319ZM40.3692 212.319H41.3838V213.333H40.3692V212.319ZM16.0195 213.333H17.0341V214.348H16.0195V213.333ZM22.107 213.333H23.1215V214.348H22.107V213.333ZM24.1361 213.333H25.1507V214.348H24.1361V213.333ZM27.1798 213.333H28.1944V214.348H27.1798V213.333ZM32.2526 213.333H33.2672V214.348H32.2526V213.333ZM34.2818 213.333H35.2964V214.348H34.2818V213.333ZM40.3692 213.333H41.3838V214.348H40.3692V213.333ZM16.0195 214.348H17.0341V215.362H16.0195V214.348ZM17.0341 214.348H18.0487V215.362H17.0341V214.348ZM18.0487 214.348H19.0632V215.362H18.0487V214.348ZM19.0632 214.348H20.0778V215.362H19.0632V214.348ZM20.0778 214.348H21.0924V215.362H20.0778V214.348ZM21.0924 214.348H22.107V215.362H21.0924V214.348ZM22.107 214.348H23.1215V215.362H22.107V214.348ZM24.1361 214.348H25.1507V215.362H24.1361V214.348ZM26.1652 214.348H27.1798V215.362H26.1652V214.348ZM28.1944 214.348H29.2089V215.362H28.1944V214.348ZM30.2235 214.348H31.2381V215.362H30.2235V214.348ZM32.2526 214.348H33.2672V215.362H32.2526V214.348ZM34.2818 214.348H35.2964V215.362H34.2818V214.348ZM35.2964 214.348H36.3109V215.362H35.2964V214.348ZM36.3109 214.348H37.3255V215.362H36.3109V214.348ZM37.3255 214.348H38.3401V215.362H37.3255V214.348ZM38.3401 214.348H39.3546V215.362H38.3401V214.348ZM39.3546 214.348H40.3692V215.362H39.3546V214.348ZM40.3692 214.348H41.3838V215.362H40.3692V214.348ZM24.1361 215.362H25.1507V216.377H24.1361V215.362ZM25.1507 215.362H26.1652V216.377H25.1507V215.362ZM26.1652 215.362H27.1798V216.377H26.1652V215.362ZM30.2235 215.362H31.2381V216.377H30.2235V215.362ZM31.2381 215.362H32.2526V216.377H31.2381V215.362ZM32.2526 215.362H33.2672V216.377H32.2526V215.362ZM17.0341 216.377H18.0487V217.391H17.0341V216.377ZM18.0487 216.377H19.0632V217.391H18.0487V216.377ZM22.107 216.377H23.1215V217.391H22.107V216.377ZM29.2089 216.377H30.2235V217.391H29.2089V216.377ZM30.2235 216.377H31.2381V217.391H30.2235V216.377ZM32.2526 216.377H33.2672V217.391H32.2526V216.377ZM34.2818 216.377H35.2964V217.391H34.2818V216.377ZM35.2964 216.377H36.3109V217.391H35.2964V216.377ZM37.3255 216.377H38.3401V217.391H37.3255V216.377ZM17.0341 217.391H18.0487V218.406H17.0341V217.391ZM18.0487 217.391H19.0632V218.406H18.0487V217.391ZM20.0778 217.391H21.0924V218.406H20.0778V217.391ZM23.1215 217.391H24.1361V218.406H23.1215V217.391ZM26.1652 217.391H27.1798V218.406H26.1652V217.391ZM27.1798 217.391H28.1944V218.406H27.1798V217.391ZM28.1944 217.391H29.2089V218.406H28.1944V217.391ZM29.2089 217.391H30.2235V218.406H29.2089V217.391ZM30.2235 217.391H31.2381V218.406H30.2235V217.391ZM31.2381 217.391H32.2526V218.406H31.2381V217.391ZM32.2526 217.391H33.2672V218.406H32.2526V217.391ZM34.2818 217.391H35.2964V218.406H34.2818V217.391ZM35.2964 217.391H36.3109V218.406H35.2964V217.391ZM37.3255 217.391H38.3401V218.406H37.3255V217.391ZM39.3546 217.391H40.3692V218.406H39.3546V217.391ZM40.3692 217.391H41.3838V218.406H40.3692V217.391ZM22.107 218.406H23.1215V219.421H22.107V218.406ZM27.1798 218.406H28.1944V219.421H27.1798V218.406ZM31.2381 218.406H32.2526V219.421H31.2381V218.406ZM33.2672 218.406H34.2818V219.421H33.2672V218.406ZM35.2964 218.406H36.3109V219.421H35.2964V218.406ZM37.3255 218.406H38.3401V219.421H37.3255V218.406ZM38.3401 218.406H39.3546V219.421H38.3401V218.406ZM40.3692 218.406H41.3838V219.421H40.3692V218.406ZM16.0195 219.421H17.0341V220.435H16.0195V219.421ZM17.0341 219.421H18.0487V220.435H17.0341V219.421ZM20.0778 219.421H21.0924V220.435H20.0778V219.421ZM23.1215 219.421H24.1361V220.435H23.1215V219.421ZM25.1507 219.421H26.1652V220.435H25.1507V219.421ZM26.1652 219.421H27.1798V220.435H26.1652V219.421ZM29.2089 219.421H30.2235V220.435H29.2089V219.421ZM31.2381 219.421H32.2526V220.435H31.2381V219.421ZM33.2672 219.421H34.2818V220.435H33.2672V219.421ZM35.2964 219.421H36.3109V220.435H35.2964V219.421ZM37.3255 219.421H38.3401V220.435H37.3255V219.421ZM16.0195 220.435H17.0341V221.45H16.0195V220.435ZM17.0341 220.435H18.0487V221.45H17.0341V220.435ZM19.0632 220.435H20.0778V221.45H19.0632V220.435ZM22.107 220.435H23.1215V221.45H22.107V220.435ZM23.1215 220.435H24.1361V221.45H23.1215V220.435ZM24.1361 220.435H25.1507V221.45H24.1361V220.435ZM25.1507 220.435H26.1652V221.45H25.1507V220.435ZM26.1652 220.435H27.1798V221.45H26.1652V220.435ZM29.2089 220.435H30.2235V221.45H29.2089V220.435ZM31.2381 220.435H32.2526V221.45H31.2381V220.435ZM32.2526 220.435H33.2672V221.45H32.2526V220.435ZM34.2818 220.435H35.2964V221.45H34.2818V220.435ZM35.2964 220.435H36.3109V221.45H35.2964V220.435ZM40.3692 220.435H41.3838V221.45H40.3692V220.435ZM18.0487 221.45H19.0632V222.464H18.0487V221.45ZM19.0632 221.45H20.0778V222.464H19.0632V221.45ZM20.0778 221.45H21.0924V222.464H20.0778V221.45ZM26.1652 221.45H27.1798V222.464H26.1652V221.45ZM27.1798 221.45H28.1944V222.464H27.1798V221.45ZM28.1944 221.45H29.2089V222.464H28.1944V221.45ZM31.2381 221.45H32.2526V222.464H31.2381V221.45ZM32.2526 221.45H33.2672V222.464H32.2526V221.45ZM34.2818 221.45H35.2964V222.464H34.2818V221.45ZM35.2964 221.45H36.3109V222.464H35.2964V221.45ZM39.3546 221.45H40.3692V222.464H39.3546V221.45ZM40.3692 221.45H41.3838V222.464H40.3692V221.45ZM16.0195 222.464H17.0341V223.479H16.0195V222.464ZM17.0341 222.464H18.0487V223.479H17.0341V222.464ZM19.0632 222.464H20.0778V223.479H19.0632V222.464ZM21.0924 222.464H22.107V223.479H21.0924V222.464ZM22.107 222.464H23.1215V223.479H22.107V222.464ZM24.1361 222.464H25.1507V223.479H24.1361V222.464ZM25.1507 222.464H26.1652V223.479H25.1507V222.464ZM26.1652 222.464H27.1798V223.479H26.1652V222.464ZM28.1944 222.464H29.2089V223.479H28.1944V222.464ZM31.2381 222.464H32.2526V223.479H31.2381V222.464ZM32.2526 222.464H33.2672V223.479H32.2526V222.464ZM34.2818 222.464H35.2964V223.479H34.2818V222.464ZM37.3255 222.464H38.3401V223.479H37.3255V222.464ZM38.3401 222.464H39.3546V223.479H38.3401V222.464ZM40.3692 222.464H41.3838V223.479H40.3692V222.464ZM18.0487 223.479H19.0632V224.493H18.0487V223.479ZM19.0632 223.479H20.0778V224.493H19.0632V223.479ZM20.0778 223.479H21.0924V224.493H20.0778V223.479ZM23.1215 223.479H24.1361V224.493H23.1215V223.479ZM26.1652 223.479H27.1798V224.493H26.1652V223.479ZM30.2235 223.479H31.2381V224.493H30.2235V223.479ZM31.2381 223.479H32.2526V224.493H31.2381V223.479ZM32.2526 223.479H33.2672V224.493H32.2526V223.479ZM33.2672 223.479H34.2818V224.493H33.2672V223.479ZM34.2818 223.479H35.2964V224.493H34.2818V223.479ZM35.2964 223.479H36.3109V224.493H35.2964V223.479ZM36.3109 223.479H37.3255V224.493H36.3109V223.479ZM37.3255 223.479H38.3401V224.493H37.3255V223.479ZM16.0195 224.493H17.0341V225.508H16.0195V224.493ZM17.0341 224.493H18.0487V225.508H17.0341V224.493ZM18.0487 224.493H19.0632V225.508H18.0487V224.493ZM20.0778 224.493H21.0924V225.508H20.0778V224.493ZM22.107 224.493H23.1215V225.508H22.107V224.493ZM24.1361 224.493H25.1507V225.508H24.1361V224.493ZM27.1798 224.493H28.1944V225.508H27.1798V224.493ZM32.2526 224.493H33.2672V225.508H32.2526V224.493ZM33.2672 224.493H34.2818V225.508H33.2672V224.493ZM34.2818 224.493H35.2964V225.508H34.2818V224.493ZM35.2964 224.493H36.3109V225.508H35.2964V224.493ZM36.3109 224.493H37.3255V225.508H36.3109V224.493ZM39.3546 224.493H40.3692V225.508H39.3546V224.493ZM24.1361 225.508H25.1507V226.523H24.1361V225.508ZM25.1507 225.508H26.1652V226.523H25.1507V225.508ZM26.1652 225.508H27.1798V226.523H26.1652V225.508ZM27.1798 225.508H28.1944V226.523H27.1798V225.508ZM29.2089 225.508H30.2235V226.523H29.2089V225.508ZM30.2235 225.508H31.2381V226.523H30.2235V225.508ZM32.2526 225.508H33.2672V226.523H32.2526V225.508ZM36.3109 225.508H37.3255V226.523H36.3109V225.508ZM40.3692 225.508H41.3838V226.523H40.3692V225.508ZM16.0195 226.523H17.0341V227.537H16.0195V226.523ZM17.0341 226.523H18.0487V227.537H17.0341V226.523ZM18.0487 226.523H19.0632V227.537H18.0487V226.523ZM19.0632 226.523H20.0778V227.537H19.0632V226.523ZM20.0778 226.523H21.0924V227.537H20.0778V226.523ZM21.0924 226.523H22.107V227.537H21.0924V226.523ZM22.107 226.523H23.1215V227.537H22.107V226.523ZM26.1652 226.523H27.1798V227.537H26.1652V226.523ZM27.1798 226.523H28.1944V227.537H27.1798V226.523ZM30.2235 226.523H31.2381V227.537H30.2235V226.523ZM32.2526 226.523H33.2672V227.537H32.2526V226.523ZM34.2818 226.523H35.2964V227.537H34.2818V226.523ZM36.3109 226.523H37.3255V227.537H36.3109V226.523ZM40.3692 226.523H41.3838V227.537H40.3692V226.523ZM16.0195 227.537H17.0341V228.552H16.0195V227.537ZM22.107 227.537H23.1215V228.552H22.107V227.537ZM25.1507 227.537H26.1652V228.552H25.1507V227.537ZM26.1652 227.537H27.1798V228.552H26.1652V227.537ZM28.1944 227.537H29.2089V228.552H28.1944V227.537ZM29.2089 227.537H30.2235V228.552H29.2089V227.537ZM32.2526 227.537H33.2672V228.552H32.2526V227.537ZM36.3109 227.537H37.3255V228.552H36.3109V227.537ZM39.3546 227.537H40.3692V228.552H39.3546V227.537ZM16.0195 228.552H17.0341V229.566H16.0195V228.552ZM18.0487 228.552H19.0632V229.566H18.0487V228.552ZM19.0632 228.552H20.0778V229.566H19.0632V228.552ZM20.0778 228.552H21.0924V229.566H20.0778V228.552ZM22.107 228.552H23.1215V229.566H22.107V228.552ZM25.1507 228.552H26.1652V229.566H25.1507V228.552ZM26.1652 228.552H27.1798V229.566H26.1652V228.552ZM30.2235 228.552H31.2381V229.566H30.2235V228.552ZM31.2381 228.552H32.2526V229.566H31.2381V228.552ZM32.2526 228.552H33.2672V229.566H32.2526V228.552ZM33.2672 228.552H34.2818V229.566H33.2672V228.552ZM34.2818 228.552H35.2964V229.566H34.2818V228.552ZM35.2964 228.552H36.3109V229.566H35.2964V228.552ZM36.3109 228.552H37.3255V229.566H36.3109V228.552ZM39.3546 228.552H40.3692V229.566H39.3546V228.552ZM40.3692 228.552H41.3838V229.566H40.3692V228.552ZM16.0195 229.566H17.0341V230.581H16.0195V229.566ZM18.0487 229.566H19.0632V230.581H18.0487V229.566ZM19.0632 229.566H20.0778V230.581H19.0632V229.566ZM20.0778 229.566H21.0924V230.581H20.0778V229.566ZM22.107 229.566H23.1215V230.581H22.107V229.566ZM25.1507 229.566H26.1652V230.581H25.1507V229.566ZM26.1652 229.566H27.1798V230.581H26.1652V229.566ZM27.1798 229.566H28.1944V230.581H27.1798V229.566ZM28.1944 229.566H29.2089V230.581H28.1944V229.566ZM31.2381 229.566H32.2526V230.581H31.2381V229.566ZM33.2672 229.566H34.2818V230.581H33.2672V229.566ZM36.3109 229.566H37.3255V230.581H36.3109V229.566ZM38.3401 229.566H39.3546V230.581H38.3401V229.566ZM39.3546 229.566H40.3692V230.581H39.3546V229.566ZM16.0195 230.581H17.0341V231.595H16.0195V230.581ZM18.0487 230.581H19.0632V231.595H18.0487V230.581ZM19.0632 230.581H20.0778V231.595H19.0632V230.581ZM20.0778 230.581H21.0924V231.595H20.0778V230.581ZM22.107 230.581H23.1215V231.595H22.107V230.581ZM24.1361 230.581H25.1507V231.595H24.1361V230.581ZM29.2089 230.581H30.2235V231.595H29.2089V230.581ZM30.2235 230.581H31.2381V231.595H30.2235V230.581ZM31.2381 230.581H32.2526V231.595H31.2381V230.581ZM32.2526 230.581H33.2672V231.595H32.2526V230.581ZM33.2672 230.581H34.2818V231.595H33.2672V230.581ZM35.2964 230.581H36.3109V231.595H35.2964V230.581ZM36.3109 230.581H37.3255V231.595H36.3109V230.581ZM37.3255 230.581H38.3401V231.595H37.3255V230.581ZM39.3546 230.581H40.3692V231.595H39.3546V230.581ZM40.3692 230.581H41.3838V231.595H40.3692V230.581ZM16.0195 231.595H17.0341V232.61H16.0195V231.595ZM22.107 231.595H23.1215V232.61H22.107V231.595ZM24.1361 231.595H25.1507V232.61H24.1361V231.595ZM25.1507 231.595H26.1652V232.61H25.1507V231.595ZM26.1652 231.595H27.1798V232.61H26.1652V231.595ZM29.2089 231.595H30.2235V232.61H29.2089V231.595ZM32.2526 231.595H33.2672V232.61H32.2526V231.595ZM33.2672 231.595H34.2818V232.61H33.2672V231.595ZM34.2818 231.595H35.2964V232.61H34.2818V231.595ZM35.2964 231.595H36.3109V232.61H35.2964V231.595ZM36.3109 231.595H37.3255V232.61H36.3109V231.595ZM16.0195 232.61H17.0341V233.625H16.0195V232.61ZM17.0341 232.61H18.0487V233.625H17.0341V232.61ZM18.0487 232.61H19.0632V233.625H18.0487V232.61ZM19.0632 232.61H20.0778V233.625H19.0632V232.61ZM20.0778 232.61H21.0924V233.625H20.0778V232.61ZM21.0924 232.61H22.107V233.625H21.0924V232.61ZM22.107 232.61H23.1215V233.625H22.107V232.61ZM26.1652 232.61H27.1798V233.625H26.1652V232.61ZM28.1944 232.61H29.2089V233.625H28.1944V232.61ZM32.2526 232.61H33.2672V233.625H32.2526V232.61ZM34.2818 232.61H35.2964V233.625H34.2818V232.61ZM37.3255 232.61H38.3401V233.625H37.3255V232.61ZM40.3692 232.61H41.3838V233.625H40.3692V232.61Z" fill="white"/>
<defs>
<linearGradient id="paint0_linear_52_4534" x1="86.7724" y1="0.00634766" x2="86.7724" y2="246.974" gradientUnits="userSpaceOnUse">
<stop offset="0.241812"/>
<stop offset="1" stop-color="#B74D3C"/>
</linearGradient>
</defs>
</svg>
