<svg width="50" height="50" viewBox="0 0 50 50" fill="none" xmlns="http://www.w3.org/2000/svg">
<rect width="50" height="50" rx="2" fill="#EBEBEB"/>
<path d="M21.994 15C19.1971 15.0639 17.5635 15.3311 16.4473 16.4473C15.3311 17.5635 15.0639 19.1971 15 21.994M28.006 15C30.8029 15.0639 32.4365 15.3311 33.5527 16.4473C34.6689 17.5635 34.9361 19.1971 35 21.994M28.006 35C30.8029 34.9361 32.4365 34.6689 33.5527 33.5527C34.6689 32.4365 34.9361 30.8029 35 28.006M21.994 35C19.1971 34.9361 17.5635 34.6689 16.4473 33.5527C15.3311 32.4365 15.0639 30.8029 15 28.006" stroke="#C4D326" stroke-width="1.5" stroke-linecap="round" stroke-linejoin="round"/>
<path d="M29.9998 20H30.0088" stroke="#C4D326" stroke-width="2" stroke-linecap="round" stroke-linejoin="round"/>
<path d="M26 19V22C26 23.8856 26 24.8284 25.4142 25.4142C24.8284 26 23.8856 26 22 26H19" stroke="#C4D326" stroke-width="1.5" stroke-linecap="round"/>
<path d="M19.2929 19.2929C19 19.5858 19 20.0572 19 21C19 21.9428 19 22.4142 19.2929 22.7071M19.2929 19.2929C19.5858 19 20.0572 19 21 19C21.9428 19 22.4142 19 22.7071 19.2929M19.2929 19.2929C19.2929 19.2929 19.2929 19.2929 19.2929 19.2929ZM19.2929 22.7071C19.5858 23 20.0572 23 21 23C21.9428 23 22.4142 23 22.7071 22.7071M19.2929 22.7071C19.2929 22.7071 19.2929 22.7071 19.2929 22.7071ZM22.7071 22.7071C23 22.4142 23 21.9428 23 21C23 20.0572 23 19.5858 22.7071 19.2929M22.7071 22.7071C22.7071 22.7071 22.7071 22.7071 22.7071 22.7071ZM22.7071 19.2929C22.7071 19.2929 22.7071 19.2929 22.7071 19.2929Z" stroke="#C4D326" stroke-width="1.5"/>
<path d="M30 28C30.4714 28 30.7071 28 30.8536 28.1464C31 28.2929 31 28.5286 31 29V30C31 30.4714 31 30.7071 30.8536 30.8536C30.7071 31 30.4714 31 30 31H28C27.5286 31 27.2929 31 27.1464 30.8536C27 30.7071 27 30.4714 27 30L27 29C27 28.5286 27 28.2929 27.1464 28.1464C27.2929 28 27.5286 28 28 28L30 28Z" stroke="#C4D326" stroke-width="1.5"/>
<path d="M19 31H24" stroke="#C4D326" stroke-width="1.5" stroke-linecap="round"/>
<path d="M30 23L30 25" stroke="#C4D326" stroke-width="1.5" stroke-linecap="round"/>
</svg>
