<svg width="209" height="205" viewBox="0 0 209 205" fill="none" xmlns="http://www.w3.org/2000/svg">
<path d="M180.554 170.629C176.496 174.902 172.656 177.657 169.622 179.834C133.96 205.422 91.7623 197.963 82.7941 196.141C69.5509 193.452 43.9521 188.252 25.4445 166.488C-2.55572 133.56 1.8043 81.6833 23.5233 47.4387C27.496 41.1748 48.4812 6.40854 91.1333 0.833113C116.946 -2.54102 147.035 4.26426 168.825 22.5198C214.564 60.8397 211.308 138.253 180.554 170.629Z" fill="#F0F0F0"/>
<path d="M91.8341 109.04C91.8341 109.04 86.4879 85.9928 74.3604 82.5752C62.2329 79.1576 41.1865 80.4836 31.9756 47.7847C26.5831 28.6414 23.9415 20.3445 22.6779 16.7555C22.185 15.3554 23.1604 13.8722 24.6414 13.7751C35.1179 13.0877 69.5716 12.4878 82.0753 32.8936C96.8985 57.085 91.8341 109.04 91.8341 109.04Z" fill="#C4D326"/>
<path opacity="0.5" d="M34.7228 20.9393C48.2073 27.901 65.3429 41.9522 76.5557 57.5267C78.1573 60.1569 82.2561 65.5719 86.1309 76.0694C89.4278 84.8077 91.3818 94.4349 91.8055 101.031C91.8323 101.448 91.5159 101.808 91.0989 101.835C90.3818 101.881 90.2836 101.122 90.2958 101.144C88.8957 90.0477 84.8902 76.8185 78.6627 65.5541C70.8607 51.7626 58.2642 39.6854 45.9231 29.8685L44.6671 28.9124C35.1775 21.5857 33.6584 21.9045 34.161 21.0944C34.2798 20.9031 34.5259 20.8383 34.7228 20.9393Z" fill="#F0F0F0"/>
<path d="M98.4286 135.383C100.235 135.757 78.0143 118.961 64.2263 87.1517C57.729 72.1624 52.6615 52.5918 41.8194 47.336C32.7959 42.9618 8.60507 53.4097 0.743717 57.0377C-0.238643 57.491 -0.250779 58.8823 0.724915 59.3498C5.53506 61.6546 16.0125 67.3146 20.2483 74.6449C25.8315 84.3069 37.4306 88.3828 46.7513 87.8961C56.0719 87.4094 61.4476 87.8809 69.4077 100.94C77.3677 113.998 93.2958 134.32 98.4286 135.383Z" fill="#C4D326"/>
<path opacity="0.5" d="M13.4763 58.4522C24.1139 56.1864 36.6455 58.0819 44.6942 65.613L45.4564 66.3332C47.2243 68.0267 57.9906 80.5289 64.9779 91.3908C65.065 91.5263 65.0259 91.7067 64.8905 91.7938C64.6604 91.9416 64.4633 91.6974 64.4937 91.7156C60.0279 85.7128 53.9046 78.2208 49.134 72.6675C43.9872 66.5925 40.4258 62.4979 31.5994 59.9684C21.8172 57.3154 13.5344 58.9135 13.5601 58.9122C13.4324 58.9315 13.3132 58.8436 13.2939 58.7159C13.2753 58.5931 13.3565 58.4779 13.4763 58.4522Z" fill="#F0F0F0"/>
<path d="M79.4611 143.155C80.5491 143.414 71.3818 134.111 68.4161 124.6C65.4504 115.089 59.0469 99.202 48.2072 91.5008C37.3674 83.7996 28.0367 85.2423 18.8705 97.135C11.232 107.045 6.23902 112.34 2.92331 113.938C2.1023 114.333 1.91188 115.424 2.53258 116.092C5.83638 119.644 14.6138 127.497 25.0849 124.093C38.4415 119.75 52.6244 106.693 59.5322 112.766C66.4401 118.838 66.8555 123.123 67.9069 126.572C68.9581 130.022 72.2614 141.443 79.4611 143.155Z" fill="#C4D326"/>
<path opacity="0.5" d="M25.7605 107.957C28.894 102.901 34.6596 97.2407 40.7671 96.4489C48.7879 95.7089 55.2411 99.5327 60.0086 106.469C61.9387 109.438 62.835 111.058 64.5066 114.876C64.6401 115.181 64.1952 115.397 64.0371 115.107C63.0851 113.356 62.1149 111.516 60.8962 109.668C53.4736 97.6352 44.3549 98.1024 43.949 97.9215C43.3105 98.1546 38.5742 96.2028 30.4543 103.697C28.9409 105.108 27.509 106.642 26.2109 108.261L26.2037 108.27C26.1098 108.388 25.9387 108.406 25.8215 108.313C25.7131 108.226 25.6889 108.072 25.7605 107.957Z" fill="#F0F0F0"/>
<path d="M116.3 187.748C153.926 187.748 184.428 157.246 184.428 119.62C184.428 81.9939 153.926 51.4919 116.3 51.4919C78.674 51.4919 48.172 81.9939 48.172 119.62C48.172 157.246 78.674 187.748 116.3 187.748Z" fill="#C4D326"/>
<path d="M116.3 189.527C97.6273 189.527 80.0721 182.255 66.8685 169.052C53.665 155.848 46.3933 138.293 46.3933 119.62C46.3933 100.947 53.6649 83.3924 66.8685 70.1887C80.0721 56.9852 97.6274 49.7135 116.3 49.7135C134.973 49.7135 152.528 56.9851 165.732 70.1887C178.935 83.3923 186.207 100.947 186.207 119.62C186.207 138.293 178.935 155.848 165.732 169.052C152.528 182.255 134.973 189.527 116.3 189.527ZM116.3 53.2705C79.7146 53.2705 49.9503 83.035 49.9503 119.62C49.9503 156.205 79.7146 185.97 116.3 185.97C152.885 185.97 182.65 156.205 182.65 119.62C182.65 83.035 152.885 53.2705 116.3 53.2705Z" fill="#F0F0F0"/>
<path d="M116.3 161.154C139.239 161.154 157.834 142.559 157.834 119.62C157.834 96.6814 139.239 78.0859 116.3 78.0859C93.3613 78.0859 74.7659 96.6814 74.7659 119.62C74.7659 142.559 93.3613 161.154 116.3 161.154Z" fill="#C4D326"/>
<path d="M116.3 162.933C92.4173 162.933 72.9874 143.503 72.9874 119.62C72.9874 95.7374 92.4173 76.3074 116.3 76.3074C140.183 76.3074 159.613 95.7374 159.613 119.62C159.613 143.503 140.183 162.933 116.3 162.933ZM116.3 79.8643C94.3786 79.8643 76.5443 97.6987 76.5443 119.62C76.5443 141.541 94.3786 159.376 116.3 159.376C138.221 159.376 156.056 141.541 156.056 119.62C156.056 97.6987 138.221 79.8643 116.3 79.8643Z" fill="url(#paint0_linear_42_1564)"/>
<path d="M116.3 135.712C125.187 135.712 132.392 128.507 132.392 119.62C132.392 110.733 125.187 103.528 116.3 103.528C107.413 103.528 100.208 110.733 100.208 119.62C100.208 128.507 107.413 135.712 116.3 135.712Z" fill="#C4D326"/>
<path d="M116.3 137.49C106.447 137.49 98.4302 129.474 98.4302 119.62C98.4302 109.767 106.447 101.75 116.3 101.75C126.154 101.75 134.17 109.767 134.17 119.62C134.17 129.474 126.154 137.49 116.3 137.49ZM116.3 105.307C108.408 105.307 101.987 111.728 101.987 119.62C101.987 127.512 108.408 133.933 116.3 133.933C124.192 133.933 130.613 127.513 130.613 119.62C130.613 111.728 124.192 105.307 116.3 105.307Z" fill="url(#paint1_linear_42_1564)"/>
<path d="M174.707 72.3257C174.707 72.3257 177.664 73.7636 178.207 75.4156C178.643 76.741 181.912 76.9119 182.235 79.5186C182.402 80.8644 183.398 81.9423 184.738 82.1478C188.077 82.6595 193.222 84.3932 194.045 90.1899C194.674 94.6144 192.418 96.2921 190.051 96.8728C188.312 97.2993 187.157 98.9904 187.509 100.746C187.846 102.429 187.343 104.375 184.426 105.915C177.89 109.363 171.363 97.744 171.363 97.744L170.025 77.4557L174.707 72.3257Z" fill="#252300"/>
<path d="M201.573 199.54L201.996 203.017C202.076 203.676 202.596 204.198 203.256 204.273C204.37 204.401 206.159 204.531 207.909 204.346C208.677 204.265 209.176 203.487 208.942 202.751C208.515 201.409 207.735 199.394 206.61 198.208H202.753C202.04 198.208 201.487 198.832 201.573 199.54Z" fill="#252300"/>
<path d="M171.363 158.809L170.712 162.638C170.712 162.638 172.892 184.721 173.28 193.554C173.341 194.939 172.982 196.308 172.255 197.488L168.465 203.644L178.099 197.959L178.291 196.783L176.714 194.615L178.779 169.876C178.901 168.423 178.601 166.966 177.916 165.678L175.923 161.934L171.363 158.809Z" fill="url(#paint2_linear_42_1564)"/>
<path d="M167.83 204.536H170.905C171.48 204.536 172.023 204.272 172.374 203.816C173.332 202.57 175.318 200.14 176.268 200.077C177.546 199.992 177.383 204.536 177.383 204.536H178.099L179.007 198.889C179.235 197.468 178.528 196.061 177.253 195.395C177.253 195.395 176.96 197.556 175.376 198.512C173.792 199.468 168.928 202.891 168.928 202.891C168.928 202.891 168.333 202.806 167.679 202.924C166.709 203.099 166.844 204.536 167.83 204.536Z" fill="#252300"/>
<path d="M184.559 160.627C184.559 160.627 197.331 184.854 199.361 190.386C201.391 195.917 202.103 200.532 202.13 200.969C202.172 201.651 203.022 202.306 205.363 202.306C206.571 202.306 207.162 201.822 207.452 201.353C207.699 200.953 207.712 200.453 207.504 200.031C206.765 198.536 204.42 193.758 203.552 191.591C202.515 189.004 200.285 177.278 199.062 173.201C197.839 169.124 196.457 164.701 191.131 160.627C191.131 160.627 187.475 157.047 184.559 160.627Z" fill="url(#paint3_linear_42_1564)"/>
<path d="M176.491 120.93C173.196 106.97 181.542 99.0742 181.542 99.0742C178.165 95.8324 173.007 93.7235 169.742 92.6277C167.8 91.9761 165.668 92.4407 164.156 93.8225C161.534 96.2184 157.905 100.243 158.611 103.652C159.248 106.723 165.047 122.045 165.047 122.045C165.047 122.045 170.409 124.583 176.491 120.93Z" fill="#A3AF24"/>
<path d="M183.795 127.842C182.454 123.803 176.491 120.93 176.491 120.93C170.409 124.583 165.047 122.045 165.047 122.045C165.047 122.045 163.844 126.642 164.674 130.914C165.504 135.185 170.712 162.638 170.712 162.638C178.917 164.301 191.536 160.966 191.536 160.966C186.31 151.687 185.136 131.881 183.795 127.842Z" fill="#263238"/>
<path d="M172.667 82.4935L175.345 94.5251C175.602 95.5848 174.635 95.4114 173.564 95.2094C171.809 94.8786 169.548 94.1973 168.792 92.8319C168.715 92.6929 168.677 92.5359 168.655 92.3785L167.504 84.0355C167.413 83.3737 167.771 82.7313 168.381 82.4604L170.602 81.4757C171.457 81.0967 172.447 81.5845 172.667 82.4935Z" fill="url(#paint4_linear_42_1564)"/>
<path d="M167.536 71.5257C167.536 71.5257 164.685 73.456 163.459 78.3718C162.234 83.2876 164.225 85.0509 166.266 84.9429C168.308 84.8348 171.267 84.2036 173.831 80.6769C176.396 77.1504 171.273 69.1669 167.536 71.5257Z" fill="url(#paint5_linear_42_1564)"/>
<path d="M171.246 78.6941C171.246 78.6941 172.29 71.6503 166.442 72.7276L165.26 73.9587C165.26 73.9587 162.397 70.735 165.565 68.2981C168.733 65.8613 173.129 66.4853 175.561 70.9216C177.993 75.358 178.875 78.4754 176.837 81.2321C174.799 83.9887 173.265 81.6245 173.265 81.6245C173.265 81.6245 174.2 79.2386 173.424 78.2148C172.649 77.191 171.648 78.8102 171.648 78.8102L171.246 78.6941Z" fill="#252300"/>
<path d="M172.045 79.2974C172.045 79.2974 172.561 75.6734 174.411 76.7094C176.262 77.7454 173.744 80.0947 172.735 80.894L172.045 79.2974Z" fill="url(#paint6_linear_42_1564)"/>
<path d="M181.581 99.2793C181.581 99.2793 188.473 108.385 187.266 118.041C186.129 127.138 174.523 128.136 174.523 128.136L173.033 126.878C173.033 126.878 181.723 120.884 182.149 117.473C182.938 111.165 176.816 107.311 176.816 107.311C176.816 107.311 178.169 100.416 181.581 99.2793Z" fill="url(#paint7_linear_42_1564)"/>
<path d="M153.094 168.607H122.432C121.205 168.607 120.083 167.838 119.641 166.693L111.876 146.596C111.52 145.675 111.641 144.639 112.199 143.825C112.758 143.01 113.68 142.524 114.667 142.524H161.811L155.12 167.06C154.871 167.971 154.038 168.607 153.094 168.607ZM114.667 143.591C114.022 143.591 113.444 143.896 113.079 144.428C112.714 144.96 112.638 145.61 112.871 146.211L120.635 166.309C120.92 167.045 121.642 167.541 122.432 167.541H153.094C153.558 167.541 153.968 167.228 154.091 166.779L160.415 143.591H114.667Z" fill="#FBFAE7"/>
<path d="M161.612 143.245L160.613 142.87L165.847 128.915L171.862 128.313L171.968 129.374L166.613 129.91L161.612 143.245Z" fill="#FBFAE7"/>
<path d="M167.02 126.012H175.072L174.815 127.863C174.815 127.863 174.35 131.583 172.025 130.188C169.7 128.793 166.445 131.118 165.05 131.118C163.374 131.118 167.131 126.021 167.02 126.012Z" fill="url(#paint8_linear_42_1564)"/>
<path d="M152.016 198.74H126.506C125.715 198.74 125.015 198.265 124.723 197.529C124.431 196.795 124.614 195.969 125.19 195.427L152.775 167.698C152.983 167.489 153.321 167.488 153.529 167.696C153.738 167.903 153.739 168.241 153.531 168.45L125.934 196.191C125.658 196.451 125.581 196.8 125.715 197.136C125.848 197.472 126.144 197.673 126.506 197.673H152.016C152.31 197.673 152.549 197.912 152.549 198.206C152.549 198.501 152.31 198.74 152.016 198.74Z" fill="#FBFAE7"/>
<path d="M156.518 159.342H117.166C116.872 159.342 116.633 159.103 116.633 158.809C116.633 158.514 116.872 158.275 117.166 158.275H156.518C156.812 158.275 157.051 158.514 157.051 158.809C157.051 159.103 156.812 159.342 156.518 159.342Z" fill="#FBFAE7"/>
<path d="M158.522 152.652H114.581C114.287 152.652 114.048 152.414 114.048 152.119C114.048 151.824 114.287 151.586 114.581 151.586H158.522C158.816 151.586 159.055 151.824 159.055 152.119C159.055 152.414 158.816 152.652 158.522 152.652Z" fill="#FBFAE7"/>
<path d="M126.285 168.616C126.258 168.616 126.232 168.614 126.205 168.61C125.691 168.529 125.681 168.527 123.194 155.685C123.17 155.56 120.786 143.228 120.802 143.016L121.334 143.058L121.862 142.985C121.893 143.184 126.201 165.983 126.738 167.778C126.818 167.897 126.849 168.048 126.813 168.198C126.754 168.442 126.53 168.616 126.285 168.616Z" fill="#FBFAE7"/>
<path d="M132.699 168.607C132.404 168.607 132.166 168.369 132.166 168.074V143.058C132.166 142.763 132.404 142.524 132.699 142.524C132.993 142.524 133.232 142.763 133.232 143.058V168.074C133.232 168.369 132.993 168.607 132.699 168.607Z" fill="#FBFAE7"/>
<path d="M141.35 168.607C141.339 168.607 141.327 168.607 141.316 168.606C141.022 168.587 140.799 168.334 140.818 168.04L142.387 143.592C142.406 143.298 142.661 143.084 142.953 143.094C143.247 143.113 143.47 143.366 143.451 143.661L141.882 168.108C141.864 168.39 141.629 168.607 141.35 168.607Z" fill="#FBFAE7"/>
<path d="M147.853 168.607C147.814 168.607 147.774 168.603 147.734 168.594C147.447 168.528 147.267 168.243 147.332 167.956L153.015 142.939C153.08 142.652 153.366 142.473 153.653 142.537C153.94 142.603 154.12 142.888 154.055 143.176L148.372 168.192C148.316 168.439 148.096 168.607 147.853 168.607Z" fill="#FBFAE7"/>
<path d="M129.353 203.44C128.132 204.661 126.152 204.661 124.931 203.44C123.71 202.219 123.71 200.239 124.931 199.018C126.152 197.797 128.132 197.797 129.353 199.018C130.574 200.239 130.574 202.219 129.353 203.44Z" fill="#252300"/>
<path d="M127.142 202.935C128.084 202.935 128.848 202.171 128.848 201.229C128.848 200.287 128.084 199.523 127.142 199.523C126.2 199.523 125.436 200.287 125.436 201.229C125.436 202.171 126.2 202.935 127.142 202.935Z" fill="#C4D326"/>
<path d="M149.884 204.356C151.611 204.356 153.011 202.956 153.011 201.229C153.011 199.502 151.611 198.102 149.884 198.102C148.157 198.102 146.757 199.502 146.757 201.229C146.757 202.956 148.157 204.356 149.884 204.356Z" fill="#252300"/>
<path d="M151.589 201.229C151.589 202.171 150.826 202.935 149.884 202.935C148.942 202.935 148.178 202.171 148.178 201.229C148.178 200.287 148.942 199.523 149.884 199.523C150.826 199.523 151.589 200.287 151.589 201.229Z" fill="#C4D326"/>
<defs>
<linearGradient id="paint0_linear_42_1564" x1="72.9874" y1="119.62" x2="159.613" y2="119.62" gradientUnits="userSpaceOnUse">
<stop stop-color="#DAE3FE"/>
<stop offset="1" stop-color="#E9EFFD"/>
</linearGradient>
<linearGradient id="paint1_linear_42_1564" x1="98.4302" y1="119.62" x2="134.17" y2="119.62" gradientUnits="userSpaceOnUse">
<stop stop-color="#DAE3FE"/>
<stop offset="1" stop-color="#E9EFFD"/>
</linearGradient>
<linearGradient id="paint2_linear_42_1564" x1="170.143" y1="230.646" x2="180.844" y2="105.579" gradientUnits="userSpaceOnUse">
<stop stop-color="#FEBBBA"/>
<stop offset="1" stop-color="#FF928E"/>
</linearGradient>
<linearGradient id="paint3_linear_42_1564" x1="191.669" y1="232.507" x2="202.373" y2="107.407" gradientUnits="userSpaceOnUse">
<stop stop-color="#FEBBBA"/>
<stop offset="1" stop-color="#FF928E"/>
</linearGradient>
<linearGradient id="paint4_linear_42_1564" x1="168.97" y1="107.368" x2="170.98" y2="92.662" gradientUnits="userSpaceOnUse">
<stop stop-color="#FEBBBA"/>
<stop offset="1" stop-color="#FF928E"/>
</linearGradient>
<linearGradient id="paint5_linear_42_1564" x1="165.39" y1="89.6579" x2="176.53" y2="55.6321" gradientUnits="userSpaceOnUse">
<stop stop-color="#FEBBBA"/>
<stop offset="1" stop-color="#FF928E"/>
</linearGradient>
<linearGradient id="paint6_linear_42_1564" x1="169.46" y1="90.9903" x2="180.599" y2="56.9651" gradientUnits="userSpaceOnUse">
<stop stop-color="#FEBBBA"/>
<stop offset="1" stop-color="#FF928E"/>
</linearGradient>
<linearGradient id="paint7_linear_42_1564" x1="192.814" y1="105.436" x2="240.244" y2="75.3215" gradientUnits="userSpaceOnUse">
<stop stop-color="#FEBBBA"/>
<stop offset="1" stop-color="#FF928E"/>
</linearGradient>
<linearGradient id="paint8_linear_42_1564" x1="196.637" y1="111.458" x2="244.067" y2="81.3437" gradientUnits="userSpaceOnUse">
<stop stop-color="#FEBBBA"/>
<stop offset="1" stop-color="#FF928E"/>
</linearGradient>
</defs>
</svg>
