<svg width="174" height="267" viewBox="0 0 174 267" fill="none" xmlns="http://www.w3.org/2000/svg">
<rect y="0.000488281" width="173.685" height="247.167" rx="9" fill="url(#paint0_linear_52_4611)"/>
<mask id="mask0_52_4611" style="mask-type:luminance" maskUnits="userSpaceOnUse" x="0" y="0" width="174" height="267">
<path d="M173.983 255.875L173.572 9.99999C173.562 4.47715 169.078 0.00749605 163.555 0.0167429L10.07 0.273721C4.54712 0.282967 0.0774665 4.76761 0.0867134 10.2905L0.49838 256.166C0.507626 261.689 4.99229 266.158 10.5151 266.149L164 265.892C169.523 265.883 173.992 261.398 173.983 255.875Z" fill="white"/>
</mask>
<g mask="url(#mask0_52_4611)">
<path d="M207.501 4.59595C205.885 11.0905 198.539 14.3154 191.99 14.6366C185.42 14.9356 178.803 13.3071 172.321 14.4036C156.755 17.0442 148.693 33.0102 146.723 47.6146C145.844 54.1522 145.657 58.9825 146.753 65.5168C148.023 73.07 149.077 80.6901 149.306 88.3779C149.65 99.3891 148.281 110.602 143.809 120.625C136.874 136.19 121.215 147.915 104.279 148.408C82.421 149.043 61.8591 133.768 40.1565 136.573C23.8524 138.683 10.0811 151.114 2.58119 166.06C-4.91871 181.006 -6.9501 198.181 -7.20389 214.975" stroke="#FF5D40" stroke-width="0.5" stroke-miterlimit="10"/>
<path d="M205.785 2.93726C204.017 9.32124 196.736 12.5461 190.231 13.0001C183.726 13.4542 177.175 12.0471 170.78 13.2986C158.423 15.69 150.829 26.4485 147.336 38.1972C146.495 41.0347 145.892 43.9382 145.507 46.797C144.65 53.3124 144.507 58.187 145.623 64.6991C146.916 72.2523 147.948 79.8502 148.351 87.5156C148.956 99.1024 148.433 110.824 144.201 121.555C143.704 122.796 143.164 124.016 142.559 125.235C139.641 131.067 135.421 136.348 130.288 140.389C126.325 143.497 121.84 145.853 117.202 147.346C112.542 148.86 107.707 149.422 102.784 149.342C84.8714 149.061 67.8746 138.942 50.3056 136.823C46.8135 136.407 43.3003 136.325 39.7445 136.707C25.3263 138.327 12.8298 147.986 4.87027 160.406C3.9402 161.848 3.07526 163.334 2.27546 164.864C-5.37695 179.389 -7.69054 196.387 -7.85789 213.005" stroke="#FA5C44" stroke-width="0.5" stroke-miterlimit="10"/>
<path d="M204.09 1.30054C202.171 7.55184 194.955 10.7987 188.494 11.3856C182.032 11.9725 175.546 10.8312 169.238 12.2155C157.055 14.8725 149.527 25.6309 146.077 37.3796C145.236 40.2392 144.655 43.1205 144.291 45.9792C143.456 52.4724 143.356 57.3913 144.473 63.8813C145.765 71.4123 146.818 79.0101 147.373 86.6531C148.24 98.8155 148.542 111.045 144.549 122.463C144.074 123.793 143.556 125.101 142.973 126.387C140.121 132.618 135.728 138.341 130.227 142.472C125.982 145.669 121.171 147.893 116.251 149.142C111.33 150.413 106.299 150.532 101.224 150.23C83.6789 149.196 66.9646 139.431 49.6555 137.09C46.2067 136.63 42.7585 136.481 39.2459 136.819C25.0224 138.15 12.5684 147.299 4.4998 159.321C3.56966 160.719 2.68294 162.161 1.86138 163.646C-5.9435 177.773 -8.53937 194.55 -8.59855 211.012" stroke="#F55A49" stroke-width="0.5" stroke-miterlimit="10"/>
<path d="M202.374 -0.358398C200.303 5.76022 193.152 9.02917 186.756 9.77104C180.338 10.5129 173.918 9.59313 167.696 11.1323C155.688 14.0771 148.224 24.8133 144.839 36.5839C144.02 39.4435 143.439 42.3469 143.075 45.1836C142.262 51.6546 142.205 56.6177 143.322 63.0855C144.636 70.6164 145.689 78.1922 146.374 85.8128C147.523 98.5508 148.651 111.289 144.898 123.392C144.466 124.789 143.948 126.186 143.387 127.56C140.6 134.212 136.035 140.357 130.165 144.599C125.638 147.885 120.481 149.977 115.3 151.004C110.118 152.032 104.913 151.709 99.6644 151.164C82.4865 149.442 66.0546 139.987 49.0053 137.379C45.6215 136.875 42.1949 136.681 38.7473 136.93C24.7184 137.973 12.3286 146.613 4.15094 158.258C3.19904 159.612 2.31229 161.009 1.46896 162.451C-6.5101 176.156 -9.36652 192.756 -9.33925 209.041" stroke="#F1594D" stroke-width="0.5" stroke-miterlimit="10"/>
<path d="M200.658 -1.99536C198.413 3.99061 191.349 7.28158 184.997 8.15632C178.644 9.03105 172.289 8.35485 166.133 10.049C154.298 13.2594 146.9 23.9954 143.558 35.766C142.739 38.6256 142.18 41.529 141.838 44.3656C141.068 50.8365 141.011 55.8218 142.15 62.2452C143.485 69.7762 144.56 77.3297 145.375 84.928C146.807 98.2415 148.759 111.488 145.224 124.278C144.815 125.763 144.319 127.226 143.757 128.689C141.037 135.74 136.298 142.306 130.06 146.659C125.252 150.035 119.747 151.994 114.305 152.778C108.863 153.563 103.506 152.796 98.0612 152.03C81.2508 149.665 65.1013 140.453 48.3118 137.623C44.9713 137.075 41.6096 136.815 38.2053 136.998C24.3711 137.752 12.0239 145.904 3.7371 157.129C2.76343 158.438 1.85488 159.791 1.01148 161.188C-7.12005 174.496 -10.2587 190.896 -10.145 207.004" stroke="#EC5752" stroke-width="0.5" stroke-miterlimit="10"/>
<path d="M198.964 -3.6543C196.567 2.22115 189.568 5.51201 183.281 6.54173C176.972 7.57149 170.683 7.13889 164.614 8.96587C152.974 12.4639 145.619 23.1777 142.343 34.9704C141.545 37.8299 140.986 40.7333 140.666 43.592C139.917 50.0408 139.904 55.0703 141.042 61.4716C142.378 68.9803 143.496 76.5559 144.442 84.1097C146.178 98.021 148.933 111.753 145.638 125.252C145.25 126.804 144.798 128.377 144.236 129.907C141.582 137.356 136.671 144.366 130.086 148.83C124.995 152.273 119.165 154.122 113.441 154.663C107.738 155.204 102.228 154.017 96.5883 153.007C80.1673 150.066 64.2783 141.031 47.7487 137.979C44.4732 137.386 41.1547 137.059 37.7937 137.198C24.1542 137.686 11.8712 145.306 3.47526 156.132C2.50152 157.397 1.57124 158.706 0.70608 160.059C-7.57792 172.967 -10.9772 189.147 -10.777 205.1" stroke="#E75656" stroke-width="0.5" stroke-miterlimit="10"/>
<path d="M197.248 -5.29077C194.699 0.451992 187.765 3.7649 181.522 4.92748C175.256 6.11226 169.054 5.90107 163.072 7.883C151.607 11.6688 144.338 22.3603 141.083 34.1751C140.286 37.0346 139.749 39.938 139.428 42.7967C138.702 49.2232 138.732 54.297 139.87 60.6761C141.227 68.1849 142.367 75.7383 143.443 83.2918C145.484 97.7786 149.021 112.019 145.965 126.204C145.599 127.845 145.168 129.485 144.629 131.103C142.018 138.973 136.956 146.404 130.002 150.958C124.63 154.489 118.453 156.206 112.468 156.504C106.483 156.802 100.842 155.194 95.0067 153.919C78.9969 150.445 63.3466 141.564 47.0768 138.246C43.8446 137.586 40.5911 137.237 37.2733 137.287C23.8068 137.487 11.5881 144.62 3.10471 155.025C2.10922 156.246 1.17885 157.51 0.291929 158.819C-8.14457 171.307 -11.826 187.31 -11.5394 203.063" stroke="#E2555B" stroke-width="0.5" stroke-miterlimit="10"/>
<path d="M195.554 -6.94971C192.853 -1.33963 186.006 1.99528 179.806 3.31288C173.606 4.63049 167.447 4.66297 161.552 6.79985C150.261 10.8512 143.057 21.5426 139.846 33.3573C139.07 36.239 138.533 39.1202 138.234 41.9789C137.529 48.3832 137.603 53.5012 138.741 59.8582C140.12 67.3447 141.303 74.8981 142.465 82.4293C144.811 97.4917 149.151 112.241 146.335 127.112C146.013 128.841 145.582 130.548 145.064 132.255C142.519 140.523 137.284 148.375 129.962 153.063C124.309 156.683 117.784 158.267 111.56 158.322C105.315 158.399 99.5214 156.37 93.4902 154.83C77.8699 150.868 62.48 142.075 46.4917 138.535C43.3244 137.831 40.1143 137.415 36.8614 137.399C23.5896 137.31 11.435 143.933 2.82091 153.94C1.82534 155.116 0.873219 156.336 -0.0354986 157.578C-8.62447 169.668 -12.5882 185.472 -12.2151 201.047" stroke="#DD535F" stroke-width="0.5" stroke-miterlimit="10"/>
<path d="M193.838 -8.58643C190.985 -3.10903 184.203 0.247933 178.047 1.6984C171.89 3.17103 165.797 3.44711 159.989 5.69463C148.872 10.0116 141.733 20.7029 138.587 32.5397C137.811 35.4213 137.295 38.3246 136.997 41.1611C136.313 47.5433 136.409 52.7056 137.59 59.0182C138.969 66.5047 140.218 74.0358 141.488 81.5447C144.16 97.2047 149.282 112.44 146.684 127.998C146.383 129.793 145.974 131.588 145.478 133.406C142.999 142.073 137.591 150.369 129.923 155.167C123.987 158.877 117.115 160.329 110.631 160.141C104.125 159.974 98.1789 157.547 91.9521 155.741C76.7214 151.335 61.5918 142.586 45.8634 138.824C42.7394 138.076 39.5942 137.616 36.3846 137.532C23.3075 137.156 11.1955 143.269 2.49397 152.899C1.47664 154.031 0.502712 155.185 -0.406043 156.405C-9.1692 168.074 -13.3935 183.679 -12.9122 199.099" stroke="#D95264" stroke-width="0.5" stroke-miterlimit="10"/>
<path d="M192.122 -10.2454C189.117 -4.90065 182.4 -1.52164 176.309 0.0838184C170.196 1.68931 164.19 2.20896 158.448 4.61146C147.504 9.21615 140.431 19.8852 137.328 31.7219C136.574 34.6035 136.058 37.5068 135.781 40.3655C135.119 46.7476 135.258 51.9319 136.44 58.2224C137.84 65.6867 139.132 73.2177 140.511 80.7042C143.509 96.9398 149.39 112.683 147.032 128.95C146.753 130.834 146.366 132.718 145.871 134.602C143.457 143.668 137.877 152.384 129.84 157.294C123.644 161.071 116.425 162.413 109.658 161.981C102.891 161.571 96.793 158.746 90.3706 156.652C75.5295 151.824 60.6602 143.119 45.1916 139.091C42.1326 138.298 39.009 137.772 35.8643 137.622C22.9819 136.979 10.9341 142.582 2.10177 151.792C1.06265 152.857 0.0886639 153.989 -0.841851 155.165C-9.75748 166.435 -14.264 181.841 -13.6963 197.084" stroke="#D45168" stroke-width="0.5" stroke-miterlimit="10"/>
<path d="M190.428 -11.8821C187.271 -6.64789 180.619 -3.26898 174.572 -1.53066C168.524 0.229814 162.562 0.970958 156.906 3.52841C146.137 8.39868 139.128 19.0676 136.069 30.9264C135.336 33.8079 134.821 36.7113 134.544 39.5699C133.925 45.9298 134.086 51.1806 135.267 57.4267C136.668 64.8911 138.025 72.3998 139.512 79.864C142.836 96.6751 149.499 112.905 147.381 129.88C147.124 131.83 146.78 133.803 146.285 135.775C143.937 145.262 138.184 154.4 129.778 159.422C123.301 163.288 115.734 164.497 108.707 163.844C101.68 163.191 95.429 159.989 88.8109 157.607C74.3379 152.402 59.7505 143.675 44.5417 139.424C41.526 138.587 38.4674 138.016 35.366 137.8C22.6783 136.869 10.673 141.962 1.75322 150.773C0.714015 151.794 -0.281689 152.882 -1.23396 154.013C-10.3021 164.885 -15.0908 180.092 -14.4367 195.158" stroke="#CF4F6D" stroke-width="0.5" stroke-miterlimit="10"/>
<path d="M188.712 -13.5408C185.403 -8.43927 178.816 -5.03832 172.812 -3.16713C166.808 -1.27379 160.912 -0.266873 155.343 2.42337C144.747 7.55923 137.804 18.228 134.809 30.0867C134.077 32.9683 133.583 35.8716 133.328 38.7302C132.731 45.0679 132.935 50.3629 134.117 56.5869C135.539 64.0512 136.939 71.5377 138.513 79.0017C142.185 96.4105 149.608 113.126 147.708 130.788C147.494 132.827 147.151 134.866 146.677 136.927C144.395 146.812 138.469 156.394 129.716 161.505C122.957 165.46 115.044 166.536 107.756 165.64C100.468 164.744 94.0647 161.188 87.2509 158.496C73.1676 152.936 58.8404 144.164 43.8915 139.691C40.9408 138.81 37.9254 138.173 34.8672 137.89C22.3526 136.67 10.4331 141.276 1.40427 149.666C0.343309 150.643 -0.652486 151.686 -1.62652 152.773C-10.8471 163.224 -15.8964 178.233 -15.1558 193.143" stroke="#CA4E71" stroke-width="0.5" stroke-miterlimit="10"/>
<path d="M186.996 -15.1775C183.535 -10.2087 177.013 -6.80784 171.075 -4.75951C165.114 -2.71115 159.305 -1.48282 153.823 1.36237C143.401 6.76381 136.523 17.4325 133.572 29.3133C132.861 32.217 132.389 35.0981 132.134 37.9567C131.559 44.2722 131.806 49.6115 132.988 55.8133C134.431 63.2554 135.897 70.7418 137.557 78.1835C141.578 96.1678 149.739 113.392 148.099 131.762C147.908 133.889 147.586 136.017 147.134 138.145C144.918 148.429 138.819 158.432 129.698 163.676C122.657 167.72 114.418 168.642 106.848 167.525C99.2997 166.386 92.7224 162.475 85.7346 159.473C72.0193 153.581 57.974 144.764 43.2848 140.025C40.3774 139.099 37.427 138.417 34.4121 138.045C22.0921 136.537 10.2369 140.634 1.07728 148.648C0.0162404 149.58 -1.02299 150.579 -1.9971 151.622C-11.3702 161.674 -16.7017 176.484 -15.8747 191.216" stroke="#C54C76" stroke-width="0.5" stroke-miterlimit="10"/>
<path d="M185.302 -16.8364C181.667 -12.0003 175.232 -8.5774 169.337 -6.39621C163.442 -4.21502 157.676 -2.74305 152.282 0.257085C142.056 5.94623 135.221 16.5927 132.313 28.4956C131.602 31.3992 131.152 34.3025 130.896 37.1611C130.343 43.4544 130.612 48.8379 131.815 54.9954C133.259 62.4375 134.811 69.9016 136.558 77.321C140.927 95.8808 149.847 113.613 148.426 132.67C148.257 134.864 147.957 137.08 147.505 139.296C145.333 149.979 139.083 160.425 129.594 165.759C122.271 169.87 113.685 170.682 105.854 169.321C98.023 167.939 91.315 163.674 84.1314 160.34C70.7627 154.136 57.0207 145.23 42.5914 140.269C39.749 139.299 36.8419 138.551 33.8702 138.135C21.7449 136.338 9.93227 139.925 0.685236 147.54C-0.39756 148.429 -1.43688 149.383 -2.43275 150.382C-11.98 160.014 -17.5721 174.646 -16.6369 189.201" stroke="#C14B7A" stroke-width="0.5" stroke-miterlimit="10"/>
<path d="M183.586 -18.4729C179.799 -13.7473 173.429 -10.3245 167.599 -7.98833C161.748 -5.65212 156.069 -3.95873 150.74 -0.803606C140.688 5.12897 133.918 15.7754 131.075 27.6781C130.386 30.5817 129.936 33.4849 129.702 36.3435C129.17 42.6368 129.483 48.0424 130.686 54.1777C132.151 61.5977 133.769 69.0616 135.603 76.4588C140.341 95.594 150 113.835 148.818 133.578C148.67 135.86 148.392 138.143 147.962 140.448C145.856 151.552 139.433 162.419 129.597 167.864C121.992 172.064 113.059 172.744 104.968 171.14C96.8761 169.536 89.9941 164.917 82.6148 161.251C69.5925 154.737 56.154 145.742 42.0063 140.559C39.2071 139.544 36.365 138.751 33.4366 138.247C21.506 136.184 9.75751 139.261 0.379664 146.456C-0.703207 147.299 -1.76428 148.209 -2.7819 149.164C-12.4816 158.397 -18.356 172.809 -17.3343 187.209" stroke="#BC4A7E" stroke-width="0.5" stroke-miterlimit="10"/>
<path d="M181.87 -20.1318C177.931 -15.5389 171.626 -12.0941 165.84 -9.62505C160.033 -7.13381 154.419 -5.21896 149.177 -1.90889C139.299 4.31143 132.594 14.9577 129.795 26.8825C129.106 29.7861 128.677 32.6893 128.443 35.5479C127.955 41.819 128.289 47.2689 129.492 53.382C130.979 60.8019 132.64 68.2436 134.56 75.6185C139.668 95.3069 150.043 114.078 149.102 134.508C148.997 136.857 148.741 139.228 148.311 141.621C146.27 153.124 139.675 164.413 129.47 169.991C121.584 174.28 112.304 174.828 103.973 172.98C95.6211 171.133 88.565 166.204 81.0116 162.184C68.3141 155.404 55.2008 146.297 41.3128 140.848C38.5786 139.789 35.7798 138.929 32.9163 138.358C21.1804 136.007 9.47444 138.575 0.0091827 145.37C-1.09545 146.17 -2.15662 147.014 -3.19597 147.946C-13.0482 156.781 -19.2048 170.993 -18.0967 185.216" stroke="#B74883" stroke-width="0.5" stroke-miterlimit="10"/>
<path d="M180.176 -21.7688C176.085 -17.3085 169.845 -13.8417 164.124 -11.2177C158.382 -8.59359 152.812 -6.41295 147.657 -2.97009C137.953 3.51581 131.313 14.162 128.557 26.0867C127.89 28.9903 127.461 31.8935 127.249 34.752C126.782 41.0009 127.16 46.495 128.385 52.586C129.872 60.0059 131.619 67.4032 133.627 74.8C139.125 95.0639 150.217 114.344 149.515 135.482C149.433 137.919 149.198 140.379 148.79 142.839C146.815 154.74 140.047 166.472 129.474 172.14C121.306 176.518 111.7 176.933 103.087 174.843C94.4744 172.752 87.2226 167.513 79.5169 163.117C67.1442 156.07 54.3559 146.83 40.7278 141.159C38.0369 140.055 35.2813 139.129 32.4828 138.514C20.92 135.874 9.29993 137.954 -0.274465 144.329C-1.40085 145.084 -2.4838 145.884 -3.52322 146.772C-13.5279 155.186 -19.9667 169.222 -18.7505 183.267" stroke="#B24787" stroke-width="0.5" stroke-miterlimit="10"/>
<path d="M178.46 -23.4277C174.217 -19.1001 168.042 -15.6113 162.365 -12.8544C156.666 -10.0753 151.184 -7.67321 146.116 -4.09756C136.585 2.65393 130.01 13.3 127.32 25.2468C126.652 28.1725 126.245 31.0757 126.055 33.912C125.61 40.1387 126.009 45.6771 127.256 51.7237C128.764 59.1214 130.598 66.5186 132.671 73.8931C138.561 94.7324 150.369 114.52 149.885 136.345C149.825 138.849 149.612 141.397 149.226 143.968C147.316 156.268 140.376 168.444 129.434 174.223C121.006 178.69 111.031 178.973 102.158 176.639C93.2843 174.305 85.8369 168.779 77.9787 164.006C65.9309 156.692 53.4676 147.341 40.0994 141.426C37.4735 140.278 34.7612 139.308 32.0059 138.603C20.6377 135.675 9.0602 137.246 -0.623252 143.244C-1.74975 143.933 -2.85444 144.71 -3.91562 145.554C-14.0728 153.569 -20.7722 167.384 -19.4912 181.274" stroke="#AD458C" stroke-width="0.5" stroke-miterlimit="10"/>
<path d="M176.766 -25.0645C172.37 -20.8474 166.261 -17.3586 160.649 -14.4689C154.994 -11.5569 149.577 -8.91126 144.596 -5.18066C135.239 1.83642 128.751 12.4823 126.082 24.4291C125.437 27.3548 125.03 30.258 124.839 33.1164C124.416 39.3431 124.859 44.9036 126.105 50.928C127.635 58.3257 129.534 65.7006 131.694 73.0529C137.975 94.4454 150.5 114.764 150.234 137.275C150.195 139.868 150.004 142.482 149.618 145.142C147.775 157.863 140.661 170.437 129.373 176.328C120.663 180.862 110.341 181.034 101.207 178.48C92.0726 175.903 84.4295 170.088 76.4189 164.939C64.6742 157.359 52.5578 147.874 39.4493 141.715C36.8667 140.523 34.2193 139.486 31.5073 138.715C20.3339 135.521 8.8205 136.559 -0.972041 142.159C-2.1203 142.804 -3.22503 143.537 -4.28629 144.336C-14.6176 151.931 -21.5776 165.569 -20.2101 179.281" stroke="#A84490" stroke-width="0.5" stroke-miterlimit="10"/>
<path d="M175.05 -26.7231C170.503 -22.6388 164.458 -19.1279 158.89 -16.0832C153.3 -13.0163 147.927 -10.1491 143.033 -6.26354C133.85 1.01912 127.427 11.6649 124.802 23.6338C124.156 26.5595 123.77 29.4626 123.602 32.321C123.2 38.5255 123.687 44.1302 124.933 50.1325C126.463 57.508 128.449 64.8828 130.673 72.2128C137.346 94.1586 150.565 115.008 150.561 138.228C150.565 140.909 150.375 143.59 150.011 146.338C148.233 159.457 140.968 172.475 129.29 178.477C120.298 183.101 109.65 183.141 100.234 180.342C90.8392 177.522 82.9788 171.42 74.8374 165.873C63.3743 158.048 51.6262 148.408 38.7776 142.026C36.26 140.79 33.6559 139.708 30.9871 138.871C20.0084 135.389 8.53758 135.94 -1.3641 141.119C-2.51244 141.719 -3.63894 142.407 -4.72196 143.163C-15.2058 150.359 -22.448 163.798 -20.9724 177.333" stroke="#A44395" stroke-width="0.5" stroke-miterlimit="10"/>
<path d="M173.334 -28.3599C168.635 -24.4082 162.655 -20.8753 157.152 -17.6977C151.606 -14.4979 146.32 -11.3872 141.491 -7.34664C132.482 0.201606 126.125 10.8473 123.564 22.8382C122.94 25.7639 122.555 28.667 122.386 31.5254C122.006 37.7077 122.536 43.3567 123.782 49.3368C125.334 56.7123 127.385 64.0426 129.696 71.3725C136.781 93.8715 150.696 115.251 150.909 139.158C150.936 141.905 150.788 144.697 150.425 147.511C148.712 161.03 141.275 174.491 129.228 180.582C119.954 185.295 108.96 185.202 99.2827 182.161C89.6058 179.097 81.528 172.73 73.2775 166.784C62.0959 158.715 50.7162 148.941 38.1491 142.315C35.6748 141.034 33.1357 139.887 30.5102 138.983C19.7261 135.212 8.31954 135.253 -1.69123 140.033C-2.86133 140.589 -3.98792 141.234 -5.09274 141.922C-15.7291 148.698 -23.2535 161.938 -21.6914 175.318" stroke="#9F4199" stroke-width="0.5" stroke-miterlimit="10"/>
<path d="M171.64 -30.0188C166.788 -26.1998 160.874 -22.6449 155.415 -19.3123C149.912 -15.9575 144.692 -12.6253 139.95 -8.42977C131.115 -0.593786 124.822 10.0296 122.305 22.0204C121.681 24.9461 121.317 27.8492 121.17 30.7076C120.834 36.8677 121.385 42.5609 122.631 48.5189C124.205 55.8722 126.342 63.2023 128.718 70.5321C136.217 93.5843 150.826 115.472 151.28 140.087C151.328 142.923 151.202 145.782 150.86 148.685C149.192 162.624 141.604 176.484 129.21 182.709C119.655 187.511 108.313 187.286 98.375 184.001C88.4375 180.717 80.1207 174.062 71.7611 167.717C60.8393 159.404 49.8497 149.474 37.5424 142.604C35.1331 141.279 32.6373 140.087 30.0551 139.116C19.4656 135.057 8.10161 134.611 -1.99661 138.97C-3.16678 139.482 -4.33681 140.082 -5.4417 140.727C-16.2305 147.103 -24.0372 160.144 -22.3887 173.347" stroke="#9A409E" stroke-width="0.5" stroke-miterlimit="10"/>
<path d="M169.924 -31.6553C164.899 -27.9689 159.093 -24.392 153.656 -20.9265C148.218 -17.4389 143.041 -13.863 138.386 -9.51259C129.704 -1.43314 123.498 9.2123 121.024 21.2252C120.422 24.173 120.058 27.0761 119.911 29.9345C119.596 36.0723 120.17 41.8099 121.437 47.7235C123.011 55.0768 125.235 62.3625 127.698 69.6921C135.631 93.2975 150.892 115.716 151.585 141.018C151.655 143.92 151.551 146.867 151.231 149.859C149.628 164.197 141.867 178.5 129.105 184.814C119.268 189.683 107.579 189.348 97.4022 185.82C87.204 182.292 78.6483 175.394 70.1795 168.606C59.4959 160.049 48.918 149.964 36.8706 142.872C34.5046 141.48 32.0737 140.243 29.5348 139.206C19.1184 134.881 7.84019 133.902 -2.38877 137.886C-3.5807 138.353 -4.75083 138.887 -5.87744 139.509C-16.8187 145.487 -24.9076 158.329 -23.151 171.354" stroke="#953FA2" stroke-width="0.5" stroke-miterlimit="10"/>
<path d="M168.208 -33.3142C163.031 -29.7384 157.29 -26.1616 151.918 -22.5411C146.524 -18.8984 141.413 -15.1011 136.867 -10.5958C128.358 -2.25076 122.217 8.39457 119.808 20.4073C119.228 23.3551 118.864 26.2582 118.739 29.1166C118.445 35.2544 119.062 41.014 120.33 46.9055C121.925 54.2587 124.214 61.5222 126.764 68.8295C135.132 92.9881 151.066 115.938 151.998 141.948C152.112 144.938 152.008 147.974 151.688 151.032C150.152 165.769 142.218 180.516 129.087 186.941C118.968 191.899 106.953 191.432 96.4945 187.66C86.0357 183.889 77.1976 176.747 68.6631 169.539C58.2392 160.738 48.0516 150.519 36.264 143.183C33.9629 141.746 31.5536 140.465 29.0796 139.339C18.8579 134.726 7.62224 133.238 -2.69414 136.823C-3.90783 137.246 -5.07804 137.735 -6.22642 138.313C-17.3419 143.871 -25.6697 156.514 -23.8482 169.383" stroke="#903DA7" stroke-width="0.5" stroke-miterlimit="10"/>
<path d="M166.513 -34.9509C161.185 -31.5078 155.509 -27.9089 150.181 -24.1556C144.831 -20.3579 139.806 -16.3392 135.325 -11.6789C126.99 -3.06823 120.915 7.577 118.549 19.6119C117.969 22.5596 117.627 25.4627 117.523 28.321C117.251 34.4366 117.912 40.2405 119.201 46.1098C120.818 53.4408 123.194 60.682 125.787 67.9892C134.589 92.6788 151.196 116.181 152.347 142.878C152.482 145.957 152.401 149.059 152.102 152.206C150.631 167.341 142.525 182.51 129.047 189.068C118.646 194.115 106.285 193.515 95.5651 189.501C84.8456 185.486 75.747 178.101 67.125 170.472C56.9175 161.405 47.1633 151.052 35.6356 143.472C33.3778 141.991 31.0335 140.643 28.6244 139.473C18.5974 134.571 7.426 132.596 -3.0212 135.76C-4.23496 136.138 -5.42693 136.583 -6.59706 137.117C-17.865 142.276 -26.475 154.72 -24.5671 167.413" stroke="#8C3CAB" stroke-width="0.5" stroke-miterlimit="10"/>
<path d="M164.797 -36.6096C159.317 -33.2991 153.706 -29.6783 148.443 -25.7699C143.137 -21.8394 138.178 -17.5549 133.784 -12.7618C125.623 -3.88556 119.612 6.75955 117.29 18.7943C116.731 21.7421 116.411 24.6451 116.286 27.5035C116.036 33.5969 116.739 39.445 118.029 45.2921C119.646 52.6231 122.108 59.842 124.788 67.127C134.025 92.3476 151.283 116.403 152.674 143.786C152.831 146.932 152.793 150.122 152.494 153.357C151.089 168.914 142.81 184.503 128.964 191.151C118.303 196.287 105.572 195.555 94.5923 191.32C83.6122 187.062 74.2312 179.456 65.5434 171.361C55.5524 162.05 46.2317 151.541 34.9638 143.739C32.771 142.214 30.4699 140.822 28.1041 139.563C18.2718 134.373 7.14289 131.888 -3.39171 134.653C-4.62727 134.965 -5.84095 135.388 -7.01116 135.877C-18.4316 140.616 -27.3238 152.883 -25.3078 165.398" stroke="#873AB0" stroke-width="0.5" stroke-miterlimit="10"/>
<path d="M163.082 -38.2463C141.265 -25.913 120.738 -7.04577 116.031 17.9766C112.807 35.1089 117.842 50.477 123.789 66.2645C134.593 94.9832 155.609 122.267 152.909 154.531C151.569 170.486 143.117 186.519 128.902 193.278C117.96 198.481 104.904 197.639 93.6413 193.16C82.3789 188.659 72.7156 180.832 63.9837 172.294C54.2092 162.739 45.3219 152.097 34.3138 144.05C23.3057 136.004 9.46131 130.665 -3.76201 133.612C-16.9854 136.536 -28.3915 149.827 -26.07 163.449" stroke="#8239B4" stroke-width="0.5" stroke-miterlimit="10"/>
<path d="M165.04 -34.0842C143.744 -21.5745 123.391 -2.97345 118.205 21.2521C116.075 31.2925 116.828 40.6412 118.925 49.8105C120.302 55.7904 122.241 61.7029 124.333 67.6594C126.643 74.2581 129.495 80.7673 132.477 87.3206C137.983 99.4531 143.859 111.718 147.372 124.762C149.838 133.931 151.177 143.456 150.305 153.45C150.198 154.558 150.07 155.688 149.92 156.796C147.754 171.423 139.819 185.572 127.1 192.041C122.875 194.197 118.302 195.401 113.662 195.83C106.723 196.462 99.5652 195.344 93.0121 192.94C82.0975 188.948 72.6521 181.696 63.9862 173.756C54.2779 164.888 45.1315 154.889 34.1019 146.975C33.19 146.334 32.2781 145.693 31.3446 145.074C24.0502 140.279 15.8252 136.614 7.45282 135.587C3.78721 135.15 0.0790421 135.201 -3.60632 135.916C-8.3323 136.81 -12.8392 139.033 -16.6073 142.141C-23.3206 147.692 -27.6651 156.229 -26.1759 164.934" stroke="#853FB7" stroke-width="0.5" stroke-miterlimit="10"/>
<path d="M166.999 -29.9443C146.224 -17.2804 126.065 1.05447 120.357 24.5054C118.032 34.2138 118.48 43.2307 120.208 51.9796C121.346 57.7162 123.025 63.3411 124.834 69.0101C126.84 75.2991 129.387 81.4986 132.022 87.7645C136.921 99.3662 142.102 111.189 145.202 124.012C147.364 133.004 148.573 142.441 147.679 152.302C147.572 153.41 147.444 154.518 147.294 155.604C145.149 170.075 137.518 184.091 125.255 190.714C121.182 192.915 116.782 194.229 112.294 194.768C105.594 195.577 98.6749 194.725 92.3392 192.63C81.7507 189.147 72.5665 182.45 63.9667 175.152C54.3246 166.948 44.9407 157.614 33.8463 149.834C32.9344 149.193 32.0226 148.574 31.0891 147.955C23.7731 143.204 15.678 139.406 7.43536 138.179C3.81298 137.654 0.147994 137.593 -3.49419 138.198C-8.17705 138.937 -12.6626 140.983 -16.4743 143.958C-23.253 149.265 -27.7711 157.736 -26.3036 166.419" stroke="#8844BA" stroke-width="0.5" stroke-miterlimit="10"/>
<path d="M168.958 -25.7825C148.703 -12.9643 128.674 5.10445 122.531 27.7807C119.988 37.1571 120.133 45.82 121.513 54.1928C122.411 59.6639 123.83 65.0233 125.379 70.4269C127.08 76.4063 129.302 82.2961 131.611 88.2745C135.88 99.3455 140.409 110.748 143.076 123.329C144.956 132.166 145.991 141.492 145.096 151.242C144.989 152.328 144.861 153.414 144.711 154.522C142.588 168.839 135.26 182.721 123.474 189.52C119.553 191.787 115.327 193.168 111.012 193.84C104.552 194.848 97.8933 194.238 91.7316 192.454C81.4693 189.48 72.5245 183.336 63.9909 176.659C54.3932 169.142 44.7719 160.45 33.656 152.803C32.7442 152.184 31.8107 151.565 30.8772 150.968C23.5613 146.261 15.596 142.309 7.43981 140.882C3.86064 140.268 0.260525 140.097 -3.36019 140.568C-7.99995 141.152 -12.4857 143.02 -16.3411 145.841C-23.1636 150.882 -27.8987 159.287 -26.4095 167.97" stroke="#8B4ABD" stroke-width="0.5" stroke-miterlimit="10"/>
<path d="M170.916 -21.6204C151.161 -8.64797 131.326 9.15463 124.705 31.0562C121.966 40.1006 121.807 48.4095 122.796 56.3841C123.455 61.5897 124.613 66.6616 125.901 71.7997C127.299 77.4694 129.195 83.0496 131.178 88.7405C134.838 99.2808 138.673 110.242 140.906 122.601C142.482 131.262 143.387 140.499 142.47 150.139C142.364 151.225 142.235 152.289 142.064 153.374C139.962 167.536 132.937 181.285 121.607 188.261C117.838 190.571 113.785 192.063 109.623 192.867C103.423 194.052 96.9816 193.708 91.0372 192.211C81.101 189.747 72.3957 184.178 63.9499 178.121C54.4184 171.291 44.538 163.242 33.379 155.75C32.4672 155.131 31.5337 154.534 30.6002 153.938C23.2843 149.253 15.4273 145.189 7.40084 143.541C3.88654 142.816 0.307996 142.578 -3.26957 142.916C-7.86618 143.367 -12.3523 145.036 -16.2295 147.724C-23.1175 152.521 -28.0479 160.86 -26.5588 169.521" stroke="#8F4FC0" stroke-width="0.5" stroke-miterlimit="10"/>
<path d="M172.875 -17.4805C153.64 -4.35386 133.957 13.1826 126.858 34.3095C123.923 43.0219 123.459 50.9768 124.079 58.5753C124.478 63.5377 125.397 68.3219 126.402 73.1725C127.517 78.5325 129.066 83.8031 130.723 89.2065C133.754 99.2161 136.916 109.757 138.736 121.874C140.03 130.38 140.783 139.507 139.844 149.035C139.738 150.099 139.61 151.163 139.438 152.227C137.358 166.211 130.615 179.848 119.762 186.979C116.145 189.355 112.265 190.935 108.277 191.85C102.316 193.234 96.135 193.133 90.3646 191.947C80.7545 189.969 72.2888 184.975 63.909 179.539C54.422 173.373 44.3041 165.99 33.102 158.631C32.1902 158.034 31.2568 157.437 30.3233 156.841C23.0074 152.2 15.2803 148.003 7.3619 146.133C3.89083 145.319 0.37717 144.971 -3.15721 145.198C-7.73239 145.494 -12.1971 146.986 -16.118 149.518C-23.0715 154.05 -28.1971 162.345 -26.708 171.005" stroke="#9255C2" stroke-width="0.5" stroke-miterlimit="10"/>
<path d="M174.833 -13.3184C156.119 -0.0153703 136.609 17.2328 129.032 37.585C125.901 45.9653 125.112 53.5885 125.384 60.7667C125.544 65.4635 126.202 69.9823 126.947 74.5453C127.758 79.5734 128.98 84.5566 130.312 89.6724C132.735 99.1513 135.224 109.25 136.61 121.146C137.6 129.497 138.222 138.514 137.24 147.932C137.134 148.996 137.005 150.037 136.834 151.101C134.753 164.93 128.335 178.412 117.96 185.741C114.516 188.162 110.767 189.852 106.952 190.9C101.23 192.46 95.2883 192.625 89.7353 191.748C80.4514 190.279 72.2034 185.84 63.9114 181.023C54.469 175.545 44.1353 168.804 32.89 161.578C31.9782 160.981 31.0448 160.407 30.0896 159.81C22.7738 155.214 15.1549 150.862 7.36628 148.792C3.96012 147.889 0.467952 147.43 -3.02328 147.524C-7.55535 147.665 -11.9987 148.98 -15.9632 151.379C-22.9822 155.645 -28.303 163.896 -26.8139 172.534" stroke="#955AC5" stroke-width="0.5" stroke-miterlimit="10"/>
<path d="M176.792 -9.15601C158.599 4.3012 139.262 21.2832 131.206 40.8386C127.901 48.8647 126.786 56.156 126.689 62.9582C126.61 67.3896 127.029 71.6429 127.491 75.9183C127.998 80.6368 128.917 85.2881 129.901 90.1165C131.694 99.0647 133.51 108.744 134.484 120.397C135.169 128.571 135.64 137.499 134.658 146.807C134.551 147.848 134.423 148.89 134.251 149.931C132.192 163.605 126.077 176.954 116.158 184.437C112.866 186.924 109.291 188.702 105.628 189.861C100.166 191.62 94.4633 192.029 89.0843 191.439C80.1265 190.479 72.118 186.616 63.9138 182.42C54.4941 177.605 43.9447 171.53 32.6564 164.459C31.7229 163.884 30.7894 163.288 29.856 162.713C22.5403 158.161 15.0512 153.654 7.37066 151.385C4.00772 150.393 0.580445 149.823 -2.88929 149.806C-7.37825 149.792 -11.8219 150.929 -15.83 153.174C-22.9145 157.196 -28.4306 165.381 -26.9199 173.997" stroke="#9860C8" stroke-width="0.5" stroke-miterlimit="10"/>
<path d="M178.751 -5.01611C161.078 8.59532 141.914 25.3333 133.358 44.0919C129.858 51.786 128.439 58.7233 127.972 65.1273C127.654 69.3154 127.812 73.2811 127.993 77.2911C128.217 81.6998 128.788 86.0415 129.446 90.5825C130.631 98.9999 131.753 108.237 132.314 119.669C132.718 127.689 133.036 136.507 132.032 145.703C131.925 146.745 131.775 147.764 131.625 148.784C129.588 162.302 123.755 175.517 114.313 183.177C111.172 185.708 107.771 187.575 104.282 188.888C99.0588 190.824 93.5951 191.498 88.4335 191.219C79.8018 190.768 72.0111 187.458 63.8947 183.882C54.4979 179.732 43.7327 174.322 32.4229 167.384C31.4894 166.809 30.556 166.235 29.6225 165.66C22.2852 161.13 14.926 156.512 7.35355 154.021C4.05552 152.941 0.649742 152.26 -2.77681 152.133C-7.24434 151.963 -11.6666 152.923 -15.6967 155.012C-22.825 158.769 -28.558 166.91 -27.0473 175.504" stroke="#9B65CB" stroke-width="0.5" stroke-miterlimit="10"/>
<path d="M180.71 -0.854004C163.558 12.9117 144.567 29.3835 135.532 47.3674C131.836 54.7295 130.091 61.335 129.255 67.3186C128.698 71.2412 128.596 74.9415 128.515 78.6639C128.435 82.763 128.702 86.795 129.013 91.0485C129.59 98.9351 130.039 107.753 130.144 118.941C130.244 126.785 130.432 135.536 129.406 144.578C129.3 145.597 129.149 146.616 128.999 147.636C126.983 160.999 121.454 174.081 112.467 181.917C109.479 184.514 106.251 186.47 102.914 187.893C97.9297 190.029 92.705 190.968 87.739 190.976C79.4335 191.034 71.8389 188.278 63.832 185.344C54.4363 181.881 43.4771 177.114 32.1241 170.309C31.1907 169.756 30.2572 169.182 29.3021 168.608C21.9648 164.122 14.7355 159.348 7.27112 156.658C4.01631 155.489 0.675401 154.697 -2.72968 154.437C-7.1541 154.112 -11.5767 154.895 -15.6503 156.851C-22.8441 160.364 -28.7724 168.439 -27.2618 177.011" stroke="#9E6BCE" stroke-width="0.5" stroke-miterlimit="10"/>
<path d="M182.668 3.30811C166.037 17.228 147.219 33.4336 137.685 50.6429C133.793 57.673 131.743 63.9245 130.538 69.5321C129.742 73.1892 129.379 76.6241 129.038 80.0589C128.654 83.8483 128.595 87.5706 128.58 91.5366C128.549 98.8926 128.303 107.268 127.996 118.236C127.792 125.925 127.828 134.566 126.802 143.496C126.695 144.493 126.545 145.513 126.395 146.51C124.4 159.719 119.174 172.667 110.665 180.657C107.829 183.321 104.775 185.364 101.611 186.898C96.8874 189.211 91.9017 190.415 87.1314 190.734C79.1519 191.279 71.7535 189.12 63.8777 186.784C54.5049 184.008 43.3298 179.884 31.9337 173.234C31.0003 172.681 30.0669 172.129 29.1118 171.555C21.7746 167.114 14.6535 162.207 7.31885 159.294C4.12895 158.037 0.809533 157.134 -2.55237 156.763C-6.93368 156.283 -11.3349 156.888 -15.4521 158.69C-22.7114 161.937 -28.835 169.968 -27.3243 178.54" stroke="#A270D1" stroke-width="0.5" stroke-miterlimit="10"/>
<path d="M184.627 7.448C168.516 21.5443 149.872 37.4616 139.859 53.8962C135.771 60.5943 133.418 66.4918 131.843 71.7012C130.808 75.115 130.184 78.2622 129.561 81.4095C128.894 84.9113 128.488 88.3019 128.147 91.9804C127.486 98.8057 126.567 106.761 125.848 117.486C125.362 124.998 125.246 133.551 124.198 142.371C124.07 143.368 123.941 144.365 123.791 145.34C121.818 158.371 116.873 171.208 108.841 179.375C106.179 182.083 103.276 184.237 100.265 185.904C95.7801 188.393 91.0334 189.863 86.4588 190.469C78.8055 191.523 71.6032 189.94 63.8368 188.202C54.4434 186.113 43.1177 182.632 31.6784 176.115C30.7451 175.584 29.79 175.032 28.8565 174.458C21.5194 170.039 14.5281 164.999 7.30159 161.887C4.15492 160.54 0.900393 159.527 -2.44001 159.045C-6.7782 158.41 -11.1797 158.816 -15.3405 160.507C-22.6653 163.488 -28.9841 171.475 -27.4518 180.024" stroke="#A576D4" stroke-width="0.5" stroke-miterlimit="10"/>
<path d="M186.585 11.6101C170.974 25.8606 152.524 41.5118 142.033 57.1717C137.75 63.5377 135.092 69.1034 133.148 73.9146C131.874 77.063 130.989 79.9448 130.105 82.8044C129.135 85.9965 128.402 89.0775 127.736 92.4685C126.467 98.7631 124.875 106.299 123.721 116.781C122.931 124.138 122.685 132.58 121.615 141.289C121.487 142.264 121.359 143.262 121.208 144.237C119.235 157.113 114.615 169.794 107.039 178.137C104.528 180.911 101.8 183.154 98.962 184.931C94.7161 187.619 90.23 189.332 85.851 190.248C78.5239 191.811 71.5178 190.826 63.8825 189.687C54.4903 188.284 42.9704 185.446 31.488 179.062C30.5546 178.531 29.5996 178.001 28.6661 177.427C21.3291 173.052 14.4461 167.879 7.32758 164.545C4.24578 163.088 1.01276 161.986 -2.28449 161.371C-6.60126 160.581 -10.9814 160.809 -15.1642 162.345C-22.5544 165.061 -29.0468 173.004 -27.5362 181.531" stroke="#A87BD7" stroke-width="0.5" stroke-miterlimit="10"/>
<path d="M188.544 15.7725C173.454 30.1772 155.198 45.5621 144.185 60.4253C139.728 66.4593 136.722 71.6711 134.409 76.0841C132.896 78.9669 131.751 81.5833 130.606 84.1775C129.332 87.06 128.295 89.8312 127.26 92.9348C125.361 98.6987 123.096 105.793 121.53 116.054C120.436 123.256 120.06 131.588 118.946 140.186C118.818 141.161 118.689 142.136 118.539 143.089C116.587 155.81 112.271 168.358 105.172 176.878C102.813 179.696 100.258 182.026 97.5726 183.959C93.5872 186.823 89.3185 188.802 85.1352 190.028C78.1559 192.1 71.3026 191.713 63.7984 191.149C54.3857 190.456 42.6934 188.238 31.1895 181.987C30.2345 181.479 29.3011 180.949 28.346 180.374C21.009 176.044 14.2558 170.738 7.24542 167.182C4.20684 165.636 1.03871 164.423 -2.21536 163.697C-6.48902 162.752 -10.8694 162.804 -15.0741 164.206C-22.5298 166.678 -29.2176 174.533 -27.707 183.06" stroke="#AB80DA" stroke-width="0.5" stroke-miterlimit="10"/>
<path d="M190.503 19.9121C175.933 34.4711 157.851 49.5898 146.359 63.6783C141.706 69.3803 138.396 74.2381 135.714 78.275C133.962 80.9146 132.535 83.2434 131.129 85.55C129.55 88.1228 128.188 90.5844 126.827 93.4006C124.32 98.6337 121.36 105.308 119.36 115.326C117.984 122.352 117.434 130.595 116.321 139.082C116.192 140.035 116.064 140.988 115.913 141.963C113.983 154.529 109.948 166.944 103.327 175.64C101.12 178.524 98.7386 180.943 96.2265 182.986C92.48 186.049 88.4502 188.272 84.4842 189.785C77.831 192.366 71.1522 192.577 63.7792 192.611C54.346 192.649 42.4812 191.03 30.9342 184.934C29.9792 184.426 29.0458 183.896 28.0907 183.343C20.7321 179.057 14.1088 173.596 7.22819 169.841C4.25452 168.206 1.10788 166.882 -2.103 166.046C-6.33354 164.945 -10.6926 164.819 -14.9626 166.067C-22.4838 168.273 -29.3668 176.084 -27.8562 184.589" stroke="#AE86DC" stroke-width="0.5" stroke-miterlimit="10"/>
<path d="M192.462 24.0745C178.412 38.7876 160.525 53.6402 148.512 66.9541C143.663 72.3241 140.049 76.85 136.997 80.4666C135.006 82.8407 133.318 84.904 131.652 86.9231C129.769 89.1862 128.081 91.3382 126.394 93.8447C123.257 98.547 119.625 104.779 117.212 114.576C115.532 121.447 114.852 129.58 113.716 137.935C113.588 138.888 113.459 139.819 113.309 140.772C111.4 153.182 107.669 165.463 101.503 174.314C99.4481 177.242 97.2187 179.771 94.8803 181.947C91.3726 185.187 87.6035 187.675 83.8115 189.498C77.4628 192.567 71.0019 193.419 63.7598 194.008C54.3062 194.777 42.2906 193.755 30.6788 187.793C29.7238 187.307 28.7687 186.777 27.8354 186.247C20.4768 181.983 13.9835 176.41 7.21086 172.433C4.28041 170.71 1.19867 169.275 -1.99075 168.306C-6.19987 167.05 -10.5375 166.747 -14.8294 167.862C-22.3945 169.802 -29.4944 177.569 -27.9621 186.074" stroke="#B18BDF" stroke-width="0.5" stroke-miterlimit="10"/>
<path d="M194.42 28.2366C180.892 43.1261 163.177 57.6904 150.686 70.2296C145.663 75.2675 141.702 79.4395 138.302 82.6801C136.051 84.7887 134.124 86.5866 132.196 88.318C130.009 90.2714 127.996 92.1138 125.983 94.3328C122.238 98.5044 117.932 104.317 115.086 113.893C113.124 120.587 112.291 128.632 111.134 136.876C111.006 137.806 110.877 138.737 110.727 139.668C108.839 151.902 105.411 164.071 99.7231 173.098C97.8415 176.093 95.764 178.71 93.5993 180.996C90.3522 184.436 86.8003 187.167 83.2257 189.3C77.2248 192.877 70.9167 194.35 63.8058 195.492C54.3317 197.014 42.1436 196.57 30.5103 190.74C29.5553 190.254 28.6003 189.746 27.6452 189.216C20.2867 184.996 13.9016 179.291 7.25876 175.092C4.37154 173.28 1.33294 171.734 -1.81329 170.654C-5.9793 169.243 -10.3172 168.763 -14.6527 169.723C-22.2832 171.441 -29.5784 179.12 -28.0462 187.603" stroke="#B491E2" stroke-width="0.5" stroke-miterlimit="10"/>
<path d="M196.379 32.3765C183.371 47.4203 165.851 61.7404 152.86 73.4829C147.641 78.1888 143.375 82.0068 139.607 84.8491C137.116 86.6923 134.907 88.2248 132.719 89.6686C130.228 91.3123 127.888 92.8229 125.55 94.7766C121.175 98.4175 116.196 103.788 112.938 113.143C110.672 119.683 109.687 127.639 108.53 135.75C108.401 136.681 108.251 137.589 108.122 138.52C106.234 150.599 103.132 162.613 97.8992 171.816C96.1695 174.877 94.2657 177.583 92.2529 179.979C89.2447 183.596 85.9535 186.592 82.5529 189.013C76.8781 193.099 70.7446 195.214 63.7863 196.91C54.2918 199.208 41.9312 199.317 30.2548 193.643C29.2998 193.179 28.3448 192.671 27.3898 192.141C20.0313 187.966 13.7761 182.105 7.21962 177.707C4.3973 175.806 1.40192 174.149 -1.72281 172.958C-5.84571 171.392 -10.1623 170.734 -14.5414 171.561C-22.2374 173.014 -29.7278 180.649 -28.1956 189.11" stroke="#B896E5" stroke-width="0.5" stroke-miterlimit="10"/>
<path d="M198.338 36.5386C185.85 51.7366 168.525 65.7906 155.012 76.7584C149.62 81.1323 145.028 84.5963 140.868 87.0405C138.139 88.6403 135.669 89.8852 133.22 91.0414C130.403 92.3755 127.76 93.5764 125.095 95.2426C120.091 98.3529 114.439 103.303 110.768 112.416C108.198 118.779 107.083 126.646 105.904 134.647C105.776 135.555 105.625 136.464 105.497 137.372C103.63 149.296 100.809 161.176 96.0539 170.556C94.476 173.661 92.7458 176.455 90.9068 179.007C88.1374 182.8 85.0852 186.062 81.902 188.793C76.5533 193.388 70.6161 196.167 63.7671 198.372C54.2739 201.446 41.7191 202.109 29.9995 196.568C29.0446 196.104 28.0679 195.618 27.1345 195.088C19.7762 190.957 13.6291 184.963 7.2024 180.343C4.42331 178.354 1.4711 176.586 -1.61048 175.262C-5.69027 173.541 -10.0071 172.706 -14.4299 173.378C-22.1913 174.565 -29.8771 182.156 -28.3449 190.595" stroke="#BB9CE8" stroke-width="0.5" stroke-miterlimit="10"/>
<path d="M200.296 40.7009C188.308 56.0532 171.2 69.8631 157.186 80.0342C151.598 84.076 146.702 87.2082 142.173 89.2542C139.205 90.5885 136.474 91.568 133.743 92.4588C130.622 93.4832 127.674 94.3744 124.662 95.7532C119.05 98.3327 112.725 102.841 108.598 111.733C105.746 117.941 104.48 125.698 103.278 133.588C103.15 134.496 103 135.383 102.871 136.269C101.026 148.037 98.5081 159.785 94.2303 169.341C92.8044 172.512 91.2478 175.395 89.5608 178.056C87.052 182.049 84.2387 185.576 81.2295 188.595C76.2069 193.699 70.466 197.121 63.7263 199.879C54.2345 203.75 41.4853 204.946 29.7443 199.537C28.7677 199.096 27.8127 198.61 26.8577 198.08C19.4994 193.971 13.4822 187.866 7.16359 183.024C4.44941 180.946 1.54038 179.068 -1.5197 177.633C-5.5781 175.734 -9.87352 174.744 -14.3182 175.261C-22.1452 176.205 -30.0262 183.729 -28.4724 192.146" stroke="#BEA1EB" stroke-width="0.5" stroke-miterlimit="10"/>
<path d="M202.255 44.8406C190.787 60.3471 173.874 73.8908 159.36 83.265C153.598 86.9969 148.354 89.7531 143.478 91.4009C140.27 92.4697 137.257 93.1616 134.287 93.787C130.862 94.5017 127.589 95.0833 124.251 96.1745C118.009 98.2233 111.011 102.312 106.472 110.96C103.316 117.014 101.919 124.661 100.696 132.44C100.545 133.326 100.417 134.213 100.288 135.099C98.4644 146.712 96.2502 158.326 92.4281 168.037C91.154 171.251 89.7711 174.245 88.2578 177.039C85.9878 181.208 83.4136 185.001 80.6216 188.307C75.9252 193.898 70.4022 198.007 63.7719 201.275C54.3031 205.943 41.3596 207.671 29.5538 202.418C28.5772 201.976 27.6223 201.512 26.6672 200.982C19.2873 196.918 13.4 190.68 7.21115 185.616C4.54018 183.449 1.69603 181.46 -1.34256 179.914C-5.35784 177.86 -9.65356 176.693 -14.1418 177.077C-22.0126 177.755 -30.1105 185.236 -28.5567 193.652" stroke="#C1A7EE" stroke-width="0.5" stroke-miterlimit="10"/>
<path d="M204.214 49.0029C193.267 64.6858 176.526 77.9633 161.512 86.5408C155.554 89.9407 150.007 92.3429 144.761 93.6146C141.315 94.4401 138.041 94.8444 134.81 95.1822C131.081 95.5651 127.481 95.837 123.818 96.6629C116.946 98.1589 109.275 101.828 104.324 110.255C100.864 116.132 99.315 123.69 98.0701 131.359C97.9197 132.223 97.7911 133.109 97.6624 133.974C95.86 145.409 93.9275 156.912 90.5828 166.799C89.4823 170.08 88.2514 173.162 86.8901 176.067C84.8589 180.435 82.5236 184.471 79.9274 188.087C75.5571 194.187 70.2521 198.96 63.7094 202.737C54.2853 208.204 41.1041 210.463 29.2769 205.343C28.3003 204.924 27.3454 204.46 26.3903 203.93C19.0105 199.91 13.2314 193.538 7.1506 188.253C4.52286 185.998 1.72184 183.875 -1.27355 182.219C-5.24573 180.01 -9.52006 178.665 -14.052 178.894C-21.9882 179.329 -30.2597 186.743 -28.7277 195.137" stroke="#C4ACF1" stroke-width="0.5" stroke-miterlimit="10"/>
<path d="M206.172 53.165C195.746 69.0021 179.222 82.0356 163.686 89.8163C157.555 92.8842 151.681 94.9545 146.066 95.8059C142.38 96.366 138.846 96.5048 135.333 96.555C131.299 96.6282 127.374 96.5905 123.385 97.1289C115.905 98.0942 107.562 101.343 102.176 109.528C98.4335 115.25 96.7328 122.698 95.466 130.233C95.3156 131.097 95.1869 131.962 95.0366 132.804C93.2555 144.084 91.6264 155.453 88.7591 165.495C87.8105 168.82 86.7532 172.012 85.5656 175.05C83.795 179.595 81.6987 183.897 79.2981 187.822C75.254 194.432 70.1886 199.868 63.7335 204.178C54.3541 210.441 40.9354 213.233 29.0649 208.246C28.0884 207.827 27.1118 207.363 26.1567 206.855C18.7769 202.857 13.1278 196.352 7.15504 190.868C4.5922 188.523 1.83436 186.29 -1.11785 184.523C-5.04691 182.158 -9.32151 180.637 -13.897 180.733C-21.8988 180.902 -30.3655 188.272 -28.8335 196.644" stroke="#C7B2F3" stroke-width="0.5" stroke-miterlimit="10"/>
<path d="M208.131 57.3049C198.226 73.2962 181.874 86.0857 165.839 93.0696C159.511 95.8276 153.312 97.5219 147.327 97.9972C143.403 98.2918 139.607 98.143 135.834 97.9278C131.496 97.6913 127.245 97.3439 122.93 97.5949C114.821 98.0294 105.804 100.836 100.006 108.8C95.9597 114.346 94.1287 121.705 92.84 129.129C92.6896 129.972 92.561 130.836 92.4106 131.678C90.6293 142.804 89.3252 154.017 86.9136 164.257C86.1169 167.648 85.2115 170.907 84.1976 174.077C82.6659 178.821 80.8085 183.366 78.6037 187.602C74.8857 194.72 70.0383 200.821 63.6708 205.64C54.3361 212.723 40.6797 216.025 28.7661 211.171C27.7896 210.774 26.813 210.31 25.8579 209.802C18.4782 205.848 12.9372 199.211 7.09428 193.526C4.57467 191.093 1.86003 188.749 -1.04899 186.871C-4.93494 184.352 -9.20987 182.653 -13.8073 182.594C-21.8745 182.519 -30.5366 189.801 -28.9829 198.173" stroke="#CBB7F6" stroke-width="0.5" stroke-miterlimit="10"/>
<path d="M210.089 61.467C200.705 77.6126 184.548 90.158 168.013 96.3451C161.511 98.7711 154.986 100.111 148.632 100.188C144.469 100.24 140.413 99.8034 136.378 99.3227C131.758 98.7544 127.181 98.1195 122.519 98.0609C113.801 97.9647 104.09 100.352 97.8574 108.073C93.5076 113.464 91.5247 120.712 90.2358 128.026C90.0854 128.868 89.9567 129.71 89.8063 130.53C88.0464 141.501 87.0241 152.581 85.0898 162.997C84.445 166.433 83.7133 169.802 82.8731 173.082C81.5801 178.003 79.9835 182.814 77.9526 187.337C74.5607 194.964 69.9746 201.708 63.6514 207.08C54.3832 214.961 40.4891 218.795 28.5324 214.096C27.5559 213.699 26.5793 213.257 25.6242 212.749C18.2446 208.84 12.8335 202.069 7.0986 196.163C4.6439 193.641 1.97245 191.186 -0.915115 189.175C-4.77964 186.501 -9.01147 184.624 -13.6742 184.433C-21.8069 184.092 -30.6642 191.33 -29.1106 199.68" stroke="#CEBDF9" stroke-width="0.5" stroke-miterlimit="10"/>
<path d="M212.048 65.6292C203.184 81.9289 187.223 94.2746 170.187 99.6206C163.489 101.737 156.66 102.723 149.937 102.402C145.534 102.188 141.218 101.464 136.901 100.718C131.977 99.8397 127.074 98.8952 122.086 98.549C112.739 97.9221 102.376 99.8671 95.7094 107.367C91.0774 112.582 88.9426 119.764 87.6318 126.945C87.4814 127.765 87.3309 128.585 87.2022 129.427C85.4638 140.242 84.7448 151.189 83.2879 161.76C82.795 165.261 82.2369 168.718 81.5487 172.132C80.5164 177.252 79.137 182.305 77.3234 187.139C74.2794 195.253 69.9113 202.683 63.6757 208.564C54.4955 217.243 40.3204 221.609 28.3205 217.043C27.3224 216.668 26.3675 216.227 25.4124 215.719C18.0328 211.854 12.7299 204.927 7.10313 198.822C4.69165 196.211 2.08506 193.646 -0.780998 191.523C-4.60245 188.672 -8.83455 186.64 -13.5192 186.294C-21.6957 185.687 -30.77 192.881 -29.2164 201.209" stroke="#D1C2FC" stroke-width="0.5" stroke-miterlimit="10"/>
<path d="M214.007 69.791C202.378 92.7202 176.38 107.121 151.22 104.571C141.243 103.568 131.609 100.15 121.653 98.9926C111.698 97.835 100.64 99.3601 93.5614 106.617C88.0627 112.254 85.8644 120.389 84.5981 128.257C82.3015 142.441 82.3257 156.909 80.2026 171.114C78.0795 185.32 73.5062 199.73 63.6564 209.982C53.8066 220.235 37.6807 225.136 25.1572 218.643C17.7559 214.801 12.6047 207.763 7.08592 201.436C1.58885 195.108 -5.14397 188.982 -13.4077 188.11C-21.6496 187.26 -30.9192 194.387 -29.3655 202.716" stroke="#D4C8FF" stroke-width="0.5" stroke-miterlimit="10"/>
</g>
<path d="M21.5 31C18.8099 29.4111 17 26.4415 17 23.0404C17 19.6392 18.8099 16.6696 21.5 15.0808L28.25 21.8918M30.5 15C33.1901 16.5888 35 19.5584 35 22.9595C35 26.3608 33.1901 29.3303 30.5 30.9191L23.75 24.189" stroke="white" stroke-width="1.5" stroke-linecap="round" stroke-linejoin="round"/>
<path d="M17.664 44V38.4H18.736L22.04 42.432H21.52V38.4H22.8V44H21.736L18.424 39.968H18.944V44H17.664ZM25.3249 40.92H28.0129V41.96H25.3249V40.92ZM25.4209 44H24.1249V38.4H28.3569V39.44H25.4209V44ZM31.8596 44.096C31.4276 44.096 31.025 44.0267 30.6516 43.888C30.2836 43.744 29.9636 43.5413 29.6916 43.28C29.4196 43.0187 29.2063 42.712 29.0516 42.36C28.9023 42.008 28.8276 41.6213 28.8276 41.2C28.8276 40.7787 28.9023 40.392 29.0516 40.04C29.2063 39.688 29.4196 39.3813 29.6916 39.12C29.969 38.8587 30.2916 38.6587 30.6596 38.52C31.0276 38.376 31.4303 38.304 31.8676 38.304C32.353 38.304 32.7903 38.3893 33.1796 38.56C33.5743 38.7253 33.905 38.9707 34.1716 39.296L33.3396 40.064C33.1476 39.8453 32.9343 39.6827 32.6996 39.576C32.465 39.464 32.209 39.408 31.9316 39.408C31.6703 39.408 31.4303 39.4507 31.2116 39.536C30.993 39.6213 30.8036 39.744 30.6436 39.904C30.4836 40.064 30.3583 40.2533 30.2676 40.472C30.1823 40.6907 30.1396 40.9333 30.1396 41.2C30.1396 41.4667 30.1823 41.7093 30.2676 41.928C30.3583 42.1467 30.4836 42.336 30.6436 42.496C30.8036 42.656 30.993 42.7787 31.2116 42.864C31.4303 42.9493 31.6703 42.992 31.9316 42.992C32.209 42.992 32.465 42.9387 32.6996 42.832C32.9343 42.72 33.1476 42.552 33.3396 42.328L34.1716 43.096C33.905 43.4213 33.5743 43.6693 33.1796 43.84C32.7903 44.0107 32.3503 44.096 31.8596 44.096ZM36.5764 44L39.0724 38.4H40.3524L42.8564 44H41.4964L39.4484 39.056H39.9604L37.9044 44H36.5764ZM37.8244 42.8L38.1684 41.816H41.0484L41.4004 42.8H37.8244ZM46.0633 44.096C45.6206 44.096 45.2126 44.0267 44.8393 43.888C44.4713 43.744 44.1486 43.5413 43.8713 43.28C43.5993 43.0187 43.386 42.712 43.2313 42.36C43.082 42.008 43.0073 41.6213 43.0073 41.2C43.0073 40.7787 43.082 40.392 43.2313 40.04C43.386 39.688 43.602 39.3813 43.8793 39.12C44.1566 38.8587 44.482 38.6587 44.8553 38.52C45.2286 38.376 45.6393 38.304 46.0873 38.304C46.5833 38.304 47.0286 38.3867 47.4233 38.552C47.8233 38.7173 48.1593 38.9573 48.4313 39.272L47.5993 40.04C47.3966 39.8267 47.1753 39.6693 46.9353 39.568C46.6953 39.4613 46.434 39.408 46.1513 39.408C45.8793 39.408 45.6313 39.4507 45.4073 39.536C45.1833 39.6213 44.9886 39.744 44.8233 39.904C44.6633 40.064 44.538 40.2533 44.4473 40.472C44.362 40.6907 44.3193 40.9333 44.3193 41.2C44.3193 41.4613 44.362 41.7013 44.4473 41.92C44.538 42.1387 44.6633 42.3307 44.8233 42.496C44.9886 42.656 45.1806 42.7787 45.3993 42.864C45.6233 42.9493 45.8686 42.992 46.1353 42.992C46.3913 42.992 46.6393 42.952 46.8793 42.872C47.1246 42.7867 47.362 42.6453 47.5913 42.448L48.3273 43.384C48.0233 43.6133 47.6686 43.7893 47.2633 43.912C46.8633 44.0347 46.4633 44.096 46.0633 44.096ZM47.1433 43.216V41.112H48.3273V43.384L47.1433 43.216ZM48.7952 44L51.2912 38.4H52.5712L55.0752 44H53.7152L51.6672 39.056H52.1792L50.1232 44H48.7952ZM50.0432 42.8L50.3872 41.816H53.2672L53.6192 42.8H50.0432ZM55.6562 44V38.4H58.2002C58.8082 38.4 59.3442 38.5173 59.8082 38.752C60.2722 38.9813 60.6349 39.304 60.8962 39.72C61.1575 40.136 61.2882 40.6293 61.2882 41.2C61.2882 41.7653 61.1575 42.2587 60.8962 42.68C60.6349 43.096 60.2722 43.4213 59.8082 43.656C59.3442 43.8853 58.8082 44 58.2002 44H55.6562ZM56.9522 42.936H58.1362C58.5095 42.936 58.8322 42.8667 59.1042 42.728C59.3815 42.584 59.5949 42.3813 59.7442 42.12C59.8989 41.8587 59.9762 41.552 59.9762 41.2C59.9762 40.8427 59.8989 40.536 59.7442 40.28C59.5949 40.0187 59.3815 39.8187 59.1042 39.68C58.8322 39.536 58.5095 39.464 58.1362 39.464H56.9522V42.936ZM62.2656 44V38.4H63.5616V44H62.2656ZM64.8906 44V38.4H67.3146C67.8159 38.4 68.2479 38.4827 68.6106 38.648C68.9732 38.808 69.2532 39.04 69.4506 39.344C69.6479 39.648 69.7466 40.0107 69.7466 40.432C69.7466 40.848 69.6479 41.208 69.4506 41.512C69.2532 41.8107 68.9732 42.04 68.6106 42.2C68.2479 42.36 67.8159 42.44 67.3146 42.44H65.6106L66.1866 41.872V44H64.8906ZM68.4506 44L67.0506 41.968H68.4346L69.8506 44H68.4506ZM66.1866 42.016L65.6106 41.408H67.2426C67.6426 41.408 67.9412 41.3227 68.1386 41.152C68.3359 40.976 68.4346 40.736 68.4346 40.432C68.4346 40.1227 68.3359 39.8827 68.1386 39.712C67.9412 39.5413 67.6426 39.456 67.2426 39.456H65.6106L66.1866 38.84V42.016Z" fill="white"/>
<path d="M17.3685 208.423H18.3839V209.438H17.3685V208.423ZM18.3839 208.423H19.3993V209.438H18.3839V208.423ZM19.3993 208.423H20.4147V209.438H19.3993V208.423ZM20.4147 208.423H21.4301V209.438H20.4147V208.423ZM21.4301 208.423H22.4455V209.438H21.4301V208.423ZM22.4455 208.423H23.4609V209.438H22.4455V208.423ZM23.4609 208.423H24.4763V209.438H23.4609V208.423ZM28.5378 208.423H29.5532V209.438H28.5378V208.423ZM31.584 208.423H32.5994V209.438H31.584V208.423ZM32.5994 208.423H33.6148V209.438H32.5994V208.423ZM33.6148 208.423H34.6302V209.438H33.6148V208.423ZM35.6456 208.423H36.6609V209.438H35.6456V208.423ZM36.6609 208.423H37.6763V209.438H36.6609V208.423ZM37.6763 208.423H38.6917V209.438H37.6763V208.423ZM38.6917 208.423H39.7071V209.438H38.6917V208.423ZM39.7071 208.423H40.7225V209.438H39.7071V208.423ZM40.7225 208.423H41.7379V209.438H40.7225V208.423ZM41.7379 208.423H42.7533V209.438H41.7379V208.423ZM17.3685 209.438H18.3839V210.454H17.3685V209.438ZM23.4609 209.438H24.4763V210.454H23.4609V209.438ZM26.507 209.438H27.5224V210.454H26.507V209.438ZM30.5686 209.438H31.584V210.454H30.5686V209.438ZM31.584 209.438H32.5994V210.454H31.584V209.438ZM33.6148 209.438H34.6302V210.454H33.6148V209.438ZM35.6456 209.438H36.6609V210.454H35.6456V209.438ZM41.7379 209.438H42.7533V210.454H41.7379V209.438ZM17.3685 210.454H18.3839V211.469H17.3685V210.454ZM19.3993 210.454H20.4147V211.469H19.3993V210.454ZM20.4147 210.454H21.4301V211.469H20.4147V210.454ZM21.4301 210.454H22.4455V211.469H21.4301V210.454ZM23.4609 210.454H24.4763V211.469H23.4609V210.454ZM26.507 210.454H27.5224V211.469H26.507V210.454ZM27.5224 210.454H28.5378V211.469H27.5224V210.454ZM29.5532 210.454H30.5686V211.469H29.5532V210.454ZM31.584 210.454H32.5994V211.469H31.584V210.454ZM32.5994 210.454H33.6148V211.469H32.5994V210.454ZM35.6456 210.454H36.6609V211.469H35.6456V210.454ZM37.6763 210.454H38.6917V211.469H37.6763V210.454ZM38.6917 210.454H39.7071V211.469H38.6917V210.454ZM39.7071 210.454H40.7225V211.469H39.7071V210.454ZM41.7379 210.454H42.7533V211.469H41.7379V210.454ZM17.3685 211.469H18.3839V212.484H17.3685V211.469ZM19.3993 211.469H20.4147V212.484H19.3993V211.469ZM20.4147 211.469H21.4301V212.484H20.4147V211.469ZM21.4301 211.469H22.4455V212.484H21.4301V211.469ZM23.4609 211.469H24.4763V212.484H23.4609V211.469ZM25.4917 211.469H26.507V212.484H25.4917V211.469ZM26.507 211.469H27.5224V212.484H26.507V211.469ZM29.5532 211.469H30.5686V212.484H29.5532V211.469ZM31.584 211.469H32.5994V212.484H31.584V211.469ZM32.5994 211.469H33.6148V212.484H32.5994V211.469ZM35.6456 211.469H36.6609V212.484H35.6456V211.469ZM37.6763 211.469H38.6917V212.484H37.6763V211.469ZM38.6917 211.469H39.7071V212.484H38.6917V211.469ZM39.7071 211.469H40.7225V212.484H39.7071V211.469ZM41.7379 211.469H42.7533V212.484H41.7379V211.469ZM17.3685 212.484H18.3839V213.5H17.3685V212.484ZM19.3993 212.484H20.4147V213.5H19.3993V212.484ZM20.4147 212.484H21.4301V213.5H20.4147V212.484ZM21.4301 212.484H22.4455V213.5H21.4301V212.484ZM23.4609 212.484H24.4763V213.5H23.4609V212.484ZM27.5224 212.484H28.5378V213.5H27.5224V212.484ZM28.5378 212.484H29.5532V213.5H28.5378V212.484ZM29.5532 212.484H30.5686V213.5H29.5532V212.484ZM30.5686 212.484H31.584V213.5H30.5686V212.484ZM31.584 212.484H32.5994V213.5H31.584V212.484ZM35.6456 212.484H36.6609V213.5H35.6456V212.484ZM37.6763 212.484H38.6917V213.5H37.6763V212.484ZM38.6917 212.484H39.7071V213.5H38.6917V212.484ZM39.7071 212.484H40.7225V213.5H39.7071V212.484ZM41.7379 212.484H42.7533V213.5H41.7379V212.484ZM17.3685 213.5H18.3839V214.515H17.3685V213.5ZM23.4609 213.5H24.4763V214.515H23.4609V213.5ZM25.4917 213.5H26.507V214.515H25.4917V213.5ZM28.5378 213.5H29.5532V214.515H28.5378V213.5ZM33.6148 213.5H34.6302V214.515H33.6148V213.5ZM35.6456 213.5H36.6609V214.515H35.6456V213.5ZM41.7379 213.5H42.7533V214.515H41.7379V213.5ZM17.3685 214.515H18.3839V215.531H17.3685V214.515ZM18.3839 214.515H19.3993V215.531H18.3839V214.515ZM19.3993 214.515H20.4147V215.531H19.3993V214.515ZM20.4147 214.515H21.4301V215.531H20.4147V214.515ZM21.4301 214.515H22.4455V215.531H21.4301V214.515ZM22.4455 214.515H23.4609V215.531H22.4455V214.515ZM23.4609 214.515H24.4763V215.531H23.4609V214.515ZM25.4917 214.515H26.507V215.531H25.4917V214.515ZM27.5224 214.515H28.5378V215.531H27.5224V214.515ZM29.5532 214.515H30.5686V215.531H29.5532V214.515ZM31.584 214.515H32.5994V215.531H31.584V214.515ZM33.6148 214.515H34.6302V215.531H33.6148V214.515ZM35.6456 214.515H36.6609V215.531H35.6456V214.515ZM36.6609 214.515H37.6763V215.531H36.6609V214.515ZM37.6763 214.515H38.6917V215.531H37.6763V214.515ZM38.6917 214.515H39.7071V215.531H38.6917V214.515ZM39.7071 214.515H40.7225V215.531H39.7071V214.515ZM40.7225 214.515H41.7379V215.531H40.7225V214.515ZM41.7379 214.515H42.7533V215.531H41.7379V214.515ZM25.4917 215.531H26.507V216.546H25.4917V215.531ZM26.507 215.531H27.5224V216.546H26.507V215.531ZM27.5224 215.531H28.5378V216.546H27.5224V215.531ZM31.584 215.531H32.5994V216.546H31.584V215.531ZM32.5994 215.531H33.6148V216.546H32.5994V215.531ZM33.6148 215.531H34.6302V216.546H33.6148V215.531ZM18.3839 216.546H19.3993V217.561H18.3839V216.546ZM19.3993 216.546H20.4147V217.561H19.3993V216.546ZM23.4609 216.546H24.4763V217.561H23.4609V216.546ZM30.5686 216.546H31.584V217.561H30.5686V216.546ZM31.584 216.546H32.5994V217.561H31.584V216.546ZM33.6148 216.546H34.6302V217.561H33.6148V216.546ZM35.6456 216.546H36.6609V217.561H35.6456V216.546ZM36.6609 216.546H37.6763V217.561H36.6609V216.546ZM38.6917 216.546H39.7071V217.561H38.6917V216.546ZM18.3839 217.561H19.3993V218.577H18.3839V217.561ZM19.3993 217.561H20.4147V218.577H19.3993V217.561ZM21.4301 217.561H22.4455V218.577H21.4301V217.561ZM24.4763 217.561H25.4917V218.577H24.4763V217.561ZM27.5224 217.561H28.5378V218.577H27.5224V217.561ZM28.5378 217.561H29.5532V218.577H28.5378V217.561ZM29.5532 217.561H30.5686V218.577H29.5532V217.561ZM30.5686 217.561H31.584V218.577H30.5686V217.561ZM31.584 217.561H32.5994V218.577H31.584V217.561ZM32.5994 217.561H33.6148V218.577H32.5994V217.561ZM33.6148 217.561H34.6302V218.577H33.6148V217.561ZM35.6456 217.561H36.6609V218.577H35.6456V217.561ZM36.6609 217.561H37.6763V218.577H36.6609V217.561ZM38.6917 217.561H39.7071V218.577H38.6917V217.561ZM40.7225 217.561H41.7379V218.577H40.7225V217.561ZM41.7379 217.561H42.7533V218.577H41.7379V217.561ZM23.4609 218.577H24.4763V219.592H23.4609V218.577ZM28.5378 218.577H29.5532V219.592H28.5378V218.577ZM32.5994 218.577H33.6148V219.592H32.5994V218.577ZM34.6302 218.577H35.6456V219.592H34.6302V218.577ZM36.6609 218.577H37.6763V219.592H36.6609V218.577ZM38.6917 218.577H39.7071V219.592H38.6917V218.577ZM39.7071 218.577H40.7225V219.592H39.7071V218.577ZM41.7379 218.577H42.7533V219.592H41.7379V218.577ZM17.3685 219.592H18.3839V220.608H17.3685V219.592ZM18.3839 219.592H19.3993V220.608H18.3839V219.592ZM21.4301 219.592H22.4455V220.608H21.4301V219.592ZM24.4763 219.592H25.4917V220.608H24.4763V219.592ZM26.507 219.592H27.5224V220.608H26.507V219.592ZM27.5224 219.592H28.5378V220.608H27.5224V219.592ZM30.5686 219.592H31.584V220.608H30.5686V219.592ZM32.5994 219.592H33.6148V220.608H32.5994V219.592ZM34.6302 219.592H35.6456V220.608H34.6302V219.592ZM36.6609 219.592H37.6763V220.608H36.6609V219.592ZM38.6917 219.592H39.7071V220.608H38.6917V219.592ZM17.3685 220.608H18.3839V221.623H17.3685V220.608ZM18.3839 220.608H19.3993V221.623H18.3839V220.608ZM20.4147 220.608H21.4301V221.623H20.4147V220.608ZM23.4609 220.608H24.4763V221.623H23.4609V220.608ZM24.4763 220.608H25.4917V221.623H24.4763V220.608ZM25.4917 220.608H26.507V221.623H25.4917V220.608ZM26.507 220.608H27.5224V221.623H26.507V220.608ZM27.5224 220.608H28.5378V221.623H27.5224V220.608ZM30.5686 220.608H31.584V221.623H30.5686V220.608ZM32.5994 220.608H33.6148V221.623H32.5994V220.608ZM33.6148 220.608H34.6302V221.623H33.6148V220.608ZM35.6456 220.608H36.6609V221.623H35.6456V220.608ZM36.6609 220.608H37.6763V221.623H36.6609V220.608ZM41.7379 220.608H42.7533V221.623H41.7379V220.608ZM19.3993 221.623H20.4147V222.638H19.3993V221.623ZM20.4147 221.623H21.4301V222.638H20.4147V221.623ZM21.4301 221.623H22.4455V222.638H21.4301V221.623ZM27.5224 221.623H28.5378V222.638H27.5224V221.623ZM28.5378 221.623H29.5532V222.638H28.5378V221.623ZM29.5532 221.623H30.5686V222.638H29.5532V221.623ZM32.5994 221.623H33.6148V222.638H32.5994V221.623ZM33.6148 221.623H34.6302V222.638H33.6148V221.623ZM35.6456 221.623H36.6609V222.638H35.6456V221.623ZM36.6609 221.623H37.6763V222.638H36.6609V221.623ZM40.7225 221.623H41.7379V222.638H40.7225V221.623ZM41.7379 221.623H42.7533V222.638H41.7379V221.623ZM17.3685 222.638H18.3839V223.654H17.3685V222.638ZM18.3839 222.638H19.3993V223.654H18.3839V222.638ZM20.4147 222.638H21.4301V223.654H20.4147V222.638ZM22.4455 222.638H23.4609V223.654H22.4455V222.638ZM23.4609 222.638H24.4763V223.654H23.4609V222.638ZM25.4917 222.638H26.507V223.654H25.4917V222.638ZM26.507 222.638H27.5224V223.654H26.507V222.638ZM27.5224 222.638H28.5378V223.654H27.5224V222.638ZM29.5532 222.638H30.5686V223.654H29.5532V222.638ZM32.5994 222.638H33.6148V223.654H32.5994V222.638ZM33.6148 222.638H34.6302V223.654H33.6148V222.638ZM35.6456 222.638H36.6609V223.654H35.6456V222.638ZM38.6917 222.638H39.7071V223.654H38.6917V222.638ZM39.7071 222.638H40.7225V223.654H39.7071V222.638ZM41.7379 222.638H42.7533V223.654H41.7379V222.638ZM19.3993 223.654H20.4147V224.669H19.3993V223.654ZM20.4147 223.654H21.4301V224.669H20.4147V223.654ZM21.4301 223.654H22.4455V224.669H21.4301V223.654ZM24.4763 223.654H25.4917V224.669H24.4763V223.654ZM27.5224 223.654H28.5378V224.669H27.5224V223.654ZM31.584 223.654H32.5994V224.669H31.584V223.654ZM32.5994 223.654H33.6148V224.669H32.5994V223.654ZM33.6148 223.654H34.6302V224.669H33.6148V223.654ZM34.6302 223.654H35.6456V224.669H34.6302V223.654ZM35.6456 223.654H36.6609V224.669H35.6456V223.654ZM36.6609 223.654H37.6763V224.669H36.6609V223.654ZM37.6763 223.654H38.6917V224.669H37.6763V223.654ZM38.6917 223.654H39.7071V224.669H38.6917V223.654ZM17.3685 224.669H18.3839V225.684H17.3685V224.669ZM18.3839 224.669H19.3993V225.684H18.3839V224.669ZM19.3993 224.669H20.4147V225.684H19.3993V224.669ZM21.4301 224.669H22.4455V225.684H21.4301V224.669ZM23.4609 224.669H24.4763V225.684H23.4609V224.669ZM25.4917 224.669H26.507V225.684H25.4917V224.669ZM28.5378 224.669H29.5532V225.684H28.5378V224.669ZM33.6148 224.669H34.6302V225.684H33.6148V224.669ZM34.6302 224.669H35.6456V225.684H34.6302V224.669ZM35.6456 224.669H36.6609V225.684H35.6456V224.669ZM36.6609 224.669H37.6763V225.684H36.6609V224.669ZM37.6763 224.669H38.6917V225.684H37.6763V224.669ZM40.7225 224.669H41.7379V225.684H40.7225V224.669ZM25.4917 225.684H26.507V226.7H25.4917V225.684ZM26.507 225.684H27.5224V226.7H26.507V225.684ZM27.5224 225.684H28.5378V226.7H27.5224V225.684ZM28.5378 225.684H29.5532V226.7H28.5378V225.684ZM30.5686 225.684H31.584V226.7H30.5686V225.684ZM31.584 225.684H32.5994V226.7H31.584V225.684ZM33.6148 225.684H34.6302V226.7H33.6148V225.684ZM37.6763 225.684H38.6917V226.7H37.6763V225.684ZM41.7379 225.684H42.7533V226.7H41.7379V225.684ZM17.3685 226.7H18.3839V227.715H17.3685V226.7ZM18.3839 226.7H19.3993V227.715H18.3839V226.7ZM19.3993 226.7H20.4147V227.715H19.3993V226.7ZM20.4147 226.7H21.4301V227.715H20.4147V226.7ZM21.4301 226.7H22.4455V227.715H21.4301V226.7ZM22.4455 226.7H23.4609V227.715H22.4455V226.7ZM23.4609 226.7H24.4763V227.715H23.4609V226.7ZM27.5224 226.7H28.5378V227.715H27.5224V226.7ZM28.5378 226.7H29.5532V227.715H28.5378V226.7ZM31.584 226.7H32.5994V227.715H31.584V226.7ZM33.6148 226.7H34.6302V227.715H33.6148V226.7ZM35.6456 226.7H36.6609V227.715H35.6456V226.7ZM37.6763 226.7H38.6917V227.715H37.6763V226.7ZM41.7379 226.7H42.7533V227.715H41.7379V226.7ZM17.3685 227.715H18.3839V228.731H17.3685V227.715ZM23.4609 227.715H24.4763V228.731H23.4609V227.715ZM26.507 227.715H27.5224V228.731H26.507V227.715ZM27.5224 227.715H28.5378V228.731H27.5224V227.715ZM29.5532 227.715H30.5686V228.731H29.5532V227.715ZM30.5686 227.715H31.584V228.731H30.5686V227.715ZM33.6148 227.715H34.6302V228.731H33.6148V227.715ZM37.6763 227.715H38.6917V228.731H37.6763V227.715ZM40.7225 227.715H41.7379V228.731H40.7225V227.715ZM17.3685 228.731H18.3839V229.746H17.3685V228.731ZM19.3993 228.731H20.4147V229.746H19.3993V228.731ZM20.4147 228.731H21.4301V229.746H20.4147V228.731ZM21.4301 228.731H22.4455V229.746H21.4301V228.731ZM23.4609 228.731H24.4763V229.746H23.4609V228.731ZM26.507 228.731H27.5224V229.746H26.507V228.731ZM27.5224 228.731H28.5378V229.746H27.5224V228.731ZM31.584 228.731H32.5994V229.746H31.584V228.731ZM32.5994 228.731H33.6148V229.746H32.5994V228.731ZM33.6148 228.731H34.6302V229.746H33.6148V228.731ZM34.6302 228.731H35.6456V229.746H34.6302V228.731ZM35.6456 228.731H36.6609V229.746H35.6456V228.731ZM36.6609 228.731H37.6763V229.746H36.6609V228.731ZM37.6763 228.731H38.6917V229.746H37.6763V228.731ZM40.7225 228.731H41.7379V229.746H40.7225V228.731ZM41.7379 228.731H42.7533V229.746H41.7379V228.731ZM17.3685 229.746H18.3839V230.761H17.3685V229.746ZM19.3993 229.746H20.4147V230.761H19.3993V229.746ZM20.4147 229.746H21.4301V230.761H20.4147V229.746ZM21.4301 229.746H22.4455V230.761H21.4301V229.746ZM23.4609 229.746H24.4763V230.761H23.4609V229.746ZM26.507 229.746H27.5224V230.761H26.507V229.746ZM27.5224 229.746H28.5378V230.761H27.5224V229.746ZM28.5378 229.746H29.5532V230.761H28.5378V229.746ZM29.5532 229.746H30.5686V230.761H29.5532V229.746ZM32.5994 229.746H33.6148V230.761H32.5994V229.746ZM34.6302 229.746H35.6456V230.761H34.6302V229.746ZM37.6763 229.746H38.6917V230.761H37.6763V229.746ZM39.7071 229.746H40.7225V230.761H39.7071V229.746ZM40.7225 229.746H41.7379V230.761H40.7225V229.746ZM17.3685 230.761H18.3839V231.777H17.3685V230.761ZM19.3993 230.761H20.4147V231.777H19.3993V230.761ZM20.4147 230.761H21.4301V231.777H20.4147V230.761ZM21.4301 230.761H22.4455V231.777H21.4301V230.761ZM23.4609 230.761H24.4763V231.777H23.4609V230.761ZM25.4917 230.761H26.507V231.777H25.4917V230.761ZM30.5686 230.761H31.584V231.777H30.5686V230.761ZM31.584 230.761H32.5994V231.777H31.584V230.761ZM32.5994 230.761H33.6148V231.777H32.5994V230.761ZM33.6148 230.761H34.6302V231.777H33.6148V230.761ZM34.6302 230.761H35.6456V231.777H34.6302V230.761ZM36.6609 230.761H37.6763V231.777H36.6609V230.761ZM37.6763 230.761H38.6917V231.777H37.6763V230.761ZM38.6917 230.761H39.7071V231.777H38.6917V230.761ZM40.7225 230.761H41.7379V231.777H40.7225V230.761ZM41.7379 230.761H42.7533V231.777H41.7379V230.761ZM17.3685 231.777H18.3839V232.792H17.3685V231.777ZM23.4609 231.777H24.4763V232.792H23.4609V231.777ZM25.4917 231.777H26.507V232.792H25.4917V231.777ZM26.507 231.777H27.5224V232.792H26.507V231.777ZM27.5224 231.777H28.5378V232.792H27.5224V231.777ZM30.5686 231.777H31.584V232.792H30.5686V231.777ZM33.6148 231.777H34.6302V232.792H33.6148V231.777ZM34.6302 231.777H35.6456V232.792H34.6302V231.777ZM35.6456 231.777H36.6609V232.792H35.6456V231.777ZM36.6609 231.777H37.6763V232.792H36.6609V231.777ZM37.6763 231.777H38.6917V232.792H37.6763V231.777ZM17.3685 232.792H18.3839V233.808H17.3685V232.792ZM18.3839 232.792H19.3993V233.808H18.3839V232.792ZM19.3993 232.792H20.4147V233.808H19.3993V232.792ZM20.4147 232.792H21.4301V233.808H20.4147V232.792ZM21.4301 232.792H22.4455V233.808H21.4301V232.792ZM22.4455 232.792H23.4609V233.808H22.4455V232.792ZM23.4609 232.792H24.4763V233.808H23.4609V232.792ZM27.5224 232.792H28.5378V233.808H27.5224V232.792ZM29.5532 232.792H30.5686V233.808H29.5532V232.792ZM33.6148 232.792H34.6302V233.808H33.6148V232.792ZM35.6456 232.792H36.6609V233.808H35.6456V232.792ZM38.6917 232.792H39.7071V233.808H38.6917V232.792ZM41.7379 232.792H42.7533V233.808H41.7379V232.792Z" fill="white"/>
<defs>
<linearGradient id="paint0_linear_52_4611" x1="86.8426" y1="0.000488281" x2="86.8426" y2="247.168" gradientUnits="userSpaceOnUse">
<stop offset="0.196368" stop-color="#8239B4"/>
<stop offset="1" stop-color="#D7CCFF"/>
</linearGradient>
</defs>
</svg>
