<svg width="175" height="248" viewBox="0 0 175 248" fill="none" xmlns="http://www.w3.org/2000/svg">
<rect x="0.673828" y="1.00073" width="173.554" height="246.981" rx="9" fill="url(#paint0_linear_52_4535)"/>
<mask id="mask0_52_4535" style="mask-type:luminance" maskUnits="userSpaceOnUse" x="1" y="0" width="174" height="248">
<path d="M174.205 238.97L174.315 9.08252C174.317 4.11196 170.289 0.0805987 165.319 0.0782293L10.1179 0.00424583C5.1473 0.00187639 1.11595 4.02939 1.11358 8.99996L1.00399 238.887C1.00162 243.858 5.02912 247.889 9.99969 247.891L165.201 247.965C170.171 247.968 174.203 243.94 174.205 238.97Z" fill="white"/>
</mask>
<g mask="url(#mask0_52_4535)">
<path d="M39.4438 -12.2728C32.4649 3.38211 41.4401 23.6926 58.0212 29.8977C67.3724 33.3932 77.7865 32.6958 87.7677 31.709C101.884 30.3111 121.955 28.0277 132.103 40.0757C136.085 44.8082 137.792 51.2128 136.642 57.1822C134.905 66.2086 127.325 73.1665 123.965 81.7377C120.215 91.2796 121.509 100.824 128.585 108.326C135.315 115.477 143.604 121.12 150.139 128.436C161.326 140.96 166.384 158.169 164.147 174.446C161.54 193.285 152.265 210.88 153.858 230.299C154.46 237.819 157.185 244.967 162.183 250.857C171.206 261.5 182.894 269.665 194.754 277.293" stroke="#F2F2F2" stroke-width="0.3" stroke-miterlimit="10"/>
<path d="M41.9766 -12.3956C37.5113 -1.16015 41.2286 12.6201 49.7111 21.7753C52.7622 25.0406 56.4198 27.7278 60.5758 29.4444C64.6886 31.1609 69.0182 32.0099 73.4347 32.3838C78.5656 32.8201 83.7834 32.5954 88.9363 32.2879C92.3355 32.1037 96.1244 31.8369 100.043 31.7562C111.778 31.4932 124.789 32.6149 132.427 41.4392C136.452 46.0684 138.268 52.3078 137.334 58.174C135.922 67.0353 128.818 74.0348 125.609 82.5854C123.702 87.6456 123.136 92.7063 124.022 97.4373C124.799 101.569 126.681 105.495 129.732 108.987C135.986 116.138 143.669 121.864 149.684 129.179C160.027 141.682 164.565 158.664 162.479 174.838C162.37 175.747 162.24 176.635 162.088 177.544C159.395 194.358 152.438 210.281 153.448 227.386C153.49 228.254 153.577 229.121 153.663 229.989C154.46 237.364 157.272 244.368 162.27 250.155C171.293 260.632 182.915 268.694 194.69 276.219" stroke="#E8F2F3" stroke-width="0.3" stroke-miterlimit="10"/>
<path d="M44.51 -12.5387C40.716 -1.59212 44.6282 11.9196 52.7643 21.116C55.6856 24.402 59.1699 27.1304 63.1311 28.9501C67.0272 30.7492 71.1403 31.7633 75.3186 32.2818C80.1896 32.9038 85.1691 32.9062 90.1054 32.8259C93.3746 32.7861 97.0335 32.6846 100.844 32.7277C112.254 32.8778 125.092 34.144 132.795 42.7618C136.841 47.2877 138.809 53.3619 138.091 59.1249C137.005 67.8418 130.376 74.8621 127.32 83.3715C125.499 88.3904 124.933 93.3892 125.711 98.1201C126.401 102.231 128.132 106.116 130.944 109.608C136.722 116.758 143.777 122.566 149.316 129.861C158.793 142.343 162.833 159.118 160.899 175.147C160.79 176.036 160.66 176.945 160.529 177.833C158.075 194.523 151.832 210.302 153.275 227.056C153.339 227.903 153.447 228.75 153.555 229.617C154.526 236.848 157.445 243.708 162.444 249.391C171.489 259.682 183.024 267.641 194.712 275.083" stroke="#DDF2F3" stroke-width="0.3" stroke-miterlimit="10"/>
<path d="M47.0651 -12.682C43.964 -2.02432 48.0712 11.219 55.8609 20.4772C58.6522 23.7837 61.9634 26.5534 65.7079 28.4763C69.4092 30.3785 73.2624 31.5165 77.2241 32.2208C81.8352 33.0286 86.5548 33.2581 91.2962 33.4049C94.4354 33.5097 97.9427 33.5734 101.645 33.761C112.729 34.3241 125.372 35.7141 133.141 44.1254C137.231 48.548 139.328 54.457 138.827 60.1169C138.065 68.6893 131.892 75.7305 129.008 84.1987C127.296 89.1763 126.709 94.1338 127.399 98.8233C128.003 102.893 129.582 106.757 132.157 110.249C137.479 117.42 143.907 123.289 148.926 130.584C157.537 143.024 161.08 159.593 159.297 175.519C159.188 176.407 159.079 177.295 158.971 178.183C156.733 194.729 151.226 210.364 153.102 226.787C153.21 227.614 153.318 228.461 153.447 229.287C154.613 236.373 157.619 243.088 162.618 248.668C171.663 258.774 183.133 266.629 194.734 273.988" stroke="#D3F1F4" stroke-width="0.3" stroke-miterlimit="10"/>
<path d="M49.598 -12.8254C47.1683 -2.45654 51.4705 10.5183 58.9354 19.8384C61.5968 23.1655 64.7347 25.997 68.2627 28.0024C71.7474 30.0079 75.3841 31.2697 79.1292 32.1391C83.4804 33.1534 87.9618 33.5893 92.4865 33.9633C95.4957 34.2126 98.8731 34.4621 102.467 34.7737C113.227 35.7497 125.696 37.2637 133.508 45.489C137.62 49.8084 139.847 55.5522 139.584 61.1089C139.147 69.5162 133.472 76.599 130.718 85.0258C129.114 89.9622 128.527 94.8783 129.109 99.5265C129.627 103.576 131.032 107.398 133.39 110.869C138.237 118.04 144.058 123.992 148.557 131.265C156.302 143.684 159.347 160.026 157.716 175.828C157.629 176.716 157.52 177.584 157.412 178.472C155.39 194.873 150.598 210.363 152.929 226.457C153.058 227.283 153.188 228.089 153.339 228.915C154.678 235.857 157.792 242.406 162.813 247.904C171.879 257.823 183.264 265.575 194.778 272.852" stroke="#C9F1F4" stroke-width="0.3" stroke-miterlimit="10"/>
<path d="M52.1311 -12.9482C50.3726 -2.84759 54.8698 9.83817 61.9883 19.22C64.5414 22.5677 67.4845 25.4405 70.796 27.5491C74.0641 29.6371 77.4842 31.064 80.991 32.0779C85.0607 33.278 89.3038 33.941 93.6336 34.5628C96.5129 34.9773 99.7602 35.3507 103.246 35.8069C113.702 37.1546 125.977 38.8543 133.854 46.8731C138.009 51.0892 140.366 56.6472 140.298 62.1213C140.208 70.3842 134.965 77.4879 132.385 85.8735C130.867 90.7686 130.28 95.6434 130.754 100.25C131.164 104.258 132.439 108.06 134.559 111.531C138.929 118.722 144.101 124.736 148.124 132.009C154.981 144.407 157.55 160.541 156.07 176.219C155.983 177.087 155.896 177.955 155.809 178.843C154.004 195.099 149.949 210.446 152.734 226.209C152.885 227.014 153.036 227.82 153.209 228.605C154.721 235.402 157.944 241.807 162.965 247.201C172.031 256.956 183.351 264.584 194.779 271.778" stroke="#BEF1F5" stroke-width="0.3" stroke-miterlimit="10"/>
<path d="M54.686 -13.0913C53.5988 -3.27956 58.3126 9.13775 65.0847 18.5814C67.5079 21.9497 70.2777 24.8637 73.3726 27.0962C76.4243 29.2873 79.6061 30.8381 82.8964 32.0378C86.7062 33.4237 90.711 34.3138 94.8242 35.1628C97.5735 35.7218 100.669 36.281 104.046 36.8611C114.178 38.6218 126.279 40.4454 134.2 48.2576C138.398 52.3704 140.885 57.7632 141.034 63.1342C141.268 71.2526 136.502 78.3978 134.073 86.7215C132.664 91.5753 132.055 96.4089 132.443 100.974C132.765 104.961 133.889 108.722 135.771 112.193C139.665 119.383 144.23 125.48 147.756 132.732C153.747 145.109 155.818 161.016 154.49 176.591C154.424 177.458 154.337 178.326 154.25 179.173C152.684 195.305 149.342 210.508 152.561 225.92C152.734 226.705 152.907 227.49 153.123 228.275C154.83 234.927 158.139 241.188 163.16 246.479C172.248 256.047 183.481 263.572 194.823 270.684" stroke="#B4F1F6" stroke-width="0.3" stroke-miterlimit="10"/>
<path d="M57.2192 -13.2349C56.8033 -3.71202 61.7121 8.43685 68.1593 17.9423C70.4526 21.3312 73.0492 24.2864 75.9276 26.6221C78.7843 28.9164 81.728 30.6117 84.8017 31.9559C88.3515 33.5276 92.1181 34.6449 96.0147 35.7209C98.634 36.4452 101.6 37.1489 104.869 37.8528C114.675 40.0265 126.603 41.9946 134.567 49.6003C138.787 53.6099 141.404 58.8374 141.791 64.1053C142.35 72.0586 138.06 79.2453 135.783 87.5278C134.46 92.3404 133.852 97.1326 134.153 101.657C134.389 105.602 135.361 109.362 137.005 112.813C140.444 120.024 144.36 126.182 147.387 133.434C152.513 145.79 154.064 161.469 152.909 176.92C152.844 177.767 152.778 178.635 152.691 179.482C151.341 195.47 148.693 210.528 152.388 225.609C152.582 226.374 152.777 227.138 153.015 227.923C154.895 234.431 158.313 240.548 163.333 245.735C172.422 255.118 183.59 262.539 194.845 269.568" stroke="#AAF1F6" stroke-width="0.3" stroke-miterlimit="10"/>
<path d="M59.7522 -13.3576C60.0076 -4.12369 65.1331 7.75673 71.2122 17.324C73.3973 20.7335 75.799 23.7506 78.4608 26.1688C81.101 28.5456 83.8281 30.3854 86.6635 31.8948C89.9535 33.6729 93.4602 34.9966 97.1618 36.2998C99.6512 37.1686 102.487 38.0375 105.626 38.886C115.107 41.4727 126.862 43.5647 134.869 50.9638C139.133 54.8701 141.88 59.9324 142.462 65.0971C143.346 72.906 139.51 80.1135 137.406 88.3548C136.192 93.1054 135.583 97.877 135.754 102.38C135.904 106.305 136.703 110.024 138.131 113.474C141.093 120.706 144.403 126.925 146.911 134.157C151.17 146.47 152.223 161.964 151.22 177.291C151.155 178.138 151.111 178.985 151.046 179.832C149.912 195.676 147.978 210.61 152.128 225.361C152.344 226.105 152.56 226.87 152.82 227.613C154.874 233.977 158.4 239.928 163.442 245.033C172.552 254.229 183.634 261.547 194.78 268.494" stroke="#9FF0F7" stroke-width="0.3" stroke-miterlimit="10"/>
<path d="M62.2853 -13.501C63.212 -4.5559 68.5324 7.05606 74.2868 16.6851C76.3419 20.1152 78.5705 23.1736 81.0157 25.6949C83.4394 28.175 85.9282 30.1386 88.5471 31.8131C91.5988 33.777 94.8456 35.3279 98.3089 36.8582C100.668 37.8922 103.374 38.9057 106.405 39.8987C115.561 42.8777 127.143 45.1348 135.215 52.3274C139.5 56.1304 142.399 61.0069 143.198 66.089C144.406 73.7535 141.047 80.982 139.095 89.182C137.967 93.8913 137.358 98.6216 137.443 103.084C137.506 106.967 138.153 110.665 139.343 114.116C141.829 121.347 144.511 127.649 146.521 134.88C149.935 147.172 150.469 162.438 149.618 177.642C149.574 178.489 149.53 179.315 149.465 180.162C148.548 195.861 147.35 210.651 151.933 225.072C152.171 225.816 152.409 226.539 152.69 227.283C154.939 233.502 158.552 239.308 163.594 244.289C172.704 253.321 183.721 260.515 194.781 267.378" stroke="#95F0F8" stroke-width="0.3" stroke-miterlimit="10"/>
<path d="M64.8402 -13.6448C66.4382 -4.9886 71.9536 6.35492 77.3615 16.0458C79.2868 19.4758 81.342 22.5961 83.5924 25.2206C85.7995 27.8038 88.0718 29.912 90.4741 31.7516C93.2659 33.9013 96.2745 35.6999 99.5212 37.4367C101.751 38.6359 104.305 39.7939 107.249 40.9108C116.08 44.3028 127.489 46.6839 135.604 53.6906C139.933 57.3903 142.94 62.1016 143.977 67.0805C145.51 74.5799 142.627 81.8499 140.826 90.0087C139.807 94.6768 139.176 99.3657 139.153 103.786C139.129 107.649 139.625 111.327 140.576 114.756C142.586 122.008 144.662 128.351 146.152 135.581C148.701 147.832 148.737 162.892 148.037 177.992C147.994 178.818 147.95 179.665 147.928 180.491C147.249 196.067 146.766 210.712 151.782 224.782C152.042 225.506 152.323 226.229 152.604 226.931C155.026 233.006 158.747 238.668 163.789 243.545C172.921 252.391 183.851 259.481 194.825 266.262" stroke="#8BF0F8" stroke-width="0.3" stroke-miterlimit="10"/>
<path d="M67.3734 -13.7879C69.6427 -5.42055 75.3748 5.65452 80.4363 15.4072C82.2532 18.8578 84.1136 22.04 86.1475 24.747C88.1597 27.4128 90.1937 29.6654 92.3578 31.6702C94.8898 34.0057 97.6384 36.0314 100.69 37.9953C102.79 39.3391 105.214 40.6623 108.028 41.9237C116.556 45.7288 127.77 48.2543 135.929 55.0338C140.279 58.6302 143.437 63.1764 144.691 68.0521C146.571 75.407 144.121 82.6979 142.493 90.8154C141.56 95.4422 140.952 100.09 140.82 104.469C140.71 108.291 141.033 111.947 141.745 115.356C143.257 122.628 144.748 129.033 145.741 136.263C147.424 148.493 146.962 163.346 146.413 178.301C146.391 179.127 146.348 179.954 146.326 180.78C145.864 196.211 146.095 210.712 151.566 224.452C151.847 225.155 152.15 225.857 152.452 226.56C155.069 232.49 158.877 238.007 163.919 242.781C173.052 251.441 183.917 258.428 194.804 265.126" stroke="#80F0F9" stroke-width="0.3" stroke-miterlimit="10"/>
<path d="M69.9064 -13.9107C72.847 -5.81161 78.774 4.97434 83.5108 14.7682C85.1978 18.2394 86.885 21.4628 88.7023 24.273C90.4979 27.042 92.2938 29.4184 94.2412 31.5884C96.5133 34.1097 99.0237 36.3832 101.859 38.5535C103.828 40.0625 106.122 41.5302 108.828 42.9362C117.032 47.1542 128.072 49.8036 136.296 56.3973C140.689 59.8904 143.956 64.2714 145.426 69.0439C147.631 76.2544 145.657 83.5661 144.181 91.6424C143.335 96.228 142.726 100.834 142.508 105.172C142.311 108.973 142.483 112.588 142.957 115.997C143.993 123.289 144.856 129.756 145.35 136.965C146.167 149.153 145.208 163.799 144.811 178.651C144.789 179.478 144.767 180.283 144.767 181.11C144.521 196.396 145.489 210.753 151.393 224.163C151.695 224.845 152.02 225.526 152.344 226.208C155.134 231.994 159.051 237.366 164.114 242.037C173.268 250.511 184.047 257.416 194.847 264.011" stroke="#76F0F9" stroke-width="0.3" stroke-miterlimit="10"/>
<path d="M72.4613 -14.054C76.0732 -6.2438 82.2168 4.27372 86.5855 14.1294C88.1426 17.6212 89.6566 20.8858 91.2573 23.7992C92.8364 26.6713 94.4157 29.1923 96.1466 31.5274C98.1587 34.2551 100.431 36.7351 103.049 39.1326C104.889 40.8067 107.053 42.419 109.629 43.9489C117.507 48.5799 128.374 51.3738 136.642 57.7609C141.078 61.1508 144.475 65.3665 146.162 70.0359C148.692 77.0812 147.173 84.4345 145.87 92.4903C145.131 97.0346 144.501 101.6 144.175 105.896C143.891 109.656 143.89 113.271 144.148 116.659C144.707 123.972 144.899 130.499 144.939 137.709C144.998 149.876 143.432 164.294 143.187 179.023C143.165 179.828 143.165 180.655 143.164 181.46C143.135 196.623 144.839 210.836 151.176 223.894C151.501 224.555 151.847 225.237 152.193 225.898C155.156 231.519 159.181 236.747 164.245 241.335C173.421 249.644 184.112 256.425 194.826 262.937" stroke="#6CF0FA" stroke-width="0.3" stroke-miterlimit="10"/>
<path d="M74.9944 -14.1973C79.2992 -6.676 85.6162 3.57306 89.6601 13.4905C91.1089 17.003 92.428 20.3294 93.8122 23.3254C95.1748 26.28 96.5375 28.9455 98.0301 31.4457C99.7824 34.3593 101.795 37.087 104.218 39.7116C105.906 41.5509 107.94 43.3284 110.429 44.9822C117.983 50.0262 128.677 52.944 136.987 59.1245C141.446 62.4111 144.994 66.441 146.897 71.0278C149.752 77.9288 148.709 85.3029 147.558 93.3174C146.906 97.8204 146.276 102.344 145.863 106.62C145.493 110.359 145.426 113.932 145.36 117.32C145.226 124.654 145.093 131.243 144.549 138.452C143.655 150.578 141.657 164.81 141.585 179.414C141.584 180.22 141.584 181.026 141.584 181.831C141.771 196.849 144.211 210.918 150.982 223.646C151.328 224.307 151.695 224.948 152.063 225.609C155.221 231.085 159.333 236.169 164.397 240.654C173.572 248.776 184.199 255.454 194.827 261.883" stroke="#61EFFB" stroke-width="0.3" stroke-miterlimit="10"/>
<path d="M77.5276 -14.3404C82.5037 -7.10797 89.0156 2.87264 92.7347 12.8519C94.0537 16.3849 95.1995 19.7526 96.3672 22.8518C97.5348 25.9096 98.6376 28.7196 99.9137 31.3643C101.384 34.4636 103.158 37.4391 105.387 40.2702C106.945 42.2747 108.849 44.1968 111.23 45.9744C118.458 51.4314 128.979 54.4937 137.333 60.4677C141.835 63.6511 145.492 67.5157 147.611 71.9994C150.791 78.7559 150.203 86.1509 149.225 94.1242C148.681 98.5859 148.051 103.068 147.53 107.303C147.073 111 146.747 114.574 146.55 117.941C146.114 125.295 145.18 131.946 144.159 139.134C142.421 151.238 139.903 165.243 139.983 179.724C139.982 180.509 140.003 181.314 140.025 182.12C140.451 196.994 143.605 210.918 150.809 223.316C151.176 223.957 151.566 224.597 151.955 225.217C155.287 230.548 159.506 235.487 164.57 239.869C173.768 247.806 184.308 254.38 194.849 260.727" stroke="#57EFFB" stroke-width="0.3" stroke-miterlimit="10"/>
<path d="M80.0824 -14.4637C85.7298 -7.52016 92.4583 2.19201 95.8093 12.2331C96.9984 15.7867 97.971 19.1956 98.9221 22.398C99.8732 25.559 100.759 28.4928 101.819 31.3233C103.03 34.6291 104.565 37.8317 106.577 40.8693C108.005 43.0183 109.78 45.1056 112.03 47.0278C118.934 52.8978 129.281 56.0839 137.701 61.872C142.224 64.9521 146.033 68.6516 148.369 73.032C151.873 79.6234 151.761 87.06 150.935 94.992C150.478 99.4125 149.848 103.854 149.218 108.047C148.675 111.723 148.175 115.256 147.762 118.623C146.85 125.997 145.309 132.71 143.769 139.898C141.165 151.981 138.149 165.758 138.38 180.136C138.402 180.921 138.423 181.706 138.444 182.511C139.087 197.24 142.955 211.041 150.614 223.088C151.003 223.708 151.414 224.328 151.825 224.948C155.352 230.134 159.68 234.929 164.744 239.208C173.941 246.958 184.417 253.429 194.871 259.693" stroke="#4DEFFC" stroke-width="0.3" stroke-miterlimit="10"/>
<path d="M82.6154 -14.6066C88.9341 -7.95188 95.8577 1.49183 98.8839 11.5947C99.9647 15.1689 100.742 18.6398 101.477 21.9246C102.212 25.1682 102.881 28.2671 103.703 31.2421C104.653 34.7337 105.929 38.1634 107.725 41.4281C109.023 43.7424 110.645 45.9741 112.809 48.0409C119.388 54.3239 129.562 57.6546 138.025 63.2154C142.591 66.1923 146.53 69.7265 149.083 74.0038C152.912 80.4507 153.255 87.9082 152.601 95.799C152.231 100.178 151.601 104.578 150.885 108.73C150.255 112.365 149.604 115.877 148.953 119.243C147.542 126.638 145.417 133.392 143.357 140.58C139.909 152.621 136.373 166.212 136.756 180.466C136.778 181.251 136.799 182.036 136.863 182.821C137.722 197.426 142.349 211.041 150.419 222.779C150.83 223.378 151.263 223.977 151.696 224.576C155.395 229.619 159.831 234.269 164.896 238.423C174.115 246.009 184.504 252.356 194.872 258.537" stroke="#42EFFD" stroke-width="0.3" stroke-miterlimit="10"/>
<path d="M85.1484 -14.7501C92.1384 -8.38431 99.2786 0.790951 101.958 10.9556C102.909 14.5298 103.514 18.0625 104.032 21.4506C104.55 24.7973 104.981 28.0201 105.586 31.1603C106.277 34.8376 107.293 38.5151 108.893 41.9863C110.04 44.4657 111.554 46.8627 113.588 49.0327C119.82 55.7286 129.821 59.1832 138.349 64.5582C142.937 67.4317 147.006 70.8008 149.797 74.9749C153.972 81.2774 154.748 88.7764 154.268 96.6053C154.006 100.943 153.376 105.302 152.53 109.412C151.792 113.027 150.989 116.517 150.122 119.863C148.213 127.258 145.503 134.115 142.923 141.282C138.631 153.302 134.576 166.666 135.111 180.796C135.132 181.56 135.175 182.345 135.239 183.109C136.315 197.57 141.678 211.041 150.181 222.448C150.614 223.047 151.068 223.626 151.544 224.204C155.417 229.102 159.961 233.587 165.026 237.659C174.245 245.059 184.569 251.302 194.85 257.421" stroke="#38EFFD" stroke-width="0.3" stroke-miterlimit="10"/>
<path d="M87.6816 -14.8732C95.3428 -8.77561 102.678 0.110544 105.011 10.337C105.832 13.9318 106.264 17.5057 106.587 20.997C106.91 24.4469 107.103 27.8142 107.491 31.1195C107.922 34.9827 108.678 38.8873 110.084 42.5856C111.1 45.2302 112.485 47.7717 114.41 50.0863C120.317 57.1952 130.145 60.7943 138.738 65.942C143.369 68.733 147.568 71.8956 150.554 75.9871C155.054 82.1245 156.285 89.665 155.978 97.4527C155.803 101.729 155.173 106.046 154.24 110.135C153.415 113.709 152.439 117.179 151.355 120.504C148.927 127.919 145.654 134.838 142.555 141.984C137.418 153.983 132.844 167.14 133.53 181.146C133.573 181.91 133.616 182.674 133.68 183.439C134.994 197.755 141.072 211.102 150.008 222.158C150.484 222.737 150.938 223.295 151.436 223.853C155.504 228.606 160.135 232.946 165.199 236.915C174.44 244.129 184.678 250.269 194.872 256.306" stroke="#2EEEFE" stroke-width="0.3" stroke-miterlimit="10"/>
<path d="M90.2366 -15.0165C98.5692 -9.20785 106.099 -0.590142 108.108 9.69817C108.821 13.3136 109.057 16.9493 109.164 20.5231C109.27 24.0556 109.247 27.5673 109.397 31.0378C109.568 35.1074 110.064 39.2391 111.275 43.1439C112.139 45.9537 113.394 48.6398 115.233 51.0782C120.815 58.6002 130.469 62.3231 139.105 67.285C143.78 69.9727 148.109 72.97 151.311 76.9584C156.136 82.9514 157.843 90.5128 157.688 98.2592C157.599 102.494 156.97 106.77 155.95 110.818C155.039 114.371 153.89 117.799 152.589 121.124C149.663 128.56 145.806 135.519 142.209 142.686C136.206 154.664 131.133 167.593 131.971 181.475C132.014 182.24 132.079 182.983 132.165 183.748C133.695 197.94 140.487 211.123 149.9 221.848C150.398 222.406 150.895 222.964 151.393 223.502C155.634 228.11 160.374 232.306 165.438 236.171C174.679 243.199 184.852 249.236 194.96 255.19" stroke="#23EEFE" stroke-width="0.3" stroke-miterlimit="10"/>
<path d="M92.7697 -15.1591C101.774 -9.63929 109.52 -1.29003 111.161 9.06008C112.327 16.2907 111.392 23.6443 111.259 30.9569C111.125 38.2695 111.901 45.9131 115.99 52.0916C124.103 64.3247 142.245 66.8742 152.004 77.9511C159.967 86.9615 160.805 100.162 157.595 111.543C154.385 122.923 147.712 133.084 141.754 143.409C134.516 156.007 128.708 169.452 130.519 184.099C132.266 198.147 139.794 211.185 149.64 221.581C162.343 234.993 178.749 244.648 194.895 254.096" stroke="#19EEFF" stroke-width="0.3" stroke-miterlimit="10"/>
</g>
<path d="M22.5294 31.6853C19.8393 30.0964 18.0294 27.1268 18.0294 23.7257C18.0294 20.3245 19.8393 17.3549 22.5294 15.7661L29.2794 22.5771M31.5294 15.6853C34.2195 17.2741 36.0294 20.2437 36.0294 23.6448C36.0294 27.0461 34.2195 30.0156 31.5294 31.6044L24.7794 24.8743" stroke="white" stroke-width="1.5" stroke-linecap="round" stroke-linejoin="round"/>
<path d="M18.7029 45V39.4H19.7749L23.0789 43.432H22.5589V39.4H23.8389V45H22.7749L19.4629 40.968H19.9829V45H18.7029ZM26.3639 41.92H29.0519V42.96H26.3639V41.92ZM26.4599 45H25.1639V39.4H29.3959V40.44H26.4599V45ZM32.8986 45.096C32.4666 45.096 32.0639 45.0267 31.6906 44.888C31.3226 44.744 31.0026 44.5413 30.7306 44.28C30.4586 44.0187 30.2452 43.712 30.0906 43.36C29.9412 43.008 29.8666 42.6213 29.8666 42.2C29.8666 41.7787 29.9412 41.392 30.0906 41.04C30.2452 40.688 30.4586 40.3813 30.7306 40.12C31.0079 39.8587 31.3306 39.6587 31.6986 39.52C32.0666 39.376 32.4692 39.304 32.9066 39.304C33.3919 39.304 33.8292 39.3893 34.2186 39.56C34.6132 39.7253 34.9439 39.9707 35.2106 40.296L34.3786 41.064C34.1866 40.8453 33.9732 40.6827 33.7386 40.576C33.5039 40.464 33.2479 40.408 32.9706 40.408C32.7092 40.408 32.4692 40.4507 32.2506 40.536C32.0319 40.6213 31.8426 40.744 31.6826 40.904C31.5226 41.064 31.3972 41.2533 31.3066 41.472C31.2212 41.6907 31.1786 41.9333 31.1786 42.2C31.1786 42.4667 31.2212 42.7093 31.3066 42.928C31.3972 43.1467 31.5226 43.336 31.6826 43.496C31.8426 43.656 32.0319 43.7787 32.2506 43.864C32.4692 43.9493 32.7092 43.992 32.9706 43.992C33.2479 43.992 33.5039 43.9387 33.7386 43.832C33.9732 43.72 34.1866 43.552 34.3786 43.328L35.2106 44.096C34.9439 44.4213 34.6132 44.6693 34.2186 44.84C33.8292 45.0107 33.3892 45.096 32.8986 45.096ZM37.6154 45L40.1114 39.4H41.3914L43.8954 45H42.5354L40.4874 40.056H40.9994L38.9434 45H37.6154ZM38.8634 43.8L39.2074 42.816H42.0874L42.4394 43.8H38.8634ZM47.1023 45.096C46.6596 45.096 46.2516 45.0267 45.8783 44.888C45.5103 44.744 45.1876 44.5413 44.9103 44.28C44.6383 44.0187 44.4249 43.712 44.2703 43.36C44.1209 43.008 44.0463 42.6213 44.0463 42.2C44.0463 41.7787 44.1209 41.392 44.2703 41.04C44.4249 40.688 44.6409 40.3813 44.9183 40.12C45.1956 39.8587 45.5209 39.6587 45.8943 39.52C46.2676 39.376 46.6783 39.304 47.1263 39.304C47.6223 39.304 48.0676 39.3867 48.4623 39.552C48.8623 39.7173 49.1983 39.9573 49.4703 40.272L48.6383 41.04C48.4356 40.8267 48.2143 40.6693 47.9743 40.568C47.7343 40.4613 47.4729 40.408 47.1903 40.408C46.9183 40.408 46.6703 40.4507 46.4463 40.536C46.2223 40.6213 46.0276 40.744 45.8623 40.904C45.7023 41.064 45.5769 41.2533 45.4863 41.472C45.4009 41.6907 45.3583 41.9333 45.3583 42.2C45.3583 42.4613 45.4009 42.7013 45.4863 42.92C45.5769 43.1387 45.7023 43.3307 45.8623 43.496C46.0276 43.656 46.2196 43.7787 46.4383 43.864C46.6623 43.9493 46.9076 43.992 47.1743 43.992C47.4303 43.992 47.6783 43.952 47.9183 43.872C48.1636 43.7867 48.4009 43.6453 48.6303 43.448L49.3663 44.384C49.0623 44.6133 48.7076 44.7893 48.3023 44.912C47.9023 45.0347 47.5023 45.096 47.1023 45.096ZM48.1823 44.216V42.112H49.3663V44.384L48.1823 44.216ZM49.8341 45L52.3301 39.4H53.6101L56.1141 45H54.7541L52.7061 40.056H53.2181L51.1621 45H49.8341ZM51.0821 43.8L51.4261 42.816H54.3061L54.6581 43.8H51.0821ZM56.6951 45V39.4H59.2391C59.8471 39.4 60.3831 39.5173 60.8471 39.752C61.3111 39.9813 61.6738 40.304 61.9351 40.72C62.1965 41.136 62.3271 41.6293 62.3271 42.2C62.3271 42.7653 62.1965 43.2587 61.9351 43.68C61.6738 44.096 61.3111 44.4213 60.8471 44.656C60.3831 44.8853 59.8471 45 59.2391 45H56.6951ZM57.9911 43.936H59.1751C59.5485 43.936 59.8711 43.8667 60.1431 43.728C60.4205 43.584 60.6338 43.3813 60.7831 43.12C60.9378 42.8587 61.0151 42.552 61.0151 42.2C61.0151 41.8427 60.9378 41.536 60.7831 41.28C60.6338 41.0187 60.4205 40.8187 60.1431 40.68C59.8711 40.536 59.5485 40.464 59.1751 40.464H57.9911V43.936ZM63.3045 45V39.4H64.6005V45H63.3045ZM65.9295 45V39.4H68.3535C68.8548 39.4 69.2868 39.4827 69.6495 39.648C70.0122 39.808 70.2922 40.04 70.4895 40.344C70.6868 40.648 70.7855 41.0107 70.7855 41.432C70.7855 41.848 70.6868 42.208 70.4895 42.512C70.2922 42.8107 70.0122 43.04 69.6495 43.2C69.2868 43.36 68.8548 43.44 68.3535 43.44H66.6495L67.2255 42.872V45H65.9295ZM69.4895 45L68.0895 42.968H69.4735L70.8895 45H69.4895ZM67.2255 43.016L66.6495 42.408H68.2815C68.6815 42.408 68.9802 42.3227 69.1775 42.152C69.3748 41.976 69.4735 41.736 69.4735 41.432C69.4735 41.1227 69.3748 40.8827 69.1775 40.712C68.9802 40.5413 68.6815 40.456 68.2815 40.456H66.6495L67.2255 39.84V43.016Z" fill="white"/>
<path d="M18.0294 209.265H19.044V210.28H18.0294V209.265ZM19.044 209.265H20.0587V210.28H19.044V209.265ZM20.0587 209.265H21.0733V210.28H20.0587V209.265ZM21.0733 209.265H22.0879V210.28H21.0733V209.265ZM22.0879 209.265H23.1025V210.28H22.0879V209.265ZM23.1025 209.265H24.1172V210.28H23.1025V209.265ZM24.1172 209.265H25.1318V210.28H24.1172V209.265ZM29.1903 209.265H30.2049V210.28H29.1903V209.265ZM32.2342 209.265H33.2488V210.28H32.2342V209.265ZM33.2488 209.265H34.2634V210.28H33.2488V209.265ZM34.2634 209.265H35.278V210.28H34.2634V209.265ZM36.2927 209.265H37.3073V210.28H36.2927V209.265ZM37.3073 209.265H38.3219V210.28H37.3073V209.265ZM38.3219 209.265H39.3365V210.28H38.3219V209.265ZM39.3365 209.265H40.3511V210.28H39.3365V209.265ZM40.3511 209.265H41.3658V210.28H40.3511V209.265ZM41.3658 209.265H42.3804V210.28H41.3658V209.265ZM42.3804 209.265H43.395V210.28H42.3804V209.265ZM18.0294 210.28H19.044V211.294H18.0294V210.28ZM24.1172 210.28H25.1318V211.294H24.1172V210.28ZM27.161 210.28H28.1757V211.294H27.161V210.28ZM31.2195 210.28H32.2342V211.294H31.2195V210.28ZM32.2342 210.28H33.2488V211.294H32.2342V210.28ZM34.2634 210.28H35.278V211.294H34.2634V210.28ZM36.2927 210.28H37.3073V211.294H36.2927V210.28ZM42.3804 210.28H43.395V211.294H42.3804V210.28ZM18.0294 211.294H19.044V212.309H18.0294V211.294ZM20.0587 211.294H21.0733V212.309H20.0587V211.294ZM21.0733 211.294H22.0879V212.309H21.0733V211.294ZM22.0879 211.294H23.1025V212.309H22.0879V211.294ZM24.1172 211.294H25.1318V212.309H24.1172V211.294ZM27.161 211.294H28.1757V212.309H27.161V211.294ZM28.1757 211.294H29.1903V212.309H28.1757V211.294ZM30.2049 211.294H31.2195V212.309H30.2049V211.294ZM32.2342 211.294H33.2488V212.309H32.2342V211.294ZM33.2488 211.294H34.2634V212.309H33.2488V211.294ZM36.2927 211.294H37.3073V212.309H36.2927V211.294ZM38.3219 211.294H39.3365V212.309H38.3219V211.294ZM39.3365 211.294H40.3511V212.309H39.3365V211.294ZM40.3511 211.294H41.3658V212.309H40.3511V211.294ZM42.3804 211.294H43.395V212.309H42.3804V211.294ZM18.0294 212.309H19.044V213.323H18.0294V212.309ZM20.0587 212.309H21.0733V213.323H20.0587V212.309ZM21.0733 212.309H22.0879V213.323H21.0733V212.309ZM22.0879 212.309H23.1025V213.323H22.0879V212.309ZM24.1172 212.309H25.1318V213.323H24.1172V212.309ZM26.1464 212.309H27.161V213.323H26.1464V212.309ZM27.161 212.309H28.1757V213.323H27.161V212.309ZM30.2049 212.309H31.2195V213.323H30.2049V212.309ZM32.2342 212.309H33.2488V213.323H32.2342V212.309ZM33.2488 212.309H34.2634V213.323H33.2488V212.309ZM36.2927 212.309H37.3073V213.323H36.2927V212.309ZM38.3219 212.309H39.3365V213.323H38.3219V212.309ZM39.3365 212.309H40.3511V213.323H39.3365V212.309ZM40.3511 212.309H41.3658V213.323H40.3511V212.309ZM42.3804 212.309H43.395V213.323H42.3804V212.309ZM18.0294 213.323H19.044V214.338H18.0294V213.323ZM20.0587 213.323H21.0733V214.338H20.0587V213.323ZM21.0733 213.323H22.0879V214.338H21.0733V213.323ZM22.0879 213.323H23.1025V214.338H22.0879V213.323ZM24.1172 213.323H25.1318V214.338H24.1172V213.323ZM28.1757 213.323H29.1903V214.338H28.1757V213.323ZM29.1903 213.323H30.2049V214.338H29.1903V213.323ZM30.2049 213.323H31.2195V214.338H30.2049V213.323ZM31.2195 213.323H32.2342V214.338H31.2195V213.323ZM32.2342 213.323H33.2488V214.338H32.2342V213.323ZM36.2927 213.323H37.3073V214.338H36.2927V213.323ZM38.3219 213.323H39.3365V214.338H38.3219V213.323ZM39.3365 213.323H40.3511V214.338H39.3365V213.323ZM40.3511 213.323H41.3658V214.338H40.3511V213.323ZM42.3804 213.323H43.395V214.338H42.3804V213.323ZM18.0294 214.338H19.044V215.353H18.0294V214.338ZM24.1172 214.338H25.1318V215.353H24.1172V214.338ZM26.1464 214.338H27.161V215.353H26.1464V214.338ZM29.1903 214.338H30.2049V215.353H29.1903V214.338ZM34.2634 214.338H35.278V215.353H34.2634V214.338ZM36.2927 214.338H37.3073V215.353H36.2927V214.338ZM42.3804 214.338H43.395V215.353H42.3804V214.338ZM18.0294 215.353H19.044V216.367H18.0294V215.353ZM19.044 215.353H20.0587V216.367H19.044V215.353ZM20.0587 215.353H21.0733V216.367H20.0587V215.353ZM21.0733 215.353H22.0879V216.367H21.0733V215.353ZM22.0879 215.353H23.1025V216.367H22.0879V215.353ZM23.1025 215.353H24.1172V216.367H23.1025V215.353ZM24.1172 215.353H25.1318V216.367H24.1172V215.353ZM26.1464 215.353H27.161V216.367H26.1464V215.353ZM28.1757 215.353H29.1903V216.367H28.1757V215.353ZM30.2049 215.353H31.2195V216.367H30.2049V215.353ZM32.2342 215.353H33.2488V216.367H32.2342V215.353ZM34.2634 215.353H35.278V216.367H34.2634V215.353ZM36.2927 215.353H37.3073V216.367H36.2927V215.353ZM37.3073 215.353H38.3219V216.367H37.3073V215.353ZM38.3219 215.353H39.3365V216.367H38.3219V215.353ZM39.3365 215.353H40.3511V216.367H39.3365V215.353ZM40.3511 215.353H41.3658V216.367H40.3511V215.353ZM41.3658 215.353H42.3804V216.367H41.3658V215.353ZM42.3804 215.353H43.395V216.367H42.3804V215.353ZM26.1464 216.367H27.161V217.382H26.1464V216.367ZM27.161 216.367H28.1757V217.382H27.161V216.367ZM28.1757 216.367H29.1903V217.382H28.1757V216.367ZM32.2342 216.367H33.2488V217.382H32.2342V216.367ZM33.2488 216.367H34.2634V217.382H33.2488V216.367ZM34.2634 216.367H35.278V217.382H34.2634V216.367ZM19.044 217.382H20.0587V218.397H19.044V217.382ZM20.0587 217.382H21.0733V218.397H20.0587V217.382ZM24.1172 217.382H25.1318V218.397H24.1172V217.382ZM31.2195 217.382H32.2342V218.397H31.2195V217.382ZM32.2342 217.382H33.2488V218.397H32.2342V217.382ZM34.2634 217.382H35.278V218.397H34.2634V217.382ZM36.2927 217.382H37.3073V218.397H36.2927V217.382ZM37.3073 217.382H38.3219V218.397H37.3073V217.382ZM39.3365 217.382H40.3511V218.397H39.3365V217.382ZM19.044 218.397H20.0587V219.411H19.044V218.397ZM20.0587 218.397H21.0733V219.411H20.0587V218.397ZM22.0879 218.397H23.1025V219.411H22.0879V218.397ZM25.1318 218.397H26.1464V219.411H25.1318V218.397ZM28.1757 218.397H29.1903V219.411H28.1757V218.397ZM29.1903 218.397H30.2049V219.411H29.1903V218.397ZM30.2049 218.397H31.2195V219.411H30.2049V218.397ZM31.2195 218.397H32.2342V219.411H31.2195V218.397ZM32.2342 218.397H33.2488V219.411H32.2342V218.397ZM33.2488 218.397H34.2634V219.411H33.2488V218.397ZM34.2634 218.397H35.278V219.411H34.2634V218.397ZM36.2927 218.397H37.3073V219.411H36.2927V218.397ZM37.3073 218.397H38.3219V219.411H37.3073V218.397ZM39.3365 218.397H40.3511V219.411H39.3365V218.397ZM41.3658 218.397H42.3804V219.411H41.3658V218.397ZM42.3804 218.397H43.395V219.411H42.3804V218.397ZM24.1172 219.411H25.1318V220.426H24.1172V219.411ZM29.1903 219.411H30.2049V220.426H29.1903V219.411ZM33.2488 219.411H34.2634V220.426H33.2488V219.411ZM35.278 219.411H36.2927V220.426H35.278V219.411ZM37.3073 219.411H38.3219V220.426H37.3073V219.411ZM39.3365 219.411H40.3511V220.426H39.3365V219.411ZM40.3511 219.411H41.3658V220.426H40.3511V219.411ZM42.3804 219.411H43.395V220.426H42.3804V219.411ZM18.0294 220.426H19.044V221.44H18.0294V220.426ZM19.044 220.426H20.0587V221.44H19.044V220.426ZM22.0879 220.426H23.1025V221.44H22.0879V220.426ZM25.1318 220.426H26.1464V221.44H25.1318V220.426ZM27.161 220.426H28.1757V221.44H27.161V220.426ZM28.1757 220.426H29.1903V221.44H28.1757V220.426ZM31.2195 220.426H32.2342V221.44H31.2195V220.426ZM33.2488 220.426H34.2634V221.44H33.2488V220.426ZM35.278 220.426H36.2927V221.44H35.278V220.426ZM37.3073 220.426H38.3219V221.44H37.3073V220.426ZM39.3365 220.426H40.3511V221.44H39.3365V220.426ZM18.0294 221.44H19.044V222.455H18.0294V221.44ZM19.044 221.44H20.0587V222.455H19.044V221.44ZM21.0733 221.44H22.0879V222.455H21.0733V221.44ZM24.1172 221.44H25.1318V222.455H24.1172V221.44ZM25.1318 221.44H26.1464V222.455H25.1318V221.44ZM26.1464 221.44H27.161V222.455H26.1464V221.44ZM27.161 221.44H28.1757V222.455H27.161V221.44ZM28.1757 221.44H29.1903V222.455H28.1757V221.44ZM31.2195 221.44H32.2342V222.455H31.2195V221.44ZM33.2488 221.44H34.2634V222.455H33.2488V221.44ZM34.2634 221.44H35.278V222.455H34.2634V221.44ZM36.2927 221.44H37.3073V222.455H36.2927V221.44ZM37.3073 221.44H38.3219V222.455H37.3073V221.44ZM42.3804 221.44H43.395V222.455H42.3804V221.44ZM20.0587 222.455H21.0733V223.47H20.0587V222.455ZM21.0733 222.455H22.0879V223.47H21.0733V222.455ZM22.0879 222.455H23.1025V223.47H22.0879V222.455ZM28.1757 222.455H29.1903V223.47H28.1757V222.455ZM29.1903 222.455H30.2049V223.47H29.1903V222.455ZM30.2049 222.455H31.2195V223.47H30.2049V222.455ZM33.2488 222.455H34.2634V223.47H33.2488V222.455ZM34.2634 222.455H35.278V223.47H34.2634V222.455ZM36.2927 222.455H37.3073V223.47H36.2927V222.455ZM37.3073 222.455H38.3219V223.47H37.3073V222.455ZM41.3658 222.455H42.3804V223.47H41.3658V222.455ZM42.3804 222.455H43.395V223.47H42.3804V222.455ZM18.0294 223.47H19.044V224.484H18.0294V223.47ZM19.044 223.47H20.0587V224.484H19.044V223.47ZM21.0733 223.47H22.0879V224.484H21.0733V223.47ZM23.1025 223.47H24.1172V224.484H23.1025V223.47ZM24.1172 223.47H25.1318V224.484H24.1172V223.47ZM26.1464 223.47H27.161V224.484H26.1464V223.47ZM27.161 223.47H28.1757V224.484H27.161V223.47ZM28.1757 223.47H29.1903V224.484H28.1757V223.47ZM30.2049 223.47H31.2195V224.484H30.2049V223.47ZM33.2488 223.47H34.2634V224.484H33.2488V223.47ZM34.2634 223.47H35.278V224.484H34.2634V223.47ZM36.2927 223.47H37.3073V224.484H36.2927V223.47ZM39.3365 223.47H40.3511V224.484H39.3365V223.47ZM40.3511 223.47H41.3658V224.484H40.3511V223.47ZM42.3804 223.47H43.395V224.484H42.3804V223.47ZM20.0587 224.484H21.0733V225.499H20.0587V224.484ZM21.0733 224.484H22.0879V225.499H21.0733V224.484ZM22.0879 224.484H23.1025V225.499H22.0879V224.484ZM25.1318 224.484H26.1464V225.499H25.1318V224.484ZM28.1757 224.484H29.1903V225.499H28.1757V224.484ZM32.2342 224.484H33.2488V225.499H32.2342V224.484ZM33.2488 224.484H34.2634V225.499H33.2488V224.484ZM34.2634 224.484H35.278V225.499H34.2634V224.484ZM35.278 224.484H36.2927V225.499H35.278V224.484ZM36.2927 224.484H37.3073V225.499H36.2927V224.484ZM37.3073 224.484H38.3219V225.499H37.3073V224.484ZM38.3219 224.484H39.3365V225.499H38.3219V224.484ZM39.3365 224.484H40.3511V225.499H39.3365V224.484ZM18.0294 225.499H19.044V226.514H18.0294V225.499ZM19.044 225.499H20.0587V226.514H19.044V225.499ZM20.0587 225.499H21.0733V226.514H20.0587V225.499ZM22.0879 225.499H23.1025V226.514H22.0879V225.499ZM24.1172 225.499H25.1318V226.514H24.1172V225.499ZM26.1464 225.499H27.161V226.514H26.1464V225.499ZM29.1903 225.499H30.2049V226.514H29.1903V225.499ZM34.2634 225.499H35.278V226.514H34.2634V225.499ZM35.278 225.499H36.2927V226.514H35.278V225.499ZM36.2927 225.499H37.3073V226.514H36.2927V225.499ZM37.3073 225.499H38.3219V226.514H37.3073V225.499ZM38.3219 225.499H39.3365V226.514H38.3219V225.499ZM41.3658 225.499H42.3804V226.514H41.3658V225.499ZM26.1464 226.514H27.161V227.528H26.1464V226.514ZM27.161 226.514H28.1757V227.528H27.161V226.514ZM28.1757 226.514H29.1903V227.528H28.1757V226.514ZM29.1903 226.514H30.2049V227.528H29.1903V226.514ZM31.2195 226.514H32.2342V227.528H31.2195V226.514ZM32.2342 226.514H33.2488V227.528H32.2342V226.514ZM34.2634 226.514H35.278V227.528H34.2634V226.514ZM38.3219 226.514H39.3365V227.528H38.3219V226.514ZM42.3804 226.514H43.395V227.528H42.3804V226.514ZM18.0294 227.528H19.044V228.543H18.0294V227.528ZM19.044 227.528H20.0587V228.543H19.044V227.528ZM20.0587 227.528H21.0733V228.543H20.0587V227.528ZM21.0733 227.528H22.0879V228.543H21.0733V227.528ZM22.0879 227.528H23.1025V228.543H22.0879V227.528ZM23.1025 227.528H24.1172V228.543H23.1025V227.528ZM24.1172 227.528H25.1318V228.543H24.1172V227.528ZM28.1757 227.528H29.1903V228.543H28.1757V227.528ZM29.1903 227.528H30.2049V228.543H29.1903V227.528ZM32.2342 227.528H33.2488V228.543H32.2342V227.528ZM34.2634 227.528H35.278V228.543H34.2634V227.528ZM36.2927 227.528H37.3073V228.543H36.2927V227.528ZM38.3219 227.528H39.3365V228.543H38.3219V227.528ZM42.3804 227.528H43.395V228.543H42.3804V227.528ZM18.0294 228.543H19.044V229.557H18.0294V228.543ZM24.1172 228.543H25.1318V229.557H24.1172V228.543ZM27.161 228.543H28.1757V229.557H27.161V228.543ZM28.1757 228.543H29.1903V229.557H28.1757V228.543ZM30.2049 228.543H31.2195V229.557H30.2049V228.543ZM31.2195 228.543H32.2342V229.557H31.2195V228.543ZM34.2634 228.543H35.278V229.557H34.2634V228.543ZM38.3219 228.543H39.3365V229.557H38.3219V228.543ZM41.3658 228.543H42.3804V229.557H41.3658V228.543ZM18.0294 229.557H19.044V230.572H18.0294V229.557ZM20.0587 229.557H21.0733V230.572H20.0587V229.557ZM21.0733 229.557H22.0879V230.572H21.0733V229.557ZM22.0879 229.557H23.1025V230.572H22.0879V229.557ZM24.1172 229.557H25.1318V230.572H24.1172V229.557ZM27.161 229.557H28.1757V230.572H27.161V229.557ZM28.1757 229.557H29.1903V230.572H28.1757V229.557ZM32.2342 229.557H33.2488V230.572H32.2342V229.557ZM33.2488 229.557H34.2634V230.572H33.2488V229.557ZM34.2634 229.557H35.278V230.572H34.2634V229.557ZM35.278 229.557H36.2927V230.572H35.278V229.557ZM36.2927 229.557H37.3073V230.572H36.2927V229.557ZM37.3073 229.557H38.3219V230.572H37.3073V229.557ZM38.3219 229.557H39.3365V230.572H38.3219V229.557ZM41.3658 229.557H42.3804V230.572H41.3658V229.557ZM42.3804 229.557H43.395V230.572H42.3804V229.557ZM18.0294 230.572H19.044V231.587H18.0294V230.572ZM20.0587 230.572H21.0733V231.587H20.0587V230.572ZM21.0733 230.572H22.0879V231.587H21.0733V230.572ZM22.0879 230.572H23.1025V231.587H22.0879V230.572ZM24.1172 230.572H25.1318V231.587H24.1172V230.572ZM27.161 230.572H28.1757V231.587H27.161V230.572ZM28.1757 230.572H29.1903V231.587H28.1757V230.572ZM29.1903 230.572H30.2049V231.587H29.1903V230.572ZM30.2049 230.572H31.2195V231.587H30.2049V230.572ZM33.2488 230.572H34.2634V231.587H33.2488V230.572ZM35.278 230.572H36.2927V231.587H35.278V230.572ZM38.3219 230.572H39.3365V231.587H38.3219V230.572ZM40.3511 230.572H41.3658V231.587H40.3511V230.572ZM41.3658 230.572H42.3804V231.587H41.3658V230.572ZM18.0294 231.587H19.044V232.601H18.0294V231.587ZM20.0587 231.587H21.0733V232.601H20.0587V231.587ZM21.0733 231.587H22.0879V232.601H21.0733V231.587ZM22.0879 231.587H23.1025V232.601H22.0879V231.587ZM24.1172 231.587H25.1318V232.601H24.1172V231.587ZM26.1464 231.587H27.161V232.601H26.1464V231.587ZM31.2195 231.587H32.2342V232.601H31.2195V231.587ZM32.2342 231.587H33.2488V232.601H32.2342V231.587ZM33.2488 231.587H34.2634V232.601H33.2488V231.587ZM34.2634 231.587H35.278V232.601H34.2634V231.587ZM35.278 231.587H36.2927V232.601H35.278V231.587ZM37.3073 231.587H38.3219V232.601H37.3073V231.587ZM38.3219 231.587H39.3365V232.601H38.3219V231.587ZM39.3365 231.587H40.3511V232.601H39.3365V231.587ZM41.3658 231.587H42.3804V232.601H41.3658V231.587ZM42.3804 231.587H43.395V232.601H42.3804V231.587ZM18.0294 232.601H19.044V233.616H18.0294V232.601ZM24.1172 232.601H25.1318V233.616H24.1172V232.601ZM26.1464 232.601H27.161V233.616H26.1464V232.601ZM27.161 232.601H28.1757V233.616H27.161V232.601ZM28.1757 232.601H29.1903V233.616H28.1757V232.601ZM31.2195 232.601H32.2342V233.616H31.2195V232.601ZM34.2634 232.601H35.278V233.616H34.2634V232.601ZM35.278 232.601H36.2927V233.616H35.278V232.601ZM36.2927 232.601H37.3073V233.616H36.2927V232.601ZM37.3073 232.601H38.3219V233.616H37.3073V232.601ZM38.3219 232.601H39.3365V233.616H38.3219V232.601ZM18.0294 233.616H19.044V234.63H18.0294V233.616ZM19.044 233.616H20.0587V234.63H19.044V233.616ZM20.0587 233.616H21.0733V234.63H20.0587V233.616ZM21.0733 233.616H22.0879V234.63H21.0733V233.616ZM22.0879 233.616H23.1025V234.63H22.0879V233.616ZM23.1025 233.616H24.1172V234.63H23.1025V233.616ZM24.1172 233.616H25.1318V234.63H24.1172V233.616ZM28.1757 233.616H29.1903V234.63H28.1757V233.616ZM30.2049 233.616H31.2195V234.63H30.2049V233.616ZM34.2634 233.616H35.278V234.63H34.2634V233.616ZM36.2927 233.616H37.3073V234.63H36.2927V233.616ZM39.3365 233.616H40.3511V234.63H39.3365V233.616ZM42.3804 233.616H43.395V234.63H42.3804V233.616Z" fill="white"/>
<defs>
<linearGradient id="paint0_linear_52_4535" x1="85.7445" y1="1.00073" x2="89.1572" y2="247.982" gradientUnits="userSpaceOnUse">
<stop stop-color="#407BFF"/>
<stop offset="1" stop-color="#264A99"/>
</linearGradient>
</defs>
</svg>
