<svg width="50" height="50" viewBox="0 0 50 50" fill="none" xmlns="http://www.w3.org/2000/svg">
<rect width="50" height="50" rx="2" fill="#EBEBEB"/>
<path d="M26.0456 28.567C25.7527 28.8599 25.7527 29.3347 26.0456 29.6276C26.3385 29.9205 26.8133 29.9205 27.1062 29.6276L26.0456 28.567ZM28.0518 28.6821C28.3447 28.3892 28.3447 27.9143 28.0518 27.6214C27.7589 27.3285 27.284 27.3285 26.9911 27.6214L28.0518 28.6821ZM28.8822 25.7303C28.5893 26.0232 28.5893 26.4981 28.8822 26.791C29.1751 27.0839 29.65 27.0839 29.9429 26.791L28.8822 25.7303ZM32.1491 24.5847C32.442 24.2919 32.442 23.817 32.1491 23.5241C31.8562 23.2312 31.3813 23.2312 31.0885 23.5241L32.1491 24.5847ZM15.9598 28.567C15.6669 28.8599 15.6669 29.3347 15.9598 29.6276C16.2527 29.9205 16.7276 29.9205 17.0205 29.6276L15.9598 28.567ZM24.1043 34.9723L24.0167 34.2274L24.1043 34.9723ZM23.4071 34.9934L23.4501 34.2446L23.4071 34.9934ZM34.9935 23.407L34.2447 23.4499L34.9935 23.407ZM34.9724 24.1041L34.2275 24.0166L34.9724 24.1041ZM20.7913 18.8488L20.261 18.3184V18.3184L20.7913 18.8488ZM25.8957 15.0275L25.9833 15.7724L25.8957 15.0275ZM26.5929 15.0064L26.55 15.7551L26.5929 15.0064ZM18.8489 20.7912L19.3792 21.3215L18.8489 20.7912ZM15.0276 25.8956L15.7725 25.9831L15.0276 25.8956ZM15.0065 26.5928L15.7553 26.5498L15.0065 26.5928ZM27.1062 29.6276L28.0518 28.6821L26.9911 27.6214L26.0456 28.567L27.1062 29.6276ZM29.9429 26.791L32.1491 24.5847L31.0885 23.5241L28.8822 25.7303L29.9429 26.791ZM17.0205 29.6276L29.6277 17.0204L28.567 15.9598L15.9598 28.567L17.0205 29.6276ZM19.3792 21.3215L21.3217 19.3791L20.261 18.3184L18.3185 20.2609L19.3792 21.3215ZM30.6208 28.6782L28.6783 30.6207L29.739 31.6813L31.6815 29.7389L30.6208 28.6782ZM28.6783 30.6207C27.4491 31.8499 26.5709 32.7265 25.8216 33.3237C25.0832 33.9122 24.5463 34.1652 24.0167 34.2274L24.1918 35.7171C25.1162 35.6085 25.9147 35.1677 26.7565 34.4967C27.5875 33.8344 28.5346 32.8857 29.739 31.6813L28.6783 30.6207ZM17.9948 32.0051C19.126 33.1363 20.0237 34.036 20.8237 34.6551C21.6402 35.2869 22.4314 35.6887 23.3642 35.7422L23.4501 34.2446C22.9366 34.2152 22.432 34.0029 21.7417 33.4687C21.0349 32.9218 20.2147 32.1037 19.0555 30.9444L17.9948 32.0051ZM24.0167 34.2274C23.827 34.2497 23.6374 34.2554 23.4501 34.2446L23.3642 35.7422C23.6395 35.7579 23.9164 35.7495 24.1918 35.7171L24.0167 34.2274ZM30.9445 19.0553C32.1038 20.2146 32.9219 21.0347 33.4689 21.7416C34.003 22.4318 34.2153 22.9365 34.2447 23.4499L35.7423 23.3641C35.6888 22.4312 35.287 21.6401 34.6552 20.8236C34.0361 20.0236 33.1364 19.1259 32.0052 17.9947L30.9445 19.0553ZM31.6815 29.7389C32.8858 28.5345 33.8345 27.5874 34.4968 26.7564C35.1678 25.9146 35.6087 25.1161 35.7173 24.1916L34.2275 24.0166C34.1653 24.5461 33.9124 25.0831 33.3238 25.8215C32.7266 26.5708 31.8501 27.4489 30.6208 28.6782L31.6815 29.7389ZM34.2447 23.4499C34.2555 23.6373 34.2498 23.8269 34.2275 24.0166L35.7173 24.1916C35.7496 23.9163 35.7581 23.6394 35.7423 23.3641L34.2447 23.4499ZM21.3217 19.3791C22.5509 18.1498 23.4291 17.2733 24.1784 16.6761C24.9168 16.0875 25.4537 15.8346 25.9833 15.7724L25.8082 14.2826C24.8838 14.3912 24.0853 14.8321 23.2435 15.5031C22.4125 16.1654 21.4654 17.1141 20.261 18.3184L21.3217 19.3791ZM32.0052 17.9947C30.874 16.8635 29.9763 15.9637 29.1763 15.3447C28.3598 14.7129 27.5686 14.3111 26.6358 14.2576L26.55 15.7551C27.0634 15.7846 27.568 15.9969 28.2583 16.531C28.9651 17.078 29.7853 17.8961 30.9445 19.0553L32.0052 17.9947ZM25.9833 15.7724C26.173 15.7501 26.3626 15.7444 26.55 15.7551L26.6358 14.2576C26.3605 14.2418 26.0836 14.2503 25.8082 14.2826L25.9833 15.7724ZM18.3185 20.2609C17.1142 21.4652 16.1655 22.4123 15.5032 23.2433C14.8322 24.0852 14.3913 24.8837 14.2827 25.8081L15.7725 25.9831C15.8347 25.4536 16.0876 24.9167 16.6762 24.1782C17.2734 23.4289 18.1499 22.5508 19.3792 21.3215L18.3185 20.2609ZM19.0555 30.9444C17.8962 29.7852 17.0781 28.965 16.5311 28.2582C15.997 27.5679 15.7847 27.0633 15.7553 26.5498L14.2577 26.6357C14.3112 27.5685 14.713 28.3596 15.3448 29.1762C15.9639 29.9762 16.8636 30.8739 17.9948 32.0051L19.0555 30.9444ZM14.2827 25.8081C14.2504 26.0835 14.2419 26.3604 14.2577 26.6357L15.7553 26.5498C15.7445 26.3625 15.7502 26.1729 15.7725 25.9831L14.2827 25.8081Z" fill="#C4D326"/>
<path d="M17 35L33 35" stroke="#C4D326" stroke-width="1.5" stroke-linecap="round"/>
</svg>
