<svg width="285" height="285" viewBox="0 0 285 285" fill="none" xmlns="http://www.w3.org/2000/svg">
<path d="M285 217.967H0V218.109H285V217.967Z" fill="#EBEBEB"/>
<path d="M256.444 227.142H237.564V227.284H256.444V227.142Z" fill="#EBEBEB"/>
<path d="M188.795 228.689H183.84V228.831H188.795V228.689Z" fill="#EBEBEB"/>
<path d="M236.993 221.849H226.054V221.991H236.993V221.849Z" fill="#EBEBEB"/>
<path d="M54.5216 222.806H29.9016V222.949H54.5216V222.806Z" fill="#EBEBEB"/>
<path d="M63.2067 222.806H59.5969V222.949H63.2067V222.806Z" fill="#EBEBEB"/>
<path d="M128.334 225.213H74.9385V225.356H128.334V225.213Z" fill="#EBEBEB"/>
<path d="M135.098 192.546H25.0316C23.2378 192.546 21.7781 191.086 21.7781 189.292V34.5762C21.7781 32.7824 23.2378 31.3226 25.0316 31.3226H135.098C136.891 31.3226 138.351 32.7824 138.351 34.5762V189.292C138.351 191.086 136.891 192.546 135.098 192.546ZM25.0316 31.4657C23.3159 31.4657 21.9206 32.8611 21.9206 34.5768V189.293C21.9206 191.009 23.3159 192.404 25.0316 192.404H135.098C136.813 192.404 138.209 191.009 138.209 189.293V34.5762C138.209 32.8611 136.813 31.4651 135.098 31.4651L25.0316 31.4657Z" fill="#EBEBEB"/>
<path d="M258.387 192.546H148.321C146.527 192.546 145.068 191.086 145.068 189.292V34.5762C145.068 32.7824 146.528 31.3226 148.321 31.3226H258.387C260.181 31.3226 261.64 32.7824 261.64 34.5762V189.292C261.641 191.086 260.181 192.546 258.387 192.546ZM148.321 31.4657C146.606 31.4657 145.21 32.8611 145.21 34.5768V189.293C145.21 191.009 146.606 192.404 148.321 192.404H258.387C260.102 192.404 261.498 191.009 261.498 189.293V34.5762C261.498 32.8611 260.102 31.4651 258.387 31.4651L148.321 31.4657Z" fill="#EBEBEB"/>
<path d="M218.934 111.054C218.934 109.398 220.276 108.056 221.931 108.056C222.23 108.056 222.519 108.101 222.792 108.183C222.748 107.883 222.725 107.575 222.725 107.263C222.725 103.757 225.567 100.915 229.072 100.915C229.472 100.915 229.862 100.954 230.241 101.024C231.217 99.4279 232.97 98.358 234.979 98.358C238.018 98.358 240.484 100.8 240.529 103.829C240.559 103.828 240.59 103.824 240.621 103.824C243.445 103.824 245.734 106.113 245.734 108.938C245.734 111.762 243.445 114.051 240.621 114.051H221.842L221.846 114.047C220.23 114.002 218.934 112.681 218.934 111.054Z" fill="#F0F0F0"/>
<path d="M50.9866 97.5162C50.9866 95.8609 52.3289 94.5186 53.9842 94.5186C54.2835 94.5186 54.5724 94.5636 54.8449 94.6457C54.801 94.3453 54.7776 94.0381 54.7776 93.7257C54.7776 90.2202 57.6197 87.3782 61.1252 87.3782C61.5247 87.3782 61.9152 87.4169 62.2942 87.4876C63.2701 85.8911 65.0234 84.8212 67.0321 84.8212C70.0713 84.8212 72.5371 87.2636 72.5822 90.292C72.6129 90.2915 72.6432 90.2875 72.6745 90.2875C75.4983 90.2875 77.788 92.5766 77.788 95.4009C77.788 98.2247 75.4989 100.514 72.6745 100.514H53.8959L53.8998 100.51C52.2839 100.464 50.9866 99.1435 50.9866 97.5162Z" fill="#F0F0F0"/>
<path d="M128.072 54.1363H117.142C117.171 53.8741 117.189 53.6091 117.189 53.3389C117.189 49.3655 113.968 46.145 109.995 46.145C109.906 46.145 109.82 46.1552 109.733 46.1581C108.831 43.739 106.507 42.0125 103.774 42.0125C100.258 42.0125 97.409 44.8619 97.409 48.3771C97.409 48.3822 97.4095 48.3868 97.4095 48.3913C94.2928 48.5367 91.7956 51.0236 91.6337 54.1358H91.3447C89.5857 54.1358 88.1465 55.575 88.1465 57.334C88.1465 59.0931 89.5857 60.5323 91.3447 60.5323H128.072C129.831 60.5323 131.27 59.0931 131.27 57.334C131.271 55.5756 129.832 54.1363 128.072 54.1363Z" fill="#F0F0F0"/>
<path d="M209.028 58.7032C207.32 55.9786 204.299 54.1603 200.846 54.1603C197.336 54.1603 194.272 56.039 192.581 58.84C192.137 58.7157 191.671 58.6445 191.188 58.6445C188.33 58.6445 186.013 60.9609 186.013 63.8189C186.013 63.8212 186.014 63.8235 186.014 63.8258H183.286C181.865 63.8258 180.702 64.9886 180.702 66.4096C180.702 67.8306 181.865 68.9934 183.286 68.9934H192.7C194.414 71.6861 197.418 73.4776 200.846 73.4776C203.55 73.4776 205.991 72.3638 207.744 70.574C207.907 70.5871 208.07 70.5991 208.237 70.5991C211.538 70.5991 214.214 67.9229 214.214 64.6221C214.214 61.5897 211.954 59.0913 209.028 58.7032Z" fill="#F0F0F0"/>
<path d="M151.52 95.2465C149.812 92.5219 146.791 90.7036 143.338 90.7036C139.828 90.7036 136.764 92.5823 135.073 95.3833C134.629 95.2591 134.163 95.1878 133.679 95.1878C130.822 95.1878 128.505 97.5043 128.505 100.362C128.505 100.365 128.505 100.367 128.505 100.369H125.777C124.356 100.369 123.194 101.532 123.194 102.953C123.194 104.374 124.356 105.537 125.777 105.537H135.192C136.906 108.229 139.909 110.021 143.338 110.021C146.041 110.021 148.482 108.907 150.236 107.117C150.399 107.13 150.562 107.142 150.729 107.142C154.029 107.142 156.706 104.466 156.706 101.165C156.706 98.133 154.446 95.6341 151.52 95.2465Z" fill="#F0F0F0"/>
<path d="M32.1697 217.882V190.638H34.4993V177.658H37.9044V132.524H42.827V126.7L53.3372 121.799V115.927H54.793V132.524H56.8313V177.658H58.8696V153.926H64.402V141.696H65.9462V177.658H70.1482V163.972H72.9144V160.478H79.3201V148.539H82.8284V140.095H87.141V127.792H88.6795V140.095H92.9921V148.539H96.5004V160.478H102.906V163.972H105.673V177.658H108.953V160.478H115.359V123.497H117.398V119.421H131.083V123.497H133.995V150.286H145.643V152.907H150.01V154.945H145.643V165.428H157.872V130.486H160.493V123.06H166.172V96.7079H167.773V123.06H171.849V130.486H195.749V128.042H197.205V144.639H199.243V144.93H200.467V161.528H202.506V166.041H206.814V153.812H208.358V182.93H210.076V170.7H211.621V189.773H212.559V176.087H215.326V172.593H221.732V160.654H225.24V152.21H229.552V139.908H231.091V152.21H235.404V160.654H238.912V172.593H245.318V176.087H248.084V189.482H248.58V189.773H249.95V217.882H32.1697Z" fill="#E6E6E6"/>
<path d="M182.414 132.119H180.763V133.769H182.414V132.119Z" fill="#F0F0F0"/>
<path d="M182.414 134.885H180.763V136.535H182.414V134.885Z" fill="#F0F0F0"/>
<path d="M182.414 145.95H180.763V147.6H182.414V145.95Z" fill="#F0F0F0"/>
<path d="M182.414 148.716H180.763V150.366H182.414V148.716Z" fill="#F0F0F0"/>
<path d="M182.414 151.482H180.763V153.132H182.414V151.482Z" fill="#F0F0F0"/>
<path d="M182.414 159.781H180.763V161.431H182.414V159.781Z" fill="#F0F0F0"/>
<path d="M182.414 162.547H180.763V164.198H182.414V162.547Z" fill="#F0F0F0"/>
<path d="M179.793 143.183H178.143V144.834H179.793V143.183Z" fill="#F0F0F0"/>
<path d="M179.793 145.95H178.143V147.6H179.793V145.95Z" fill="#F0F0F0"/>
<path d="M179.793 148.716H178.143V150.366H179.793V148.716Z" fill="#F0F0F0"/>
<path d="M179.793 151.482H178.143V153.132H179.793V151.482Z" fill="#F0F0F0"/>
<path d="M179.793 154.248H178.143V155.898H179.793V154.248Z" fill="#F0F0F0"/>
<path d="M179.793 159.781H178.143V161.431H179.793V159.781Z" fill="#F0F0F0"/>
<path d="M179.793 162.547H178.143V164.198H179.793V162.547Z" fill="#F0F0F0"/>
<path d="M177.172 132.119H175.522V133.769H177.172V132.119Z" fill="#F0F0F0"/>
<path d="M177.172 134.885H175.522V136.535H177.172V134.885Z" fill="#F0F0F0"/>
<path d="M177.172 137.651H175.522V139.301H177.172V137.651Z" fill="#F0F0F0"/>
<path d="M177.172 140.417H175.522V142.067H177.172V140.417Z" fill="#F0F0F0"/>
<path d="M177.172 143.183H175.522V144.834H177.172V143.183Z" fill="#F0F0F0"/>
<path d="M177.172 145.95H175.522V147.6H177.172V145.95Z" fill="#F0F0F0"/>
<path d="M177.172 148.716H175.522V150.366H177.172V148.716Z" fill="#F0F0F0"/>
<path d="M177.172 151.482H175.522V153.132H177.172V151.482Z" fill="#F0F0F0"/>
<path d="M177.172 154.248H175.522V155.898H177.172V154.248Z" fill="#F0F0F0"/>
<path d="M177.172 157.015H175.522V158.665H177.172V157.015Z" fill="#F0F0F0"/>
<path d="M177.172 162.547H175.522V164.198H177.172V162.547Z" fill="#F0F0F0"/>
<path d="M174.552 132.119H172.901V133.769H174.552V132.119Z" fill="#F0F0F0"/>
<path d="M174.552 134.885H172.901V136.535H174.552V134.885Z" fill="#F0F0F0"/>
<path d="M174.552 137.651H172.901V139.301H174.552V137.651Z" fill="#F0F0F0"/>
<path d="M174.552 140.417H172.901V142.067H174.552V140.417Z" fill="#F0F0F0"/>
<path d="M174.552 143.183H172.901V144.834H174.552V143.183Z" fill="#F0F0F0"/>
<path d="M174.552 145.95H172.901V147.6H174.552V145.95Z" fill="#F0F0F0"/>
<path d="M174.552 148.716H172.901V150.366H174.552V148.716Z" fill="#F0F0F0"/>
<path d="M174.552 173.612H172.901V175.262H174.552V173.612Z" fill="#F0F0F0"/>
<path d="M171.931 132.119H170.281V133.769H171.931V132.119Z" fill="#F0F0F0"/>
<path d="M171.931 134.885H170.281V136.535H171.931V134.885Z" fill="#F0F0F0"/>
<path d="M171.931 137.651H170.281V139.301H171.931V137.651Z" fill="#F0F0F0"/>
<path d="M171.931 140.417H170.281V142.067H171.931V140.417Z" fill="#F0F0F0"/>
<path d="M171.931 143.183H170.281V144.834H171.931V143.183Z" fill="#F0F0F0"/>
<path d="M171.931 145.95H170.281V147.6H171.931V145.95Z" fill="#F0F0F0"/>
<path d="M171.931 148.716H170.281V150.366H171.931V148.716Z" fill="#F0F0F0"/>
<path d="M171.931 151.482H170.281V153.132H171.931V151.482Z" fill="#F0F0F0"/>
<path d="M171.931 168.08H170.281V169.73H171.931V168.08Z" fill="#F0F0F0"/>
<path d="M171.931 170.846H170.281V172.496H171.931V170.846Z" fill="#F0F0F0"/>
<path d="M171.931 173.612H170.281V175.262H171.931V173.612Z" fill="#F0F0F0"/>
<path d="M171.931 176.379H170.281V178.029H171.931V176.379Z" fill="#F0F0F0"/>
<path d="M171.931 187.444H170.281V189.094H171.931V187.444Z" fill="#F0F0F0"/>
<path d="M169.311 132.119H167.66V133.769H169.311V132.119Z" fill="#F0F0F0"/>
<path d="M169.311 134.885H167.66V136.535H169.311V134.885Z" fill="#F0F0F0"/>
<path d="M169.311 137.651H167.66V139.301H169.311V137.651Z" fill="#F0F0F0"/>
<path d="M169.311 140.417H167.66V142.067H169.311V140.417Z" fill="#F0F0F0"/>
<path d="M169.311 143.183H167.66V144.834H169.311V143.183Z" fill="#F0F0F0"/>
<path d="M169.311 145.95H167.66V147.6H169.311V145.95Z" fill="#F0F0F0"/>
<path d="M169.311 148.716H167.66V150.366H169.311V148.716Z" fill="#F0F0F0"/>
<path d="M169.311 151.482H167.66V153.132H169.311V151.482Z" fill="#F0F0F0"/>
<path d="M169.311 154.248H167.66V155.898H169.311V154.248Z" fill="#F0F0F0"/>
<path d="M169.311 157.015H167.66V158.665H169.311V157.015Z" fill="#F0F0F0"/>
<path d="M169.311 165.314H167.66V166.964H169.311V165.314Z" fill="#F0F0F0"/>
<path d="M169.311 168.08H167.66V169.73H169.311V168.08Z" fill="#F0F0F0"/>
<path d="M169.311 170.846H167.66V172.496H169.311V170.846Z" fill="#F0F0F0"/>
<path d="M169.311 173.612H167.66V175.262H169.311V173.612Z" fill="#F0F0F0"/>
<path d="M169.311 176.379H167.66V178.029H169.311V176.379Z" fill="#F0F0F0"/>
<path d="M169.311 187.444H167.66V189.094H169.311V187.444Z" fill="#F0F0F0"/>
<path d="M166.69 132.119H165.04V133.769H166.69V132.119Z" fill="#F0F0F0"/>
<path d="M166.69 134.885H165.04V136.535H166.69V134.885Z" fill="#F0F0F0"/>
<path d="M166.69 137.651H165.04V139.301H166.69V137.651Z" fill="#F0F0F0"/>
<path d="M166.69 140.417H165.04V142.067H166.69V140.417Z" fill="#F0F0F0"/>
<path d="M166.69 143.183H165.04V144.834H166.69V143.183Z" fill="#F0F0F0"/>
<path d="M166.69 145.95H165.04V147.6H166.69V145.95Z" fill="#F0F0F0"/>
<path d="M166.69 148.716H165.04V150.366H166.69V148.716Z" fill="#F0F0F0"/>
<path d="M166.69 151.482H165.04V153.132H166.69V151.482Z" fill="#F0F0F0"/>
<path d="M166.69 154.248H165.04V155.898H166.69V154.248Z" fill="#F0F0F0"/>
<path d="M166.69 157.015H165.04V158.665H166.69V157.015Z" fill="#F0F0F0"/>
<path d="M166.69 159.781H165.04V161.431H166.69V159.781Z" fill="#F0F0F0"/>
<path d="M166.69 162.547H165.04V164.198H166.69V162.547Z" fill="#F0F0F0"/>
<path d="M166.69 165.314H165.04V166.964H166.69V165.314Z" fill="#F0F0F0"/>
<path d="M166.69 168.08H165.04V169.73H166.69V168.08Z" fill="#F0F0F0"/>
<path d="M166.69 170.846H165.04V172.496H166.69V170.846Z" fill="#F0F0F0"/>
<path d="M166.69 173.612H165.04V175.262H166.69V173.612Z" fill="#F0F0F0"/>
<path d="M166.69 176.379H165.04V178.029H166.69V176.379Z" fill="#F0F0F0"/>
<path d="M166.69 179.145H165.04V180.795H166.69V179.145Z" fill="#F0F0F0"/>
<path d="M164.069 132.119H162.419V133.769H164.069V132.119Z" fill="#F0F0F0"/>
<path d="M164.069 134.885H162.419V136.535H164.069V134.885Z" fill="#F0F0F0"/>
<path d="M164.069 137.651H162.419V139.301H164.069V137.651Z" fill="#F0F0F0"/>
<path d="M164.069 140.417H162.419V142.067H164.069V140.417Z" fill="#F0F0F0"/>
<path d="M164.069 143.183H162.419V144.834H164.069V143.183Z" fill="#F0F0F0"/>
<path d="M164.069 145.95H162.419V147.6H164.069V145.95Z" fill="#F0F0F0"/>
<path d="M164.069 148.716H162.419V150.366H164.069V148.716Z" fill="#F0F0F0"/>
<path d="M164.069 151.482H162.419V153.132H164.069V151.482Z" fill="#F0F0F0"/>
<path d="M164.069 154.248H162.419V155.898H164.069V154.248Z" fill="#F0F0F0"/>
<path d="M164.069 157.015H162.419V158.665H164.069V157.015Z" fill="#F0F0F0"/>
<path d="M164.069 165.314H162.419V166.964H164.069V165.314Z" fill="#F0F0F0"/>
<path d="M164.069 168.08H162.419V169.73H164.069V168.08Z" fill="#F0F0F0"/>
<path d="M164.069 170.846H162.419V172.496H164.069V170.846Z" fill="#F0F0F0"/>
<path d="M164.069 173.612H162.419V175.262H164.069V173.612Z" fill="#F0F0F0"/>
<path d="M161.449 132.119H159.798V133.769H161.449V132.119Z" fill="#F0F0F0"/>
<path d="M161.449 134.885H159.798V136.535H161.449V134.885Z" fill="#F0F0F0"/>
<path d="M161.449 137.651H159.798V139.301H161.449V137.651Z" fill="#F0F0F0"/>
<path d="M161.449 140.417H159.798V142.067H161.449V140.417Z" fill="#F0F0F0"/>
<path d="M161.449 143.183H159.798V144.834H161.449V143.183Z" fill="#F0F0F0"/>
<path d="M161.449 145.95H159.798V147.6H161.449V145.95Z" fill="#F0F0F0"/>
<path d="M161.449 148.716H159.798V150.366H161.449V148.716Z" fill="#F0F0F0"/>
<path d="M161.449 151.482H159.798V153.132H161.449V151.482Z" fill="#F0F0F0"/>
<path d="M161.449 154.248H159.798V155.898H161.449V154.248Z" fill="#F0F0F0"/>
<path d="M161.449 157.015H159.798V158.665H161.449V157.015Z" fill="#F0F0F0"/>
<path d="M161.449 165.314H159.798V166.964H161.449V165.314Z" fill="#F0F0F0"/>
<path d="M161.449 168.08H159.798V169.73H161.449V168.08Z" fill="#F0F0F0"/>
<path d="M161.449 170.846H159.798V172.496H161.449V170.846Z" fill="#F0F0F0"/>
<path d="M131.942 124.936H130.292V126.586H131.942V124.936Z" fill="#F0F0F0"/>
<path d="M131.942 127.702H130.292V129.352H131.942V127.702Z" fill="#F0F0F0"/>
<path d="M131.942 130.469H130.292V132.119H131.942V130.469Z" fill="#F0F0F0"/>
<path d="M131.942 133.235H130.292V134.885H131.942V133.235Z" fill="#F0F0F0"/>
<path d="M131.942 136.001H130.292V137.651H131.942V136.001Z" fill="#F0F0F0"/>
<path d="M131.942 138.767H130.292V140.417H131.942V138.767Z" fill="#F0F0F0"/>
<path d="M131.942 141.534H130.292V143.184H131.942V141.534Z" fill="#F0F0F0"/>
<path d="M131.942 144.3H130.292V145.95H131.942V144.3Z" fill="#F0F0F0"/>
<path d="M131.942 152.599H130.292V154.249H131.942V152.599Z" fill="#F0F0F0"/>
<path d="M131.942 155.365H130.292V157.015H131.942V155.365Z" fill="#F0F0F0"/>
<path d="M129.321 124.936H127.671V126.586H129.321V124.936Z" fill="#F0F0F0"/>
<path d="M129.321 127.702H127.671V129.352H129.321V127.702Z" fill="#F0F0F0"/>
<path d="M129.321 130.469H127.671V132.119H129.321V130.469Z" fill="#F0F0F0"/>
<path d="M129.321 133.235H127.671V134.885H129.321V133.235Z" fill="#F0F0F0"/>
<path d="M129.321 136.001H127.671V137.651H129.321V136.001Z" fill="#F0F0F0"/>
<path d="M129.321 138.767H127.671V140.417H129.321V138.767Z" fill="#F0F0F0"/>
<path d="M129.321 141.534H127.671V143.184H129.321V141.534Z" fill="#F0F0F0"/>
<path d="M129.321 144.3H127.671V145.95H129.321V144.3Z" fill="#F0F0F0"/>
<path d="M129.321 155.365H127.671V157.015H129.321V155.365Z" fill="#F0F0F0"/>
<path d="M126.701 124.936H125.051V126.586H126.701V124.936Z" fill="#F0F0F0"/>
<path d="M126.701 127.702H125.051V129.352H126.701V127.702Z" fill="#F0F0F0"/>
<path d="M126.701 130.469H125.051V132.119H126.701V130.469Z" fill="#F0F0F0"/>
<path d="M126.701 133.235H125.051V134.885H126.701V133.235Z" fill="#F0F0F0"/>
<path d="M126.701 136.001H125.051V137.651H126.701V136.001Z" fill="#F0F0F0"/>
<path d="M126.701 138.767H125.051V140.417H126.701V138.767Z" fill="#F0F0F0"/>
<path d="M126.701 141.534H125.051V143.184H126.701V141.534Z" fill="#F0F0F0"/>
<path d="M126.701 144.3H125.051V145.95H126.701V144.3Z" fill="#F0F0F0"/>
<path d="M124.08 124.936H122.43V126.586H124.08V124.936Z" fill="#F0F0F0"/>
<path d="M124.08 127.702H122.43V129.352H124.08V127.702Z" fill="#F0F0F0"/>
<path d="M124.08 130.469H122.43V132.119H124.08V130.469Z" fill="#F0F0F0"/>
<path d="M124.08 133.235H122.43V134.885H124.08V133.235Z" fill="#F0F0F0"/>
<path d="M124.08 136.001H122.43V137.651H124.08V136.001Z" fill="#F0F0F0"/>
<path d="M124.08 138.767H122.43V140.417H124.08V138.767Z" fill="#F0F0F0"/>
<path d="M124.08 144.3H122.43V145.95H124.08V144.3Z" fill="#F0F0F0"/>
<path d="M124.08 147.066H122.43V148.716H124.08V147.066Z" fill="#F0F0F0"/>
<path d="M124.08 155.365H122.43V157.015H124.08V155.365Z" fill="#F0F0F0"/>
<path d="M124.08 158.131H122.43V159.781H124.08V158.131Z" fill="#F0F0F0"/>
<path d="M124.08 160.897H122.43V162.547H124.08V160.897Z" fill="#F0F0F0"/>
<path d="M124.08 163.664H122.43V165.314H124.08V163.664Z" fill="#F0F0F0"/>
<path d="M124.08 166.43H122.43V168.08H124.08V166.43Z" fill="#F0F0F0"/>
<path d="M124.08 169.196H122.43V170.846H124.08V169.196Z" fill="#F0F0F0"/>
<path d="M124.08 171.962H122.43V173.612H124.08V171.962Z" fill="#F0F0F0"/>
<path d="M121.459 124.936H119.809V126.586H121.459V124.936Z" fill="#F0F0F0"/>
<path d="M121.459 127.702H119.809V129.352H121.459V127.702Z" fill="#F0F0F0"/>
<path d="M121.459 130.469H119.809V132.119H121.459V130.469Z" fill="#F0F0F0"/>
<path d="M121.459 133.235H119.809V134.885H121.459V133.235Z" fill="#F0F0F0"/>
<path d="M121.459 136.001H119.809V137.651H121.459V136.001Z" fill="#F0F0F0"/>
<path d="M121.459 138.767H119.809V140.417H121.459V138.767Z" fill="#F0F0F0"/>
<path d="M121.459 147.066H119.809V148.716H121.459V147.066Z" fill="#F0F0F0"/>
<path d="M121.459 149.832H119.809V151.482H121.459V149.832Z" fill="#F0F0F0"/>
<path d="M121.459 152.599H119.809V154.249H121.459V152.599Z" fill="#F0F0F0"/>
<path d="M121.459 155.365H119.809V157.015H121.459V155.365Z" fill="#F0F0F0"/>
<path d="M121.459 158.131H119.809V159.781H121.459V158.131Z" fill="#F0F0F0"/>
<path d="M121.459 160.897H119.809V162.547H121.459V160.897Z" fill="#F0F0F0"/>
<path d="M121.459 163.664H119.809V165.314H121.459V163.664Z" fill="#F0F0F0"/>
<path d="M121.459 166.43H119.809V168.08H121.459V166.43Z" fill="#F0F0F0"/>
<path d="M121.459 169.196H119.809V170.846H121.459V169.196Z" fill="#F0F0F0"/>
<path d="M121.459 171.962H119.809V173.612H121.459V171.962Z" fill="#F0F0F0"/>
<path d="M121.459 174.728H119.809V176.379H121.459V174.728Z" fill="#F0F0F0"/>
<path d="M121.459 180.261H119.809V181.912H121.459V180.261Z" fill="#F0F0F0"/>
<path d="M118.839 124.936H117.188V126.586H118.839V124.936Z" fill="#F0F0F0"/>
<path d="M118.839 127.702H117.188V129.352H118.839V127.702Z" fill="#F0F0F0"/>
<path d="M118.839 130.469H117.188V132.119H118.839V130.469Z" fill="#F0F0F0"/>
<path d="M118.839 133.235H117.188V134.885H118.839V133.235Z" fill="#F0F0F0"/>
<path d="M118.839 136.001H117.188V137.651H118.839V136.001Z" fill="#F0F0F0"/>
<path d="M118.839 138.767H117.188V140.417H118.839V138.767Z" fill="#F0F0F0"/>
<path d="M118.839 147.066H117.188V148.716H118.839V147.066Z" fill="#F0F0F0"/>
<path d="M118.839 149.832H117.188V151.482H118.839V149.832Z" fill="#F0F0F0"/>
<path d="M118.839 152.599H117.188V154.249H118.839V152.599Z" fill="#F0F0F0"/>
<path d="M118.839 155.365H117.188V157.015H118.839V155.365Z" fill="#F0F0F0"/>
<path d="M118.839 163.664H117.188V165.314H118.839V163.664Z" fill="#F0F0F0"/>
<path d="M118.839 166.43H117.188V168.08H118.839V166.43Z" fill="#F0F0F0"/>
<path d="M118.839 169.196H117.188V170.846H118.839V169.196Z" fill="#F0F0F0"/>
<path d="M118.839 171.962H117.188V173.612H118.839V171.962Z" fill="#F0F0F0"/>
<path d="M118.839 174.728H117.188V176.379H118.839V174.728Z" fill="#F0F0F0"/>
<path d="M118.839 180.261H117.188V181.912H118.839V180.261Z" fill="#F0F0F0"/>
<path d="M118.839 183.028H117.188V184.678H118.839V183.028Z" fill="#F0F0F0"/>
<path d="M95.0584 150.657H93.4082V152.307H95.0584V150.657Z" fill="#F0F0F0"/>
<path d="M95.0584 153.423H93.4082V155.074H95.0584V153.423Z" fill="#F0F0F0"/>
<path d="M95.0584 156.19H93.4082V157.84H95.0584V156.19Z" fill="#F0F0F0"/>
<path d="M95.0584 158.956H93.4082V160.606H95.0584V158.956Z" fill="#F0F0F0"/>
<path d="M95.0584 161.723H93.4082V163.373H95.0584V161.723Z" fill="#F0F0F0"/>
<path d="M95.0584 164.489H93.4082V166.139H95.0584V164.489Z" fill="#F0F0F0"/>
<path d="M95.0584 167.255H93.4082V168.905H95.0584V167.255Z" fill="#F0F0F0"/>
<path d="M95.0584 175.554H93.4082V177.204H95.0584V175.554Z" fill="#F0F0F0"/>
<path d="M95.0584 178.32H93.4082V179.97H95.0584V178.32Z" fill="#F0F0F0"/>
<path d="M95.0584 181.086H93.4082V182.736H95.0584V181.086Z" fill="#F0F0F0"/>
<path d="M92.438 150.657H90.7878V152.307H92.438V150.657Z" fill="#F0F0F0"/>
<path d="M92.438 153.423H90.7878V155.074H92.438V153.423Z" fill="#F0F0F0"/>
<path d="M92.438 156.19H90.7878V157.84H92.438V156.19Z" fill="#F0F0F0"/>
<path d="M92.438 158.956H90.7878V160.606H92.438V158.956Z" fill="#F0F0F0"/>
<path d="M92.438 161.723H90.7878V163.373H92.438V161.723Z" fill="#F0F0F0"/>
<path d="M92.438 164.489H90.7878V166.139H92.438V164.489Z" fill="#F0F0F0"/>
<path d="M92.438 167.255H90.7878V168.905H92.438V167.255Z" fill="#F0F0F0"/>
<path d="M89.8171 150.657H88.167V152.307H89.8171V150.657Z" fill="#F0F0F0"/>
<path d="M89.8171 153.423H88.167V155.074H89.8171V153.423Z" fill="#F0F0F0"/>
<path d="M89.8171 156.19H88.167V157.84H89.8171V156.19Z" fill="#F0F0F0"/>
<path d="M89.8171 158.956H88.167V160.606H89.8171V158.956Z" fill="#F0F0F0"/>
<path d="M89.8171 161.723H88.167V163.373H89.8171V161.723Z" fill="#F0F0F0"/>
<path d="M89.8171 164.489H88.167V166.139H89.8171V164.489Z" fill="#F0F0F0"/>
<path d="M89.8171 167.255H88.167V168.905H89.8171V167.255Z" fill="#F0F0F0"/>
<path d="M87.1963 150.657H85.5461V152.307H87.1963V150.657Z" fill="#F0F0F0"/>
<path d="M87.1963 153.423H85.5461V155.074H87.1963V153.423Z" fill="#F0F0F0"/>
<path d="M87.1963 156.19H85.5461V157.84H87.1963V156.19Z" fill="#F0F0F0"/>
<path d="M87.1963 158.956H85.5461V160.606H87.1963V158.956Z" fill="#F0F0F0"/>
<path d="M87.1963 161.723H85.5461V163.373H87.1963V161.723Z" fill="#F0F0F0"/>
<path d="M87.1963 164.489H85.5461V166.139H87.1963V164.489Z" fill="#F0F0F0"/>
<path d="M87.1963 167.255H85.5461V168.905H87.1963V167.255Z" fill="#F0F0F0"/>
<path d="M87.1963 170.021H85.5461V171.672H87.1963V170.021Z" fill="#F0F0F0"/>
<path d="M87.1963 172.787H85.5461V174.438H87.1963V172.787Z" fill="#F0F0F0"/>
<path d="M87.1963 175.554H85.5461V177.204H87.1963V175.554Z" fill="#F0F0F0"/>
<path d="M87.1963 178.32H85.5461V179.97H87.1963V178.32Z" fill="#F0F0F0"/>
<path d="M84.5759 150.657H82.9258V152.307H84.5759V150.657Z" fill="#F0F0F0"/>
<path d="M84.5759 153.423H82.9258V155.074H84.5759V153.423Z" fill="#F0F0F0"/>
<path d="M84.5759 156.19H82.9258V157.84H84.5759V156.19Z" fill="#F0F0F0"/>
<path d="M84.5759 158.956H82.9258V160.606H84.5759V158.956Z" fill="#F0F0F0"/>
<path d="M84.5759 161.723H82.9258V163.373H84.5759V161.723Z" fill="#F0F0F0"/>
<path d="M84.5759 164.489H82.9258V166.139H84.5759V164.489Z" fill="#F0F0F0"/>
<path d="M84.5759 167.255H82.9258V168.905H84.5759V167.255Z" fill="#F0F0F0"/>
<path d="M84.5759 170.021H82.9258V171.672H84.5759V170.021Z" fill="#F0F0F0"/>
<path d="M84.5759 172.787H82.9258V174.438H84.5759V172.787Z" fill="#F0F0F0"/>
<path d="M84.5759 175.554H82.9258V177.204H84.5759V175.554Z" fill="#F0F0F0"/>
<path d="M84.5759 178.32H82.9258V179.97H84.5759V178.32Z" fill="#F0F0F0"/>
<path d="M84.5759 181.086H82.9258V182.736H84.5759V181.086Z" fill="#F0F0F0"/>
<path d="M84.5759 189.385H82.9258V191.035H84.5759V189.385Z" fill="#F0F0F0"/>
<path d="M84.5759 192.151H82.9258V193.801H84.5759V192.151Z" fill="#F0F0F0"/>
<path d="M81.9551 150.657H80.3049V152.307H81.9551V150.657Z" fill="#F0F0F0"/>
<path d="M81.9551 153.423H80.3049V155.074H81.9551V153.423Z" fill="#F0F0F0"/>
<path d="M81.9551 156.19H80.3049V157.84H81.9551V156.19Z" fill="#F0F0F0"/>
<path d="M81.9551 164.489H80.3049V166.139H81.9551V164.489Z" fill="#F0F0F0"/>
<path d="M81.9551 167.255H80.3049V168.905H81.9551V167.255Z" fill="#F0F0F0"/>
<path d="M81.9551 170.021H80.3049V171.672H81.9551V170.021Z" fill="#F0F0F0"/>
<path d="M81.9551 172.787H80.3049V174.438H81.9551V172.787Z" fill="#F0F0F0"/>
<path d="M81.9551 175.554H80.3049V177.204H81.9551V175.554Z" fill="#F0F0F0"/>
<path d="M81.9551 178.32H80.3049V179.97H81.9551V178.32Z" fill="#F0F0F0"/>
<path d="M81.9551 181.086H80.3049V182.736H81.9551V181.086Z" fill="#F0F0F0"/>
<path d="M81.9551 189.385H80.3049V191.035H81.9551V189.385Z" fill="#F0F0F0"/>
<path d="M81.9551 192.151H80.3049V193.801H81.9551V192.151Z" fill="#F0F0F0"/>
<path d="M81.9551 194.917H80.3049V196.567H81.9551V194.917Z" fill="#F0F0F0"/>
<path d="M54.4868 134.06H52.8367V135.71H54.4868V134.06Z" fill="#F0F0F0"/>
<path d="M54.4868 136.826H52.8367V138.476H54.4868V136.826Z" fill="#F0F0F0"/>
<path d="M54.4868 139.592H52.8367V141.243H54.4868V139.592Z" fill="#F0F0F0"/>
<path d="M54.4868 142.359H52.8367V144.009H54.4868V142.359Z" fill="#F0F0F0"/>
<path d="M54.4868 145.125H52.8367V146.775H54.4868V145.125Z" fill="#F0F0F0"/>
<path d="M54.4868 147.891H52.8367V149.541H54.4868V147.891Z" fill="#F0F0F0"/>
<path d="M54.4868 150.657H52.8367V152.307H54.4868V150.657Z" fill="#F0F0F0"/>
<path d="M54.4868 153.423H52.8367V155.074H54.4868V153.423Z" fill="#F0F0F0"/>
<path d="M54.4868 156.19H52.8367V157.84H54.4868V156.19Z" fill="#F0F0F0"/>
<path d="M54.4868 158.956H52.8367V160.606H54.4868V158.956Z" fill="#F0F0F0"/>
<path d="M54.4868 161.723H52.8367V163.373H54.4868V161.723Z" fill="#F0F0F0"/>
<path d="M54.4868 164.489H52.8367V166.139H54.4868V164.489Z" fill="#F0F0F0"/>
<path d="M54.4868 167.255H52.8367V168.905H54.4868V167.255Z" fill="#F0F0F0"/>
<path d="M54.4868 170.021H52.8367V171.672H54.4868V170.021Z" fill="#F0F0F0"/>
<path d="M54.4868 172.787H52.8367V174.438H54.4868V172.787Z" fill="#F0F0F0"/>
<path d="M54.4868 175.554H52.8367V177.204H54.4868V175.554Z" fill="#F0F0F0"/>
<path d="M54.4868 178.32H52.8367V179.97H54.4868V178.32Z" fill="#F0F0F0"/>
<path d="M54.4868 181.086H52.8367V182.736H54.4868V181.086Z" fill="#F0F0F0"/>
<path d="M54.4868 183.852H52.8367V185.503H54.4868V183.852Z" fill="#F0F0F0"/>
<path d="M54.4868 186.619H52.8367V188.269H54.4868V186.619Z" fill="#F0F0F0"/>
<path d="M54.4868 189.385H52.8367V191.035H54.4868V189.385Z" fill="#F0F0F0"/>
<path d="M54.4868 192.151H52.8367V193.801H54.4868V192.151Z" fill="#F0F0F0"/>
<path d="M54.4868 194.917H52.8367V196.567H54.4868V194.917Z" fill="#F0F0F0"/>
<path d="M51.866 134.06H50.2158V135.71H51.866V134.06Z" fill="#F0F0F0"/>
<path d="M51.866 136.826H50.2158V138.476H51.866V136.826Z" fill="#F0F0F0"/>
<path d="M51.866 139.592H50.2158V141.243H51.866V139.592Z" fill="#F0F0F0"/>
<path d="M51.866 142.359H50.2158V144.009H51.866V142.359Z" fill="#F0F0F0"/>
<path d="M51.866 145.125H50.2158V146.775H51.866V145.125Z" fill="#F0F0F0"/>
<path d="M51.866 147.891H50.2158V149.541H51.866V147.891Z" fill="#F0F0F0"/>
<path d="M51.866 150.657H50.2158V152.307H51.866V150.657Z" fill="#F0F0F0"/>
<path d="M51.866 153.423H50.2158V155.074H51.866V153.423Z" fill="#F0F0F0"/>
<path d="M51.866 156.19H50.2158V157.84H51.866V156.19Z" fill="#F0F0F0"/>
<path d="M51.866 158.956H50.2158V160.606H51.866V158.956Z" fill="#F0F0F0"/>
<path d="M51.866 161.723H50.2158V163.373H51.866V161.723Z" fill="#F0F0F0"/>
<path d="M51.866 164.489H50.2158V166.139H51.866V164.489Z" fill="#F0F0F0"/>
<path d="M51.866 167.255H50.2158V168.905H51.866V167.255Z" fill="#F0F0F0"/>
<path d="M51.866 170.021H50.2158V171.672H51.866V170.021Z" fill="#F0F0F0"/>
<path d="M51.866 172.787H50.2158V174.438H51.866V172.787Z" fill="#F0F0F0"/>
<path d="M51.866 175.554H50.2158V177.204H51.866V175.554Z" fill="#F0F0F0"/>
<path d="M51.866 178.32H50.2158V179.97H51.866V178.32Z" fill="#F0F0F0"/>
<path d="M51.866 181.086H50.2158V182.736H51.866V181.086Z" fill="#F0F0F0"/>
<path d="M51.866 183.852H50.2158V185.503H51.866V183.852Z" fill="#F0F0F0"/>
<path d="M49.2456 134.06H47.5955V135.71H49.2456V134.06Z" fill="#F0F0F0"/>
<path d="M49.2456 136.826H47.5955V138.476H49.2456V136.826Z" fill="#F0F0F0"/>
<path d="M49.2456 139.592H47.5955V141.243H49.2456V139.592Z" fill="#F0F0F0"/>
<path d="M49.2456 142.359H47.5955V144.009H49.2456V142.359Z" fill="#F0F0F0"/>
<path d="M49.2456 145.125H47.5955V146.775H49.2456V145.125Z" fill="#F0F0F0"/>
<path d="M49.2456 147.891H47.5955V149.541H49.2456V147.891Z" fill="#F0F0F0"/>
<path d="M49.2456 150.657H47.5955V152.307H49.2456V150.657Z" fill="#F0F0F0"/>
<path d="M49.2456 153.423H47.5955V155.074H49.2456V153.423Z" fill="#F0F0F0"/>
<path d="M49.2456 156.19H47.5955V157.84H49.2456V156.19Z" fill="#F0F0F0"/>
<path d="M49.2456 158.956H47.5955V160.606H49.2456V158.956Z" fill="#F0F0F0"/>
<path d="M49.2456 161.723H47.5955V163.373H49.2456V161.723Z" fill="#F0F0F0"/>
<path d="M49.2456 164.489H47.5955V166.139H49.2456V164.489Z" fill="#F0F0F0"/>
<path d="M49.2456 167.255H47.5955V168.905H49.2456V167.255Z" fill="#F0F0F0"/>
<path d="M49.2456 170.021H47.5955V171.672H49.2456V170.021Z" fill="#F0F0F0"/>
<path d="M49.2456 172.787H47.5955V174.438H49.2456V172.787Z" fill="#F0F0F0"/>
<path d="M49.2456 175.554H47.5955V177.204H49.2456V175.554Z" fill="#F0F0F0"/>
<path d="M49.2456 178.32H47.5955V179.97H49.2456V178.32Z" fill="#F0F0F0"/>
<path d="M49.2456 181.086H47.5955V182.736H49.2456V181.086Z" fill="#F0F0F0"/>
<path d="M49.2456 183.852H47.5955V185.503H49.2456V183.852Z" fill="#F0F0F0"/>
<path d="M46.6248 134.06H44.9746V135.71H46.6248V134.06Z" fill="#F0F0F0"/>
<path d="M46.6248 136.826H44.9746V138.476H46.6248V136.826Z" fill="#F0F0F0"/>
<path d="M46.6248 139.592H44.9746V141.243H46.6248V139.592Z" fill="#F0F0F0"/>
<path d="M46.6248 142.359H44.9746V144.009H46.6248V142.359Z" fill="#F0F0F0"/>
<path d="M46.6248 145.125H44.9746V146.775H46.6248V145.125Z" fill="#F0F0F0"/>
<path d="M46.6248 147.891H44.9746V149.541H46.6248V147.891Z" fill="#F0F0F0"/>
<path d="M46.6248 150.657H44.9746V152.307H46.6248V150.657Z" fill="#F0F0F0"/>
<path d="M46.6248 153.423H44.9746V155.074H46.6248V153.423Z" fill="#F0F0F0"/>
<path d="M46.6248 156.19H44.9746V157.84H46.6248V156.19Z" fill="#F0F0F0"/>
<path d="M46.6248 158.956H44.9746V160.606H46.6248V158.956Z" fill="#F0F0F0"/>
<path d="M46.6248 161.723H44.9746V163.373H46.6248V161.723Z" fill="#F0F0F0"/>
<path d="M46.6248 164.489H44.9746V166.139H46.6248V164.489Z" fill="#F0F0F0"/>
<path d="M46.6248 167.255H44.9746V168.905H46.6248V167.255Z" fill="#F0F0F0"/>
<path d="M46.6248 170.021H44.9746V171.672H46.6248V170.021Z" fill="#F0F0F0"/>
<path d="M46.6248 172.787H44.9746V174.438H46.6248V172.787Z" fill="#F0F0F0"/>
<path d="M44.0039 134.06H42.3538V135.71H44.0039V134.06Z" fill="#F0F0F0"/>
<path d="M44.0039 136.826H42.3538V138.476H44.0039V136.826Z" fill="#F0F0F0"/>
<path d="M44.0039 139.592H42.3538V141.243H44.0039V139.592Z" fill="#F0F0F0"/>
<path d="M44.0039 142.359H42.3538V144.009H44.0039V142.359Z" fill="#F0F0F0"/>
<path d="M44.0039 145.125H42.3538V146.775H44.0039V145.125Z" fill="#F0F0F0"/>
<path d="M44.0039 147.891H42.3538V149.541H44.0039V147.891Z" fill="#F0F0F0"/>
<path d="M44.0039 150.657H42.3538V152.307H44.0039V150.657Z" fill="#F0F0F0"/>
<path d="M44.0039 153.423H42.3538V155.074H44.0039V153.423Z" fill="#F0F0F0"/>
<path d="M44.0039 156.19H42.3538V157.84H44.0039V156.19Z" fill="#F0F0F0"/>
<path d="M44.0039 158.956H42.3538V160.606H44.0039V158.956Z" fill="#F0F0F0"/>
<path d="M44.0039 161.723H42.3538V163.373H44.0039V161.723Z" fill="#F0F0F0"/>
<path d="M44.0039 164.489H42.3538V166.139H44.0039V164.489Z" fill="#F0F0F0"/>
<path d="M44.0039 167.255H42.3538V168.905H44.0039V167.255Z" fill="#F0F0F0"/>
<path d="M41.3831 134.06H39.7329V135.71H41.3831V134.06Z" fill="#F0F0F0"/>
<path d="M41.3831 136.826H39.7329V138.476H41.3831V136.826Z" fill="#F0F0F0"/>
<path d="M41.3831 139.592H39.7329V141.243H41.3831V139.592Z" fill="#F0F0F0"/>
<path d="M41.3831 142.359H39.7329V144.009H41.3831V142.359Z" fill="#F0F0F0"/>
<path d="M41.3831 145.125H39.7329V146.775H41.3831V145.125Z" fill="#F0F0F0"/>
<path d="M41.3831 147.891H39.7329V149.541H41.3831V147.891Z" fill="#F0F0F0"/>
<path d="M41.3831 150.657H39.7329V152.307H41.3831V150.657Z" fill="#F0F0F0"/>
<path d="M41.3831 153.423H39.7329V155.074H41.3831V153.423Z" fill="#F0F0F0"/>
<path d="M41.3831 156.19H39.7329V157.84H41.3831V156.19Z" fill="#F0F0F0"/>
<path d="M41.3831 158.956H39.7329V160.606H41.3831V158.956Z" fill="#F0F0F0"/>
<path d="M41.3831 161.723H39.7329V163.373H41.3831V161.723Z" fill="#F0F0F0"/>
<path d="M41.3831 164.489H39.7329V166.139H41.3831V164.489Z" fill="#F0F0F0"/>
<path d="M233.954 154.248H232.303V155.898H233.954V154.248Z" fill="#F0F0F0"/>
<path d="M233.954 157.015H232.303V158.665H233.954V157.015Z" fill="#F0F0F0"/>
<path d="M233.954 159.781H232.303V161.431H233.954V159.781Z" fill="#F0F0F0"/>
<path d="M233.954 162.547H232.303V164.198H233.954V162.547Z" fill="#F0F0F0"/>
<path d="M233.954 165.314H232.303V166.964H233.954V165.314Z" fill="#F0F0F0"/>
<path d="M233.954 168.08H232.303V169.73H233.954V168.08Z" fill="#F0F0F0"/>
<path d="M233.954 170.846H232.303V172.496H233.954V170.846Z" fill="#F0F0F0"/>
<path d="M233.954 173.612H232.303V175.262H233.954V173.612Z" fill="#F0F0F0"/>
<path d="M233.954 176.379H232.303V178.029H233.954V176.379Z" fill="#F0F0F0"/>
<path d="M233.954 179.145H232.303V180.795H233.954V179.145Z" fill="#F0F0F0"/>
<path d="M233.954 181.911H232.303V183.561H233.954V181.911Z" fill="#F0F0F0"/>
<path d="M233.954 184.677H232.303V186.327H233.954V184.677Z" fill="#F0F0F0"/>
<path d="M233.954 187.444H232.303V189.094H233.954V187.444Z" fill="#F0F0F0"/>
<path d="M233.954 190.21H232.303V191.86H233.954V190.21Z" fill="#F0F0F0"/>
<path d="M233.954 192.976H232.303V194.626H233.954V192.976Z" fill="#F0F0F0"/>
<path d="M233.954 195.743H232.303V197.393H233.954V195.743Z" fill="#F0F0F0"/>
<path d="M233.954 198.509H232.303V200.159H233.954V198.509Z" fill="#F0F0F0"/>
<path d="M233.954 201.275H232.303V202.925H233.954V201.275Z" fill="#F0F0F0"/>
<path d="M233.954 204.041H232.303V205.691H233.954V204.041Z" fill="#F0F0F0"/>
<path d="M233.954 206.807H232.303V208.458H233.954V206.807Z" fill="#F0F0F0"/>
<path d="M231.333 154.248H229.683V155.898H231.333V154.248Z" fill="#F0F0F0"/>
<path d="M231.333 157.015H229.683V158.665H231.333V157.015Z" fill="#F0F0F0"/>
<path d="M231.333 159.781H229.683V161.431H231.333V159.781Z" fill="#F0F0F0"/>
<path d="M231.333 162.547H229.683V164.198H231.333V162.547Z" fill="#F0F0F0"/>
<path d="M231.333 165.314H229.683V166.964H231.333V165.314Z" fill="#F0F0F0"/>
<path d="M231.333 168.08H229.683V169.73H231.333V168.08Z" fill="#F0F0F0"/>
<path d="M231.333 170.846H229.683V172.496H231.333V170.846Z" fill="#F0F0F0"/>
<path d="M231.333 173.612H229.683V175.262H231.333V173.612Z" fill="#F0F0F0"/>
<path d="M231.333 176.379H229.683V178.029H231.333V176.379Z" fill="#F0F0F0"/>
<path d="M231.333 179.145H229.683V180.795H231.333V179.145Z" fill="#F0F0F0"/>
<path d="M231.333 181.911H229.683V183.561H231.333V181.911Z" fill="#F0F0F0"/>
<path d="M231.333 184.677H229.683V186.327H231.333V184.677Z" fill="#F0F0F0"/>
<path d="M231.333 187.444H229.683V189.094H231.333V187.444Z" fill="#F0F0F0"/>
<path d="M231.333 190.21H229.683V191.86H231.333V190.21Z" fill="#F0F0F0"/>
<path d="M231.333 192.976H229.683V194.626H231.333V192.976Z" fill="#F0F0F0"/>
<path d="M231.333 195.743H229.683V197.393H231.333V195.743Z" fill="#F0F0F0"/>
<path d="M231.333 198.509H229.683V200.159H231.333V198.509Z" fill="#F0F0F0"/>
<path d="M231.333 201.275H229.683V202.925H231.333V201.275Z" fill="#F0F0F0"/>
<path d="M228.712 154.248H227.062V155.898H228.712V154.248Z" fill="#F0F0F0"/>
<path d="M228.712 157.015H227.062V158.665H228.712V157.015Z" fill="#F0F0F0"/>
<path d="M228.712 159.781H227.062V161.431H228.712V159.781Z" fill="#F0F0F0"/>
<path d="M228.712 162.547H227.062V164.198H228.712V162.547Z" fill="#F0F0F0"/>
<path d="M228.712 165.314H227.062V166.964H228.712V165.314Z" fill="#F0F0F0"/>
<path d="M228.712 168.08H227.062V169.73H228.712V168.08Z" fill="#F0F0F0"/>
<path d="M228.712 170.846H227.062V172.496H228.712V170.846Z" fill="#F0F0F0"/>
<path d="M228.712 173.612H227.062V175.262H228.712V173.612Z" fill="#F0F0F0"/>
<path d="M228.712 176.379H227.062V178.029H228.712V176.379Z" fill="#F0F0F0"/>
<path d="M228.712 179.145H227.062V180.795H228.712V179.145Z" fill="#F0F0F0"/>
<path d="M228.712 181.911H227.062V183.561H228.712V181.911Z" fill="#F0F0F0"/>
<path d="M228.712 184.677H227.062V186.327H228.712V184.677Z" fill="#F0F0F0"/>
<path d="M228.712 187.444H227.062V189.094H228.712V187.444Z" fill="#F0F0F0"/>
<path d="M228.712 190.21H227.062V191.86H228.712V190.21Z" fill="#F0F0F0"/>
<path d="M228.712 192.976H227.062V194.626H228.712V192.976Z" fill="#F0F0F0"/>
<path d="M228.712 195.743H227.062V197.393H228.712V195.743Z" fill="#F0F0F0"/>
<path d="M228.712 198.509H227.062V200.159H228.712V198.509Z" fill="#F0F0F0"/>
<path d="M228.712 201.275H227.062V202.925H228.712V201.275Z" fill="#F0F0F0"/>
<path d="M243.757 174.437H242.107V176.087H243.757V174.437Z" fill="#F0F0F0"/>
<path d="M243.757 177.204H242.107V178.854H243.757V177.204Z" fill="#F0F0F0"/>
<path d="M243.757 179.97H242.107V181.62H243.757V179.97Z" fill="#F0F0F0"/>
<path d="M243.757 182.736H242.107V184.386H243.757V182.736Z" fill="#F0F0F0"/>
<path d="M243.757 185.503H242.107V187.153H243.757V185.503Z" fill="#F0F0F0"/>
<path d="M243.757 188.269H242.107V189.919H243.757V188.269Z" fill="#F0F0F0"/>
<path d="M243.757 191.035H242.107V192.685H243.757V191.035Z" fill="#F0F0F0"/>
<path d="M243.757 193.801H242.107V195.451H243.757V193.801Z" fill="#F0F0F0"/>
<path d="M243.757 196.567H242.107V198.218H243.757V196.567Z" fill="#F0F0F0"/>
<path d="M243.757 199.334H242.107V200.984H243.757V199.334Z" fill="#F0F0F0"/>
<path d="M243.757 202.1H242.107V203.75H243.757V202.1Z" fill="#F0F0F0"/>
<path d="M243.757 204.866H242.107V206.516H243.757V204.866Z" fill="#F0F0F0"/>
<path d="M243.757 207.632H242.107V209.282H243.757V207.632Z" fill="#F0F0F0"/>
<path d="M241.136 174.437H239.486V176.087H241.136V174.437Z" fill="#F0F0F0"/>
<path d="M241.136 177.204H239.486V178.854H241.136V177.204Z" fill="#F0F0F0"/>
<path d="M241.136 179.97H239.486V181.62H241.136V179.97Z" fill="#F0F0F0"/>
<path d="M241.136 182.736H239.486V184.386H241.136V182.736Z" fill="#F0F0F0"/>
<path d="M241.136 185.503H239.486V187.153H241.136V185.503Z" fill="#F0F0F0"/>
<path d="M241.136 188.269H239.486V189.919H241.136V188.269Z" fill="#F0F0F0"/>
<path d="M241.136 191.035H239.486V192.685H241.136V191.035Z" fill="#F0F0F0"/>
<path d="M241.136 193.801H239.486V195.451H241.136V193.801Z" fill="#F0F0F0"/>
<path d="M241.136 196.567H239.486V198.218H241.136V196.567Z" fill="#F0F0F0"/>
<path d="M241.136 199.334H239.486V200.984H241.136V199.334Z" fill="#F0F0F0"/>
<path d="M241.136 202.1H239.486V203.75H241.136V202.1Z" fill="#F0F0F0"/>
<path d="M241.136 204.866H239.486V206.516H241.136V204.866Z" fill="#F0F0F0"/>
<path d="M241.136 207.632H239.486V209.282H241.136V207.632Z" fill="#F0F0F0"/>
<path d="M238.515 174.437H236.865V176.087H238.515V174.437Z" fill="#F0F0F0"/>
<path d="M238.515 177.204H236.865V178.854H238.515V177.204Z" fill="#F0F0F0"/>
<path d="M238.515 179.97H236.865V181.62H238.515V179.97Z" fill="#F0F0F0"/>
<path d="M238.515 182.736H236.865V184.386H238.515V182.736Z" fill="#F0F0F0"/>
<path d="M238.515 185.503H236.865V187.153H238.515V185.503Z" fill="#F0F0F0"/>
<path d="M238.515 188.269H236.865V189.919H238.515V188.269Z" fill="#F0F0F0"/>
<path d="M238.515 191.035H236.865V192.685H238.515V191.035Z" fill="#F0F0F0"/>
<path d="M238.515 193.801H236.865V195.451H238.515V193.801Z" fill="#F0F0F0"/>
<path d="M238.515 196.567H236.865V198.218H238.515V196.567Z" fill="#F0F0F0"/>
<path d="M238.515 199.334H236.865V200.984H238.515V199.334Z" fill="#F0F0F0"/>
<path d="M238.515 202.1H236.865V203.75H238.515V202.1Z" fill="#F0F0F0"/>
<path d="M238.515 204.866H236.865V206.516H238.515V204.866Z" fill="#F0F0F0"/>
<path d="M238.515 207.632H236.865V209.282H238.515V207.632Z" fill="#F0F0F0"/>
<path d="M238.515 210.399H236.865V212.049H238.515V210.399Z" fill="#F0F0F0"/>
<path d="M223.956 175.262H222.306V176.913H223.956V175.262Z" fill="#F0F0F0"/>
<path d="M223.956 178.029H222.306V179.679H223.956V178.029Z" fill="#F0F0F0"/>
<path d="M223.956 180.795H222.306V182.445H223.956V180.795Z" fill="#F0F0F0"/>
<path d="M223.956 183.561H222.306V185.211H223.956V183.561Z" fill="#F0F0F0"/>
<path d="M223.956 186.327H222.306V187.977H223.956V186.327Z" fill="#F0F0F0"/>
<path d="M223.956 189.094H222.306V190.744H223.956V189.094Z" fill="#F0F0F0"/>
<path d="M223.956 191.86H222.306V193.51H223.956V191.86Z" fill="#F0F0F0"/>
<path d="M223.956 194.626H222.306V196.276H223.956V194.626Z" fill="#F0F0F0"/>
<path d="M223.956 197.392H222.306V199.042H223.956V197.392Z" fill="#F0F0F0"/>
<path d="M223.956 200.159H222.306V201.809H223.956V200.159Z" fill="#F0F0F0"/>
<path d="M223.956 208.458H222.306V210.108H223.956V208.458Z" fill="#F0F0F0"/>
<path d="M221.335 175.262H219.685V176.913H221.335V175.262Z" fill="#F0F0F0"/>
<path d="M221.335 178.029H219.685V179.679H221.335V178.029Z" fill="#F0F0F0"/>
<path d="M221.335 180.795H219.685V182.445H221.335V180.795Z" fill="#F0F0F0"/>
<path d="M221.335 183.561H219.685V185.211H221.335V183.561Z" fill="#F0F0F0"/>
<path d="M221.335 186.327H219.685V187.977H221.335V186.327Z" fill="#F0F0F0"/>
<path d="M221.335 189.094H219.685V190.744H221.335V189.094Z" fill="#F0F0F0"/>
<path d="M221.335 191.86H219.685V193.51H221.335V191.86Z" fill="#F0F0F0"/>
<path d="M221.335 194.626H219.685V196.276H221.335V194.626Z" fill="#F0F0F0"/>
<path d="M221.335 197.392H219.685V199.042H221.335V197.392Z" fill="#F0F0F0"/>
<path d="M221.335 205.691H219.685V207.342H221.335V205.691Z" fill="#F0F0F0"/>
<path d="M221.335 208.458H219.685V210.108H221.335V208.458Z" fill="#F0F0F0"/>
<path d="M218.715 175.262H217.064V176.913H218.715V175.262Z" fill="#F0F0F0"/>
<path d="M218.715 178.029H217.064V179.679H218.715V178.029Z" fill="#F0F0F0"/>
<path d="M218.715 180.795H217.064V182.445H218.715V180.795Z" fill="#F0F0F0"/>
<path d="M218.715 183.561H217.064V185.211H218.715V183.561Z" fill="#F0F0F0"/>
<path d="M218.715 186.327H217.064V187.977H218.715V186.327Z" fill="#F0F0F0"/>
<path d="M218.715 189.094H217.064V190.744H218.715V189.094Z" fill="#F0F0F0"/>
<path d="M218.715 191.86H217.064V193.51H218.715V191.86Z" fill="#F0F0F0"/>
<path d="M218.715 194.626H217.064V196.276H218.715V194.626Z" fill="#F0F0F0"/>
<path d="M218.715 202.925H217.064V204.575H218.715V202.925Z" fill="#F0F0F0"/>
<path d="M218.715 205.691H217.064V207.342H218.715V205.691Z" fill="#F0F0F0"/>
<path d="M218.715 208.458H217.064V210.108H218.715V208.458Z" fill="#F0F0F0"/>
<path d="M194.352 133.235H192.702V134.885H194.352V133.235Z" fill="#F0F0F0"/>
<path d="M194.352 136.001H192.702V137.651H194.352V136.001Z" fill="#F0F0F0"/>
<path d="M194.352 138.767H192.702V140.417H194.352V138.767Z" fill="#F0F0F0"/>
<path d="M194.352 141.534H192.702V143.184H194.352V141.534Z" fill="#F0F0F0"/>
<path d="M194.352 144.3H192.702V145.95H194.352V144.3Z" fill="#F0F0F0"/>
<path d="M194.352 147.066H192.702V148.716H194.352V147.066Z" fill="#F0F0F0"/>
<path d="M194.352 149.832H192.702V151.482H194.352V149.832Z" fill="#F0F0F0"/>
<path d="M194.352 152.599H192.702V154.249H194.352V152.599Z" fill="#F0F0F0"/>
<path d="M194.352 155.365H192.702V157.015H194.352V155.365Z" fill="#F0F0F0"/>
<path d="M194.352 158.131H192.702V159.781H194.352V158.131Z" fill="#F0F0F0"/>
<path d="M194.352 160.897H192.702V162.547H194.352V160.897Z" fill="#F0F0F0"/>
<path d="M194.352 163.664H192.702V165.314H194.352V163.664Z" fill="#F0F0F0"/>
<path d="M194.352 166.43H192.702V168.08H194.352V166.43Z" fill="#F0F0F0"/>
<path d="M194.352 169.196H192.702V170.846H194.352V169.196Z" fill="#F0F0F0"/>
<path d="M194.352 171.962H192.702V173.612H194.352V171.962Z" fill="#F0F0F0"/>
<path d="M194.352 174.728H192.702V176.379H194.352V174.728Z" fill="#F0F0F0"/>
<path d="M194.352 177.495H192.702V179.145H194.352V177.495Z" fill="#F0F0F0"/>
<path d="M194.352 183.028H192.702V184.678H194.352V183.028Z" fill="#F0F0F0"/>
<path d="M194.352 185.794H192.702V187.444H194.352V185.794Z" fill="#F0F0F0"/>
<path d="M194.352 188.56H192.702V190.21H194.352V188.56Z" fill="#F0F0F0"/>
<path d="M194.352 191.326H192.702V192.976H194.352V191.326Z" fill="#F0F0F0"/>
<path d="M194.352 194.092H192.702V195.743H194.352V194.092Z" fill="#F0F0F0"/>
<path d="M191.732 133.235H190.082V134.885H191.732V133.235Z" fill="#F0F0F0"/>
<path d="M191.732 136.001H190.082V137.651H191.732V136.001Z" fill="#F0F0F0"/>
<path d="M191.732 138.767H190.082V140.417H191.732V138.767Z" fill="#F0F0F0"/>
<path d="M191.732 141.534H190.082V143.184H191.732V141.534Z" fill="#F0F0F0"/>
<path d="M191.732 144.3H190.082V145.95H191.732V144.3Z" fill="#F0F0F0"/>
<path d="M191.732 147.066H190.082V148.716H191.732V147.066Z" fill="#F0F0F0"/>
<path d="M191.732 149.832H190.082V151.482H191.732V149.832Z" fill="#F0F0F0"/>
<path d="M191.732 152.599H190.082V154.249H191.732V152.599Z" fill="#F0F0F0"/>
<path d="M191.732 155.365H190.082V157.015H191.732V155.365Z" fill="#F0F0F0"/>
<path d="M191.732 158.131H190.082V159.781H191.732V158.131Z" fill="#F0F0F0"/>
<path d="M191.732 160.897H190.082V162.547H191.732V160.897Z" fill="#F0F0F0"/>
<path d="M191.732 163.664H190.082V165.314H191.732V163.664Z" fill="#F0F0F0"/>
<path d="M191.732 166.43H190.082V168.08H191.732V166.43Z" fill="#F0F0F0"/>
<path d="M191.732 169.196H190.082V170.846H191.732V169.196Z" fill="#F0F0F0"/>
<path d="M191.732 171.962H190.082V173.612H191.732V171.962Z" fill="#F0F0F0"/>
<path d="M191.732 174.728H190.082V176.379H191.732V174.728Z" fill="#F0F0F0"/>
<path d="M191.732 191.326H190.082V192.976H191.732V191.326Z" fill="#F0F0F0"/>
<path d="M191.732 194.092H190.082V195.743H191.732V194.092Z" fill="#F0F0F0"/>
<path d="M189.111 133.235H187.461V134.885H189.111V133.235Z" fill="#F0F0F0"/>
<path d="M189.111 136.001H187.461V137.651H189.111V136.001Z" fill="#F0F0F0"/>
<path d="M189.111 138.767H187.461V140.417H189.111V138.767Z" fill="#F0F0F0"/>
<path d="M189.111 141.534H187.461V143.184H189.111V141.534Z" fill="#F0F0F0"/>
<path d="M189.111 144.3H187.461V145.95H189.111V144.3Z" fill="#F0F0F0"/>
<path d="M189.111 147.066H187.461V148.716H189.111V147.066Z" fill="#F0F0F0"/>
<path d="M189.111 149.832H187.461V151.482H189.111V149.832Z" fill="#F0F0F0"/>
<path d="M189.111 152.599H187.461V154.249H189.111V152.599Z" fill="#F0F0F0"/>
<path d="M189.111 155.365H187.461V157.015H189.111V155.365Z" fill="#F0F0F0"/>
<path d="M189.111 158.131H187.461V159.781H189.111V158.131Z" fill="#F0F0F0"/>
<path d="M189.111 160.897H187.461V162.547H189.111V160.897Z" fill="#F0F0F0"/>
<path d="M189.111 163.664H187.461V165.314H189.111V163.664Z" fill="#F0F0F0"/>
<path d="M189.111 166.43H187.461V168.08H189.111V166.43Z" fill="#F0F0F0"/>
<path d="M189.111 169.196H187.461V170.846H189.111V169.196Z" fill="#F0F0F0"/>
<path d="M189.111 171.962H187.461V173.612H189.111V171.962Z" fill="#F0F0F0"/>
<path d="M189.111 174.728H187.461V176.379H189.111V174.728Z" fill="#F0F0F0"/>
<path d="M189.111 180.261H187.461V181.912H189.111V180.261Z" fill="#F0F0F0"/>
<path d="M189.111 183.028H187.461V184.678H189.111V183.028Z" fill="#F0F0F0"/>
<path d="M189.111 185.794H187.461V187.444H189.111V185.794Z" fill="#F0F0F0"/>
<path d="M189.111 188.56H187.461V190.21H189.111V188.56Z" fill="#F0F0F0"/>
<path d="M189.111 194.092H187.461V195.743H189.111V194.092Z" fill="#F0F0F0"/>
<path d="M203.865 168.08H202.214V169.73H203.865V168.08Z" fill="#F0F0F0"/>
<path d="M203.865 170.846H202.214V172.496H203.865V170.846Z" fill="#F0F0F0"/>
<path d="M203.865 173.612H202.214V175.262H203.865V173.612Z" fill="#F0F0F0"/>
<path d="M203.865 176.379H202.214V178.029H203.865V176.379Z" fill="#F0F0F0"/>
<path d="M203.865 179.145H202.214V180.795H203.865V179.145Z" fill="#F0F0F0"/>
<path d="M203.865 181.911H202.214V183.561H203.865V181.911Z" fill="#F0F0F0"/>
<path d="M203.865 184.677H202.214V186.327H203.865V184.677Z" fill="#F0F0F0"/>
<path d="M203.865 190.21H202.214V191.86H203.865V190.21Z" fill="#F0F0F0"/>
<path d="M203.865 192.976H202.214V194.626H203.865V192.976Z" fill="#F0F0F0"/>
<path d="M203.865 195.743H202.214V197.393H203.865V195.743Z" fill="#F0F0F0"/>
<path d="M203.865 198.509H202.214V200.159H203.865V198.509Z" fill="#F0F0F0"/>
<path d="M203.865 201.275H202.214V202.925H203.865V201.275Z" fill="#F0F0F0"/>
<path d="M203.865 204.041H202.214V205.691H203.865V204.041Z" fill="#F0F0F0"/>
<path d="M203.865 206.807H202.214V208.458H203.865V206.807Z" fill="#F0F0F0"/>
<path d="M203.865 209.574H202.214V211.224H203.865V209.574Z" fill="#F0F0F0"/>
<path d="M201.244 168.08H199.594V169.73H201.244V168.08Z" fill="#F0F0F0"/>
<path d="M201.244 170.846H199.594V172.496H201.244V170.846Z" fill="#F0F0F0"/>
<path d="M201.244 173.612H199.594V175.262H201.244V173.612Z" fill="#F0F0F0"/>
<path d="M201.244 176.379H199.594V178.029H201.244V176.379Z" fill="#F0F0F0"/>
<path d="M201.244 179.145H199.594V180.795H201.244V179.145Z" fill="#F0F0F0"/>
<path d="M201.244 181.911H199.594V183.561H201.244V181.911Z" fill="#F0F0F0"/>
<path d="M201.244 190.21H199.594V191.86H201.244V190.21Z" fill="#F0F0F0"/>
<path d="M201.244 192.976H199.594V194.626H201.244V192.976Z" fill="#F0F0F0"/>
<path d="M201.244 195.743H199.594V197.393H201.244V195.743Z" fill="#F0F0F0"/>
<path d="M201.244 198.509H199.594V200.159H201.244V198.509Z" fill="#F0F0F0"/>
<path d="M201.244 201.275H199.594V202.925H201.244V201.275Z" fill="#F0F0F0"/>
<path d="M201.244 204.041H199.594V205.691H201.244V204.041Z" fill="#F0F0F0"/>
<path d="M201.244 206.807H199.594V208.458H201.244V206.807Z" fill="#F0F0F0"/>
<path d="M201.244 209.574H199.594V211.224H201.244V209.574Z" fill="#F0F0F0"/>
<path d="M198.623 168.08H196.973V169.73H198.623V168.08Z" fill="#F0F0F0"/>
<path d="M198.623 170.846H196.973V172.496H198.623V170.846Z" fill="#F0F0F0"/>
<path d="M198.623 173.612H196.973V175.262H198.623V173.612Z" fill="#F0F0F0"/>
<path d="M198.623 176.379H196.973V178.029H198.623V176.379Z" fill="#F0F0F0"/>
<path d="M198.623 179.145H196.973V180.795H198.623V179.145Z" fill="#F0F0F0"/>
<path d="M198.623 181.911H196.973V183.561H198.623V181.911Z" fill="#F0F0F0"/>
<path d="M198.623 187.444H196.973V189.094H198.623V187.444Z" fill="#F0F0F0"/>
<path d="M198.623 190.21H196.973V191.86H198.623V190.21Z" fill="#F0F0F0"/>
<path d="M198.623 192.976H196.973V194.626H198.623V192.976Z" fill="#F0F0F0"/>
<path d="M198.623 195.743H196.973V197.393H198.623V195.743Z" fill="#F0F0F0"/>
<path d="M198.623 198.509H196.973V200.159H198.623V198.509Z" fill="#F0F0F0"/>
<path d="M198.623 201.275H196.973V202.925H198.623V201.275Z" fill="#F0F0F0"/>
<path d="M198.623 204.041H196.973V205.691H198.623V204.041Z" fill="#F0F0F0"/>
<path d="M198.623 206.807H196.973V208.458H198.623V206.807Z" fill="#F0F0F0"/>
<path d="M198.623 209.574H196.973V211.224H198.623V209.574Z" fill="#F0F0F0"/>
<path d="M143.395 152.599H141.745V154.249H143.395V152.599Z" fill="#F0F0F0"/>
<path d="M143.395 155.365H141.745V157.015H143.395V155.365Z" fill="#F0F0F0"/>
<path d="M143.395 158.131H141.745V159.781H143.395V158.131Z" fill="#F0F0F0"/>
<path d="M143.395 160.897H141.745V162.547H143.395V160.897Z" fill="#F0F0F0"/>
<path d="M143.395 163.664H141.745V165.314H143.395V163.664Z" fill="#F0F0F0"/>
<path d="M143.395 166.43H141.745V168.08H143.395V166.43Z" fill="#F0F0F0"/>
<path d="M143.395 169.196H141.745V170.846H143.395V169.196Z" fill="#F0F0F0"/>
<path d="M143.395 171.962H141.745V173.612H143.395V171.962Z" fill="#F0F0F0"/>
<path d="M143.395 174.728H141.745V176.379H143.395V174.728Z" fill="#F0F0F0"/>
<path d="M143.395 177.495H141.745V179.145H143.395V177.495Z" fill="#F0F0F0"/>
<path d="M143.395 180.261H141.745V181.912H143.395V180.261Z" fill="#F0F0F0"/>
<path d="M143.395 183.028H141.745V184.678H143.395V183.028Z" fill="#F0F0F0"/>
<path d="M143.395 185.794H141.745V187.444H143.395V185.794Z" fill="#F0F0F0"/>
<path d="M143.395 191.326H141.745V192.976H143.395V191.326Z" fill="#F0F0F0"/>
<path d="M143.395 194.092H141.745V195.743H143.395V194.092Z" fill="#F0F0F0"/>
<path d="M143.395 196.859H141.745V198.509H143.395V196.859Z" fill="#F0F0F0"/>
<path d="M143.395 199.625H141.745V201.275H143.395V199.625Z" fill="#F0F0F0"/>
<path d="M143.395 205.157H141.745V206.807H143.395V205.157Z" fill="#F0F0F0"/>
<path d="M143.395 207.923H141.745V209.574H143.395V207.923Z" fill="#F0F0F0"/>
<path d="M143.395 210.69H141.745V212.34H143.395V210.69Z" fill="#F0F0F0"/>
<path d="M140.774 152.599H139.124V154.249H140.774V152.599Z" fill="#F0F0F0"/>
<path d="M140.774 155.365H139.124V157.015H140.774V155.365Z" fill="#F0F0F0"/>
<path d="M140.774 158.131H139.124V159.781H140.774V158.131Z" fill="#F0F0F0"/>
<path d="M140.774 160.897H139.124V162.547H140.774V160.897Z" fill="#F0F0F0"/>
<path d="M140.774 163.664H139.124V165.314H140.774V163.664Z" fill="#F0F0F0"/>
<path d="M140.774 166.43H139.124V168.08H140.774V166.43Z" fill="#F0F0F0"/>
<path d="M140.774 169.196H139.124V170.846H140.774V169.196Z" fill="#F0F0F0"/>
<path d="M140.774 171.962H139.124V173.612H140.774V171.962Z" fill="#F0F0F0"/>
<path d="M140.774 174.728H139.124V176.379H140.774V174.728Z" fill="#F0F0F0"/>
<path d="M140.774 177.495H139.124V179.145H140.774V177.495Z" fill="#F0F0F0"/>
<path d="M140.774 180.261H139.124V181.912H140.774V180.261Z" fill="#F0F0F0"/>
<path d="M140.774 183.028H139.124V184.678H140.774V183.028Z" fill="#F0F0F0"/>
<path d="M140.774 185.794H139.124V187.444H140.774V185.794Z" fill="#F0F0F0"/>
<path d="M140.774 194.092H139.124V195.743H140.774V194.092Z" fill="#F0F0F0"/>
<path d="M140.774 196.859H139.124V198.509H140.774V196.859Z" fill="#F0F0F0"/>
<path d="M140.774 202.391H139.124V204.041H140.774V202.391Z" fill="#F0F0F0"/>
<path d="M140.774 205.157H139.124V206.807H140.774V205.157Z" fill="#F0F0F0"/>
<path d="M140.774 207.923H139.124V209.574H140.774V207.923Z" fill="#F0F0F0"/>
<path d="M140.774 210.69H139.124V212.34H140.774V210.69Z" fill="#F0F0F0"/>
<path d="M138.154 152.599H136.503V154.249H138.154V152.599Z" fill="#F0F0F0"/>
<path d="M138.154 155.365H136.503V157.015H138.154V155.365Z" fill="#F0F0F0"/>
<path d="M138.154 158.131H136.503V159.781H138.154V158.131Z" fill="#F0F0F0"/>
<path d="M138.154 160.897H136.503V162.547H138.154V160.897Z" fill="#F0F0F0"/>
<path d="M138.154 163.664H136.503V165.314H138.154V163.664Z" fill="#F0F0F0"/>
<path d="M138.154 166.43H136.503V168.08H138.154V166.43Z" fill="#F0F0F0"/>
<path d="M138.154 169.196H136.503V170.846H138.154V169.196Z" fill="#F0F0F0"/>
<path d="M138.154 171.962H136.503V173.612H138.154V171.962Z" fill="#F0F0F0"/>
<path d="M138.154 174.728H136.503V176.379H138.154V174.728Z" fill="#F0F0F0"/>
<path d="M138.154 177.495H136.503V179.145H138.154V177.495Z" fill="#F0F0F0"/>
<path d="M138.154 180.261H136.503V181.912H138.154V180.261Z" fill="#F0F0F0"/>
<path d="M138.154 183.028H136.503V184.678H138.154V183.028Z" fill="#F0F0F0"/>
<path d="M138.154 185.794H136.503V187.444H138.154V185.794Z" fill="#F0F0F0"/>
<path d="M138.154 188.56H136.503V190.21H138.154V188.56Z" fill="#F0F0F0"/>
<path d="M138.154 194.092H136.503V195.743H138.154V194.092Z" fill="#F0F0F0"/>
<path d="M138.154 199.625H136.503V201.275H138.154V199.625Z" fill="#F0F0F0"/>
<path d="M138.154 202.391H136.503V204.041H138.154V202.391Z" fill="#F0F0F0"/>
<path d="M138.154 205.157H136.503V206.807H138.154V205.157Z" fill="#F0F0F0"/>
<path d="M138.154 207.923H136.503V209.574H138.154V207.923Z" fill="#F0F0F0"/>
<path d="M138.154 210.69H136.503V212.34H138.154V210.69Z" fill="#F0F0F0"/>
<path d="M154.072 168.371H152.421V170.021H154.072V168.371Z" fill="#F0F0F0"/>
<path d="M154.072 171.137H152.421V172.787H154.072V171.137Z" fill="#F0F0F0"/>
<path d="M154.072 173.904H152.421V175.554H154.072V173.904Z" fill="#F0F0F0"/>
<path d="M154.072 176.67H152.421V178.32H154.072V176.67Z" fill="#F0F0F0"/>
<path d="M154.072 179.436H152.421V181.086H154.072V179.436Z" fill="#F0F0F0"/>
<path d="M154.072 182.202H152.421V183.852H154.072V182.202Z" fill="#F0F0F0"/>
<path d="M154.072 190.501H152.421V192.151H154.072V190.501Z" fill="#F0F0F0"/>
<path d="M154.072 193.268H152.421V194.918H154.072V193.268Z" fill="#F0F0F0"/>
<path d="M154.072 196.034H152.421V197.684H154.072V196.034Z" fill="#F0F0F0"/>
<path d="M154.072 198.8H152.421V200.45H154.072V198.8Z" fill="#F0F0F0"/>
<path d="M154.072 201.566H152.421V203.216H154.072V201.566Z" fill="#F0F0F0"/>
<path d="M154.072 204.333H152.421V205.983H154.072V204.333Z" fill="#F0F0F0"/>
<path d="M154.072 207.099H152.421V208.749H154.072V207.099Z" fill="#F0F0F0"/>
<path d="M151.451 168.371H149.801V170.021H151.451V168.371Z" fill="#F0F0F0"/>
<path d="M151.451 171.137H149.801V172.787H151.451V171.137Z" fill="#F0F0F0"/>
<path d="M151.451 173.904H149.801V175.554H151.451V173.904Z" fill="#F0F0F0"/>
<path d="M151.451 176.67H149.801V178.32H151.451V176.67Z" fill="#F0F0F0"/>
<path d="M151.451 179.436H149.801V181.086H151.451V179.436Z" fill="#F0F0F0"/>
<path d="M151.451 182.202H149.801V183.852H151.451V182.202Z" fill="#F0F0F0"/>
<path d="M151.451 190.501H149.801V192.151H151.451V190.501Z" fill="#F0F0F0"/>
<path d="M151.451 193.268H149.801V194.918H151.451V193.268Z" fill="#F0F0F0"/>
<path d="M151.451 196.034H149.801V197.684H151.451V196.034Z" fill="#F0F0F0"/>
<path d="M151.451 198.8H149.801V200.45H151.451V198.8Z" fill="#F0F0F0"/>
<path d="M151.451 201.566H149.801V203.216H151.451V201.566Z" fill="#F0F0F0"/>
<path d="M151.451 204.333H149.801V205.983H151.451V204.333Z" fill="#F0F0F0"/>
<path d="M151.451 209.865H149.801V211.515H151.451V209.865Z" fill="#F0F0F0"/>
<path d="M64.3872 156.19H62.7371V157.84H64.3872V156.19Z" fill="#F0F0F0"/>
<path d="M64.3872 158.956H62.7371V160.606H64.3872V158.956Z" fill="#F0F0F0"/>
<path d="M64.3872 161.723H62.7371V163.373H64.3872V161.723Z" fill="#F0F0F0"/>
<path d="M64.3872 164.489H62.7371V166.139H64.3872V164.489Z" fill="#F0F0F0"/>
<path d="M64.3872 167.255H62.7371V168.905H64.3872V167.255Z" fill="#F0F0F0"/>
<path d="M64.3872 170.021H62.7371V171.672H64.3872V170.021Z" fill="#F0F0F0"/>
<path d="M64.3872 172.787H62.7371V174.438H64.3872V172.787Z" fill="#F0F0F0"/>
<path d="M64.3872 175.554H62.7371V177.204H64.3872V175.554Z" fill="#F0F0F0"/>
<path d="M64.3872 178.32H62.7371V179.97H64.3872V178.32Z" fill="#F0F0F0"/>
<path d="M64.3872 181.086H62.7371V182.736H64.3872V181.086Z" fill="#F0F0F0"/>
<path d="M64.3872 183.852H62.7371V185.503H64.3872V183.852Z" fill="#F0F0F0"/>
<path d="M64.3872 189.385H62.7371V191.035H64.3872V189.385Z" fill="#F0F0F0"/>
<path d="M64.3872 192.151H62.7371V193.801H64.3872V192.151Z" fill="#F0F0F0"/>
<path d="M64.3872 194.917H62.7371V196.567H64.3872V194.917Z" fill="#F0F0F0"/>
<path d="M64.3872 197.683H62.7371V199.334H64.3872V197.683Z" fill="#F0F0F0"/>
<path d="M64.3872 200.45H62.7371V202.1H64.3872V200.45Z" fill="#F0F0F0"/>
<path d="M64.3872 203.216H62.7371V204.867H64.3872V203.216Z" fill="#F0F0F0"/>
<path d="M64.3872 205.983H62.7371V207.633H64.3872V205.983Z" fill="#F0F0F0"/>
<path d="M64.3872 208.749H62.7371V210.399H64.3872V208.749Z" fill="#F0F0F0"/>
<path d="M61.7664 156.19H60.1162V157.84H61.7664V156.19Z" fill="#F0F0F0"/>
<path d="M61.7664 158.956H60.1162V160.606H61.7664V158.956Z" fill="#F0F0F0"/>
<path d="M61.7664 161.723H60.1162V163.373H61.7664V161.723Z" fill="#F0F0F0"/>
<path d="M61.7664 164.489H60.1162V166.139H61.7664V164.489Z" fill="#F0F0F0"/>
<path d="M61.7664 167.255H60.1162V168.905H61.7664V167.255Z" fill="#F0F0F0"/>
<path d="M61.7664 170.021H60.1162V171.672H61.7664V170.021Z" fill="#F0F0F0"/>
<path d="M61.7664 172.787H60.1162V174.438H61.7664V172.787Z" fill="#F0F0F0"/>
<path d="M61.7664 175.554H60.1162V177.204H61.7664V175.554Z" fill="#F0F0F0"/>
<path d="M61.7664 178.32H60.1162V179.97H61.7664V178.32Z" fill="#F0F0F0"/>
<path d="M61.7664 181.086H60.1162V182.736H61.7664V181.086Z" fill="#F0F0F0"/>
<path d="M61.7664 183.852H60.1162V185.503H61.7664V183.852Z" fill="#F0F0F0"/>
<path d="M61.7664 186.619H60.1162V188.269H61.7664V186.619Z" fill="#F0F0F0"/>
<path d="M61.7664 189.385H60.1162V191.035H61.7664V189.385Z" fill="#F0F0F0"/>
<path d="M61.7664 192.151H60.1162V193.801H61.7664V192.151Z" fill="#F0F0F0"/>
<path d="M61.7664 194.917H60.1162V196.567H61.7664V194.917Z" fill="#F0F0F0"/>
<path d="M61.7664 197.683H60.1162V199.334H61.7664V197.683Z" fill="#F0F0F0"/>
<path d="M61.7664 200.45H60.1162V202.1H61.7664V200.45Z" fill="#F0F0F0"/>
<path d="M61.7664 203.216H60.1162V204.867H61.7664V203.216Z" fill="#F0F0F0"/>
<path d="M61.7664 205.983H60.1162V207.633H61.7664V205.983Z" fill="#F0F0F0"/>
<path d="M61.7664 208.749H60.1162V210.399H61.7664V208.749Z" fill="#F0F0F0"/>
<path d="M77.2959 166.964H75.6458V168.614H77.2959V166.964Z" fill="#F0F0F0"/>
<path d="M77.2959 169.73H75.6458V171.38H77.2959V169.73Z" fill="#F0F0F0"/>
<path d="M77.2959 172.496H75.6458V174.146H77.2959V172.496Z" fill="#F0F0F0"/>
<path d="M77.2959 175.262H75.6458V176.913H77.2959V175.262Z" fill="#F0F0F0"/>
<path d="M77.2959 178.029H75.6458V179.679H77.2959V178.029Z" fill="#F0F0F0"/>
<path d="M77.2959 180.795H75.6458V182.445H77.2959V180.795Z" fill="#F0F0F0"/>
<path d="M77.2959 183.561H75.6458V185.211H77.2959V183.561Z" fill="#F0F0F0"/>
<path d="M77.2959 186.327H75.6458V187.977H77.2959V186.327Z" fill="#F0F0F0"/>
<path d="M77.2959 189.094H75.6458V190.744H77.2959V189.094Z" fill="#F0F0F0"/>
<path d="M77.2959 191.86H75.6458V193.51H77.2959V191.86Z" fill="#F0F0F0"/>
<path d="M74.6755 166.964H73.0254V168.614H74.6755V166.964Z" fill="#F0F0F0"/>
<path d="M74.6755 169.73H73.0254V171.38H74.6755V169.73Z" fill="#F0F0F0"/>
<path d="M74.6755 172.496H73.0254V174.146H74.6755V172.496Z" fill="#F0F0F0"/>
<path d="M74.6755 175.262H73.0254V176.913H74.6755V175.262Z" fill="#F0F0F0"/>
<path d="M74.6755 178.029H73.0254V179.679H74.6755V178.029Z" fill="#F0F0F0"/>
<path d="M74.6755 180.795H73.0254V182.445H74.6755V180.795Z" fill="#F0F0F0"/>
<path d="M74.6755 183.561H73.0254V185.211H74.6755V183.561Z" fill="#F0F0F0"/>
<path d="M74.6755 186.327H73.0254V187.977H74.6755V186.327Z" fill="#F0F0F0"/>
<path d="M74.6755 189.094H73.0254V190.744H74.6755V189.094Z" fill="#F0F0F0"/>
<path d="M142.5 243.71C203.537 243.71 253.017 240.82 253.017 237.256C253.017 233.691 203.537 230.802 142.5 230.802C81.4632 230.802 31.9832 233.691 31.9832 237.256C31.9832 240.82 81.4632 243.71 142.5 243.71Z" fill="#F5F5F5"/>
<path d="M139.918 134.012L140.878 135.199L49.8306 207.722L53.7088 212.523L54.2407 213.182L145.288 140.66L146.247 141.847L147.952 133.996L139.918 134.012Z" fill="#C4D326"/>
<path opacity="0.7" d="M139.918 134.012L140.878 135.199L49.8306 207.722L53.7088 212.523L54.2407 213.182L145.288 140.66L146.247 141.847L147.952 133.996L139.918 134.012Z" fill="white"/>
<path d="M36.4304 212.794C36.4304 211.138 37.7728 209.796 39.428 209.796C39.7273 209.796 40.0163 209.841 40.2888 209.923C40.2449 209.623 40.2215 209.315 40.2215 209.003C40.2215 205.498 43.0635 202.656 46.569 202.656C46.9686 202.656 47.359 202.694 47.7381 202.765C48.7139 201.168 50.4672 200.099 52.4759 200.099C55.5152 200.099 57.981 202.541 58.026 205.569C58.0568 205.569 58.087 205.565 58.1183 205.565C60.9427 205.565 63.2318 207.854 63.2318 210.678C63.2318 213.502 60.9427 215.792 58.1183 215.792H39.3397L39.3437 215.787C37.7272 215.742 36.4304 214.421 36.4304 212.794Z" fill="#C4D326"/>
<path opacity="0.8" d="M36.4304 212.794C36.4304 211.138 37.7728 209.796 39.428 209.796C39.7273 209.796 40.0163 209.841 40.2888 209.923C40.2449 209.623 40.2215 209.315 40.2215 209.003C40.2215 205.498 43.0635 202.656 46.569 202.656C46.9686 202.656 47.359 202.694 47.7381 202.765C48.7139 201.168 50.4672 200.099 52.4759 200.099C55.5152 200.099 57.981 202.541 58.026 205.569C58.0568 205.569 58.087 205.565 58.1183 205.565C60.9427 205.565 63.2318 207.854 63.2318 210.678C63.2318 213.502 60.9427 215.792 58.1183 215.792H39.3397L39.3437 215.787C37.7272 215.742 36.4304 214.421 36.4304 212.794Z" fill="white"/>
<path d="M227.288 179.955L229.562 182.77L187.241 216.956L196.436 228.339L197.698 229.902L240.018 195.716L242.293 198.531L246.336 179.917L227.288 179.955Z" fill="#C4D326"/>
<path opacity="0.5" d="M227.288 179.955L229.562 182.77L187.241 216.956L196.436 228.339L197.698 229.902L240.018 195.716L242.293 198.531L246.336 179.917L227.288 179.955Z" fill="white"/>
<path d="M204.408 215.726C202.7 213.001 199.679 211.183 196.226 211.183C192.716 211.183 189.652 213.061 187.961 215.862C187.517 215.738 187.051 215.667 186.567 215.667C183.71 215.667 181.393 217.983 181.393 220.841C181.393 220.844 181.393 220.846 181.393 220.848H178.665C177.244 220.848 176.082 222.011 176.082 223.432C176.082 224.853 177.244 226.016 178.665 226.016H188.079C189.793 228.709 192.797 230.5 196.226 230.5C198.929 230.5 201.37 229.386 203.123 227.596C203.286 227.61 203.45 227.622 203.617 227.622C206.917 227.622 209.594 224.945 209.594 221.645C209.594 218.612 207.334 216.114 204.408 215.726Z" fill="#C4D326"/>
<path opacity="0.8" d="M204.408 215.726C202.7 213.001 199.679 211.183 196.226 211.183C192.716 211.183 189.652 213.061 187.961 215.862C187.517 215.738 187.051 215.667 186.567 215.667C183.71 215.667 181.393 217.983 181.393 220.841C181.393 220.844 181.393 220.846 181.393 220.848H178.665C177.244 220.848 176.082 222.011 176.082 223.432C176.082 224.853 177.244 226.016 178.665 226.016H188.079C189.793 228.709 192.797 230.5 196.226 230.5C198.929 230.5 201.37 229.386 203.123 227.596C203.286 227.61 203.45 227.622 203.617 227.622C206.917 227.622 209.594 224.945 209.594 221.645C209.594 218.612 207.334 216.114 204.408 215.726Z" fill="white"/>
<path d="M140.871 100.065L140.049 99.1989C139.827 98.9657 139.503 98.862 139.188 98.9224L137.958 99.1584C137.557 99.2354 137.25 99.5631 137.201 99.9689L136.571 105.121L138.478 105.852C140.8 104.842 140.68 101.775 140.68 101.775L141.014 101.165C141.21 100.806 141.152 100.362 140.871 100.065Z" fill="#FFB573"/>
<path d="M117.861 115.504C117.861 115.504 119.687 115.615 120.758 115.589C121.838 115.574 122.913 115.554 123.969 115.494C125.021 115.427 126.066 115.353 127.026 115.22C127.501 115.153 127.963 115.068 128.326 114.968C128.497 114.919 128.662 114.868 128.737 114.837C128.86 114.78 128.724 114.88 128.793 114.841C128.972 114.689 129.318 114.277 129.62 113.895C129.933 113.498 130.247 113.07 130.559 112.635C131.184 111.763 131.805 110.857 132.424 109.946L136.147 104.421L139.057 105.97C138.629 107.035 138.165 108.06 137.701 109.098C137.22 110.125 136.729 111.148 136.224 112.172C135.71 113.192 135.177 114.205 134.597 115.22C134.303 115.727 134.002 116.235 133.67 116.754C133.325 117.283 133.007 117.778 132.407 118.432C132.084 118.792 131.492 119.228 131.11 119.416C130.689 119.646 130.328 119.789 129.97 119.924C129.27 120.177 128.636 120.336 128.012 120.476C126.769 120.753 125.585 120.918 124.405 121.03C122.044 121.265 119.778 121.352 117.41 121.299L117.861 115.504Z" fill="#C4D326"/>
<path opacity="0.7" d="M139.054 105.973C138.626 107.033 138.165 108.059 137.703 109.096C137.218 110.122 136.728 111.148 136.221 112.174C135.708 113.189 135.178 114.204 134.596 115.218C134.306 115.725 134.004 116.233 133.667 116.751C133.325 117.282 133.006 117.777 132.408 118.433C132.083 118.792 131.49 119.225 131.108 119.413C130.686 119.647 130.327 119.79 129.968 119.926C129.267 120.177 128.634 120.337 128.013 120.474C126.77 120.753 125.585 120.918 124.405 121.032C123.897 121.083 123.396 121.123 122.9 121.163C121.07 121.294 119.269 121.34 117.411 121.3L117.502 120.103L117.861 115.503C117.861 115.503 119.685 115.617 120.757 115.589C121.84 115.572 122.911 115.554 123.972 115.492C125.02 115.429 126.069 115.355 127.027 115.218C127.5 115.155 127.962 115.07 128.326 114.967C128.497 114.922 128.663 114.87 128.737 114.836C128.862 114.779 128.725 114.882 128.794 114.842C128.97 114.688 129.318 114.278 129.62 113.896C129.934 113.497 130.247 113.069 130.555 112.636C131.182 111.764 131.803 110.858 132.425 109.946L136.147 104.422L139.054 105.973Z" fill="white"/>
<path opacity="0.1" d="M122.9 121.163C121.07 121.294 119.269 121.34 117.411 121.3L117.502 120.103L117.947 119.054C117.947 119.054 120.933 119.014 122.9 121.163Z" fill="black"/>
<path d="M87.3754 217.757C87.3754 217.757 82.2152 214.207 82.5315 211.822C82.5629 211.588 82.4255 211.381 82.1776 211.344L77.8034 210.682C77.5993 210.651 77.381 210.744 77.2602 210.914L74.6758 214.536L75.8369 214.956L76.4599 214.518L76.7529 215.287C83.0542 217.566 85.8016 218.484 87.1907 218.543C87.5743 218.052 87.3754 217.757 87.3754 217.757Z" fill="black"/>
<path d="M116.436 150.706C116.436 150.706 116.174 151.39 115.712 152.576C115.216 153.858 114.487 155.728 113.609 157.951C113.022 159.433 112.372 161.075 111.671 162.802C108.451 170.805 104.29 180.705 101.536 185.704C96.2639 195.269 82.5269 213.435 82.5269 213.435L77.0378 211.428C77.0378 211.428 86.9216 192.721 91.9091 183.242C93.431 180.352 95.1809 176.1 96.9137 171.46C97.7402 169.254 98.561 166.957 99.3533 164.683C99.7124 163.657 100.066 162.631 100.408 161.622C101.314 158.954 102.163 156.384 102.91 154.092C103.001 153.807 103.093 153.522 103.184 153.249C103.486 152.308 103.771 151.419 104.027 150.598C105.099 147.224 105.766 145.001 105.789 144.915C105.794 144.915 105.794 144.915 105.794 144.915L110.691 147.583L116.436 150.706Z" fill="#263238"/>
<path opacity="0.3" d="M115.712 152.576C115.216 153.858 114.487 155.728 113.609 157.951C113.022 159.433 112.372 161.075 111.671 162.802C107.191 163.702 102.631 164.312 99.3533 164.683C99.7124 163.657 100.066 162.631 100.408 161.622C101.314 158.954 102.163 156.384 102.91 154.092C103.001 153.807 103.092 153.522 103.184 153.249C103.486 152.308 103.771 151.419 104.027 150.598C107.322 151.048 111.728 151.721 115.712 152.576Z" fill="black"/>
<path d="M98.8945 118.539C98.8945 118.544 98.8985 118.548 98.8985 118.552C99.6885 121.204 100.152 124.285 100.411 127.323C100.61 129.686 100.686 132.014 100.696 134.101C100.704 136.204 100.641 138.066 100.573 139.492C100.481 141.322 100.373 142.45 100.373 142.45L117.691 143.34C122.888 124.508 117.862 115.504 117.862 115.504C117.862 115.504 115.704 115.286 113.219 115.397C112.898 115.407 112.573 115.432 112.239 115.458C110.121 115.634 106.747 116.304 104.494 116.813C104.029 116.915 103.563 117.036 103.107 117.159C100.845 117.776 98.8945 118.539 98.8945 118.539Z" fill="#C4D326"/>
<path opacity="0.7" d="M117.69 143.342L100.374 142.453C100.374 142.453 100.482 141.324 100.573 139.489C100.596 138.953 100.619 138.343 100.641 137.682C100.676 136.616 100.699 135.407 100.699 134.102C100.693 133.469 100.681 132.814 100.664 132.141C100.664 132.033 100.659 131.925 100.659 131.816C100.63 130.751 100.579 129.645 100.505 128.522C100.471 128.123 100.442 127.724 100.408 127.325C100.385 127.011 100.357 126.692 100.328 126.379C100.243 125.581 100.151 124.783 100.037 123.996C100.009 123.779 99.9746 123.563 99.9404 123.352C99.8891 122.993 99.8321 122.645 99.7694 122.292C99.5357 120.992 99.2507 119.727 98.903 118.547C98.903 118.547 98.8973 118.541 98.8916 118.541C98.8916 118.541 100.847 117.777 103.11 117.156C103.56 117.036 104.027 116.917 104.489 116.814C106.746 116.307 110.121 115.634 112.235 115.457C112.572 115.435 112.897 115.406 113.221 115.4C115.701 115.286 117.861 115.503 117.861 115.503C117.861 115.503 122.889 124.503 117.69 143.342Z" fill="white"/>
<path d="M128.401 188.408C128.401 188.408 123.453 184.568 123.907 182.205C123.951 181.973 123.826 181.759 123.581 181.707L119.253 180.795C119.05 180.752 118.827 180.833 118.697 180.995L115.909 184.462L117.044 184.949L117.691 184.548L117.94 185.332C124.1 187.971 126.79 189.045 128.174 189.183C128.582 188.714 128.401 188.408 128.401 188.408Z" fill="black"/>
<path d="M108.655 158.054C108.915 158.068 109.059 158.068 109.059 158.068L129.821 161.087L118.003 180.693L123.92 182.946C123.92 182.946 145.32 159.872 140.539 154.611C136.608 150.285 117.342 147.652 117.342 147.652L117.974 143.136L100.154 139.628C92.5363 156.303 106.105 157.898 108.655 158.054Z" fill="#263238"/>
<path d="M99.9428 141.401L99.5649 141.328L99.9104 140.127L100.247 140.192L99.9428 141.401Z" fill="#263238"/>
<path d="M113.96 144.113L106.353 142.641L106.65 141.433L114.226 142.902L113.96 144.113Z" fill="#263238"/>
<path d="M114.812 143.016L118.029 143.64L117.815 144.859L114.558 144.229L114.812 143.016Z" fill="#263238"/>
<path d="M100.834 140.306L106.065 141.32L105.756 142.526L100.542 141.517L100.834 140.306Z" fill="#263238"/>
<g opacity="0.2">
<path d="M99.9428 141.401L99.5649 141.328L99.9104 140.127L100.247 140.192L99.9428 141.401Z" fill="white"/>
<path d="M113.96 144.113L106.353 142.641L106.65 141.433L114.226 142.902L113.96 144.113Z" fill="white"/>
<path d="M114.812 143.016L118.029 143.64L117.815 144.859L114.558 144.229L114.812 143.016Z" fill="white"/>
<path d="M100.834 140.306L106.065 141.32L105.756 142.526L100.542 141.517L100.834 140.306Z" fill="white"/>
</g>
<path d="M111.848 142.68L111.677 143.416C111.65 143.532 111.536 143.608 111.418 143.587L109.513 143.249C109.384 143.226 109.301 143.098 109.333 142.971L109.524 142.208C109.553 142.092 109.668 142.018 109.786 142.041L111.671 142.407C111.797 142.432 111.878 142.555 111.848 142.68Z" stroke="white" stroke-width="0.5891" stroke-miterlimit="10"/>
<path d="M110.271 142.74L109.689 142.638" stroke="white" stroke-width="0.5891" stroke-miterlimit="10" stroke-linecap="round" stroke-linejoin="round"/>
<path d="M106.287 108.956L110.811 112.705C110.369 114.54 111.136 116.233 112.028 116.546C112.028 116.546 112.688 118.12 111.417 118.385C108.839 118.923 105.897 116.425 105.897 116.425C107.261 114.959 106.768 111.298 106.287 108.956Z" fill="#EBB376"/>
<path opacity="0.2" d="M108.131 110.485L110.809 112.703C110.703 113.137 110.621 113.577 110.593 114.004C109.589 113.878 108.202 112.803 108.088 111.756C108.03 111.233 108.048 110.731 108.131 110.485Z" fill="black"/>
<path d="M110.281 101.547C111.375 102.229 112.858 104.286 111.019 104.781C109.179 105.275 108.399 100.374 110.281 101.547Z" fill="#263238"/>
<path d="M104.631 108.577C106.545 111.101 107.537 112.678 109.76 113.129C113.104 113.809 115.536 110.403 114.411 107.35C113.399 104.601 110.439 100.935 107.177 101.63C103.962 102.317 102.717 106.053 104.631 108.577Z" fill="#FFB573"/>
<path d="M105.196 105.829L102.897 103.147C102.897 103.147 99.8601 105.381 101.239 106.734C100.329 108.873 103.942 111.859 107.1 111.245C107.466 109.316 104.653 106.021 104.653 106.021C104.827 105.968 105.009 105.902 105.196 105.829Z" fill="#263238"/>
<path d="M105.076 111.447C105.737 111.984 106.584 112.162 107.279 112.074C108.324 111.941 108.445 110.9 107.819 110.121C107.255 109.419 106.032 108.643 105.145 109.168C104.271 109.687 104.319 110.833 105.076 111.447Z" fill="#FFB573"/>
<path d="M109.095 106.611C109.237 106.825 109.466 106.922 109.605 106.828C109.745 106.733 109.742 106.482 109.6 106.268C109.457 106.054 109.228 105.957 109.089 106.051C108.949 106.146 108.952 106.396 109.095 106.611Z" fill="#263238"/>
<path d="M111.506 104.971C111.649 105.186 111.878 105.282 112.017 105.188C112.157 105.093 112.154 104.842 112.011 104.628C111.869 104.414 111.64 104.317 111.501 104.412C111.361 104.506 111.363 104.757 111.506 104.971Z" fill="#263238"/>
<path d="M110.81 105.599C110.81 105.599 112.1 106.452 113.024 106.664C112.875 107.252 112.125 107.526 112.125 107.526L110.81 105.599Z" fill="#ED893E"/>
<path d="M110.14 108.979C110.046 109.03 109.952 109.089 109.856 109.159C109.822 109.184 109.814 109.231 109.839 109.265C109.863 109.299 109.911 109.306 109.944 109.282C110.86 108.616 111.745 108.946 111.754 108.95C111.792 108.965 111.836 108.945 111.851 108.906C111.866 108.867 111.847 108.823 111.808 108.807C111.773 108.794 111.01 108.509 110.14 108.979Z" fill="#263238"/>
<path d="M107.445 105.907C107.498 105.909 107.551 105.884 107.581 105.836C107.948 105.266 108.505 105.252 108.511 105.252C108.595 105.251 108.662 105.182 108.662 105.098C108.661 105.015 108.593 104.948 108.51 104.949C108.48 104.949 107.781 104.967 107.327 105.675C107.281 105.746 107.301 105.839 107.372 105.884C107.394 105.898 107.419 105.905 107.445 105.907Z" fill="#263238"/>
<path d="M111.534 103.025C111.543 102.998 111.544 102.968 111.535 102.937C111.513 102.856 111.429 102.809 111.349 102.831C110.544 103.054 110.336 103.719 110.322 103.747C110.298 103.827 110.342 103.913 110.422 103.938C110.501 103.963 110.586 103.92 110.611 103.841C110.618 103.813 110.785 103.303 111.432 103.124C111.482 103.11 111.519 103.071 111.534 103.025Z" fill="#263238"/>
<path d="M104.653 106.02C104.653 106.02 110.671 103.492 111.04 100.605C111.409 97.7186 108.866 98.9013 108.866 98.9013C108.866 98.9013 110.043 98.8209 109.928 99.6782C109.928 99.6782 107.895 98.2914 105.958 99.4833C105.958 99.4833 106.864 99.4656 107.34 100.137C107.34 100.137 105.501 100.496 103.437 102.026C101.373 103.556 97.6667 109.033 104.653 106.02Z" fill="#263238"/>
<path opacity="0.3" d="M117.342 147.652L107.533 146.526C107.533 146.526 111.416 145.888 117.558 146.113L117.342 147.652Z" fill="black"/>
<path opacity="0.1" d="M100.505 128.522C100.471 128.123 100.442 127.724 100.408 127.325C100.385 127.011 100.357 126.692 100.328 126.379C100.243 125.581 100.151 124.783 100.037 123.996C100.009 123.78 99.9746 123.563 99.9404 123.352C100.203 123.141 100.493 122.947 100.801 122.776C100.801 122.776 101.36 125.655 100.505 128.522Z" fill="black"/>
<path d="M84.1584 142.526L82.4541 146.526L86.1448 147.438C86.1448 147.438 87.7295 144.81 86.1825 142.805L84.1584 142.526Z" fill="#EBB376"/>
<path d="M82.719 149.61L85.6328 149.631L86.1441 147.438L82.4534 146.526L82.719 149.61Z" fill="#EBB376"/>
<path d="M100.754 121.308C101.008 123.817 100.151 124.836 100.151 124.836C100.151 124.836 97.7221 126.363 96.6682 127.145C95.7721 127.82 94.8938 128.506 94.061 129.193C93.6494 129.538 93.2522 129.888 92.8879 130.234C92.5277 130.576 92.1903 130.932 91.9771 131.208C91.8819 131.318 91.7861 131.497 91.6841 131.656C91.5803 131.824 91.472 132.075 91.3598 132.278C91.1369 132.738 90.9157 133.224 90.706 133.735C90.2847 134.753 89.8863 135.814 89.5073 136.892C88.7178 139.034 87.9825 141.244 87.2255 143.416L83.8591 142.616C84.2017 140.251 84.664 137.946 85.1975 135.611C85.4791 134.45 85.7909 133.287 86.1488 132.104C86.3267 131.514 86.529 130.913 86.757 130.296C86.8932 129.972 87.0027 129.68 87.1731 129.332C87.3527 128.981 87.518 128.636 87.7653 128.272C88.2213 127.591 88.6688 127.076 89.1191 126.58C89.5694 126.09 90.0214 125.638 90.4768 125.202C91.3831 124.332 92.3134 123.539 93.2556 122.776C95.1423 121.242 97.037 119.841 99.0667 118.487C99.0667 118.487 100.524 119.038 100.754 121.308Z" fill="#C4D326"/>
<path opacity="0.7" d="M100.754 121.308C101.008 123.817 100.151 124.836 100.151 124.836C100.151 124.836 97.7221 126.363 96.6682 127.145C95.7721 127.82 94.8938 128.506 94.061 129.193C93.6494 129.538 93.2522 129.888 92.8879 130.234C92.5277 130.576 92.1903 130.932 91.9771 131.208C91.8819 131.318 91.7861 131.497 91.6841 131.656C91.5803 131.824 91.472 132.075 91.3598 132.278C91.1369 132.738 90.9157 133.224 90.706 133.735C90.2847 134.753 89.8863 135.814 89.5073 136.892C88.7178 139.034 87.9825 141.244 87.2255 143.416L83.8591 142.616C84.2017 140.251 84.664 137.946 85.1975 135.611C85.4791 134.45 85.7909 133.287 86.1488 132.104C86.3267 131.514 86.529 130.913 86.757 130.296C86.8932 129.972 87.0027 129.68 87.1731 129.332C87.3527 128.981 87.518 128.636 87.7653 128.272C88.2213 127.591 88.6688 127.076 89.1191 126.58C89.5694 126.09 90.0214 125.638 90.4768 125.202C91.3831 124.332 92.3134 123.539 93.2556 122.776C95.1423 121.242 97.037 119.841 99.0667 118.487C99.0667 118.487 100.524 119.038 100.754 121.308Z" fill="white"/>
<path d="M108.407 117.945L109.675 119.936C109.675 119.936 105.256 125.292 96.7987 127.059L96.2344 128.78L98.0327 129.251C98.0327 129.251 107.167 126.887 110.812 120.036L112.694 117.939L110.475 117.194L108.407 117.945Z" fill="#C4D326"/>
<path d="M104.312 116.746L106.371 114.944L110.475 117.194L110.949 114.734L113.115 115.98L113.736 119.163L110.712 117.854L108.007 120.267L104.312 116.746Z" fill="#C4D326"/>
<path opacity="0.6" d="M104.312 116.746L106.371 114.944L110.475 117.194L110.949 114.734L113.115 115.98L113.736 119.163L110.712 117.854L108.007 120.267L104.312 116.746Z" fill="white"/>
<path d="M160.848 81.0951C160.848 81.0951 157.015 85.8495 153.125 85.4544C149.236 85.06 147.248 86.6383 147.248 86.6383L146.868 88.5359L148.954 88.2543C148.954 88.2543 148.954 86.7506 153.013 86.9199C157.071 87.0892 160.115 83.5997 161.299 82.0179L160.848 81.0951Z" fill="#C4D326"/>
<path d="M188.381 73.1927L188.3 72.8188C188.259 72.6706 188.281 72.6512 188.141 72.2819C187.918 71.7039 187.543 71.228 187.212 70.9298C186.526 70.3165 185.961 70.0999 185.468 69.9056C184.493 69.5601 183.716 69.4513 182.947 69.3572C182.186 69.2706 181.464 69.233 180.753 69.2141C179.334 69.1731 177.967 69.2438 176.612 69.3287C173.893 69.5083 171.279 69.8292 168.591 70.2937L169.569 75.9094C172.027 75.5178 174.589 75.1592 177.069 74.9022C178.313 74.7756 179.553 74.6981 180.742 74.6599C181.335 74.6445 181.919 74.6468 182.456 74.6799C182.834 74.7021 183.208 74.7449 183.489 74.7933C183.506 74.9865 183.514 75.198 183.507 75.4226C183.471 76.3916 183.228 77.5259 182.897 78.6562C182.228 80.9265 181.178 83.2846 180.092 85.4876L182.797 87.2917C184.525 85.1063 185.947 82.836 187.125 80.2243C187.687 78.9076 188.185 77.5179 188.411 75.8871C188.519 75.0698 188.558 74.1788 188.381 73.1927Z" fill="#C4D326"/>
<path opacity="0.7" d="M188.41 75.888C188.228 77.2332 187.852 78.4188 187.413 79.5303C187.322 79.764 187.225 79.9977 187.128 80.2257C185.948 82.8363 184.523 85.1049 182.796 87.288L180.094 85.4868C181.177 83.2809 182.226 80.9268 182.898 78.6525C183.126 77.8716 183.314 77.085 183.417 76.3554C183.468 76.0305 183.497 75.717 183.508 75.4206C183.514 75.1983 183.508 74.9874 183.491 74.7936C183.212 74.7423 182.836 74.7024 182.459 74.6796C181.918 74.6454 181.337 74.6454 180.744 74.6568C180.698 74.6568 180.658 74.6625 180.613 74.6625C179.461 74.7024 178.27 74.7822 177.067 74.9019C174.662 75.1527 172.188 75.4947 169.8 75.8766C169.72 75.888 169.646 75.8994 169.572 75.9108L168.591 70.2906C171.282 69.8289 173.892 69.5097 176.611 69.3273C177.968 69.2418 179.336 69.1734 180.755 69.2133C181.468 69.2304 182.186 69.2703 182.95 69.3558C183.719 69.4527 184.494 69.561 185.469 69.903C185.959 70.0968 186.524 70.3134 187.213 70.929C187.544 71.2254 187.92 71.7042 188.142 72.2799C188.279 72.6504 188.262 72.6675 188.302 72.8157L188.382 73.1919C188.558 74.178 188.519 75.0672 188.41 75.888Z" fill="white"/>
<path opacity="0.1" d="M180.612 74.6625C179.461 74.7024 178.27 74.7822 177.067 74.9019C174.662 75.1527 172.188 75.4947 169.8 75.8766C170.672 73.7334 171.567 71.5674 171.567 71.5674C171.567 71.5674 175.557 71.9493 180.612 74.6625Z" fill="black"/>
<path opacity="0.1" d="M187.413 79.5304C187.321 79.7641 187.224 79.9978 187.128 80.2258C185.948 82.8364 184.523 85.105 182.796 87.2881L180.094 85.4869C181.177 83.281 182.226 80.9269 182.898 78.6526C183.126 77.8717 183.314 77.0851 183.417 76.3555C184.734 77.239 186.079 78.2878 187.413 79.5304Z" fill="black"/>
<path d="M150.983 74.3217C151.139 74.5189 151.161 74.7611 151.032 74.8626C150.903 74.9646 150.672 74.8871 150.517 74.6899C150.361 74.4927 150.339 74.2504 150.468 74.149C150.597 74.0475 150.828 74.1245 150.983 74.3217Z" fill="#263238"/>
<path d="M151.179 74.7469C151.179 74.7469 151.628 76.2381 151.569 77.1763C152.174 77.2265 152.649 76.6091 152.649 76.6091L151.179 74.7469Z" fill="#DE5753"/>
<path d="M150.84 72.6574C150.863 72.63 150.877 72.5941 150.875 72.5554C150.872 72.4738 150.803 72.4111 150.721 72.4146C149.906 72.4505 149.554 73.0324 149.538 73.0581C149.497 73.1282 149.52 73.2188 149.59 73.2599C149.66 73.3009 149.751 73.277 149.792 73.2086C149.804 73.1892 150.084 72.7383 150.734 72.7093C150.777 72.7075 150.815 72.6876 150.84 72.6574Z" fill="#263238"/>
<path d="M156.66 71.2722C158.543 72.6294 162.15 74.7771 164.196 73.9632C164.196 73.9632 166.035 75.4942 164.268 79.34C162.325 83.5688 161.24 80.3962 161.24 80.3962C161.75 77.8352 160.01 77.1073 158.217 76.7704L156.66 71.2722Z" fill="#E4897B"/>
<path d="M157.227 68.7118C158.99 71.2495 160.151 72.6454 159.909 74.853C159.547 78.1744 155.684 79.4255 153.198 77.4659C150.96 75.7017 148.452 71.848 150.06 69.0133C151.645 66.2209 155.463 66.1736 157.227 68.7118Z" fill="#E4897B"/>
<path d="M160.059 72.9001C159.795 74.3383 154.954 76.3059 152.758 73.2051C152.758 73.2051 150.001 73.1829 148.343 71.5213C146.685 69.8598 147.04 68.0574 148.526 67.077C149.836 66.2129 153.222 59.8471 157.165 64.39C161.446 64.2156 160.389 71.1052 160.059 72.9001Z" fill="#263238"/>
<path d="M151.881 66.3919C151.881 66.3919 149.339 66.2688 147.873 67.4339C146.408 68.599 146.821 72.1729 147.385 72.8478C147.949 73.5221 148.55 73.5221 148.55 73.5221C148.55 73.5221 147.686 73.074 147.686 72.4146C147.686 72.4146 148.061 73.2963 149.79 73.5221C149.79 73.5221 149.297 73.1282 149.375 72.63C149.375 72.63 150.311 73.8424 152.475 72.63C154.638 71.4176 151.881 66.3919 151.881 66.3919Z" fill="#263238"/>
<path d="M154.043 72.671C154.511 73.3322 154.693 74.1599 154.651 74.8302C154.588 75.838 153.745 75.9172 153.081 75.2816C152.485 74.7094 151.798 73.4953 152.188 72.6545C152.573 71.8263 153.509 71.9152 154.043 72.671Z" fill="#E4897B"/>
<path d="M159.105 81.0951C159.105 81.0951 158.631 75.3563 162.378 72.1335L166.84 72.5422C166.84 72.5422 164.269 78.8174 159.105 81.0951Z" fill="#C4D326"/>
<path opacity="0.6" d="M159.105 81.0951C159.105 81.0951 158.631 75.3563 162.378 72.1335L166.84 72.5422C166.84 72.5422 164.269 78.8174 159.105 81.0951Z" fill="white"/>
<path d="M171.97 94.0026C171.97 94.0026 165.221 87.377 157.762 82.7389C157.762 82.7389 162.732 71.0733 169.023 70.0319C169.023 70.0319 185.287 74.9436 190.006 88.2542L171.97 94.0026Z" fill="#C4D326"/>
<path d="M172.827 134.419L169.915 135.654L166.764 129.035L169.675 127.799L172.827 134.419Z" fill="#E4897B"/>
<path d="M190.006 88.2543L188.288 106.475C187.344 107.174 185.839 107.717 184.024 108.14C180.469 108.968 175.725 109.344 171.629 109.563C167.028 109.814 163.249 109.862 162.908 110.126C162.108 110.749 172.238 131.672 172.238 131.672L167.403 132.275C167.403 132.275 154.695 114.846 153.05 108.791C152.444 106.556 151.834 103.757 155.938 101.141C159.551 98.8386 173.004 97.1104 173.004 97.1104L171.969 94.0022L190.006 88.2543Z" fill="#263238"/>
<path opacity="0.2" d="M184.025 108.14C180.469 108.968 175.726 109.344 171.629 109.563C171.075 102.839 174.458 96.3876 174.458 96.3876L179.27 95.153L184.025 108.14Z" fill="black"/>
<path d="M215.227 131.736L215.743 134.856L208.566 136.36L208.052 133.239L215.227 131.736Z" fill="#E4897B"/>
<path d="M215.896 134.971C215.875 134.948 215.842 134.941 215.813 134.953C215.784 134.965 215.766 134.993 215.767 135.025C215.768 135.079 215.812 136.35 216.21 136.723C216.291 136.799 216.383 136.837 216.483 136.833C216.662 136.827 216.735 136.74 216.765 136.667C216.851 136.459 216.693 136.096 216.481 135.75C216.282 135.429 216.036 135.121 215.896 134.971ZM215.929 135.236C216.308 135.693 216.724 136.377 216.627 136.609C216.614 136.639 216.585 136.68 216.478 136.684C216.419 136.685 216.364 136.663 216.312 136.614C216.279 136.583 216.249 136.544 216.221 136.499C216.027 136.184 215.955 135.565 215.929 135.236Z" fill="#C4D326"/>
<path d="M215.87 134.953C215.845 134.942 215.817 134.946 215.796 134.962C215.767 134.984 215.086 135.503 215.016 136.019C214.995 136.176 215.031 136.318 215.124 136.44C215.25 136.604 215.37 136.6 215.449 136.568C215.784 136.429 215.97 135.427 215.916 135.012C215.914 135.001 215.91 134.991 215.905 134.982C215.897 134.97 215.885 134.959 215.87 134.953ZM215.164 136.04C215.21 135.701 215.586 135.337 215.776 135.173C215.781 135.627 215.592 136.346 215.392 136.429C215.375 136.436 215.326 136.457 215.244 136.349C215.234 136.337 215.226 136.325 215.218 136.312C215.168 136.231 215.151 136.142 215.164 136.04Z" fill="#C4D326"/>
<path d="M215.353 134.928L213.542 131.987C213.474 131.877 213.491 131.734 213.584 131.644L215.651 129.638C215.865 129.43 216.216 129.474 216.368 129.73C217.004 130.803 217.885 132.374 218.707 133.707C219.667 135.267 220.582 136.561 221.708 138.389C222.389 139.495 221.46 140.49 221.074 140.09C219.316 138.267 218.206 136.577 215.963 135.447C215.719 135.325 215.497 135.161 215.353 134.928Z" fill="#263238"/>
<path d="M190.005 88.2543C190.005 88.2543 195.8 103.15 186.024 108.929C186.024 108.929 185.9 126.14 188.371 128.158C191.377 130.612 213.399 131.861 213.399 131.861L213.207 137.33C213.207 137.33 189.632 139.259 182.495 136.699C174.137 133.7 172.276 94.2615 172.276 94.2615L190.005 88.2543Z" fill="#263238"/>
<path opacity="0.2" d="M183.307 97.3981L186.826 96.3334C186.826 96.3334 187.31 99.3612 187.303 100.982L185.671 102.383L184.127 101.891C184.127 101.891 183.705 98.655 183.307 97.3981Z" fill="black"/>
<path d="M173.13 94.0146L173.585 95.4624L172.284 95.866L171.825 94.4307L173.13 94.0146Z" fill="#263238"/>
<path d="M179.135 92.088L179.625 93.59L174.236 95.2606L173.76 93.8106L179.135 92.088Z" fill="#263238"/>
<path d="M185.842 89.9385L186.331 91.51L180.307 93.3761L179.829 91.8656L185.842 89.9385Z" fill="#263238"/>
<path d="M190.744 90.1397L187.034 91.29L187.03 91.2906L186.532 89.7162L190.215 88.5358L190.744 90.1397Z" fill="#263238"/>
<g opacity="0.2">
<path d="M173.13 94.0146L173.585 95.4624L172.284 95.866L171.825 94.4307L173.13 94.0146Z" fill="white"/>
<path d="M179.135 92.088L179.625 93.59L174.236 95.2606L173.76 93.8106L179.135 92.088Z" fill="white"/>
<path d="M185.842 89.9385L186.331 91.51L180.307 93.3761L179.829 91.8656L185.842 89.9385Z" fill="white"/>
<path d="M190.744 90.1397L187.034 91.29L187.03 91.2906L186.532 89.7162L190.215 88.5358L190.744 90.1397Z" fill="white"/>
</g>
<path d="M169.021 134.73C169.051 134.723 169.075 134.698 169.079 134.667C169.083 134.636 169.068 134.606 169.04 134.591C168.993 134.565 167.873 133.961 167.35 134.117C167.243 134.149 167.164 134.21 167.117 134.298C167.032 134.454 167.071 134.563 167.118 134.625C167.254 134.804 167.647 134.851 168.053 134.841C168.432 134.833 168.82 134.775 169.021 134.73ZM168.775 134.625C168.189 134.722 167.39 134.736 167.238 134.535C167.218 134.509 167.198 134.464 167.249 134.37C167.277 134.317 167.324 134.282 167.393 134.261C167.436 134.249 167.485 134.242 167.537 134.241C167.907 134.232 168.478 134.481 168.775 134.625Z" fill="#C4D326"/>
<path d="M169.05 134.717C169.071 134.701 169.083 134.674 169.079 134.648C169.075 134.612 168.969 133.762 168.559 133.442C168.434 133.344 168.294 133.304 168.141 133.323C167.936 133.349 167.879 133.455 167.867 133.539C167.817 133.898 168.59 134.564 168.975 134.726C168.985 134.73 168.996 134.733 169.006 134.732C169.022 134.731 169.037 134.726 169.05 134.717ZM168.467 133.56C168.737 133.77 168.861 134.277 168.908 134.525C168.513 134.3 167.986 133.774 168.016 133.559C168.018 133.541 168.026 133.488 168.16 133.471C168.175 133.469 168.191 133.468 168.205 133.468C168.299 133.466 168.386 133.496 168.467 133.56Z" fill="#C4D326"/>
<path d="M169.332 134.283L172.785 134.201C172.914 134.199 173.028 134.285 173.059 134.411L173.75 137.207C173.822 137.497 173.607 137.778 173.309 137.78C172.063 137.789 170.261 137.758 168.695 137.795C166.864 137.839 165.285 137.976 163.139 138.027C161.841 138.057 161.449 136.753 161.99 136.622C164.451 136.022 166.469 135.916 168.575 134.547C168.805 134.399 169.059 134.289 169.332 134.283Z" fill="#263238"/>
<path opacity="0.7" d="M190.006 88.2571L171.971 94.0027C171.971 94.0027 168.791 90.8848 164.385 87.4249C163.547 86.7694 162.669 86.1025 161.757 85.4413C160.474 84.5065 159.129 83.5888 157.761 82.7395C157.761 82.7395 162.732 71.0716 169.024 70.0342C169.024 70.0342 185.287 74.9419 190.006 88.2571Z" fill="white"/>
<path opacity="0.1" d="M164.385 87.4249C163.547 86.7694 162.669 86.1025 161.757 85.4413L162.11 84.3754C162.11 84.3754 163.626 85.6522 164.385 87.4249Z" fill="black"/>
<path d="M138.326 99.3265L137.083 99.6229C136.773 99.697 136.537 99.95 136.487 100.265L136.206 101.996C136.146 102.361 136.349 102.719 136.692 102.856L137.601 103.218C137.601 103.218 140.224 105.111 142.442 103.889L141.484 101.352L139.608 99.6548C139.261 99.3407 138.781 99.2182 138.326 99.3265Z" fill="#E4897B"/>
<path d="M160.961 83.1995C162.554 84.1559 162.694 86.1281 162.694 86.1281C162.694 86.1281 161.441 89.5259 160.715 91.2165C160.221 92.3639 159.708 93.5153 159.112 94.6605C158.496 95.8153 157.904 96.9473 156.898 98.1979L156.702 98.4344L156.468 98.6858C156.327 98.8443 156.119 99.0329 155.916 99.2079C155.83 99.2889 155.672 99.3994 155.539 99.4924C155.41 99.5813 155.229 99.701 155.177 99.7209L154.695 99.9712C154.067 100.288 153.48 100.534 152.89 100.777C151.718 101.257 150.559 101.674 149.396 102.074C147.064 102.854 144.743 103.567 142.361 104.167L141.23 101.119C143.367 100.024 145.545 98.9873 147.671 97.9186C148.736 97.3908 149.796 96.8595 150.814 96.3237C151.316 96.053 151.816 95.7759 152.247 95.5137L152.554 95.32C152.636 95.2726 152.573 95.2949 152.568 95.2983C152.555 95.3 152.528 95.3331 152.547 95.3051C152.565 95.2744 152.583 95.2647 152.635 95.19L152.704 95.1045L152.786 94.9842C153.247 94.3139 153.77 93.2885 154.221 92.283C154.673 91.2541 155.125 90.1928 155.541 89.1047C156.368 86.9375 157.163 84.6775 157.904 82.4881C157.903 82.4887 159.27 82.1849 160.961 83.1995Z" fill="#C4D326"/>
<path opacity="0.7" d="M160.961 83.1995C162.554 84.1559 162.694 86.1281 162.694 86.1281C162.694 86.1281 161.441 89.5259 160.715 91.2165C160.221 92.3639 159.708 93.5153 159.112 94.6605C158.496 95.8153 157.904 96.9473 156.898 98.1979L156.702 98.4344L156.468 98.6858C156.327 98.8443 156.119 99.0329 155.916 99.2079C155.83 99.2889 155.672 99.3994 155.539 99.4924C155.41 99.5813 155.229 99.701 155.177 99.7209L154.695 99.9712C154.067 100.288 153.48 100.534 152.89 100.777C151.718 101.257 150.559 101.674 149.396 102.074C147.064 102.854 144.743 103.567 142.361 104.167L141.23 101.119C143.367 100.024 145.545 98.9873 147.671 97.9186C148.736 97.3908 149.796 96.8595 150.814 96.3237C151.316 96.053 151.816 95.7759 152.247 95.5137L152.554 95.32C152.636 95.2726 152.573 95.2949 152.568 95.2983C152.555 95.3 152.528 95.3331 152.547 95.3051C152.565 95.2744 152.583 95.2647 152.635 95.19L152.704 95.1045L152.786 94.9842C153.247 94.3139 153.77 93.2885 154.221 92.283C154.673 91.2541 155.125 90.1928 155.541 89.1047C156.368 86.9375 157.163 84.6775 157.904 82.4881C157.903 82.4887 159.27 82.1849 160.961 83.1995Z" fill="white"/>
<path d="M56.7183 234.45H152.982L203.926 193.298L206.16 196.063H218.708L231.491 137.222L218.938 137.247L218.944 137.222L158.729 137.341L165.918 146.24L56.7183 234.45Z" fill="#C4D326"/>
<path opacity="0.2" d="M56.7183 234.45H140.434L198.972 187.165L206.16 196.063L218.944 137.222L158.729 137.341L165.918 146.24L56.7183 234.45Z" fill="white"/>
<path d="M54.7587 231.054H123.876C123.844 230.762 123.824 230.465 123.824 230.164C123.824 225.726 127.422 222.128 131.86 222.128C131.958 222.128 132.054 222.14 132.152 222.143C133.159 219.441 135.755 217.513 138.808 217.513C142.734 217.513 145.917 220.695 145.917 224.622C145.917 224.627 145.917 224.632 145.917 224.638C149.398 224.8 152.187 227.578 152.368 231.054H152.691C154.656 231.054 156.264 232.661 156.264 234.627C156.264 236.592 154.656 238.199 152.691 238.199H54.7587C52.7939 238.199 51.1865 236.592 51.1865 234.627C51.1865 232.661 52.7939 231.054 54.7587 231.054Z" fill="#C4D326"/>
<path opacity="0.7" d="M54.7587 231.054H123.876C123.844 230.762 123.824 230.465 123.824 230.164C123.824 225.726 127.422 222.128 131.86 222.128C131.958 222.128 132.054 222.14 132.152 222.143C133.159 219.441 135.755 217.513 138.808 217.513C142.734 217.513 145.917 220.695 145.917 224.622C145.917 224.627 145.917 224.632 145.917 224.638C149.398 224.8 152.187 227.578 152.368 231.054H152.691C154.656 231.054 156.264 232.661 156.264 234.627C156.264 236.592 154.656 238.199 152.691 238.199H54.7587C52.7939 238.199 51.1865 236.592 51.1865 234.627C51.1865 232.661 52.7939 231.054 54.7587 231.054Z" fill="white"/>
</svg>
