<svg width="258" height="256" viewBox="0 0 258 256" fill="none" xmlns="http://www.w3.org/2000/svg">
<path d="M258 195.788H0V195.916H258V195.788Z" fill="#EBEBEB"/>
<path d="M123.015 172.954H23.3759C21.752 172.954 20.4305 171.642 20.4305 170.031V31.0579C20.4305 29.4466 21.752 28.1354 23.3759 28.1354H123.015C124.638 28.1354 125.96 29.4466 125.96 31.0579V170.031C125.96 171.642 124.638 172.954 123.015 172.954ZM23.3759 28.2639C21.8227 28.2639 20.5595 29.5173 20.5595 31.0584V170.032C20.5595 171.573 21.8227 172.826 23.3759 172.826H123.015C124.568 172.826 125.831 171.573 125.831 170.032V31.0579C125.831 29.5173 124.568 28.2634 123.015 28.2634L23.3759 28.2639Z" fill="#EBEBEB"/>
<path d="M234.624 172.954H134.985C133.362 172.954 132.04 171.642 132.04 170.031V31.0579C132.04 29.4466 133.362 28.1354 134.985 28.1354H234.624C236.249 28.1354 237.57 29.4466 237.57 31.0579V170.031C237.57 171.642 236.248 172.954 234.624 172.954ZM134.985 28.2639C133.432 28.2639 132.169 29.5173 132.169 31.0584V170.032C132.169 171.573 133.432 172.826 134.985 172.826H234.624C236.177 172.826 237.441 171.573 237.441 170.032V31.0579C237.441 29.5173 236.177 28.2634 234.624 28.2634L134.985 28.2639Z" fill="#EBEBEB"/>
<path d="M258 195.788H0V195.916H258V195.788Z" fill="#EBEBEB"/>
<path d="M232.149 204.029H215.058V204.157H232.149V204.029Z" fill="#EBEBEB"/>
<path d="M170.909 205.418H166.424V205.546H170.909V205.418Z" fill="#EBEBEB"/>
<path d="M214.542 199.274H204.638V199.402H214.542V199.274Z" fill="#EBEBEB"/>
<path d="M49.3564 200.135H27.0688V200.263H49.3564V200.135Z" fill="#EBEBEB"/>
<path d="M116.176 202.297H67.839V202.425H116.176V202.297Z" fill="#EBEBEB"/>
<path d="M79.6533 81.2426C85.9975 81.2595 103.787 83.8211 103.787 74.3399C103.787 66.2835 95.0926 66.8764 95.0926 66.8764C95.0926 66.8764 95.3439 59.8963 87.5977 58.9681C79.6533 58.0163 78.4541 65.558 78.4541 65.558C78.4541 65.558 64.664 60.7555 66.7621 72.8069C66.7621 72.8069 59.1176 71.467 59.1176 76.8927C59.1176 82.9563 73.5072 81.2268 79.6533 81.2426Z" fill="#F0F0F0"/>
<path d="M71.66 152.938C84.5373 152.977 120.643 158.844 120.643 137.127C120.643 118.675 102.997 120.033 102.997 120.033C102.997 120.033 103.507 104.046 87.785 101.92C71.66 99.7391 69.226 117.014 69.226 117.014C69.226 117.014 41.2356 106.014 45.4952 133.618C45.4952 133.618 29.9785 130.549 29.9785 142.976C29.9785 156.863 59.1862 152.901 71.66 152.938Z" fill="#F5F5F5"/>
<path d="M119.761 154.861C112.637 154.882 92.6627 158.128 92.6627 146.114C92.6627 135.905 102.425 136.657 102.425 136.657C102.425 136.657 102.143 127.813 110.84 126.637C119.761 125.43 121.107 134.987 121.107 134.987C121.107 134.987 136.592 128.902 134.235 144.172C134.235 144.172 142.819 142.475 142.819 149.349C142.819 157.031 126.662 154.84 119.761 154.861Z" fill="#F0F0F0"/>
<path d="M159.519 104.53C166.625 104.548 186.547 107.251 186.547 97.2451C186.547 88.7434 176.81 89.369 176.81 89.369C176.81 89.369 177.091 82.0034 168.416 81.024C159.519 80.0194 158.176 87.9784 158.176 87.9784C158.176 87.9784 142.731 82.9107 145.082 95.6282C145.082 95.6282 136.52 94.2146 136.52 99.9398C136.521 106.338 152.636 104.512 159.519 104.53Z" fill="#F0F0F0"/>
<path d="M138.334 195.728L148.718 128.935L179.596 90.2538L190.123 46.2013C190.123 46.2013 215.641 70.6688 216.348 71.3108C217.056 71.9529 222.674 137.995 223.454 139.003C224.234 140.011 231.566 151.527 231.566 151.527L234.977 195.527L138.334 195.728Z" fill="#FAFAFA"/>
<path d="M138.334 195.728L153.132 138.013L174.1 118.181L178.026 143.284L183.306 114.729L189.303 124.465L188.001 90.8984L189.043 80.1592L192.561 87.2878L190.122 46.2008L207.913 46.6089L211.616 66.0029L216.348 71.3103L223.454 139.002L231.566 151.527L234.977 195.527L138.334 195.728Z" fill="#EBEBEB"/>
<path d="M190.587 46.4236L201.155 80.3528L207.452 85.3172C207.452 85.3172 210.773 99.1074 210.735 98.2257C210.697 97.344 210.354 81.8944 210.354 81.8944L211.984 69.288L207.87 46.8322L190.587 46.4236Z" fill="#F5F5F5"/>
<path d="M223.454 139.002L225.92 150.409L231.566 151.527L223.454 139.002Z" fill="#F5F5F5"/>
<path d="M183.729 172.769C195.015 172.802 226.66 177.945 226.66 158.911C226.66 142.739 211.194 143.929 211.194 143.929C211.194 143.929 211.641 129.917 197.862 128.054C183.729 126.143 181.596 141.284 181.596 141.284C181.596 141.284 157.064 131.643 160.797 155.836C160.797 155.836 147.198 153.146 147.198 164.038C147.197 176.208 172.796 172.736 183.729 172.769Z" fill="#F5F5F5"/>
<path d="M57.2188 200.135H53.9509V200.263H57.2188V200.135Z" fill="#EBEBEB"/>
<path d="M130.104 218.632C185.358 218.632 230.15 216.037 230.15 212.835C230.15 209.633 185.358 207.037 130.104 207.037C74.8495 207.037 30.057 209.633 30.057 212.835C30.057 216.037 74.8495 218.632 130.104 218.632Z" fill="#F5F5F5"/>
<path d="M208.129 48.681C208.129 53.6269 204.088 57.6358 199.104 57.6358C198.902 57.6358 198.701 57.6307 198.5 57.6154C193.804 57.3082 190.084 53.4272 190.084 48.681C190.084 43.9347 193.804 40.0538 198.5 39.7466C198.701 39.7312 198.902 39.7261 199.104 39.7261C204.088 39.7261 208.129 43.735 208.129 48.681Z" fill="#C4D326"/>
<path opacity="0.2" d="M206.921 48.681C206.921 53.4272 203.201 57.3082 198.5 57.6154C193.804 57.3082 190.084 53.4272 190.084 48.681C190.084 43.9347 193.804 40.0538 198.5 39.7466C203.201 40.0538 206.921 43.9347 206.921 48.681Z" fill="white"/>
<path opacity="0.4" d="M204.724 51.2412C206.151 47.8228 204.515 43.9036 201.07 42.4876C197.625 41.0716 193.675 42.6949 192.248 46.1134C190.821 49.5319 192.457 53.451 195.902 54.867C199.347 56.283 203.297 54.6597 204.724 51.2412Z" fill="white"/>
<g opacity="0.7">
<path d="M201.586 50.1064C201.847 51.5876 200.821 52.5783 198.974 52.734L198.943 53.9592H197.821L197.852 52.734C196.768 52.6341 195.766 52.3003 195.119 51.8769L195.627 50.496C196.299 50.9307 197.1 51.2087 197.888 51.287L197.938 49.4054C196.839 49.0936 195.621 48.682 195.383 47.3339C195.122 45.8532 196.169 44.8512 198.053 44.7165L198.084 43.4913H199.206L199.177 44.7278C199.988 44.8051 200.757 45.0289 201.354 45.3622L200.914 46.743C200.374 46.4205 199.757 46.2305 199.139 46.164L199.092 48.1239C200.179 48.4245 201.36 48.8253 201.586 50.1064ZM197.972 47.8121L198.014 46.2085C197.396 46.3314 197.098 46.676 197.162 47.0994C197.223 47.4445 197.538 47.6447 197.972 47.8121ZM199.819 50.3957C199.762 50.0731 199.468 49.8719 199.05 49.7275L199.016 51.2527C199.601 51.1304 199.894 50.8191 199.819 50.3957Z" fill="white"/>
</g>
<path d="M154.214 130.923H123.682V212.859H154.214V130.923Z" fill="#C4D326"/>
<path opacity="0.2" d="M132.302 130.844H123.675V212.876H132.302V130.844Z" fill="black"/>
<path d="M123.642 163.692H93.1101V212.859H123.642V163.692Z" fill="#C4D326"/>
<path opacity="0.2" d="M102.285 163.692H93.1101V212.808H102.285V163.692Z" fill="black"/>
<path d="M93.0864 174.131H62.5547V212.859H93.0864V174.131Z" fill="#C4D326"/>
<path opacity="0.2" d="M71.6363 174.131H62.5547V212.808H71.6363V174.131Z" fill="black"/>
<path d="M62.5453 184.573H32.0146V212.86H62.5453V184.573Z" fill="#C4D326"/>
<path opacity="0.2" d="M40.6431 184.545H32.0156V212.807H40.6431V184.545Z" fill="black"/>
<path d="M115.026 67.6254C113.576 69.3647 112.082 71.0686 110.588 72.77L109.458 74.0392L108.445 75.1605C108.028 75.6485 107.754 76.2608 107.656 76.9279L107.316 80.2329C107.202 81.3542 107.092 82.4749 106.959 83.5957C106.71 85.8367 106.451 88.0773 106.148 90.3157C106.042 91.1006 105.314 91.651 104.523 91.5455C103.826 91.4524 103.312 90.8794 103.274 90.2072C103.143 87.9544 103.056 85.7036 102.98 83.4539C102.933 82.3285 102.91 81.2042 102.882 80.0798L102.805 76.6484C102.826 75.0699 103.352 73.4827 104.261 72.1505L105.385 70.6513L106.403 69.3089C107.772 67.5276 109.142 65.75 110.555 64.0066C111.554 62.7747 113.37 62.5797 114.612 63.5709C115.853 64.5621 116.05 66.3638 115.051 67.5957C115.045 67.6013 115.031 67.6193 115.026 67.6254Z" fill="#C4D326"/>
<path d="M102.916 90.4663L101.03 93.6433L105.371 94.0805L106.135 90.8549C106.226 90.473 105.979 90.0874 105.589 90.0209C104.869 89.8985 103.743 89.8478 102.916 90.4663Z" fill="#CB7A63"/>
<path d="M101.03 93.6433L101.228 94.7671C101.325 95.3227 101.812 95.7272 102.381 95.7256L103.794 95.722C104.225 95.721 104.62 95.4845 104.822 95.1071L105.371 94.0806L101.03 93.6433Z" fill="#CB7A63"/>
<path d="M102.609 88.0845L106.788 88.2263L106.518 90.7034L102.988 90.433L102.609 88.0845Z" fill="#C4D326"/>
<path opacity="0.3" d="M102.609 88.0845L106.788 88.2263L106.518 90.7034L102.988 90.433L102.609 88.0845Z" fill="white"/>
<path d="M106.823 114.093L106.137 115.117L105.611 114.059L106.863 97.9829C107.061 95.427 106.193 93.3273 102.988 93.25C99.9915 93.1778 98.1726 95.2094 97.9636 97.7607L96.6514 113.807L95.9337 114.828L95.444 113.774L96.7644 97.7305C97.0085 94.7645 98.3351 92.3847 103.048 92.4974C107.77 92.6105 108.296 95.04 108.066 98.0126L106.823 114.093Z" fill="#263238"/>
<path d="M93.543 103.249L92.7143 103.245C90.9888 103.236 89.5265 104.504 89.3025 106.201L87.7747 117.786L93.1503 117.976L93.543 103.249Z" fill="#263238"/>
<path opacity="0.2" d="M93.543 103.249L92.7143 103.245C90.9888 103.236 89.5265 104.504 89.3025 106.201L87.7747 117.786L93.1503 117.976L93.543 103.249Z" fill="white"/>
<path d="M108.721 114.228L107.507 114.194L107.625 98.1186C107.643 95.5627 106.627 93.4629 103.417 93.3856C100.415 93.3134 98.7391 95.3451 98.7103 97.8964L98.5286 113.943L97.3186 113.909L97.5085 97.8661C97.5436 94.9001 98.7025 92.5204 103.423 92.633C108.153 92.7461 108.85 95.1756 108.83 98.1483L108.721 114.228Z" fill="#263238"/>
<path d="M114.418 118.604L90.5249 117.9L90.7555 105.949C90.7783 104.418 92.0259 103.21 93.543 103.25L110.939 103.701C112.904 103.753 114.491 105.396 114.482 107.375L114.418 118.604Z" fill="#263238"/>
<path opacity="0.4" d="M111.77 118.525L93.1505 117.977C91.6995 117.935 90.5421 116.706 90.5638 115.235L90.7552 105.949C90.7779 104.418 92.0256 103.21 93.5426 103.249L110.939 103.701C112.903 103.752 114.49 105.395 114.482 107.374L114.429 115.926C114.423 117.404 113.232 118.568 111.77 118.525Z" fill="white"/>
<g opacity="0.3">
<path d="M108.721 114.228L108.107 115.252L107.507 114.194L107.625 98.1186C107.644 95.5627 106.627 93.463 103.418 93.3857C100.416 93.3135 98.7396 95.3451 98.7107 97.8964L98.5291 113.943L97.8836 114.964L97.3196 113.909L97.5095 97.8657C97.5446 94.8996 98.7035 92.5199 103.424 92.6325C108.154 92.7457 108.851 95.1751 108.831 98.1478L108.721 114.228Z" fill="white"/>
</g>
<path d="M98.9399 107.742L96.9486 107.688L96.9574 106.944L98.9481 106.998L98.9399 107.742Z" fill="#263238"/>
<path d="M98.8861 112.566L96.8903 112.51L96.8995 111.763L98.8944 111.818L98.8861 112.566Z" fill="#263238"/>
<path d="M109.173 108.016L107.174 107.963L107.179 107.217L109.178 107.27L109.173 108.016Z" fill="#263238"/>
<path d="M109.141 112.85L107.138 112.795L107.143 112.046L109.146 112.101L109.141 112.85Z" fill="#263238"/>
<path d="M105.363 108.338L101.088 108.223L101.104 106.632L105.376 106.745L105.363 108.338Z" fill="white"/>
<path d="M123.809 49.6598C123.974 49.6286 124.149 49.7986 124.203 50.0454C124.256 50.2921 124.17 50.5236 124.006 50.5548C123.841 50.586 123.666 50.416 123.613 50.1693C123.546 49.9143 123.645 49.6911 123.809 49.6598Z" fill="#263238"/>
<path d="M123.839 49.8667C124.007 49.7888 124.161 49.6148 124.229 49.4432C124.085 49.5769 123.887 49.6511 123.69 49.6465C123.766 49.6885 123.835 49.7806 123.839 49.8667Z" fill="#263238"/>
<path d="M124.168 52.3724C124.602 52.3903 125.02 52.2167 125.312 51.8988C124.68 51.354 124.126 50.7268 123.665 50.0336L124.168 52.3724Z" fill="#B74D3C"/>
<path d="M122.428 49.2559C122.667 48.9584 123.036 48.7935 123.419 48.8135C123.435 48.8186 123.451 48.8212 123.468 48.8207C123.553 48.8191 123.619 48.75 123.618 48.6666C123.616 48.5831 123.546 48.5171 123.463 48.5186C122.984 48.4802 122.516 48.6737 122.207 49.0388C122.183 49.0659 122.171 49.1007 122.171 49.1371C122.171 49.2205 122.239 49.2881 122.323 49.2881C122.361 49.2912 122.398 49.2794 122.428 49.2559Z" fill="#263238"/>
<path d="M120.856 64.0527C116.564 64.0983 115.906 61.7799 115.906 61.7799C117.181 60.5378 117.244 58.2645 116.973 56.238C117.302 56.6963 117.712 57.0967 118.249 57.4515C119.275 58.1212 121.503 57.045 121.503 57.045C121.509 57.045 121.503 57.4228 121.532 57.9666C121.601 59.2947 121.895 61.6248 123.113 61.9858C123.113 61.9858 125.588 64.0015 120.856 64.0527Z" fill="#CB7A63"/>
<path d="M121.566 57.3906C121.52 57.5862 121.475 57.7823 121.447 57.9896C121.43 58.0014 121.412 58.0076 121.394 58.0081C120.388 58.2559 119.277 58.1197 118.25 57.45C117.709 57.0947 117.3 56.6968 116.972 56.2386C116.907 55.7245 116.812 55.2223 116.718 54.7615L121.392 57.2979L121.566 57.3906Z" fill="#CB7A63"/>
<path d="M124.642 53.913C124.611 55.4879 123.743 56.8171 122.528 57.54H122.522C122.516 57.5462 122.51 57.5462 122.504 57.5462C122.178 57.751 121.822 57.8969 121.447 57.9896C121.43 58.0013 121.412 58.0075 121.394 58.008C120.388 58.2558 119.277 58.1196 118.25 57.4499C117.709 57.0946 117.3 56.6968 116.973 56.2385C116.131 55.0932 115.78 53.5643 115.178 51.416C114.993 50.7847 114.955 50.1165 115.074 49.4699C115.496 47.1572 117.728 45.6237 120.053 46.0425C123.316 46.6175 124.706 51.0356 124.642 53.913Z" fill="#CB7A63"/>
<path opacity="0.2" d="M122.294 57.6234C121.993 57.8123 121.844 57.8866 121.532 57.967C121.503 57.4232 121.509 57.0454 121.503 57.0454C121.532 56.5702 121.567 56.0951 121.567 56.0951C121.567 56.112 122.069 57.6234 122.294 57.6234Z" fill="black"/>
<path d="M123.514 48.1044C123.165 48.6553 122.065 49.1212 122.102 48.9932C122.291 48.536 122.256 47.6584 121.685 47.8638C121.843 48.2135 122.317 50.8426 122.102 51.1615C121.984 51.3361 121.873 53.4394 120.971 55.2939C120.251 56.7736 120.251 57.2323 120.251 57.2323L117.321 57.7935C116.224 57.6573 115.202 56.2667 115.112 56.1126C114.729 55.4588 113.558 54.6001 112.949 54.146C112.686 53.9494 112.48 53.6601 112.369 53.3498C112.168 52.7918 112.578 50.7806 112.668 49.835C112.796 48.4746 113.516 47.2161 115.504 46.4081C116.734 45.9084 117.769 44.8122 119.023 44.3786C120.278 43.9449 121.77 43.9644 122.83 44.7595C123.351 45.1507 124.39 46.7235 123.514 48.1044Z" fill="#263238"/>
<path d="M121.983 50.0193C122.886 50.282 123.357 51.6019 123.396 52.4406C123.44 53.3668 122.816 53.952 122.002 53.332C121.389 52.8543 120.952 52.1902 120.756 51.4417C120.535 50.5339 121.08 49.7562 121.983 50.0193Z" fill="#CB7A63"/>
<path d="M123.069 53.1036C123.069 53.3196 122.893 53.4947 122.675 53.4947C122.457 53.4947 122.281 53.3196 122.281 53.1036C122.281 52.8875 122.457 52.7124 122.675 52.7124C122.893 52.7124 123.069 52.8875 123.069 53.1036Z" fill="#C4D326"/>
<path opacity="0.3" d="M123.069 53.1036C123.069 53.3196 122.893 53.4947 122.675 53.4947C122.457 53.4947 122.281 53.3196 122.281 53.1036C122.281 52.8875 122.457 52.7124 122.675 52.7124C122.893 52.7124 123.069 52.8875 123.069 53.1036Z" fill="white"/>
<path d="M114.674 63.3154C114.674 63.3154 115.341 61.273 116.347 60.6279C117.353 59.9827 121.769 60.6519 122.461 60.9207C123.153 61.1895 123.852 62.7721 123.852 62.7721L114.674 63.3154Z" fill="#C4D326"/>
<path opacity="0.3" d="M114.674 63.3154C114.674 63.3154 115.341 61.273 116.347 60.6279C117.353 59.9827 121.769 60.6519 122.461 60.9207C123.153 61.1895 123.852 62.7721 123.852 62.7721L114.674 63.3154Z" fill="white"/>
<path d="M124.759 62.443C124.072 62.3309 123.882 62.2279 123.095 62.1665C120.725 62.0559 118.351 62.0815 115.984 62.2428C115.12 62.3042 114.289 62.4701 113.464 62.6662C111.769 63.0702 110.626 64.6374 110.752 66.3501C111.104 71.1434 112.531 73.9558 112.742 77.1113C113.161 83.3981 112.151 87.8059 111.979 89.2733L115.227 89.7628C121.029 89.6261 124.881 88.3886 128.074 87.041C128.074 87.041 127.237 79.4404 128.046 76.7017C130.257 69.2193 128.821 68.0356 128.385 65.8934C128.022 64.1126 126.578 62.7389 124.759 62.443Z" fill="#C4D326"/>
<path opacity="0.1" d="M128.046 76.6996C127.781 77.5925 127.694 79.001 127.694 80.4894C127.694 83.5809 128.075 87.0389 128.075 87.0389C124.884 88.3901 121.03 89.6266 115.225 89.7638L111.977 89.2712C112.15 87.8054 113.16 83.3976 112.744 77.1112C112.531 73.9568 111.106 71.1459 110.754 66.348C110.627 64.6364 111.769 63.0676 113.465 62.6667C114.29 62.4665 115.121 62.3063 115.986 62.2433C118.352 62.083 120.723 62.0544 123.095 62.1629C123.88 62.2259 124.07 62.3288 124.756 62.4435C126.579 62.7409 128.022 64.1095 128.385 65.8959C128.541 66.6629 128.83 67.31 129.026 68.1687C129.268 69.2106 129.383 70.5674 128.979 72.8401C128.796 73.9056 128.496 75.1708 128.046 76.6996Z" fill="white"/>
<path d="M125.692 62.211C126.878 62.3769 128.053 62.6119 129.234 62.8095C130.41 63.0348 131.586 63.2662 132.758 63.5166L132.333 63.4833C132.857 63.5063 133.317 63.5468 133.607 63.5647C133.748 63.575 133.846 63.5724 133.81 63.5934C133.802 63.6052 133.734 63.6267 133.654 63.6779C133.554 63.7311 133.433 63.8176 133.302 63.9508C133.032 64.2196 132.923 64.5795 132.931 64.686C132.929 64.8022 132.966 64.7751 132.972 64.685C132.992 64.5001 132.953 64.1469 132.876 63.7833L132.929 63.9344C132.334 62.2304 131.769 60.5147 131.252 58.7801C130.75 57.0398 130.267 55.2918 129.925 53.4896C129.793 52.7979 130.252 52.1307 130.949 52.0002C131.483 51.9003 132.003 52.1461 132.276 52.5751C133.259 54.1286 134.101 55.7362 134.924 57.3516C135.732 58.9731 136.492 60.613 137.222 62.2642L137.276 62.4153C137.476 62.9375 137.671 63.4869 137.788 64.2257C137.842 64.5964 137.879 65.0377 137.794 65.6112C137.715 66.1718 137.406 66.9752 136.796 67.5655C136.498 67.8619 136.175 68.0703 135.868 68.2301C135.575 68.376 135.286 68.4794 135.051 68.5429C134.56 68.6776 134.191 68.717 133.865 68.7503C133.221 68.8107 132.746 68.8132 132.334 68.8373L132.268 68.8414L131.909 68.804C130.717 68.6801 129.527 68.5378 128.338 68.3888C127.154 68.2127 125.963 68.0734 124.784 67.865C123.216 67.588 122.17 66.1012 122.45 64.5442C122.723 63.0235 124.164 61.9995 125.692 62.211Z" fill="#C4D326"/>
<g opacity="0.1">
<path d="M125.692 62.211C126.878 62.3769 128.053 62.6119 129.234 62.8095C130.41 63.0348 131.586 63.2662 132.758 63.5166L132.333 63.4833C132.857 63.5063 133.317 63.5468 133.607 63.5647C133.748 63.575 133.846 63.5724 133.81 63.5934C133.802 63.6052 133.734 63.6267 133.654 63.6779C133.554 63.7311 133.433 63.8176 133.302 63.9508C133.032 64.2196 132.923 64.5795 132.931 64.686C132.929 64.8022 132.966 64.7751 132.972 64.685C132.992 64.5001 132.953 64.1469 132.876 63.7833L132.929 63.9344C132.334 62.2304 131.769 60.5147 131.252 58.7801C130.75 57.0398 130.267 55.2918 129.925 53.4896C129.793 52.7979 130.252 52.1307 130.949 52.0002C131.483 51.9003 132.003 52.1461 132.276 52.5751C133.259 54.1286 134.101 55.7362 134.924 57.3516C135.732 58.9731 136.492 60.613 137.222 62.2642L137.276 62.4153C137.476 62.9375 137.671 63.4869 137.788 64.2257C137.842 64.5964 137.879 65.0377 137.794 65.6112C137.715 66.1718 137.406 66.9752 136.796 67.5655C136.498 67.8619 136.175 68.0703 135.868 68.2301C135.575 68.376 135.286 68.4794 135.051 68.5429C134.56 68.6776 134.191 68.717 133.865 68.7503C133.221 68.8107 132.746 68.8132 132.334 68.8373L132.268 68.8414L131.909 68.804C130.717 68.6801 129.527 68.5378 128.338 68.3888C127.154 68.2127 125.963 68.0734 124.784 67.865C123.216 67.588 122.17 66.1012 122.45 64.5442C122.723 63.0235 124.164 61.9995 125.692 62.211Z" fill="white"/>
</g>
<path d="M147.031 51.1888L162.501 50.7182L162.263 45.9095L146.824 46.9182L147.031 51.1888Z" fill="#C4D326"/>
<path d="M135.338 51.373L147.847 50.9737L147.657 47.0308L135.169 47.83L135.338 51.373Z" fill="#C4D326"/>
<path d="M146.196 51.0746L147.016 51.1606L146.812 46.9479L146.005 47.1117L146.196 51.0746Z" fill="#263238"/>
<path opacity="0.2" d="M146.196 51.0746L147.016 51.1606L146.812 46.9479L146.005 47.1117L146.196 51.0746Z" fill="black"/>
<path d="M147.017 51.1892L147.857 51.1636L147.649 46.8644L146.811 46.9192L147.017 51.1892Z" fill="#263238"/>
<path d="M133.395 50.7904L134.637 51.3623L134.473 47.9078L133.291 48.5955L133.395 50.7904Z" fill="#263238"/>
<path d="M127.038 50.7474L130.717 50.5575L130.64 48.9406L126.963 49.1587L127.038 50.7474Z" fill="#263238"/>
<path opacity="0.2" d="M127.038 50.7474L130.717 50.5575L130.64 48.9406L126.963 49.1587L127.038 50.7474Z" fill="black"/>
<path d="M130.214 50.884L134.307 50.7279L134.199 48.4648L130.111 48.705L130.214 50.884Z" fill="#263238"/>
<path opacity="0.2" d="M133.395 50.7904L134.637 51.3623L134.473 47.9078L133.291 48.5955L133.395 50.7904Z" fill="black"/>
<path d="M134.659 51.395L135.338 51.373L135.169 47.83L134.492 47.8735L134.659 51.395Z" fill="#263238"/>
<path d="M161.974 50.7341L164.401 50.6481L164.162 45.8209L161.738 45.9438L161.974 50.7341Z" fill="#263238"/>
<path d="M163.05 51.0756L166.146 50.9896L166.223 50.7771C166.885 48.9559 166.753 46.9437 165.86 45.2229L162.771 45.4349L162.839 45.5956C163.573 47.3375 163.648 49.2836 163.05 51.0756Z" fill="#C4D326"/>
<g opacity="0.4">
<path d="M159.753 46.443L161.005 46.3662L161.03 46.8961L159.758 46.9688C159.728 46.7958 159.738 46.6186 159.753 46.443Z" fill="white"/>
<path d="M158.995 46.5018C158.982 46.6769 158.974 46.8526 159.001 47.0246L148.142 47.6349L148.115 47.1562L158.995 46.5018Z" fill="white"/>
</g>
<g opacity="0.4">
<path d="M135.434 48.1096L135.457 48.5391L145.66 47.938L145.637 47.468L135.434 48.1096Z" fill="white"/>
</g>
<g opacity="0.4">
<path d="M163.045 45.6007L163.075 46.1373L165.495 45.9791L165.469 45.4318L163.045 45.6007Z" fill="white"/>
</g>
<path opacity="0.3" d="M165.834 50.2805C165.819 50.4638 165.809 50.6476 165.839 50.8289L163.333 50.9139L163.302 50.3768L165.834 50.2805Z" fill="black"/>
<path opacity="0.3" d="M161.346 49.981C161.332 50.1586 161.323 50.3368 161.351 50.5119L148.068 50.9829L148.042 50.5047L161.346 49.981Z" fill="black"/>
<path opacity="0.3" d="M145.537 50.4438C145.527 50.6005 145.521 50.7587 145.543 50.9139L135.674 51.2579L135.651 50.8273L145.537 50.4438Z" fill="black"/>
<path d="M126.211 49.22L126.243 50.7663C126.248 51.0289 126.488 51.2383 126.78 51.2332L128.044 51.2117L127.992 48.6783L126.728 48.7244C126.437 48.7357 126.206 48.9569 126.211 49.22Z" fill="#C4D326"/>
<path d="M132.749 53.5096L133.229 50.6281C133.249 50.5083 133.253 50.3864 133.242 50.2661L133.105 48.7388C133.082 48.5412 132.942 48.3471 132.725 48.2811L130.406 48.2545C130.1 48.1587 129.763 48.3041 129.661 48.5745L129.245 50.4622C129.214 50.6035 129.217 50.7505 129.254 50.8902L129.942 53.4897C130.009 53.7068 130.21 53.8757 130.46 53.9233L131.976 53.9366C132.333 54.0047 132.676 53.8158 132.749 53.5096Z" fill="#CE7A63"/>
<path d="M134.113 54.7235L130.168 56.1003L129.511 53.6954L132.898 52.673L134.113 54.7235Z" fill="#C4D326"/>
<path opacity="0.3" d="M134.113 54.7235L130.168 56.1003L129.511 53.6954L132.898 52.673L134.113 54.7235Z" fill="white"/>
<path opacity="0.2" d="M128.98 72.8407L125.957 67.1785L129.027 68.1687C129.269 69.2111 129.384 70.5679 128.98 72.8407Z" fill="black"/>
<path d="M144.566 119.846L143.941 127.537L147.469 127.604L148.437 119.681L144.566 119.846Z" fill="#CE7A63"/>
<path d="M148.028 126.553L144.003 126.634C143.852 126.637 143.721 126.751 143.69 126.91L142.997 130.412C142.933 130.722 143.117 131.026 143.408 131.091C143.445 131.1 143.483 131.104 143.521 131.104C144.972 131.048 146.261 130.937 148.067 130.903C150.198 130.861 149.661 131.144 152.166 131.131C153.676 131.122 153.935 129.289 153.293 129.212C150.359 128.878 150.046 127.941 148.905 126.847C148.657 126.637 148.344 126.533 148.028 126.553Z" fill="#263238"/>
<path d="M106.043 152.804L104.616 159.868L108.409 161.017L110.236 153.803L106.043 152.804Z" fill="#CE7A63"/>
<path d="M126.337 87.3491C126.337 87.3491 120.939 118.614 118.006 127.815C115.918 134.367 110.318 155.801 110.318 155.801L105.237 154.683C105.237 154.683 104.669 140.093 107.495 132.562C108.459 129.993 109.717 127.675 110.057 126.082C111.512 119.277 108.513 106.932 109.839 97.7243C110.558 92.7333 112.093 89.1739 112.093 89.1739L126.337 87.3491Z" fill="#263238"/>
<path d="M118.006 127.815C115.918 134.367 110.318 155.801 110.318 155.801L105.237 154.683C105.237 154.683 104.669 140.093 107.495 132.562C108.459 129.993 109.717 127.675 110.057 126.082C111.512 119.278 108.513 106.932 109.839 97.7243C110.558 92.7334 112.093 89.174 112.093 89.174" fill="#263238"/>
<path opacity="0.2" d="M119.718 97.0132L122.435 107.602L124.424 97.4735L119.718 97.0132Z" fill="black"/>
<path d="M148.684 123.535L143.72 123.694C143.72 123.694 144.087 117.248 144.087 107.848C144.087 106.399 144.314 104.97 144.634 103.69C145.341 100.818 146.486 98.6777 146.486 98.6777C146.486 98.6777 145.955 98.7084 145.047 98.7494C142.24 98.8927 124.839 99.7846 124.498 99.759C124.24 99.7334 122.659 99.9413 119.824 98.5702C114.557 96.0219 114.505 88.8678 114.505 88.8678L128.07 87.0399C128.07 87.0502 128.292 87.0809 131.558 87.1372C141.46 87.3062 153.629 87.6866 155.765 91.0596C158.769 95.8048 148.684 123.535 148.684 123.535Z" fill="#263238"/>
<path d="M108.599 159.189L104.436 159.245C104.279 159.247 104.151 159.362 104.127 159.521L103.609 163.051C103.561 163.364 103.769 163.673 104.074 163.74C104.113 163.749 104.152 163.753 104.192 163.753C105.69 163.706 107.019 163.603 108.888 163.58C111.093 163.552 110.551 163.833 113.146 163.837C114.709 163.837 114.872 161.988 114.204 161.906C111.146 161.55 110.768 160.603 109.524 159.491C109.256 159.278 108.927 159.17 108.599 159.189Z" fill="#263238"/>
<path opacity="0.2" d="M144.633 103.69C145.34 100.818 146.486 98.6778 146.486 98.6778C146.486 98.6778 145.954 98.7085 145.046 98.7494C145.005 98.7341 144.963 98.7238 144.912 98.7238L148.53 98.4218L144.633 103.69Z" fill="black"/>
<path d="M49.8157 65.4122C53.3113 65.4122 56.145 62.6005 56.145 59.132C56.145 55.6635 53.3113 52.8518 49.8157 52.8518C46.3202 52.8518 43.4865 55.6635 43.4865 59.132C43.4865 62.6005 46.3202 65.4122 49.8157 65.4122Z" fill="#C4D326"/>
<path opacity="0.6" d="M49.8157 65.4122C53.3113 65.4122 56.145 62.6005 56.145 59.132C56.145 55.6635 53.3113 52.8518 49.8157 52.8518C46.3202 52.8518 43.4865 55.6635 43.4865 59.132C43.4865 62.6005 46.3202 65.4122 49.8157 65.4122Z" fill="white"/>
<path d="M49.8271 50.4571C49.3069 50.4571 48.8859 50.0394 48.8859 49.5233V45.3991C48.8859 44.883 49.3069 44.4652 49.8271 44.4652C50.3472 44.4652 50.7682 44.883 50.7682 45.3991V49.5233C50.7682 50.0388 50.3472 50.4571 49.8271 50.4571Z" fill="#C4D326"/>
<path d="M49.8271 73.7025C49.3069 73.7025 48.8859 73.2847 48.8859 72.7686V68.6445C48.8859 68.1284 49.3069 67.7106 49.8271 67.7106C50.3472 67.7106 50.7682 68.1284 50.7682 68.6445V72.7686C50.7682 73.2842 50.3472 73.7025 49.8271 73.7025Z" fill="#C4D326"/>
<path d="M43.0138 53.2572C42.7728 53.2572 42.5319 53.1661 42.3482 52.9838L40.5514 51.2011C40.1835 50.836 40.1835 50.2451 40.5514 49.8806C40.9194 49.5155 41.5153 49.5155 41.8822 49.8806L43.6789 51.6634C44.0463 52.0284 44.0463 52.6193 43.6789 52.9838C43.4957 53.1661 43.2548 53.2572 43.0138 53.2572Z" fill="#C4D326"/>
<path d="M58.3152 68.4396C58.0743 68.4396 57.8338 68.3485 57.6496 68.1662L55.9747 66.5043C55.6068 66.1397 55.6068 65.5484 55.9747 65.1838C56.3421 64.8188 56.938 64.8188 57.3054 65.1838L58.9804 66.8458C59.3483 67.2103 59.3483 67.8017 58.9804 68.1662C58.7967 68.3485 58.5557 68.4396 58.3152 68.4396Z" fill="#C4D326"/>
<path d="M40.1918 60.0177H36.0354C35.5153 60.0177 35.0942 59.5999 35.0942 59.0838C35.0942 58.5677 35.5153 58.1499 36.0354 58.1499H40.1918C40.7119 58.1499 41.133 58.5677 41.133 59.0838C41.133 59.5999 40.7119 60.0177 40.1918 60.0177Z" fill="#C4D326"/>
<path d="M63.6187 60.0177H59.4623C58.9422 60.0177 58.5211 59.5999 58.5211 59.0838C58.5211 58.5677 58.9422 58.1499 59.4623 58.1499H63.6187C64.1383 58.1499 64.5599 58.5677 64.5599 59.0838C64.5599 59.5999 64.1388 60.0177 63.6187 60.0177Z" fill="#C4D326"/>
<path d="M41.4297 68.35C41.1888 68.35 40.9483 68.2589 40.7641 68.0766C40.3962 67.7121 40.3962 67.1207 40.7641 66.7562L42.3482 65.1843C42.7151 64.8193 43.3116 64.8193 43.679 65.1843C44.0464 65.5489 44.0464 66.1402 43.679 66.5048L42.0949 68.0766C41.9117 68.2589 41.6707 68.35 41.4297 68.35Z" fill="#C4D326"/>
<path d="M56.6404 53.2573C56.3995 53.2573 56.159 53.1661 55.9748 52.9838C55.6069 52.6193 55.6069 52.0279 55.9748 51.6634L57.6735 49.9779C58.0414 49.6128 58.6368 49.6128 59.0042 49.9779C59.3721 50.3424 59.3721 50.9338 59.0042 51.2983L57.3055 52.9838C57.1219 53.1661 56.8809 53.2573 56.6404 53.2573Z" fill="#C4D326"/>
<g opacity="0.6">
<path d="M49.8271 50.4571C49.3069 50.4571 48.8859 50.0394 48.8859 49.5233V45.3991C48.8859 44.883 49.3069 44.4652 49.8271 44.4652C50.3472 44.4652 50.7682 44.883 50.7682 45.3991V49.5233C50.7682 50.0388 50.3472 50.4571 49.8271 50.4571Z" fill="white"/>
<path d="M49.8271 73.7025C49.3069 73.7025 48.8859 73.2847 48.8859 72.7686V68.6445C48.8859 68.1284 49.3069 67.7106 49.8271 67.7106C50.3472 67.7106 50.7682 68.1284 50.7682 68.6445V72.7686C50.7682 73.2842 50.3472 73.7025 49.8271 73.7025Z" fill="white"/>
<path d="M43.0138 53.2572C42.7728 53.2572 42.5319 53.1661 42.3482 52.9838L40.5514 51.2011C40.1835 50.836 40.1835 50.2451 40.5514 49.8806C40.9194 49.5155 41.5153 49.5155 41.8822 49.8806L43.6789 51.6634C44.0463 52.0284 44.0463 52.6193 43.6789 52.9838C43.4957 53.1661 43.2548 53.2572 43.0138 53.2572Z" fill="white"/>
<path d="M58.3152 68.4396C58.0743 68.4396 57.8338 68.3485 57.6496 68.1662L55.9747 66.5043C55.6068 66.1397 55.6068 65.5484 55.9747 65.1838C56.3421 64.8188 56.938 64.8188 57.3054 65.1838L58.9804 66.8458C59.3483 67.2103 59.3483 67.8017 58.9804 68.1662C58.7967 68.3485 58.5557 68.4396 58.3152 68.4396Z" fill="white"/>
<path d="M40.1918 60.0177H36.0354C35.5153 60.0177 35.0942 59.5999 35.0942 59.0838C35.0942 58.5677 35.5153 58.1499 36.0354 58.1499H40.1918C40.7119 58.1499 41.133 58.5677 41.133 59.0838C41.133 59.5999 40.7119 60.0177 40.1918 60.0177Z" fill="white"/>
<path d="M63.6187 60.0177H59.4623C58.9422 60.0177 58.5211 59.5999 58.5211 59.0838C58.5211 58.5677 58.9422 58.1499 59.4623 58.1499H63.6187C64.1383 58.1499 64.5599 58.5677 64.5599 59.0838C64.5599 59.5999 64.1388 60.0177 63.6187 60.0177Z" fill="white"/>
<path d="M41.4297 68.35C41.1888 68.35 40.9483 68.2589 40.7641 68.0766C40.3962 67.7121 40.3962 67.1207 40.7641 66.7562L42.3482 65.1843C42.7151 64.8193 43.3116 64.8193 43.679 65.1843C44.0464 65.5489 44.0464 66.1402 43.679 66.5048L42.0949 68.0766C41.9117 68.2589 41.6707 68.35 41.4297 68.35Z" fill="white"/>
<path d="M56.6404 53.2573C56.3995 53.2573 56.159 53.1661 55.9748 52.9838C55.6069 52.6193 55.6069 52.0279 55.9748 51.6634L57.6735 49.9779C58.0414 49.6128 58.6368 49.6128 59.0042 49.9779C59.3721 50.3424 59.3721 50.9338 59.0042 51.2983L57.3055 52.9838C57.1219 53.1661 56.8809 53.2573 56.6404 53.2573Z" fill="white"/>
</g>
</svg>
