<svg width="33" height="33" viewBox="0 0 33 33" fill="none" xmlns="http://www.w3.org/2000/svg">
<path d="M28.8407 18.9554C28.8407 16.953 28.4463 14.9701 27.68 13.1201C26.9137 11.2701 25.7905 9.58913 24.3745 8.17319C22.9586 6.75724 21.2776 5.63405 19.4276 4.86775C17.5776 4.10144 15.5947 3.70703 13.5923 3.70703V18.9554H28.8407Z" fill="#C4D326"/>
<path d="M24.0254 18.9554C24.0254 24.7175 19.3544 29.3886 13.5923 29.3886C7.83025 29.3886 3.15918 24.7175 3.15918 18.9554C3.15918 13.1934 7.83025 8.52232 13.5923 8.52232C19.3544 8.52232 24.0254 13.1934 24.0254 18.9554ZM9.41905 18.9554C9.41905 21.2603 11.2875 23.1287 13.5923 23.1287C15.8971 23.1287 17.7655 21.2603 17.7655 18.9554C17.7655 16.6506 15.8971 14.7822 13.5923 14.7822C11.2875 14.7822 9.41905 16.6506 9.41905 18.9554Z" fill="#8470FF"/>
</svg>
