<svg width="23" height="22" viewBox="0 0 23 22" fill="none" xmlns="http://www.w3.org/2000/svg">
<path d="M8.3335 11C10.4235 11 12.0002 9.42332 12.0002 7.33332C12.0002 5.24332 10.4235 3.66665 8.3335 3.66665C6.2435 3.66665 4.66683 5.24332 4.66683 7.33332C4.66683 9.42332 6.2435 11 8.3335 11ZM8.3335 5.49999C9.41333 5.49999 10.1668 6.25349 10.1668 7.33332C10.1668 8.41315 9.41333 9.16665 8.3335 9.16665C7.25366 9.16665 6.50016 8.41315 6.50016 7.33332C6.50016 6.25349 7.25366 5.49999 8.3335 5.49999ZM9.25016 11.9167H7.41683C4.88958 11.9167 2.8335 13.9727 2.8335 16.5V17.4167H4.66683V16.5C4.66683 14.9838 5.90066 13.75 7.41683 13.75H9.25016C10.7663 13.75 12.0002 14.9838 12.0002 16.5V17.4167H13.8335V16.5C13.8335 13.9727 11.7774 11.9167 9.25016 11.9167ZM17.8338 2.41632L16.5377 3.71249C17.7486 4.92524 18.4168 6.53674 18.4168 8.24999C18.4168 9.96324 17.7486 11.5747 16.5377 12.7875L17.8338 14.0837C19.3922 12.5244 20.2502 10.4527 20.2502 8.24999C20.2502 6.04724 19.3922 3.97557 17.8338 2.41632Z" fill="#F5F4FF"/>
<path d="M15.2405 5.00867L13.9443 6.30667C14.4641 6.82458 14.7501 7.51483 14.7501 8.25C14.7501 8.98517 14.4641 9.67542 13.9443 10.1933L15.2405 11.4913C16.1058 10.626 16.5834 9.47558 16.5834 8.25C16.5834 7.02442 16.1058 5.874 15.2405 5.00867Z" fill="#F5F4FF"/>
</svg>
