<svg width="20" height="20" viewBox="0 0 20 20" fill="none" xmlns="http://www.w3.org/2000/svg">
<path d="M16.6667 1.66667H6.66667C5.7475 1.66667 5 2.41417 5 3.33334V13.3333C5 14.2525 5.7475 15 6.66667 15H16.6667C17.5858 15 18.3333 14.2525 18.3333 13.3333V3.33334C18.3333 2.41417 17.5858 1.66667 16.6667 1.66667ZM6.66667 13.3333V3.33334H16.6667L16.6683 13.3333H6.66667Z" fill="#F5F4FF"/>
<path d="M3.33317 6.66666H1.6665V16.6667C1.6665 17.5858 2.414 18.3333 3.33317 18.3333H13.3332V16.6667H3.33317V6.66666ZM10.7773 9.59916L9.339 8.16083L8.16067 9.33916L10.889 12.0675L15.6407 6.3675L14.359 5.29916L10.7773 9.59916Z" fill="#F5F4FF"/>
</svg>
