<svg width="22" height="22" viewBox="0 0 22 22" fill="none" xmlns="http://www.w3.org/2000/svg">
<path d="M19.2502 3.66666H1.8335V5.49999H3.94183L6.9485 13.75C7.13762 14.2849 7.48756 14.7482 7.95035 15.0765C8.41315 15.4047 8.96613 15.5817 9.53349 15.5833H17.4168V13.75H9.53349C9.34511 13.7499 9.16132 13.6918 9.00714 13.5835C8.85296 13.4753 8.73588 13.3222 8.67183 13.145L8.25016 11.9167H16.7568C17.1547 11.9161 17.5416 11.7861 17.859 11.5463C18.1765 11.3066 18.4074 10.97 18.5168 10.5875L20.1668 4.83082C20.2041 4.71045 20.2161 4.58369 20.2022 4.45845C20.1883 4.33321 20.1487 4.21219 20.0859 4.10294C20.0231 3.9937 19.9384 3.89857 19.8372 3.8235C19.736 3.74844 19.6204 3.69504 19.4977 3.66666C19.4157 3.65331 19.3321 3.65331 19.2502 3.66666ZM16.7293 10.0833H7.56266L5.89433 5.49999H18.031L16.7293 10.0833Z" fill="#F5F4FF"/>
<path d="M9.625 19.25C10.3844 19.25 11 18.6344 11 17.875C11 17.1156 10.3844 16.5 9.625 16.5C8.86561 16.5 8.25 17.1156 8.25 17.875C8.25 18.6344 8.86561 19.25 9.625 19.25Z" fill="#F5F4FF"/>
<path d="M15.125 19.25C15.8844 19.25 16.5 18.6344 16.5 17.875C16.5 17.1156 15.8844 16.5 15.125 16.5C14.3656 16.5 13.75 17.1156 13.75 17.875C13.75 18.6344 14.3656 19.25 15.125 19.25Z" fill="#F5F4FF"/>
</svg>
