<svg width="22" height="22" viewBox="0 0 22 22" fill="none" xmlns="http://www.w3.org/2000/svg">
<path d="M11.0002 14.6666C13.0223 14.6666 14.6668 13.0221 14.6668 11C14.6668 8.97781 13.0223 7.33331 11.0002 7.33331C8.978 7.33331 7.3335 8.97781 7.3335 11C7.3335 13.0221 8.978 14.6666 11.0002 14.6666ZM11.0002 9.16665C11.9938 9.16665 12.8335 10.0063 12.8335 11C12.8335 11.9936 11.9938 12.8333 11.0002 12.8333C10.0065 12.8333 9.16683 11.9936 9.16683 11C9.16683 10.0063 10.0065 9.16665 11.0002 9.16665Z" fill="#F5F4FF"/>
<path d="M2.60781 14.7913L3.52448 16.3771C4.01123 17.2177 5.18273 17.5331 6.02698 17.0463L6.5119 16.7658C7.04223 17.183 7.62694 17.5259 8.2499 17.7851V18.3333C8.2499 19.3444 9.07215 20.1666 10.0832 20.1666H11.9166C12.9276 20.1666 13.7499 19.3444 13.7499 18.3333V17.7851C14.3726 17.5259 14.9573 17.1833 15.4879 16.7667L15.9728 17.0472C16.8189 17.5331 17.9876 17.2196 18.4762 16.3771L19.392 14.7922C19.6349 14.3712 19.7008 13.871 19.5752 13.4014C19.4495 12.9318 19.1426 12.5313 18.7219 12.2879L18.259 12.0202C18.3574 11.3442 18.3574 10.6576 18.259 9.98156L18.7219 9.7139C19.1424 9.47027 19.4492 9.06978 19.5748 8.60029C19.7004 8.1308 19.6347 7.63064 19.392 7.20956L18.4762 5.62465C17.9895 4.78131 16.8189 4.46506 15.9728 4.95365L15.4879 5.23415C14.9576 4.81698 14.3729 4.47404 13.7499 4.21481V3.66665C13.7499 2.65556 12.9276 1.83331 11.9166 1.83331H10.0832C9.07215 1.83331 8.2499 2.65556 8.2499 3.66665V4.21481C7.62715 4.47408 7.04248 4.81668 6.5119 5.23323L6.02698 4.95273C5.17998 4.46598 4.01032 4.78131 3.52357 5.62373L2.60781 7.20865C2.36488 7.62967 2.299 8.12991 2.42464 8.59947C2.55028 9.06904 2.85717 9.46953 3.2779 9.71298L3.74081 9.98065C3.64203 10.6563 3.64203 11.3427 3.74081 12.0184L3.2779 12.2861C2.8573 12.5299 2.55055 12.9305 2.42493 13.4002C2.29932 13.8698 2.36509 14.3701 2.60781 14.7913ZM5.65665 12.2631C5.55314 11.85 5.5005 11.4258 5.4999 11C5.4999 10.5765 5.55307 10.1511 5.65573 9.73681C5.70408 9.5437 5.68818 9.34009 5.61044 9.15682C5.53269 8.97355 5.39735 8.8206 5.2249 8.72115L4.19548 8.12531L5.11031 6.5404L6.1599 7.14723C6.33106 7.24627 6.52974 7.28713 6.72609 7.26366C6.92245 7.24019 7.1059 7.15366 7.2489 7.01706C7.86904 6.42724 8.61687 5.98839 9.43423 5.73465C9.62199 5.67732 9.78638 5.56124 9.90321 5.40348C10.02 5.24572 10.0831 5.05462 10.0832 4.85831V3.66665H11.9166V4.85831C11.9166 5.05462 11.9797 5.24572 12.0966 5.40348C12.2134 5.56124 12.3778 5.67732 12.5656 5.73465C13.3828 5.98876 14.1305 6.42756 14.7509 7.01706C14.894 7.15339 15.0775 7.23974 15.2738 7.2632C15.47 7.28666 15.6686 7.24598 15.8399 7.14723L16.8886 6.54131L17.8052 8.12623L16.7749 8.72115C16.6026 8.82071 16.4673 8.97367 16.3896 9.15691C16.3118 9.34014 16.2959 9.5437 16.3441 9.73681C16.4467 10.1511 16.4999 10.5765 16.4999 11C16.4999 11.4226 16.4467 11.8479 16.3431 12.2631C16.295 12.4564 16.3112 12.66 16.389 12.8432C16.4669 13.0265 16.6024 13.1794 16.7749 13.2788L17.8043 13.8737L16.8895 15.4586L15.8399 14.8527C15.6688 14.7535 15.4701 14.7126 15.2737 14.7361C15.0773 14.7595 14.8938 14.8462 14.7509 14.9829C14.1308 15.5727 13.3829 16.0116 12.5656 16.2653C12.3778 16.3226 12.2134 16.4387 12.0966 16.5965C11.9797 16.7542 11.9166 16.9453 11.9166 17.1416L11.9184 18.3333H10.0832V17.1416C10.0831 16.9453 10.02 16.7542 9.90321 16.5965C9.78638 16.4387 9.62199 16.3226 9.43423 16.2653C8.61703 16.0112 7.86928 15.5724 7.2489 14.9829C7.10618 14.8458 6.92261 14.759 6.72608 14.7356C6.52954 14.7123 6.33075 14.7537 6.1599 14.8536L5.11123 15.4605L4.19457 13.8756L5.2249 13.2788C5.39741 13.1794 5.53285 13.0265 5.61075 12.8432C5.68865 12.66 5.70476 12.4564 5.65665 12.2631Z" fill="#F5F4FF"/>
</svg>
