<svg width="22" height="22" viewBox="0 0 22 22" fill="none" xmlns="http://www.w3.org/2000/svg">
<path d="M8.25016 18.3333H13.7502V20.1667H8.25016V18.3333ZM15.4973 12.5693C16.4415 11.4638 17.4168 10.3208 17.4168 8.25001C17.4168 4.71259 14.5376 1.83334 11.0002 1.83334C7.46275 1.83334 4.5835 4.71259 4.5835 8.25001C4.5835 10.3446 5.56158 11.484 6.50941 12.5858C6.83758 12.969 7.17766 13.3659 7.50308 13.8224C7.63508 14.0113 7.85141 14.7354 8.04483 15.5833H7.3335V17.4167H14.6668V15.5833H13.9573C14.1526 14.7336 14.3698 14.0076 14.5009 13.8188C14.8236 13.3577 15.1664 12.9571 15.4973 12.5693ZM13.0003 12.7646C12.6025 13.3302 12.2707 14.6667 12.0782 15.5833H9.92308C9.7315 14.6648 9.39875 13.3256 8.99633 12.76C8.65236 12.2873 8.28651 11.8309 7.9 11.3923C7.00716 10.3528 6.41683 9.66534 6.41683 8.25001C6.41683 5.72276 8.47291 3.66668 11.0002 3.66668C13.5274 3.66668 15.5835 5.72276 15.5835 8.25001C15.5835 9.64426 14.9941 10.3345 14.1031 11.3786C13.7612 11.7801 13.3734 12.2338 13.0003 12.7646Z" fill="#F5F4FF"/>
</svg>
